<?xml version="1.0" encoding="UTF-8" standalone="no"?>
<svg
   xmlns:dc="http://purl.org/dc/elements/1.1/"
   xmlns:cc="http://creativecommons.org/ns#"
   xmlns:rdf="http://www.w3.org/1999/02/22-rdf-syntax-ns#"
   xmlns:svg="http://www.w3.org/2000/svg"
   xmlns="http://www.w3.org/2000/svg"
   width="50"
   height="50"
   viewBox="0 0 13.229167 13.229167"
   version="1.1"
   id="svg4062">
  <defs
     id="defs4056" />
  <metadata
     id="metadata4059">
    <rdf:RDF>
      <cc:Work
         rdf:about="">
        <dc:format>image/svg+xml</dc:format>
        <dc:type
           rdf:resource="http://purl.org/dc/dcmitype/StillImage" />
        <dc:title></dc:title>
      </cc:Work>
    </rdf:RDF>
  </metadata>
  <g
     id="layer1"
     transform="matrix(1.5944049,0,0,1.5944049,-99.451361,-99.579073)">
    <path
       style="fill:#1f8cef;fill-opacity:0.94117647;stroke-width:0.31381062"
       d="m 253.0918,237.54688 c -7.65697,0 -13.90129,6.08755 -14.15235,13.65039 h 0.78321 c 0.2824,-7.15491 6.18274,-12.86524 13.40039,-12.86524 4.11092,0 7.814,1.88234 10.26172,4.80078 l 0.5332,-0.56445 c -2.60465,-3.07536 -6.49557,-5.02148 -10.82617,-5.02148 z m 0.12695,1.85156 c -6.77829,0 -12.33398,5.5223 -12.33398,12.33203 0,6.77828 5.52428,12.33398 12.33398,12.33398 3.45193,0 6.58823,-1.44344 8.84766,-3.76562 l 0.7539,0.7832 c -2.44772,2.51051 -5.8379,4.04883 -9.57226,4.04883 -7.15486,0 -12.9906,-5.61697 -13.36719,-12.67774 h -0.78516 c 0.37656,7.5001 6.58952,13.4629 14.15235,13.4629 3.95401,0 7.56348,-1.63159 10.13672,-4.26758 0.18833,-0.18822 0.3449,-0.37807 0.5332,-0.56641 l -0.5332,-0.56445 -0.91016,-0.81641 -0.5332,-0.56445 -0.78516,-0.81445 -0.5332,-0.56641 c -0.15689,0.18822 -0.34508,0.40741 -0.50196,0.5957 -1.69459,1.75733 -4.01646,2.91953 -6.62109,3.01367 v 0.78516 c 2.82429,-0.0941 5.33602,-1.31832 7.1875,-3.20117 l 0.75195,0.7832 c -2.10252,2.16529 -5.05292,3.54688 -8.28515,3.54688 -6.37037,0 -11.54688,-5.17848 -11.54688,-11.54883 0,-6.37036 5.17651,-11.54688 11.54688,-11.54688 3.32639,0 6.33887,1.41228 8.4414,3.70313 l -0.75195,0.78516 c -1.82009,-2.00841 -4.42543,-3.26511 -7.3125,-3.39063 v 0.78516 c 2.69877,0.0941 5.08278,1.31844 6.77734,3.16992 l -0.7832,0.81445 c -1.56904,-1.75733 -3.82937,-2.85547 -6.33984,-2.85547 -4.70717,0 -8.53516,3.82798 -8.53516,8.53516 0,4.70717 3.82799,8.53711 8.53516,8.53711 2.44771,0 4.64577,-1.036 6.21484,-2.69922 0.18833,-0.18822 0.34309,-0.37589 0.5,-0.5957 l -0.53125,-0.56641 c -0.15689,0.21959 -0.3156,0.40936 -0.50391,0.59766 -1.41213,1.53766 -3.41843,2.47851 -5.64648,2.47851 -4.26782,0 -7.75195,-3.48415 -7.75195,-7.75195 0,-4.26784 3.48413,-7.75 7.75195,-7.75 2.32221,0 4.3906,1.03631 5.80273,2.63672 0.18834,0.18822 0.34701,0.40728 0.50391,0.62695 l 0.5332,-0.56445 0.78516,-0.81641 0.56445,-0.56445 0.78516,-0.81641 0.5332,-0.56445 c -0.15692,-0.21959 -0.34492,-0.40741 -0.5332,-0.5957 -2.25945,-2.41633 -5.45992,-3.92383 -8.97461,-3.92383 z m -0.87891,1.94726 c -5.39754,0.40793 -9.66601,4.89308 -9.66601,10.38477 0,5.49165 4.26847,10.01013 9.66601,10.38672 v -0.78321 c -4.95823,-0.40796 -8.88281,-4.55115 -8.88281,-9.60351 0,-5.05236 3.92459,-9.22501 8.88281,-9.60156 z"
       transform="scale(0.26458333)"
       id="path2008" />
  </g>
</svg>
