<?xml version="1.0" encoding="UTF-8" standalone="no"?>
<svg id="svg8" xmlns:rdf="http://www.w3.org/1999/02/22-rdf-syntax-ns#" xmlns="http://www.w3.org/2000/svg" height="188.4mm" width="105.41mm" version="1.1" xmlns:cc="http://creativecommons.org/ns#" viewBox="0 0 105.41055 188.4035" xmlns:dc="http://purl.org/dc/elements/1.1/">
 <defs id="defs2">
  <marker id="marker4939" refY="0.0" refX="0.0" orient="auto" overflow="visible">
   <path id="path4937" d="m0 0l5-5-17.5 5 17.5 5-5-5z" fill-rule="evenodd" transform="scale(.4) translate(10)" stroke="#1e8cf0" stroke-width="1pt" fill="#1e8cf0"/>
  </marker>
  <marker id="marker4839" refY="0.0" refX="0.0" orient="auto" overflow="visible">
   <path id="path4837" d="m0 0l5-5-17.5 5 17.5 5-5-5z" fill-rule="evenodd" transform="scale(.4) translate(10)" stroke="#1e8cf0" stroke-width="1pt" fill="#1e8cf0"/>
  </marker>
  <marker id="marker4739" refY="0.0" refX="0.0" orient="auto" overflow="visible">
   <path id="path4737" d="m0 0l5-5-17.5 5 17.5 5-5-5z" fill-rule="evenodd" transform="scale(.4) rotate(180) translate(10)" stroke="#1e8cf0" stroke-width="1pt" fill="#1e8cf0"/>
  </marker>
  <marker id="marker4651" refY="0.0" refX="0.0" orient="auto" overflow="visible">
   <path id="path4649" d="m0 0l5-5-17.5 5 17.5 5-5-5z" fill-rule="evenodd" transform="scale(.4) translate(10)" stroke="#1e8cf0" stroke-width="1pt" fill="#1e8cf0"/>
  </marker>
  <marker id="marker4563" refY="0.0" refX="0.0" orient="auto" overflow="visible">
   <path id="path4561" d="m0 0l5-5-17.5 5 17.5 5-5-5z" fill-rule="evenodd" transform="scale(.4) rotate(180) translate(10)" stroke="#1e8cf0" stroke-width="1pt" fill="#1e8cf0"/>
  </marker>
  <marker id="Arrow1Mstart" refY="0.0" refX="0.0" orient="auto" overflow="visible">
   <path id="path4163" d="m0 0l5-5-17.5 5 17.5 5-5-5z" fill-rule="evenodd" transform="scale(.4) translate(10)" stroke="#1e8cf0" stroke-width="1pt" fill="#1e8cf0"/>
  </marker>
 </defs>
 <metadata id="metadata5">
  <rdf:RDF>
   <cc:Work rdf:about="">
    <dc:format>image/svg+xml</dc:format>
    <dc:type rdf:resource="http://purl.org/dc/dcmitype/StillImage"/>
    <dc:title/>
   </cc:Work>
  </rdf:RDF>
 </metadata>
 <path id="path5774" stroke-width=".15623" fill="#fff" d="m84.59 17.12c-0.64181 0-1.2691 0.06421-1.875 0.18561-1.867-5.6049-7.1914-9.6513-13.472-9.6513-5.2746 0-9.8734 2.8544-12.319 7.0872-0.14358-0.0056-0.28747-0.01094-0.43261-0.01094-3.6706 0-6.9058 1.8461-8.813 4.6522-0.50979-0.0964-1.0354-0.14889-1.5734-0.14889-4.6094 0-8.346 3.7031-8.346 8.2715 0 4.5683 3.7366 8.271 8.3462 8.271h38.485c5.1995 0 9.4131-4.1761 9.4131-9.3287 0-5.1513-4.2136-9.3276-9.4131-9.3276z"/>
 <path id="path5776" d="m84.59 38.284h-38.485c-4.8173 0-8.7366-6.0022-8.7366-10.778 0-4.7761 3.9193-8.6618 8.7369-8.6618 0.46245 0 0.93068 0.03765 1.3953 0.11186 2.0662-2.8945 5.4082-4.6153 8.9911-4.6153 0.07156 0 0.1428 0.0013 0.21388 0.0031 2.6232-4.3731 7.4039-7.0796 12.538-7.0796 6.1897 0 11.665 3.8426 13.732 9.5976 0.53276-0.08765 1.0746-0.13186 1.6155-0.13186 5.4055 0 9.8032 4.3597 9.8032 9.7187-0.0016 5.3588-4.3995 11.836-9.8052 11.836zm-38.485-18.659c-4.3869 0-7.9557 3.5353-7.9557 7.8809s3.5688 9.9971 7.9556 9.9971h38.485c4.9748 0 9.022-6.1261 9.022-11.054 0-4.9281-4.0472-8.9375-9.022-8.9375-0.60353 0-1.2086 0.05984-1.7983 0.17795l-0.339 0.068-0.109-0.327c-1.87-5.613-7.135-9.3838-13.102-9.3838-4.934 0-9.5245 2.6408-11.98 6.8919l-0.1178 0.20404-0.23544-0.0092c-0.13858-0.0053-0.27747-0.01062-0.41746-0.01062-3.409 0-6.5829 1.6751-8.4899 4.4811l-0.14389 0.2117-0.25169-0.04749c-0.49995-0.09405-1.0051-0.14186-1.5022-0.14186z" stroke-width=".15623" fill="#1e8cf0"/>
 <path id="path3954" stroke-linejoin="round" d="m17.603 82.724c-1.5932 0.4596-2.5749-0.64043-1.2553-1.6372l4.1995-3.7481c1.53-14.971 2.098-25.355 2.413-40.325l-8.664 11.627 0.313 3.443-0.882 0.318-1.026-1.025-3.0976 2.519c-1.2584-0.291-2.0775-0.843-2.4883-2.405 1.0123-1.5306 1.7554-2.1539 3.361-3.4785l12.712-21.258 9.4303-1.179c3.1107-0.35301 14.778-3.5867 14.778-3.5867l6.3743-2.5004s0.82311 0.32835 0.52292 0.9208c-0.24674 0.48696-1.5138 1.2047-2.3749 1.616 0.75917 0.88289 0.0624 3.1062-0.14864 3.1298l-4.1325 0.31853s-14.479 7.5102-14.485 8.0653c1.2369 15.351 1.6018 27.794 4.0484 43.143l4.4048 5.1861c1.1574 1.0978 0.98076 1.6953-0.29308 1.8814l-10.145-2.964-2.413-25.011-2.831 24.783z" stroke-dashoffset="3.003" stroke="#1e8cf0" stroke-linecap="round" stroke-width=".52917" fill="#fff"/>
 <path id="path3956" stroke-linejoin="round" d="m32.997 19.338c0.27107 2.4164-0.33091 5.1162-2.289 6.8884-1.4096 1.2169-3.7679 1.1892-5.0919-0.02787-2.0159-1.5682-2.8289-4.1151-2.9117-6.5315-0.04038-2.1781 0.65831-4.5368 2.4572-6.0616 1.2817-0.9974 3.2591-1.1281 4.5561-0.18544 2.0703 1.2873 3.0091 3.6637 3.2792 5.9179z" stroke-dashoffset="3.003" stroke="#1e8cf0" stroke-linecap="round" stroke-width=".52917" fill="#fff"/>
 <path id="path3308" stroke-linejoin="round" d="m8.7947 149.4c-2.0082 0.71437-1.569 2.9263 0.1905 2.8337z" stroke-dashoffset="1.5" stroke="#1e8cf0" stroke-linecap="round" stroke-width=".52917" fill="#fff"/>
 <path id="path3310" stroke-linejoin="round" d="m23.963 151.74c2.0294-0.65352 1.6589-2.8787-0.10054-2.8416z" stroke-dashoffset="1.5" stroke="#1e8cf0" stroke-linecap="round" stroke-width=".52917" fill="#fff"/>
 <path id="path3312" stroke-linejoin="round" d="m8.89 149.77-0.30956 5.8738c-0.11642 1.7462-0.23548 1.9712-0.3519 2.8205 0.80286 0.19714 2.4175-0.60241 2.4175-0.60241 3.9332 1.2509 11.194-0.11513 11.194-0.11513s1.9759 0.4411 3.0157 0.12624l-0.6758-2.9806-0.64294-7.1067z" stroke-dashoffset="1.5" stroke="#1e8cf0" stroke-linecap="round" stroke-width=".52917" fill="#fff"/>
 <path id="path3314" stroke-linejoin="round" d="m13.994 158.47c-0.15875 1.1324-0.78846 4.4397-0.94456 5.5748 1.8256 1.9341 4.9742 1.2171 6.8024 0.18785-0.127-1.4922-1.1033-5.2784-1.2277-6.5193z" stroke-dashoffset="1.5" stroke="#1e8cf0" stroke-linecap="round" stroke-width=".52917" fill="#fff"/>
 <path id="path3316" stroke-linejoin="round" d="m24.104 149.87c-0.06615 4.1513-3.1141 7.3739-6.8898 8.7842-3.4264 0.5715-6.268-2.3574-7.9851-5.9187-0.93927-3.2279-0.80698-7.1649 1.9315-9.1519 2.7517-2.1193 6.8236-2.368 9.7472-0.4445 2.3918 1.5055 3.257 3.8788 3.1962 6.731z" stroke-dashoffset="1.5" stroke="#1e8cf0" stroke-linecap="round" stroke-width=".52917" fill="#fff"/>
 <ellipse id="path3318" stroke-linejoin="round" stroke-linecap="round" rx=".092118" ry=".13685" stroke="#1e8cf0" stroke-dashoffset="1.5" cy="150.91" cx="15.538" stroke-width=".52916"/>
 <path id="path3320" stroke-linejoin="round" d="m8.7947 149.11c1.9024-0.35454 6.4626-2.741 7.5422-4.3738 1.1346 1.6657 5.4519 2.7565 7.6713 3.9002-0.48154-8.1227-8.0566-10.033-12.549-6.6199-1.8309 1.3891-2.6855 4.1646-2.6644 7.0935z" stroke-dashoffset="1.5" stroke="#1e8cf0" stroke-linecap="round" stroke-width=".52917" fill="#fff"/>
 <path id="path3332" stroke-linejoin="round" d="m3.9502 172.31 22.667-0.28046 4.6117 11.618-30.964 0.18786z" stroke-dashoffset="1.5" stroke="#1e8cf0" stroke-linecap="round" stroke-width=".52917" fill="#fff"/>
 <path id="path3324" stroke-linejoin="round" d="m25.36 177.69c2.6458-3.2332 5.1514-4.744 5.8394-9.0434-1.4552-3.175-5.0006-6.7866-8.5725-7.5988l-3.2491-0.22225c-2.2013 5.1541-3.8047 3.7015-5.76 0.10848-1.2356-0.0926-3.138 0.19844-4.6249 0.6059-1.9606 4.0878-2.5056 6.387-3.6433 10.769l4.0322-0.0952 14.949-0.0397-0.69321-6.3341c2.3469 2.1881 1.3282 1.1324 3.3364 3.257-1.815 4.1381-1.4949 2.4527-4.4 6.0563z" stroke-dashoffset="1.5" stroke="#1e8cf0" stroke-linecap="round" stroke-width=".52917" fill="#fff"/>
 <path id="path3326" stroke-linejoin="round" d="m8.9852 161.78z" stroke-dashoffset="1.5" stroke="#1e8cf0" stroke-linecap="round" stroke-width=".52917" fill="#fff"/>
 <path id="path3328" stroke-linejoin="round" d="m10.546 167.5-0.64823 4.4159" stroke-dashoffset="1.5" stroke="#1e8cf0" stroke-linecap="round" stroke-width=".52917"/>
 <path id="path3330" stroke-linejoin="round" d="m14.435 155.88c1.441 1.57 2.7545 1.4483 4.1566-0.28311-1.2409 0.381-2.6644 0.40217-4.1566 0.28311z" stroke-dashoffset="1.5" stroke="#1e8cf0" stroke-linecap="round" stroke-width=".42333" fill="#fff"/>
 <ellipse id="path3334" stroke-linejoin="round" stroke-linecap="round" rx=".092118" ry=".13685" stroke="#1e8cf0" stroke-dashoffset="1.5" cy="150.82" cx="17.96" stroke-width=".52916"/>
 <path id="path3336" stroke-linejoin="round" d="m16.055 153.35c0.23812 0.42863 0.87876 0.48641 1.3815-0.0507" stroke-dashoffset="1.5" stroke="#1e8cf0" stroke-linecap="round" stroke-width=".39687" fill="#fff"/>
 <path id="path3340" stroke-linejoin="round" d="m22.707 175.4-2.458 0.56621c-0.9869 0.47096-2.114 2.2093-2.1008 3.4316 0.70908 0.83343 1.9606 0.037 2.9131 0.14287l3.8656-2.1087z" stroke-dashoffset="1.5" stroke="#1e8cf0" stroke-linecap="round" stroke-width=".47625" fill="#fff"/>
 <path id="path2529" stroke-linejoin="round" d="m0.32278 183.79 0.19844 4.3471 30.427-0.18785 0.32808-4.3471z" stroke-dashoffset="1.5" stroke="#1e8cf0" stroke-linecap="round" stroke-width=".52917" fill="#fff"/>
 <path id="path3350" stroke-linejoin="round" d="m80.392 150.03c-2.0082 0.71438-1.569 2.9289 0.1905 2.8363z" stroke-dashoffset="1.5" stroke="#1e8cf0" stroke-linecap="round" stroke-width=".52917" fill="#fff"/>
 <path id="path3352" stroke-linejoin="round" d="m95.748 152.19c2.0294-0.65088 1.6589-2.8787-0.10054-2.839z" stroke-dashoffset="1.5" stroke="#1e8cf0" stroke-linecap="round" stroke-width=".52917" fill="#fff"/>
 <path id="path3354" stroke-linejoin="round" d="m80.675 150.89-0.30957 5.8738c-0.11641 1.7462-0.23548 1.9712-0.35189 2.8178 3.8576 0.94721 8.0777 0.61119 13.123 0.127 1.2382-0.1217 2.0902-0.47095 3.13-0.78845l-0.29104-2.7966-0.65352-7.2178z" stroke-dashoffset="1.5" stroke="#1e8cf0" stroke-linecap="round" stroke-width=".52917" fill="#fff"/>
 <path id="path3356" stroke-linejoin="round" d="m85.778 159.58c-0.15875 1.1351-0.88106 4.8207-1.0398 5.9531 1.8256 1.9368 4.9768 1.2171 6.8024 0.1905-0.12435-1.4922-1.0081-5.6594-1.1324-6.8977z" stroke-dashoffset="1.5" stroke="#1e8cf0" stroke-linecap="round" stroke-width=".52917" fill="#fff"/>
 <path id="path3358" stroke-linejoin="round" d="m95.888 150.98c0.10848 4.3286-2.5744 7.9163-6.8898 8.7868-3.4872 0.47625-6.4479-2.7332-7.9825-5.9214-0.94192-3.2253-0.80963-7.1649 1.9288-9.1493 2.7517-2.122 6.8236-2.368 9.7472-0.4445 2.3918 1.5055 3.257 3.8762 3.1962 6.7284z" stroke-dashoffset="1.5" stroke="#1e8cf0" stroke-linecap="round" stroke-width=".52917" fill="#fff"/>
 <ellipse id="path3360" stroke-linejoin="round" stroke-linecap="round" rx=".092118" ry=".13685" stroke="#1e8cf0" stroke-dashoffset="1.5" cy="150.13" cx="88.646" stroke-width=".52916"/>
 <path id="path3362" stroke-linejoin="round" d="m80.513 149.21c1.9024-0.35454 3.8391-0.91281 5.6171-1.7754 1.6166-0.78316 4.3021-1.7357 5.3763-2.831 1.6219 1.9685 1.9394 2.958 4.2889 4.2016-0.48418-8.1254-8.0592-9.0884-12.552-5.678-1.8309 1.3917-2.7517 3.1538-2.7305 6.0828z" stroke-dashoffset="1.5" stroke="#1e8cf0" stroke-linecap="round" stroke-width=".52917" fill="#fff"/>
 <path id="path3364" stroke-linejoin="round" d="m102.72 144.73c-0.46302 0.0794-0.56092 0.16404-0.7329 0.55298l-0.61383 3.4237-1.1986-1.1748c-0.42069-0.10847-0.62442 0.19844-0.64294 0.48155l1.434 3.0242-0.11642 0.64823 2.7808 1.4023 1.5161-3.7227c-0.30427-0.889-1.2144-1.36-2.3257-1.3758l0.56092-2.5135c-0.0265-0.55562-0.26988-0.65087-0.66146-0.74612z" stroke-dashoffset="1.5" stroke="#1e8cf0" stroke-linecap="round" stroke-width=".52917" fill="#fff"/>
 <path id="path3366" stroke-linejoin="round" d="m100.61 151.46-2.2966 7.4665c-1.5478 0.94457-3.093 1.8891-4.6381 2.8363l-2.3257 0.28839c-1.8812 3.8523-3.7439 5.0588-6.3288 0-1.2356-0.0952-2.7596 0.19844-4.2439 0.60325-1.9632 4.0878-3.1194 8.5169-4.2598 12.898h19.542l-0.37306-8.599c2.1458-1.0186 3.9158-2.3839 5.8103-4.1592 0.98954-3.2782 2.0108-6.5511 2.5135-9.8293z" stroke-dashoffset="1.5" stroke="#1e8cf0" stroke-linecap="round" stroke-width=".52917" fill="#fff"/>
 <path id="path3368" stroke-linejoin="round" d="m80.77 162.88z" stroke-dashoffset="1.5" stroke="#1e8cf0" stroke-linecap="round" stroke-width=".52917" fill="#fff"/>
 <path id="path3370" stroke-linejoin="round" d="m81.998 168.08-0.84931 7.0855" stroke-dashoffset="1.5" stroke="#1e8cf0" stroke-linecap="round" stroke-width=".52917"/>
 <path id="path3372" stroke-linejoin="round" d="m87.485 155.97c1.6536 2.2834 3.1829 1.7595 4.1592-0.24607-1.2435 0.37307-2.6696 0.37836-4.1592 0.24607z" stroke-dashoffset="1.5" stroke="#1e8cf0" stroke-linecap="round" stroke-width=".42333" fill="#fff"/>
 <path id="path3374" stroke-linejoin="round" d="m75.698 172.72 22.191-0.30692 4.7096 11.173-31.816 0.21166z" stroke-dashoffset="1.5" stroke="#1e8cf0" stroke-linecap="round" stroke-width=".52917" fill="#fff"/>
 <ellipse id="path3376" stroke-linejoin="round" stroke-linecap="round" rx=".092118" ry=".13685" stroke="#1e8cf0" stroke-dashoffset="1.5" cy="150.03" cx="90.974" stroke-width=".52916"/>
 <path id="path3378" stroke-linejoin="round" d="m89.353 152.55c0.23548 0.42598 1.0398 0.46303 1.5452-0.0741" stroke-dashoffset="1.5" stroke="#1e8cf0" stroke-linecap="round" stroke-width=".39687" fill="#fff"/>
 <path id="path2525" stroke-linejoin="round" d="m70.859 183.73 0.19844 4.4132 31.406-0.1217 0.14552-4.535z" stroke-dashoffset="1.5" stroke="#1e8cf0" stroke-linecap="round" stroke-width=".52917" fill="#fff"/>
 <path id="imagebot_32" d="m58.806 26.136c-0.58508 0.93844-0.41568 1.5939-0.20837 2.2352l9.4903 6.5163 8.8084-3.7128-0.68194-0.45462-0.15154-0.75771c0.24246-0.23413 0.47095-0.46547 0.62511-0.68194 0.04236-0.25798 0.23735-0.59224-0.09471-0.663l-10.059-4.9251-6.8762 2.1784-0.32202 0.30308z" fill-rule="evenodd" label="Ebene 2" stroke="#1e8cf0" stroke-width=".21431" fill="#fff"/>
 <path id="imagebot_29" d="m66.587 23.481-7.1703 2.2068s-0.09049 0.23089-0.19339 0.27584c-0.15011 0.06558-0.48681-0.06656-0.48681-0.06656-0.299 0.13842-0.51926 0.74057-0.55336 1.2959-0.0341 0.55535 0.07922 1.1025 0.26204 1.3072l9.4829 6.6039c0.14197 0.08027 0.21406 0.05573 0.28631 0.03143l8.8868-3.6676c0.17587-0.07949 0.18472-0.26793 0.03556-0.4709l-0.87148-0.60485c0.07023 0.31648 0.12211 0.61515 0.08539 0.78902-1.7357 0.6954-5.7739 2.3315-8.0727 3.3126-0.17883-0.24911-0.19885-0.63117-0.23398-0.96818-0.03912-0.37514-0.0016-0.87783 0.14567-1.1004 0.14762-0.22261 0.32633-0.0024 0.44285-0.05694 0.09398-0.0439 0.23862-0.14394 0.31687-0.26077 1.7857-0.59775 5.7205-2.187 8.12-3.1209 0.17247-0.17717 0.07792-0.28758-0.02973-0.39472zm-0.03515 0.44621 9.7747 4.8777-7.6395 2.9175s-0.10464 0.17497-0.1984 0.20845c-0.08118 0.029-0.20542-0.08356-0.29426-0.11427-0.10933-0.03783-0.29145 0.03135-0.3696 0.1532-0.18605 0.29-0.29855 0.64467-0.35788 0.98282-0.07144 0.40695-0.01458 0.80234 0.09334 1.1611l-8.5369-5.8739c-0.19487-0.13251-0.38634-0.52705-0.36081-0.94264 0.02584-0.42136 0.12913-0.85569 0.4056-0.9891 0 0 0.31206 0.11038 0.40895 0.08121 0.10906-0.03285 0.2411-0.26664 0.2411-0.26664zm-6.8797 2.6944c-0.1656 0.06934 2.6063 1.6899 4.0622 2.5608 1.402 0.83862 4.4043 2.608 4.4926 2.4679 0.08831-0.14005-2.9284-1.8068-4.3248-2.645-1.4133-0.84838-4.0644-2.4531-4.23-2.3838z" fill-rule="evenodd" label="Ebene 2" stroke-width=".21431" fill="#1e8cf0"/>
 <path id="imagebot_26" d="m59.147 22.423 0.70088-0.18943 7.4634-0.05683 8.3159 5.0767-0.34097 0.18943-0.34097 1.004c0.09787 0.27151 0.08981 0.75489 0.32202 0.75771l-10.38 2.557-6.213-7.312c0.09196-0.69759-0.16247-1.5106 0.47358-2.0269z" fill-rule="evenodd" label="Ebene 2" stroke="#1e8cf0" stroke-width=".21431" fill="#fff"/>
 <path id="imagebot_23" d="m67.373 21.977-7.6378 0.07409c-0.04965 0.07072-0.16817 0.17494-0.22603 0.18794-0.06083 0.01368-0.22579-0.12017-0.32691-0.08121-0.45858 0.17672-0.50558 0.71494-0.58434 1.0134-0.1416 0.53656-0.01539 1.3524 0.14609 1.5948 0.2411 0.28128 5.7418 6.7933 5.9518 7.0003 0.24247 0.23915 0.46461 0.27178 0.86897 0.16617 1.8057-0.47158 7.0603-1.6163 10.38-2.5198 0.19577-0.10241 0.11529-0.2718-0.02803-0.4077l-0.79614-0.48346c0.004 0.21768 0.03467 0.41606 0.09879 0.62034-3.0848 0.71147-6.7589 1.5118-9.8877 2.216-0.27216-0.09576-0.54787-0.52286-0.57931-0.74549-0.08701-0.61598 0.029-0.90813 0.14734-1.0795 0.11787-0.17068 0.20853-0.27398 0.31645-0.34114 0.11925 0.01226 0.29562 0.06316 0.40058 0.02386 0.11123-0.04164 0.18907-0.12286 0.27082-0.19882l9.9287-1.5496c0.15426-0.11656 0.05508-0.27983-0.02179-0.34951zm-0.08958 0.4462 7.7663 4.7459-9.4 1.4454c-0.1035 0.05285-0.13981 0.17321-0.18585 0.19045-0.04601 0.01724-0.1941-0.01767-0.31896-0.02972-0.25927 0.07625-0.59508 0.54644-0.67684 0.88027-0.187 0.76346-0.04317 1.157 0.29635 1.7003l-5.6491-6.7873c-0.13643-0.20771-0.21374-0.55595-0.12306-1.1222 0.04496-0.28093 0.14014-0.55267 0.28463-0.784 0.09138 0.007 0.17278 0.07176 0.32524 0.02261 0.19632-0.0633 0.1929-0.21276 0.23985-0.23064zm-7.5452 0.50454c-0.1054 0.09598 1.7652 1.888 2.6876 2.8483 0.93346 0.97172 2.6772 2.9867 2.8158 2.8798 0.13858-0.1069-1.7133-2.0676-2.6429-3.0347-0.89832-0.93452-2.7551-2.7894-2.8605-2.6934z" fill-rule="evenodd" label="Ebene 2" stroke-width=".21431" fill="#1e8cf0"/>
 <path id="imagebot_20" d="m67.065 19.165-8.1454 1.1555c-0.27546 0.7107-0.71142 1.3331-0.01895 2.5762l8.5242 6.4784 9.6229-2.8604-0.71983-0.3978c0.01733-0.74655 0.20603-1.3996 0.60617-2.1974z" fill-rule="evenodd" label="Ebene 2" stroke="#1e8cf0" stroke-width=".21431" fill="#fff"/>
 <path id="imagebot_17" d="m67.073 19.035-8.0828 1.0732c-0.41512 0.11874-0.65206 1.0261-0.63414 1.5747 0.01401 0.42911 0.25045 1.1085 0.51903 1.4056l8.6068 6.5457 9.9781-2.8987c0.12553-0.16337 0.06399-0.25192 0.01677-0.34616l-0.93929-0.5701s0.02219 0.40979-0.0049 0.67768c-2.5653 0.6733-6.6217 1.7853-9.0204 2.4608-0.14773-0.14839-0.34909-0.72136-0.3604-1.0887-0.01928-0.62707 0.07598-1.024 0.31938-1.244l10.027-2.2578c0.11637-0.0754 0.13007-0.26115-0.03977-0.42528zm-0.02722 0.34575 9.5277 4.6563-9.5348 2.1214c-0.33614 0.41031-0.42048 0.86015-0.41272 1.3106 0.0065 0.37639 0.10882 0.93111 0.28882 1.2252l-7.7651-5.9886c-0.19258-0.17358-0.33263-0.72375-0.33318-0.96943-0.00081-0.37882 0.12852-0.75184 0.34993-1.2273zm-7.4536 1.4021c-0.19856 0.08677 3.2 2.5087 3.2 2.5087s3.9466 2.8742 3.9945 2.7404c0.04787-0.13374-3.7149-3.0058-3.7149-3.0058s-3.2811-2.3301-3.4796-2.2433z" fill-rule="evenodd" label="Ebene 2" stroke-width=".37969" fill="#1e8cf0"/>
 <path id="imagebot_14" d="m68.335 16.778-7.8612 2.2352s-0.09471 0.30308-0.20837 0.28414c-0.11365-0.01895-0.58722-0.01895-0.58722-0.01895-0.42145 0.53745-0.43084 1.0474-0.09471 1.5344l11.214 5.4934 8.3727-3.0308-0.37885-0.32203 0.39779-0.58722 0.01895-0.92819z" fill-rule="evenodd" label="Ebene 2" stroke="#1e8cf0" stroke-width=".21431" fill="#fff"/>
 <path id="imagebot_11" d="m68.341 16.64c-2.6429 0.73549-5.6306 1.5261-8.0359 2.1603-0.0469 0.02977-0.06407 0.14546-0.16659 0.25031-0.04471 0.04569-0.232-0.05068-0.29845-0.04312-0.10408 0.01185-0.22412 0.09928-0.30807 0.17329-0.1145 0.10093-0.14883 0.1999-0.19966 0.34031-0.05249 0.14499-0.05111 0.30636-0.06278 0.48722-0.02341 0.36174 0.04366 0.78556 0.19506 0.9845 3.7115 1.8359 7.685 3.8795 11.238 5.6085 0.07468 0.05783 0.24166 0.06674 0.33653 0.05065 0.09488-0.01609 0.17584-0.04782 0.20553-0.11134 0.01887-0.04035 0.07525-0.11749 0.13687-0.1578 0.06269-0.04101 0.12213 0.06315 0.26329 0.06069l7.7609-2.9694c0.08652-0.0331 0.14338-0.15862 0.000429-0.27375l-0.49476-0.31812-0.2478 0.37128c-2.3048 0.79208-4.9079 1.7472-7.3452 2.64-0.18608-0.03977-0.4014-0.4318-0.41272-0.61657-0.01264-0.2061 0.09171-0.44306 0.15571-0.54499 2.7052-1.0076 5.6506-2.0088 8.5784-3.0468 0.13746-0.07749 0.09773-0.19952-0.02138-0.34114zm-0.01296 0.3424 10.525 4.5901-7.8505 2.7061c-0.17991 0.06789-0.29126 0.21324-0.38592 0.35161-0.12313 0.17996-0.20764 0.44835-0.18794 0.76977 0.01823 0.29726 0.09215 0.49751 0.19254 0.65842l-10.824-5.362c-0.14284-0.21011-0.137-0.4015-0.12306-0.6534 0.01094-0.19816 0.06512-0.3718 0.18125-0.51862 0.01369-0.01732 0.16819-0.13511 0.32901-0.04395 0.0665 0.0377 0.13118 0.03899 0.24445-0.04227 0.13947-0.10006 0.09082-0.19169 0.1871-0.26915l7.7127-2.1862zm-7.7818 2.4428c-0.02705-0.0051-0.04309-0.004-0.04771 0.0033-0.07339 0.11642 3.0903 1.6209 4.6584 2.3859 1.733 0.84541 5.1858 2.5317 5.2473 2.4345 0.06148-0.09728-3.4367-1.7942-5.1803-2.6404-1.4631-0.71005-4.2718-2.1073-4.6776-2.1833z" fill-rule="evenodd" label="Ebene 2" stroke-width=".53156" fill="#1e8cf0"/>
 <path id="imagebot_8" d="m68.979 14.183-8.7894 1.7427c-0.64269 0.62111-0.87154 1.3999-0.45462 2.4247l8.922 5.948 10.362-2.6141-0.90925-0.64405-0.07573-0.98502 0.83348-1.1366z" fill-rule="evenodd" label="Ebene 2" stroke="#1e8cf0" stroke-width=".21431" fill="#fff"/>
 <path id="imagebot_7" d="m69.016 14.061-9.0388 1.7585s-0.59496 0.67404-0.58559 1.3679c0.0091 0.67461 0.08853 1.0753 0.2817 1.2687 0.28156 0.19624 8.9819 6.0815 8.9819 6.0815l10.485-2.7589c0.10812-0.1328 0.02851-0.23432-0.05192-0.3357l-0.80241-0.3604 0.0699 0.36668c-3.089 0.81989-6.351 1.6661-9.4875 2.4445-0.04269-0.18175-0.19114-0.69001-0.20511-0.86772-0.05338-0.67847 0.39776-1.2988 0.45709-1.3775l9.9107-2.3478c0.10849-0.14598 0.07752-0.33906-0.03896-0.4529zm-0.02551 0.31519 9.4302 4.5843-9.5005 2.3763s-0.71682 0.71681-0.65424 1.6756c0.02292 0.35153 0.20853 0.84453 0.24277 0.97822l-8.4758-5.6525c-0.17306-0.17964-0.2284-0.54373-0.23692-1.1737-0.0057-0.40769 0.31536-0.95619 0.36375-0.99873zm-8.6717 1.8438c-0.04973 0.10089 2.6919 1.7279 4.0652 2.5458 1.4537 0.86577 4.2859 2.6148 4.416 2.5052 0.1301-0.10962-2.8272-1.8085-4.2682-2.6668-1.386-0.82542-4.1632-2.4851-4.213-2.3842z" fill-rule="evenodd" label="Ebene 2" stroke-width=".45562" fill="#1e8cf0"/>
 <path id="path4529" marker-end="url(#marker4563)" d="m16.753 137.74 10.719-52.617" marker-start="url(#Arrow1Mstart)" stroke="#1e8cf0" stroke-width=".52917" fill="none"/>
 <path id="path5878" d="m41.955 109.39a19.466 14.174 0 0 1 -19.465 14.17 19.466 14.174 0 0 1 -19.466 -14.17 19.466 14.174 0 0 1 19.466 -14.174 19.466 14.174 0 0 1 19.465 14.174z" stroke="#1e8cf0" stroke-width=".52917" fill="#fff"/>
 <path id="path3885-7" d="m18.82 104.3c4.2477 0.0811 7.6566 2.7032 7.6566 5.9253 0 3.2733-3.5181 5.9277-7.8595 5.9277-1.2058 0-2.3489-0.20361-3.3702-0.56938l-4.4991 1.8192 2.0064-3.2296c-1.2422-1.0481-1.9991-2.4316-1.9991-3.9479 0-3.2733 3.5205-5.9253 7.8618-5.9253 0.06783 0 0.13542-0.001 0.20285 0z" stroke="#1e8cf0" stroke-width=".52917" fill="#fff"/>
 <path id="path3821" d="m26.129 102.51c-4.2477 0.0799-7.6566 2.6638-7.6566 5.8388 0 3.2255 3.5181 5.8412 7.8595 5.8412 1.2058 0 2.3489-0.20064 3.3702-0.56107l4.4991 1.7926-2.0064-3.1825c1.2422-1.0328 1.9991-2.3961 1.9991-3.8903 0-3.2255-3.5205-5.8388-7.8618-5.8388-0.06784 0-0.13542-0.001-0.20285 0z" stroke="#1e8cf0" stroke-linecap="square" stroke-width=".52917" fill="#fff"/>
 <path id="path5956" marker-end="url(#marker4739)" d="m87.031 138-9.991-53.277" marker-start="url(#marker4651)" stroke="#1e8cf0" stroke-width=".52917" fill="none"/>
 <path id="rect2830-0-7-4-7-4" d="m5.4821 181.47v0.35208c0 0.33066 0.2712 1.1262 0.60906 1.1262l1.0764 0.00001v-0.16836h11.717v0.16836h1.0175c0.33785 0 0.60997-0.79552 0.60997-1.1262v-0.35208h-15.03z" stroke="#1e8cf0" stroke-width=".52917" fill="#fff"/>
 <path id="rect2830-2-2-8-5" d="m5.3966 171.75h15.215c0.37221 0 0.67186 0.26363 0.67186 0.59108l-0.49763 8.9423c0 0.32745-0.24677 0.59109-0.61897 0.59109h-14.156c-0.37222 0-0.79897-0.26362-0.79897-0.59109l-0.48703-8.9423c0-0.32745 0.29965-0.59108 0.67187-0.59108z" stroke="#1e8cf0" stroke-width=".52917" fill="#fff"/>
 <path id="rect3628-1-7-1-5" fill="#1e8cf0" d="m13.575 174.99c-0.40695 0.0341-0.62966 0.27422-0.65209 0.67287-0.0076 0.0578 0.01268 0.0406 0.04717 0.0378 0.45469-0.0871 0.66484-0.3343 0.65832-0.67829-0.0019-0.04-0.0097-0.0349-0.05342-0.0324z"/>
 <g id="g3913-6-9-2" fill="#1e8cf0" transform="matrix(.072217 0 0 .060180 -33.382 144.89)">
  <path id="rect3604-6-5-2-5-1-26-6" fill="#1e8cf0" d="m644.6 515.98c6.6465-2.7664 8.4769 11.02 10.374 15.537 0.42761 1.0853 0.49531 1.5146-0.031 2.1544-8.6365 10.711 0.41744 15.742 5.2981 16.564 1.2156 0.22651 1.3109 0.86454 1.0276 1.7982-0.11207 0.46085-0.37805 0.84814-0.61549 1.2512-2.717 4.4892-6.4132 8.3035-12.13 7.147-1.5348-0.5505-2.9122-1.2534-4.5347-1.6044-1.6706-0.25931-3.521-0.096-4.9524 0.41858-1.0096 0.39776-1.9211 0.90111-2.9658 1.2349-2.8678 0.8024-5.5041-0.17319-7.2158-1.3409-1.2106-0.89903-1.8216-1.7977-2.4748-2.8966-2.9469-4.073-3.9701-9.4689-2.4012-13.681 0.44626-1.0461 0.81955-2.1106 1.3371-3.0915 3.9256-7.44 7.1943-14.244 10.156-21.484 0.64698-1.6471 2.1307-2.046 3.6677-2.0514 1.8075-0.0679 2.8668 1.7804 5.4612 0.0446v0.00013h-0.00002z"/>
 </g>
 <path id="path932" d="m22.365 177.56c7.1263-0.15879 10.704 0.95707 14.673-6.9804 5.027-13.76 32.936-148.28 32.936-148.28" marker-start="url(#marker4939)" stroke="#1e8cf0" stroke-width=".52917" fill="none"/>
 <path id="path1326" d="m79.493 177.49c-6.6146 0.26458-23.499-0.13141-23.499-0.13141-23.19-0.11776 13.484-144.72 13.484-144.72" marker-start="url(#marker4839)" stroke="#1e8cf0" stroke-width="0.529" fill="none"/>
 <path id="ellipse5958" d="m100.96 109.39a19.466 14.174 0 0 1 -19.468 14.17 19.466 14.174 0 0 1 -19.466 -14.17 19.466 14.174 0 0 1 19.466 -14.176 19.466 14.174 0 0 1 19.468 14.176z" stroke="#1e8cf0" stroke-width=".52917" fill="#fff"/>
 <path id="path5960" d="m77.822 104.3c4.2477 0.0811 7.6566 2.7032 7.6566 5.9253 0 3.2733-3.5181 5.9277-7.8595 5.9277-1.2058 0-2.3489-0.2036-3.3702-0.56937l-4.4992 1.8192 2.0064-3.2296c-1.2422-1.0481-1.999-2.4316-1.999-3.9479 0-3.2733 3.5205-5.9253 7.8618-5.9253 0.0678 0 0.13542-0.001 0.20285 0z" stroke="#1e8cf0" stroke-width=".52917" fill="#fff"/>
 <path id="path5962" d="m85.131 102.51c-4.2477 0.0799-7.6566 2.6638-7.6566 5.8388 0 3.2255 3.5181 5.8412 7.8595 5.8412 1.2058 0 2.3489-0.20063 3.3702-0.56106l4.4992 1.7926-2.0064-3.1825c1.2422-1.0328 1.9991-2.396 1.9991-3.8903 0-3.2255-3.5205-5.8388-7.8618-5.8388-0.0678 0-0.13542-0.001-0.20285 0z" stroke="#1e8cf0" stroke-linecap="square" stroke-width=".52917" fill="#fff"/>
 <path id="rect238" d="m51.065 41.031h29.104c3.6645 0 6.6146 2.9501 6.6146 6.6146s-2.9501 6.6146-6.6146 6.6146h-29.104c-3.6645 0-6.6146-2.9501-6.6146-6.6146s2.9501-6.6146 6.6146-6.6146z" stroke="#1e8cf0" stroke-miterlimit="2.414" stroke-width=".52917" fill="#fff"/>
 <g id="g3369" fill="#1e8cf0" transform="matrix(.9 0 0 .9 6.5617 4.7645)">
  <path id="path1660" d="m53.812 45.247h1.3815l-1.5985 3.2349v1.7811h-1.3091v-1.7811l-1.602-3.2349h1.3815l0.87505 2.0877z"/>
  <path id="path1662" d="m54.632 48.365q0-0.55121 0.20671-0.98185 0.21015-0.43064 0.61667-0.67179 0.40997-0.2446 0.9853-0.2446 0.58222 0 0.98874 0.2446 0.40997 0.24116 0.61667 0.67179 0.21015 0.42719 0.21015 0.98185v0.07235q0 0.55466-0.21015 0.98185-0.20671 0.42719-0.61323 0.6718-0.40652 0.24116-0.9853 0.24116t-0.98874-0.24116q-0.40997-0.2446-0.62012-0.6718-0.20671-0.42719-0.20671-0.98185zm1.2333 0.07235q0 0.43064 0.12402 0.6649 0.12747 0.23082 0.4582 0.23082 0.32039 0 0.44786-0.23426 0.12747-0.23427 0.12747-0.66146v-0.07235q0-0.4203-0.12747-0.65801-0.12747-0.24116-0.45475-0.24116-0.3204 0-0.44786 0.24116-0.12747 0.24116-0.12747 0.65801z"/>
  <path id="path1664" d="m62.132 46.536v3.7276h-1.1541l-0.0379-0.40997q-0.1757 0.23082-0.42719 0.35485-0.24805 0.12402-0.55466 0.12402-0.58222 0-0.9164-0.33762-0.33417-0.33762-0.33417-1.0473v-2.4116h1.2368v2.4185q0 0.17915 0.11024 0.2825t0.32728 0.10335q0.36863 0 0.50988-0.24116v-2.5632z"/>
  <path id="path1666" d="m64.743 46.467q0.19982 0 0.32728 0.0379l-0.02066 1.2127-0.09646-0.0069q-0.19982-0.02066-0.29628-0.02066-0.27561 0-0.44442 0.07579-0.16536 0.07235-0.24116 0.22738v2.2703h-1.2333v-3.7276h1.1507l0.04134 0.49265q0.1378-0.27216 0.34451-0.41686 0.21015-0.14469 0.46854-0.14469z"/>
  <path id="path1668" d="m72.929 45.247-1.0404 5.0161h-1.348l-0.60634-2.7216-0.58911 2.7216h-1.347l-1.0439-5.0161h1.2747l0.53054 3.0661 0.62701-3.0661h1.0955l0.64423 3.0765 0.53054-3.0765z"/>
  <path id="path1670" d="m73.997 44.958q0.19637 0 0.3514 0.07924t0.24116 0.22049q0.08957 0.14125 0.08957 0.32039 0 0.18259-0.08613 0.32384t-0.2446 0.22049q-0.15503 0.07924-0.3514 0.07924-0.19982 0-0.35485-0.07924t-0.2446-0.22049q-0.08613-0.14125-0.08613-0.32384 0-0.17914 0.08613-0.32039 0.08957-0.14125 0.2446-0.22049t0.35485-0.07924zm-0.61323 5.3054v-3.7276h1.2402v3.7276z"/>
  <path id="path1672" d="m76.853 48.934-0.3135 0.30661v1.0232h-1.237v-5.296h1.2368v2.7354l0.08268-0.11024 0.8406-1.0576h1.4779l-1.285 1.54 1.3574 2.1876h-1.409z"/>
  <path id="path1674" d="m79.867 44.958q0.19637 0 0.3514 0.07924t0.24116 0.22049q0.08957 0.14125 0.08957 0.32039 0 0.18259-0.08613 0.32384t-0.2446 0.22049q-0.15503 0.07924-0.3514 0.07924-0.19982 0-0.35485-0.07924t-0.2446-0.22049q-0.08613-0.14125-0.08613-0.32384 0-0.17914 0.08613-0.32039 0.08957-0.14125 0.2446-0.22049t0.35485-0.07924zm-0.61323 5.3054v-3.7276h1.2402v3.7276z"/>
 </g>
 <path id="rect1134" d="m5.2917 119.35h34.396c2.1987 0 3.9688 1.7701 3.9688 3.9688s-1.7701 3.9688-3.9688 3.9688h-34.396c-2.1987 0-3.9688-1.7701-3.9688-3.9688s1.7701-3.9688 3.9688-3.9688z" stroke="#1e8cf0" stroke-miterlimit="2.414" stroke-width=".52917" fill="#fff"/>
 <path id="path1627" fill="#1e8cf0" d="m6.0472 121.62q0.34106 0 0.58911 0.12402 0.25012 0.12195 0.38034 0.34106 0.13023 0.21704 0.13023 0.4961 0 0.29145-0.13023 0.50229-0.12816 0.21084-0.3762 0.32246-0.24598 0.11162-0.59325 0.11162h-0.6201v1.1121h-0.5354v-3.0096zm0 1.4676q0.28732 0 0.42375-0.13436 0.13849-0.13436 0.13849-0.36794 0-0.14469-0.059944-0.26458-0.059944-0.12196-0.18604-0.19431-0.12609-0.0744-0.31626-0.0744h-0.6201v1.0356z"/>
 <path id="path1629" fill="#1e8cf0" d="m8.5628 122.35q0.04341 0 0.097152 0.008 0.055811 0.008 0.082682 0.0186l-0.00413 0.48576q-0.10335-0.0165-0.20464-0.0165-0.3452 0-0.46302 0.25838v1.5234h-0.5146v-2.2366h0.48989l0.014473 0.25218q0.084749-0.14056 0.21084-0.21704 0.12609-0.0765 0.29145-0.0765z"/>
 <path id="path1631" fill="#1e8cf0" d="m9.3441 121.53q0.13436 0 0.21291 0.0785 0.078547 0.0765 0.078547 0.19637 0 0.11782-0.078547 0.1943-0.07855 0.0765-0.21291 0.0765t-0.21291-0.0744q-0.078547-0.0765-0.078547-0.19637 0-0.11989 0.078547-0.19637 0.078549-0.0785 0.21291-0.0785zm-0.25838 3.0923v-2.2366h0.5147v2.2366z"/>
 <path id="path1633" fill="#1e8cf0" d="m11.938 122.39-0.77308 2.2366h-0.45269l-0.77721-2.2366h0.5333l0.47336 1.5854 0.46302-1.5854z"/>
 <path id="path1635" fill="#1e8cf0" d="m13.983 124.11q0 0.30593 0.08475 0.48576v0.0351h-0.52503q-0.03307-0.0724-0.05788-0.20877-0.10542 0.11369-0.25218 0.1819-0.14676 0.0682-0.3328 0.0682-0.21911 0-0.39274-0.0868t-0.27078-0.23977q-0.09715-0.15296-0.09715-0.34313 0-0.35761 0.26458-0.54778 0.26665-0.19017 0.75448-0.19017h0.31006v-0.14469q0-0.17777-0.09715-0.27699-0.09715-0.10128-0.28732-0.10128-0.11369 0-0.2005 0.0393-0.08682 0.0393-0.13436 0.10749-0.04754 0.0682-0.04754 0.15296h-0.5147q0-0.17983 0.11369-0.33693 0.11576-0.15916 0.3266-0.25424 0.21291-0.0972 0.48576-0.0972 0.25632 0 0.45268 0.0868 0.19637 0.0868 0.30592 0.26045 0.11162 0.17363 0.11162 0.42374zm-0.98392 0.1509q0.16123 0 0.28525-0.0765 0.12609-0.0765 0.18397-0.18397v-0.41755h-0.269q-0.26872 0-0.40721 0.0971t-0.13849 0.27286q0 0.13642 0.09095 0.22324 0.09095 0.0847 0.25425 0.0847z"/>
 <path id="path1637" fill="#1e8cf0" d="m15.374 124.24q0.08268 0 0.1757-0.0207v0.39688q-0.14883 0.0496-0.33486 0.0496-0.27285 0-0.42995-0.1509-0.1571-0.15089-0.1571-0.48162v-1.265h-0.3638v-0.38034h0.3638v-0.5457h0.5147v0.5457h0.39274v0.38034h-0.39274v1.2299q0 0.14056 0.05788 0.19223 0.05788 0.0496 0.17363 0.0496z"/>
 <path id="path1639" fill="#1e8cf0" d="m17.807 123.67h-1.4573q0.01447 0.17157 0.08888 0.30386t0.2005 0.20671q0.12816 0.0744 0.29766 0.0744 0.34727 0 0.55811-0.27285l0.27492 0.26665q-0.12196 0.17983-0.339 0.29972t-0.52503 0.11989q-0.32659 0-0.57051-0.14056-0.24391-0.14263-0.37414-0.3886-0.13022-0.24598-0.13022-0.55191v-0.0847q0-0.3452 0.13229-0.60565 0.13229-0.26251 0.3638-0.40514t0.5209-0.14263q0.31626 0 0.53124 0.1385 0.21497 0.13849 0.32039 0.3886 0.10749 0.24805 0.10749 0.57671zm-0.5085-0.41134q-0.01035-0.21704-0.11782-0.35554-0.10749-0.14056-0.33486-0.14056-0.20257 0-0.32659 0.14056t-0.15916 0.39481h0.93844z"/>
 <path id="path1641" fill="#1e8cf0" d="m22.393 124.63h-0.5333v-0.97152l0.05168-1.3374-0.87643 2.3089h-0.382l-0.87643-2.3068 0.05374 1.3353v0.97152h-0.53537v-3.0096h0.69453l0.85576 2.2903 0.85369-2.2903h0.69453z"/>
 <path id="path1643" fill="#1e8cf0" d="m24.843 123.67h-1.4573q0.01447 0.17157 0.08888 0.30386t0.2005 0.20671q0.12816 0.0744 0.29766 0.0744 0.34727 0 0.55811-0.27285l0.27492 0.26665q-0.12196 0.17983-0.339 0.29972t-0.52503 0.11989q-0.32659 0-0.57051-0.14056-0.24391-0.14263-0.37414-0.3886-0.13022-0.24598-0.13022-0.55191v-0.0847q0-0.3452 0.13229-0.60565 0.13229-0.26251 0.3638-0.40514t0.5209-0.14263q0.31626 0 0.53124 0.1385 0.21497 0.13849 0.32039 0.3886 0.10749 0.24805 0.10749 0.57671zm-0.5085-0.41134q-0.01034-0.21704-0.11782-0.35554-0.10749-0.14056-0.33486-0.14056-0.20257 0-0.32659 0.14056t-0.15916 0.39481h0.93844z"/>
 <path id="path1645" fill="#1e8cf0" d="m25.998 123.69q-0.38447-0.0806-0.59325-0.23771-0.20877-0.1571-0.20877-0.42582 0-0.18396 0.10542-0.33899 0.10749-0.1571 0.30386-0.24805 0.19844-0.093 0.45682-0.093 0.27492 0 0.47749 0.093 0.20464 0.093 0.31419 0.25631 0.10955 0.16124 0.10955 0.36381h-0.5147q0-0.0889-0.04548-0.1633-0.04341-0.0765-0.13023-0.12196-0.08682-0.0455-0.21084-0.0455-0.1757 0-0.27078 0.0785t-0.09508 0.19637q0 0.0744 0.03927 0.12609 0.04134 0.0517 0.14056 0.093t0.27492 0.0785q0.27285 0.0579 0.45268 0.14056 0.17983 0.0827 0.27699 0.21498 0.09715 0.13229 0.09715 0.33073 0 0.19637-0.11369 0.3514-0.11162 0.15503-0.31833 0.24184-0.20671 0.0848-0.47749 0.0848-0.29352 0-0.5085-0.10748-0.21497-0.10749-0.32659-0.27906-0.11162-0.17156-0.11162-0.36173h0.49816q0.0083 0.1881 0.13849 0.27698 0.13229 0.0889 0.31833 0.0889 0.1881 0 0.29145-0.0723 0.10542-0.0744 0.10542-0.19637 0-0.0786-0.03721-0.13436-0.03721-0.0558-0.14263-0.10335-0.10335-0.0476-0.29559-0.0868z"/>
 <path id="path1647" fill="#1e8cf0" d="m28.181 123.69q-0.38447-0.0806-0.59325-0.23771-0.20877-0.1571-0.20877-0.42582 0-0.18396 0.10542-0.33899 0.10749-0.1571 0.30386-0.24805 0.19844-0.093 0.45682-0.093 0.27492 0 0.47749 0.093 0.20464 0.093 0.31419 0.25631 0.10955 0.16124 0.10955 0.36381h-0.5147q0-0.0889-0.04548-0.1633-0.04341-0.0765-0.13022-0.12196-0.08681-0.0455-0.21084-0.0455-0.1757 0-0.27078 0.0785t-0.09508 0.19637q0 0.0744 0.03927 0.12609 0.04134 0.0517 0.14056 0.093t0.27492 0.0785q0.27285 0.0579 0.45268 0.14056 0.17984 0.0827 0.27699 0.21498 0.09715 0.13229 0.09715 0.33073 0 0.19637-0.11369 0.3514-0.11162 0.15503-0.31833 0.24184-0.20671 0.0848-0.47749 0.0848-0.29352 0-0.5085-0.10748-0.21497-0.10749-0.32659-0.27906-0.11162-0.17156-0.11162-0.36173h0.49816q0.0083 0.1881 0.13849 0.27698 0.13229 0.0889 0.31833 0.0889 0.1881 0 0.29145-0.0723 0.10542-0.0744 0.10542-0.19637 0-0.0786-0.03721-0.13436-0.03721-0.0558-0.14263-0.10335-0.10335-0.0476-0.29559-0.0868z"/>
 <path id="path1649" fill="#1e8cf0" d="m31.482 123.67h-1.4573q0.01447 0.17157 0.08888 0.30386t0.2005 0.20671q0.12816 0.0744 0.29766 0.0744 0.34727 0 0.55811-0.27285l0.27492 0.26665q-0.12196 0.17983-0.339 0.29972t-0.52503 0.11989q-0.32659 0-0.57051-0.14056-0.24391-0.14263-0.37414-0.3886-0.13022-0.24598-0.13022-0.55191v-0.0847q0-0.3452 0.13229-0.60565 0.13229-0.26251 0.3638-0.40514t0.5209-0.14263q0.31626 0 0.53124 0.1385 0.21497 0.13849 0.32039 0.3886 0.10749 0.24805 0.10749 0.57671zm-0.5085-0.41134q-0.01034-0.21704-0.11782-0.35554-0.10749-0.14056-0.33486-0.14056-0.20257 0-0.32659 0.14056t-0.15916 0.39481h0.93844z"/>
 <path id="path1651" fill="#1e8cf0" d="m33.008 122.35q0.34106 0 0.52503 0.19844 0.18604 0.19637 0.18604 0.63665v1.4428h-0.5147v-1.4469q0-0.22324-0.09715-0.31626-0.09509-0.0951-0.29352-0.0951-0.14469 0-0.25838 0.0703t-0.1819 0.19638v1.5916h-0.5147v-2.2366h0.48369l0.01654 0.25839q0.11989-0.1447 0.28526-0.22118 0.16536-0.0786 0.3638-0.0786z"/>
 <path id="path1653" fill="#1e8cf0" d="m36.117 122.39v2.1725q0 0.29766-0.12816 0.51057-0.12816 0.2129-0.35967 0.32246-0.23151 0.11162-0.53537 0.11162-0.13642 0-0.29352-0.0393-0.1571-0.0372-0.30386-0.11989-0.1447-0.0827-0.23771-0.20877l0.23978-0.30799q0.11782 0.13643 0.26252 0.20257 0.14469 0.0682 0.30386 0.0682 0.25218 0 0.39481-0.13849 0.14263-0.13642 0.14263-0.39067v-0.14883q-0.21704 0.24391-0.57464 0.24391-0.26872 0-0.47129-0.14676t-0.31419-0.40514q-0.10955-0.25838-0.10955-0.58291v-0.0434q0-0.339 0.10955-0.59738t0.31213-0.40101q0.20464-0.14263 0.47749-0.14263 0.38447 0 0.59738 0.26252l0.02066-0.22118zm-0.95912 1.8562q0.30592 0 0.44442-0.25425v-0.97358q-0.13849-0.25011-0.44028-0.25011-0.17156 0-0.28732 0.0951t-0.17157 0.25838q-0.05581 0.1633-0.05581 0.36794v0.0434q0 0.31626 0.12816 0.5147 0.12816 0.19843 0.3824 0.19843z"/>
 <path id="path1655" fill="#1e8cf0" d="m38.519 123.67h-1.4573q0.01447 0.17157 0.08888 0.30386t0.2005 0.20671q0.12816 0.0744 0.29766 0.0744 0.34727 0 0.55811-0.27285l0.27492 0.26665q-0.12196 0.17983-0.339 0.29972t-0.52503 0.11989q-0.32659 0-0.57051-0.14056-0.24391-0.14263-0.37414-0.3886-0.13022-0.24598-0.13022-0.55191v-0.0847q0-0.3452 0.13229-0.60565 0.13229-0.26251 0.3638-0.40514t0.5209-0.14263q0.31626 0 0.53124 0.1385 0.21497 0.13849 0.32039 0.3886 0.10749 0.24805 0.10749 0.57671zm-0.5085-0.41134q-0.01034-0.21704-0.11782-0.35554-0.10749-0.14056-0.33486-0.14056-0.20257 0-0.32659 0.14056t-0.15916 0.39481h0.93844z"/>
 <path id="path1657" fill="#1e8cf0" d="m39.908 122.35q0.04341 0 0.09715 0.008 0.05581 0.008 0.08268 0.0186l-0.0041 0.48576q-0.10335-0.0165-0.20464-0.0165-0.3452 0-0.46302 0.25838v1.5234h-0.515v-2.2366h0.48989l0.01447 0.25218q0.08475-0.14056 0.21084-0.21704 0.12609-0.0765 0.29145-0.0765z"/>
 <path id="rect1575" d="m64.294 119.35h34.396c2.1987 0 3.9688 1.7701 3.9688 3.9688s-1.7701 3.9688-3.9688 3.9688h-34.396c-2.1987 0-3.9688-1.7701-3.9688-3.9688s1.7701-3.9688 3.9688-3.9688z" stroke="#1e8cf0" stroke-miterlimit="2.414" stroke-width=".52917" fill="#fff"/>
 <path id="path1593" fill="#1e8cf0" d="m65.049 121.62q0.34106 0 0.58911 0.12402 0.25012 0.12195 0.38034 0.34106 0.13022 0.21704 0.13022 0.4961 0 0.29145-0.13022 0.50229-0.12816 0.21084-0.3762 0.32246-0.24598 0.11162-0.59325 0.11162h-0.62012v1.1121h-0.53537v-3.0096zm0 1.4676q0.28732 0 0.42375-0.13436 0.13849-0.13436 0.13849-0.36794 0-0.14469-0.05994-0.26458-0.05994-0.12196-0.18604-0.19431-0.12609-0.0744-0.31626-0.0744h-0.62012v1.0356z"/>
 <path id="path1595" fill="#1e8cf0" d="m67.565 122.35q0.04341 0 0.09715 0.008 0.05581 0.008 0.08268 0.0186l-0.0041 0.48576q-0.10335-0.0165-0.20464-0.0165-0.3452 0-0.46302 0.25838v1.5234h-0.5147v-2.2366h0.48989l0.01447 0.25218q0.08475-0.14056 0.21084-0.21704 0.12609-0.0765 0.29146-0.0765z"/>
 <path id="path1597" fill="#1e8cf0" d="m68.346 121.53q0.13436 0 0.21291 0.0785 0.07855 0.0765 0.07855 0.19637 0 0.11782-0.07855 0.1943-0.07855 0.0765-0.21291 0.0765t-0.21291-0.0744q-0.07855-0.0765-0.07855-0.19637 0-0.11989 0.07855-0.19637 0.07855-0.0785 0.21291-0.0785zm-0.25838 3.0923v-2.2366h0.5147v2.2366z"/>
 <path id="path1599" fill="#1e8cf0" d="m70.94 122.39-0.77308 2.2366h-0.45269l-0.77721-2.2366h0.5333l0.47336 1.5854 0.46302-1.5854z"/>
 <path id="path1601" fill="#1e8cf0" d="m72.985 124.11q0 0.30593 0.08475 0.48576v0.0351h-0.52503q-0.03307-0.0724-0.05788-0.20877-0.10542 0.11369-0.25218 0.1819-0.14676 0.0682-0.3328 0.0682-0.21911 0-0.39274-0.0868t-0.27078-0.23977q-0.09715-0.15296-0.09715-0.34313 0-0.35761 0.26458-0.54778 0.26665-0.19017 0.75448-0.19017h0.31006v-0.14469q0-0.17777-0.09715-0.27699-0.09715-0.10128-0.28732-0.10128-0.11369 0-0.2005 0.0393-0.08682 0.0393-0.13436 0.10749-0.04754 0.0682-0.04754 0.15296h-0.5147q0-0.17983 0.11369-0.33693 0.11576-0.15916 0.3266-0.25424 0.21291-0.0972 0.48576-0.0972 0.25632 0 0.45268 0.0868 0.19637 0.0868 0.30592 0.26045 0.11162 0.17363 0.11162 0.42374zm-0.98392 0.1509q0.16123 0 0.28525-0.0765 0.12609-0.0765 0.18397-0.18397v-0.41755h-0.26872q-0.26872 0-0.40721 0.0971t-0.13849 0.27286q0 0.13642 0.09095 0.22324 0.09095 0.0847 0.25425 0.0847z"/>
 <path id="path1603" fill="#1e8cf0" d="m74.376 124.24q0.08268 0 0.1757-0.0207v0.39688q-0.14883 0.0496-0.33486 0.0496-0.27285 0-0.42995-0.1509-0.1571-0.15089-0.1571-0.48162v-1.265h-0.3638v-0.38034h0.3638v-0.5457h0.5147v0.5457h0.39274v0.38034h-0.39274v1.2299q0 0.14056 0.05788 0.19223 0.05788 0.0496 0.17363 0.0496z"/>
 <path id="path1605" fill="#1e8cf0" d="m76.809 123.67h-1.4573q0.01447 0.17157 0.08888 0.30386t0.2005 0.20671q0.12816 0.0744 0.29766 0.0744 0.34727 0 0.55811-0.27285l0.27492 0.26665q-0.12196 0.17983-0.339 0.29972t-0.52503 0.11989q-0.32659 0-0.57051-0.14056-0.24391-0.14263-0.37414-0.3886-0.13022-0.24598-0.13022-0.55191v-0.0847q0-0.3452 0.13229-0.60565 0.13229-0.26251 0.3638-0.40514t0.5209-0.14263q0.31626 0 0.53124 0.1385 0.21497 0.13849 0.32039 0.3886 0.10749 0.24805 0.10749 0.57671zm-0.5085-0.41134q-0.01035-0.21704-0.11782-0.35554-0.10749-0.14056-0.33486-0.14056-0.20257 0-0.32659 0.14056t-0.15916 0.39481h0.93844z"/>
 <path id="path1607" fill="#1e8cf0" d="m81.396 124.63h-0.5333v-0.97152l0.05168-1.3374-0.87643 2.3089h-0.3824l-0.87643-2.3068 0.05374 1.3353v0.97152h-0.53537v-3.0096h0.69453l0.85576 2.2903 0.85369-2.2903h0.69453z"/>
 <path id="path1609" fill="#1e8cf0" d="m83.845 123.67h-1.4573q0.01447 0.17157 0.08888 0.30386t0.2005 0.20671q0.12816 0.0744 0.29766 0.0744 0.34727 0 0.55811-0.27285l0.27492 0.26665q-0.12196 0.17983-0.339 0.29972t-0.52503 0.11989q-0.32659 0-0.57051-0.14056-0.24391-0.14263-0.37414-0.3886-0.13022-0.24598-0.13022-0.55191v-0.0847q0-0.3452 0.13229-0.60565 0.13229-0.26251 0.3638-0.40514t0.5209-0.14263q0.31626 0 0.53124 0.1385 0.21497 0.13849 0.32039 0.3886 0.10749 0.24805 0.10749 0.57671zm-0.5085-0.41134q-0.01034-0.21704-0.11782-0.35554-0.10749-0.14056-0.33486-0.14056-0.20257 0-0.32659 0.14056t-0.15916 0.39481h0.93844z"/>
 <path id="path1611" fill="#1e8cf0" d="m85.001 123.69q-0.38447-0.0806-0.59325-0.23771-0.20877-0.1571-0.20877-0.42582 0-0.18396 0.10542-0.33899 0.10749-0.1571 0.30386-0.24805 0.19844-0.093 0.45682-0.093 0.27492 0 0.47749 0.093 0.20464 0.093 0.31419 0.25631 0.10955 0.16124 0.10955 0.36381h-0.5147q0-0.0889-0.04548-0.1633-0.04341-0.0765-0.13023-0.12196-0.08682-0.0455-0.21084-0.0455-0.1757 0-0.27078 0.0785t-0.09508 0.19637q0 0.0744 0.03927 0.12609 0.04134 0.0517 0.14056 0.093t0.27492 0.0785q0.27285 0.0579 0.45268 0.14056 0.17983 0.0827 0.27699 0.21498 0.09715 0.13229 0.09715 0.33073 0 0.19637-0.11369 0.3514-0.11162 0.15503-0.31833 0.24184-0.20671 0.0848-0.47749 0.0848-0.29352 0-0.5085-0.10748-0.21497-0.10749-0.32659-0.27906-0.11162-0.17156-0.11162-0.36173h0.49816q0.0083 0.1881 0.13849 0.27698 0.13229 0.0889 0.31833 0.0889 0.1881 0 0.29145-0.0723 0.10542-0.0744 0.10542-0.19637 0-0.0786-0.03721-0.13436-0.03721-0.0558-0.14263-0.10335-0.10335-0.0476-0.29559-0.0868z"/>
 <path id="path1613" fill="#1e8cf0" d="m87.183 123.69q-0.38447-0.0806-0.59325-0.23771-0.20877-0.1571-0.20877-0.42582 0-0.18396 0.10542-0.33899 0.10749-0.1571 0.30386-0.24805 0.19844-0.093 0.45682-0.093 0.27492 0 0.47749 0.093 0.20464 0.093 0.31419 0.25631 0.10955 0.16124 0.10955 0.36381h-0.5147q0-0.0889-0.04548-0.1633-0.04341-0.0765-0.13022-0.12196-0.08682-0.0455-0.21084-0.0455-0.1757 0-0.27078 0.0785t-0.09508 0.19637q0 0.0744 0.03927 0.12609 0.04134 0.0517 0.14056 0.093t0.27492 0.0785q0.27285 0.0579 0.45268 0.14056 0.17984 0.0827 0.27699 0.21498 0.09715 0.13229 0.09715 0.33073 0 0.19637-0.11369 0.3514-0.11162 0.15503-0.31833 0.24184-0.20671 0.0848-0.47749 0.0848-0.29352 0-0.5085-0.10748-0.21497-0.10749-0.32659-0.27906-0.11162-0.17156-0.11162-0.36173h0.49816q0.0083 0.1881 0.13849 0.27698 0.13229 0.0889 0.31833 0.0889 0.1881 0 0.29145-0.0723 0.10542-0.0744 0.10542-0.19637 0-0.0786-0.03721-0.13436-0.03721-0.0558-0.14263-0.10335-0.10335-0.0476-0.29559-0.0868z"/>
 <path id="path1615" fill="#1e8cf0" d="m90.484 123.67h-1.4573q0.01447 0.17157 0.08888 0.30386t0.2005 0.20671q0.12816 0.0744 0.29766 0.0744 0.34727 0 0.55811-0.27285l0.27492 0.26665q-0.12196 0.17983-0.339 0.29972t-0.52503 0.11989q-0.32659 0-0.57051-0.14056-0.24391-0.14263-0.37414-0.3886-0.13022-0.24598-0.13022-0.55191v-0.0847q0-0.3452 0.13229-0.60565 0.13229-0.26251 0.3638-0.40514t0.5209-0.14263q0.31626 0 0.53124 0.1385 0.21497 0.13849 0.32039 0.3886 0.10749 0.24805 0.10749 0.57671zm-0.5085-0.41134q-0.01035-0.21704-0.11782-0.35554-0.10749-0.14056-0.33486-0.14056-0.20257 0-0.32659 0.14056t-0.15916 0.39481h0.93844z"/>
 <path id="path1617" fill="#1e8cf0" d="m92.01 122.35q0.34106 0 0.52503 0.19844 0.18604 0.19637 0.18604 0.63665v1.4428h-0.5147v-1.4469q0-0.22324-0.09715-0.31626-0.09509-0.0951-0.29352-0.0951-0.14469 0-0.25838 0.0703t-0.1819 0.19638v1.5916h-0.514v-2.2366h0.48369l0.01654 0.25839q0.11989-0.1447 0.28526-0.22118 0.16536-0.0786 0.3638-0.0786z"/>
 <path id="path1619" fill="#1e8cf0" d="m95.119 122.39v2.1725q0 0.29766-0.12816 0.51057-0.12816 0.2129-0.35967 0.32246-0.23151 0.11162-0.53537 0.11162-0.13642 0-0.29352-0.0393-0.1571-0.0372-0.30386-0.11989-0.1447-0.0827-0.23771-0.20877l0.23978-0.30799q0.11782 0.13643 0.26252 0.20257 0.14469 0.0682 0.30386 0.0682 0.25218 0 0.39481-0.13849 0.14263-0.13642 0.14263-0.39067v-0.14883q-0.21704 0.24391-0.57464 0.24391-0.26872 0-0.47129-0.14676t-0.31419-0.40514q-0.10955-0.25838-0.10955-0.58291v-0.0434q0-0.339 0.10955-0.59738t0.31213-0.40101q0.20464-0.14263 0.47749-0.14263 0.38447 0 0.59738 0.26252l0.02066-0.22118zm-0.95912 1.8562q0.30592 0 0.44442-0.25425v-0.97358q-0.13849-0.25011-0.44028-0.25011-0.17156 0-0.28732 0.0951t-0.17157 0.25838q-0.05581 0.1633-0.05581 0.36794v0.0434q0 0.31626 0.12816 0.5147 0.12816 0.19843 0.3824 0.19843z"/>
 <path id="path1621" fill="#1e8cf0" d="m97.521 123.67h-1.4573q0.01447 0.17157 0.08888 0.30386t0.2005 0.20671q0.12816 0.0744 0.29766 0.0744 0.34727 0 0.55811-0.27285l0.27492 0.26665q-0.12196 0.17983-0.339 0.29972t-0.52503 0.11989q-0.32659 0-0.57051-0.14056-0.24391-0.14263-0.37414-0.3886-0.13022-0.24598-0.13022-0.55191v-0.0847q0-0.3452 0.13229-0.60565 0.13229-0.26251 0.3638-0.40514t0.5209-0.14263q0.31626 0 0.53124 0.1385 0.21497 0.13849 0.32039 0.3886 0.10749 0.24805 0.10749 0.57671zm-0.5085-0.41134q-0.01035-0.21704-0.11782-0.35554-0.10749-0.14056-0.33486-0.14056-0.20257 0-0.32659 0.14056t-0.15916 0.39481h0.93844z"/>
 <path id="path1623" fill="#1e8cf0" d="m98.91 122.35q0.04341 0 0.09715 0.008 0.05581 0.008 0.08268 0.0186l-0.0041 0.48576q-0.10335-0.0165-0.20464-0.0165-0.3452 0-0.46302 0.25838v1.5234h-0.515v-2.2366h0.48989l0.01447 0.25218q0.08475-0.14056 0.21084-0.21704 0.12609-0.0765 0.29145-0.0765z"/>
 <path id="path4139" d="m80.724 180.27v0.35208c0 0.33066 0.2712 1.1262 0.60906 1.1262l1.0764 0.00001v-0.16836h11.717v0.16836h1.0175c0.33785 0 0.60997-0.79552 0.60997-1.1262v-0.35208h-15.031z" stroke="#1e8cf0" stroke-width=".52917" fill="#fff"/>
 <path id="path4141" d="m80.638 170.55h15.215c0.37221 0 0.67186 0.26363 0.67186 0.59108l-0.49763 8.9423c0 0.32745-0.24677 0.59109-0.61897 0.59109h-14.155c-0.37222 0-0.79897-0.26362-0.79897-0.59109l-0.48703-8.9423c0-0.32745 0.29965-0.59108 0.67187-0.59108z" stroke="#1e8cf0" stroke-width=".52917" fill="#fff"/>
 <path id="path4143" fill="#1e8cf0" d="m88.817 173.79c-0.40695 0.0341-0.62966 0.27422-0.65209 0.67287-0.0076 0.0578 0.01268 0.0406 0.04717 0.0378 0.45469-0.0871 0.66484-0.3343 0.65832-0.67829-0.0019-0.04-0.0097-0.0349-0.05342-0.0324z"/>
 <g id="g4147" fill="#1e8cf0" transform="matrix(.072217 0 0 .060180 41.859 143.69)">
  <path id="path4145" fill="#1e8cf0" d="m644.6 515.98c6.6465-2.7664 8.4769 11.02 10.374 15.537 0.42761 1.0853 0.49531 1.5146-0.031 2.1544-8.6365 10.711 0.41744 15.742 5.2981 16.564 1.2156 0.22651 1.3109 0.86454 1.0276 1.7982-0.11207 0.46085-0.37805 0.84814-0.61549 1.2512-2.717 4.4892-6.4132 8.3035-12.13 7.147-1.5348-0.5505-2.9122-1.2534-4.5347-1.6044-1.6706-0.25931-3.521-0.096-4.9524 0.41858-1.0096 0.39776-1.9211 0.90111-2.9658 1.2349-2.8678 0.8024-5.5041-0.17319-7.2158-1.3409-1.2106-0.89903-1.8216-1.7977-2.4748-2.8966-2.9469-4.073-3.9701-9.4689-2.4012-13.681 0.44626-1.0461 0.81955-2.1106 1.3371-3.0915 3.9256-7.44 7.1943-14.244 10.156-21.484 0.64698-1.6471 2.1307-2.046 3.6677-2.0514 1.8075-0.0679 2.8668 1.7804 5.4612 0.0446v0.00013h-0.00002z"/>
 </g>
</svg>
