<?xml version="1.0" encoding="UTF-8" standalone="no"?>
<svg id="svg3157" xmlns:rdf="http://www.w3.org/1999/02/22-rdf-syntax-ns#" xmlns="http://www.w3.org/2000/svg" viewBox="0 0 25.501202 39.716476" width="25.501mm" version="1.1" xmlns:cc="http://creativecommons.org/ns#" height="39.716mm" xmlns:dc="http://purl.org/dc/elements/1.1/">
 <defs id="defs3151">
  <radialGradient id="radialGradient5794-6" gradientUnits="userSpaceOnUse" cy="74.813" cx="287.78" gradientTransform="matrix(.14891 0 0 -.036080 113.97 266.88)" r="64.331">
   <stop id="stop5788-4" stop-color="#b7b6b6" offset="0"/>
   <stop id="stop5790-3" stop-color="#b7b6b6" offset=".14044"/>
   <stop id="stop5792-3" stop-color="#fff" offset="1"/>
  </radialGradient>
  <radialGradient id="radialGradient5008-3" gradientUnits="userSpaceOnUse" cy="62.138" cx="-511.05" gradientTransform="matrix(1.8301 0 0 -1.8301 1032.3 1184.8)" r="91.178">
   <stop id="stop5010-5" stop-color="#daa766" offset="0"/>
   <stop id="stop5012-6" stop-color="#daa766" offset=".35393"/>
   <stop id="stop5014-2" stop-color="#b47d47" offset=".78088"/>
   <stop id="stop5016-9" stop-color="#35160e" offset=".97191"/>
   <stop id="stop5018-12" stop-color="#35160e" offset="1"/>
  </radialGradient>
  <radialGradient id="radialGradient5026-7" gradientUnits="userSpaceOnUse" cy="68.974" cx="803.9" gradientTransform="matrix(-1.8301 0 0 -1.8301 2095.8 1184.8)" r="91.177">
   <stop id="stop5028-0" stop-color="#daa766" offset="0"/>
   <stop id="stop5030-9" stop-color="#daa766" offset=".35393"/>
   <stop id="stop5032-3" stop-color="#b47d47" offset=".78088"/>
   <stop id="stop5034-60" stop-color="#35160e" offset=".97191"/>
   <stop id="stop5036-6" stop-color="#35160e" offset="1"/>
  </radialGradient>
  <radialGradient id="radialGradient5044-2" gradientUnits="userSpaceOnUse" cy="549.01" cx="-369.12" gradientTransform="matrix(1.8301 0 0 -1.8301 1032.3 1184.8)" r="208.77">
   <stop id="stop5046-6" stop-color="#daa766" offset="0"/>
   <stop id="stop5048-1" stop-color="#daa766" offset=".35393"/>
   <stop id="stop5050-8" stop-color="#b47d47" offset=".97752"/>
   <stop id="stop5052-7" stop-color="#b47d47" offset="1"/>
  </radialGradient>
  <radialGradient id="radialGradient5056-9" gradientUnits="userSpaceOnUse" cy="251.93" cx="-366.63" gradientTransform="matrix(1.8301 0 0 -1.8301 1032.3 1184.8)" r="182.2">
   <stop id="stop5058-2" stop-color="#daa766" offset="0"/>
   <stop id="stop5060-0" stop-color="#daa766" offset=".35393"/>
   <stop id="stop5062-2" stop-color="#b47d47" offset=".78088"/>
   <stop id="stop5064-3" stop-color="#91643c" offset=".97191"/>
   <stop id="stop5066-7" stop-color="#91643c" offset="1"/>
  </radialGradient>
  <linearGradient id="linearGradient5086-5" y2="435.64" gradientUnits="userSpaceOnUse" x2="-377.05" gradientTransform="matrix(1.8188 -.20294 -.20294 -1.8188 1123.1 1243.3)" y1="212.52" x1="-377.05">
   <stop id="stop5088-9" stop-color="#fcf3e8" offset="0"/>
   <stop id="stop5090-2" stop-color="#fcf3e8" offset=".04494"/>
   <stop id="stop5092-2" stop-color="#ded3be" offset=".48314"/>
   <stop id="stop5094-8" stop-color="#c4b8a5" offset="1"/>
  </linearGradient>
  <linearGradient id="linearGradient5098-9" y2="384.96" gradientUnits="userSpaceOnUse" x2="-369.21" gradientTransform="matrix(1.8188 -.20294 -.20294 -1.8188 1123.1 1243.3)" y1="220.07" x1="-369.21">
   <stop id="stop5100-7" stop-color="#fcf3e8" offset="0"/>
   <stop id="stop5102-3" stop-color="#fcf3e8" offset=".04494"/>
   <stop id="stop5104-6" stop-color="#ded3be" offset=".48314"/>
   <stop id="stop5106-1" stop-color="#c4b8a5" offset="1"/>
  </linearGradient>
  <linearGradient id="linearGradient5158-2" y2="409.65" gradientUnits="userSpaceOnUse" x2="-364.4" gradientTransform="matrix(1.8188 -.20294 -.20294 -1.8188 1123.1 1243.3)" y1="606.03" x1="-364.4">
   <stop id="stop5160-9" stop-color="#f3f4ec" offset="0"/>
   <stop id="stop5162-3" stop-color="#f3f4ec" offset=".04494"/>
   <stop id="stop5164-1" stop-color="#ded3be" offset="1"/>
  </linearGradient>
  <linearGradient id="linearGradient5168-94" y2="555.88" gradientUnits="userSpaceOnUse" x2="-429.08" gradientTransform="matrix(1.8188 -.20294 -.20294 -1.8188 1123.1 1243.3)" y1="555.88" x1="-519.17">
   <stop id="stop5170-78" stop-color="#fcf3e8" offset="0"/>
   <stop id="stop5172-4" stop-color="#fcf3e8" offset=".04494"/>
   <stop id="stop5174-5" stop-color="#e0cfbd" offset=".80898"/>
   <stop id="stop5176-0" stop-color="#e0cfbd" offset="1"/>
  </linearGradient>
  <radialGradient id="radialGradient5180-3" gradientUnits="userSpaceOnUse" cy="535.77" cx="-359.91" gradientTransform="matrix(1.8188 -.20294 -.20294 -1.8188 1123.1 1243.3)" r="149.73">
   <stop id="stop5182-6" stop-color="#fcf3e8" offset="0"/>
   <stop id="stop5184-1" stop-color="#fcf3e8" offset=".04494"/>
   <stop id="stop5186-0" stop-color="#e3deca" offset=".58426"/>
   <stop id="stop5188-6" stop-color="#e3deca" offset="1"/>
  </radialGradient>
  <radialGradient id="radialGradient5192-3" gradientUnits="userSpaceOnUse" cy="589.28" cx="-371.08" gradientTransform="matrix(1.8188 -.20294 -.20294 -1.8188 1123.1 1243.3)" r="134.54">
   <stop id="stop5194-2" stop-color="#efeeed" offset="0"/>
   <stop id="stop5196-06" stop-color="#efeeed" offset=".0955"/>
   <stop id="stop5198-1" stop-color="#e0ac90" offset=".74156"/>
   <stop id="stop5200-5" stop-color="#e29171" offset=".93257"/>
   <stop id="stop5202-5" stop-color="#e29171" offset="1"/>
  </radialGradient>
  <linearGradient id="linearGradient5226-4" y2="500.51" gradientUnits="userSpaceOnUse" x2="-370.89" gradientTransform="matrix(1.8188 -.20294 -.20294 -1.8188 1123.1 1243.3)" y1="409.44" x1="-370.89">
   <stop id="stop5228-7" stop-color="#c66b61" offset="0"/>
   <stop id="stop5230-6" stop-color="#c66b61" offset=".35393"/>
   <stop id="stop5232-5" stop-color="#994942" offset=".97752"/>
   <stop id="stop5234-6" stop-color="#994942" offset="1"/>
  </linearGradient>
  <radialGradient id="radialGradient5238-9" gradientUnits="userSpaceOnUse" cy="750.48" cx="-284.31" gradientTransform="matrix(1.8188 -.20294 -.20294 -1.8188 1123.1 1243.3)" r="72.096">
   <stop id="stop5240-3" stop-color="#daa766" offset="0"/>
   <stop id="stop5242-7" stop-color="#daa766" offset=".16853"/>
   <stop id="stop5244-4" stop-color="#b47d47" offset=".97752"/>
   <stop id="stop5246-5" stop-color="#b47d47" offset="1"/>
  </radialGradient>
  <radialGradient id="radialGradient5250-2" gradientUnits="userSpaceOnUse" cy="745.96" cx="1073.4" gradientTransform="matrix(-1.8188 .20294 -.20294 -1.8188 2234.3 1118.4)" r="72.094">
   <stop id="stop5252-5" stop-color="#daa766" offset="0"/>
   <stop id="stop5254-4" stop-color="#daa766" offset=".16853"/>
   <stop id="stop5256-7" stop-color="#b47d47" offset=".97752"/>
   <stop id="stop5258-44" stop-color="#b47d47" offset="1"/>
  </radialGradient>
  <linearGradient id="linearGradient5262-3" y2="753.65" gradientUnits="userSpaceOnUse" x2="-203.48" gradientTransform="matrix(1.8188 -.20294 -.20294 -1.8188 1123.1 1243.3)" y1="753.65" x1="-269.03">
   <stop id="stop5264-0" stop-color="#b47d47" offset="0"/>
   <stop id="stop5266-7" stop-color="#b47d47" offset=".14044"/>
   <stop id="stop5268-8" stop-color="#754e3c" offset="1"/>
  </linearGradient>
  <linearGradient id="linearGradient5272-6" y2="749.12" gradientUnits="userSpaceOnUse" x2="1154.2" gradientTransform="matrix(-1.8188 .20294 -.20294 -1.8188 2234.3 1118.4)" y1="749.12" x1="1088.7">
   <stop id="stop5274-8" stop-color="#b47d47" offset="0"/>
   <stop id="stop5276-8" stop-color="#b47d47" offset=".14044"/>
   <stop id="stop5278-4" stop-color="#754e3c" offset="1"/>
  </linearGradient>
  <radialGradient id="radialGradient5286-3" gradientUnits="userSpaceOnUse" cy="280.18" cx="-556.39" gradientTransform="matrix(1.8301 0 0 -1.8301 1032.3 1184.8)" r="194.48">
   <stop id="stop5288-1" stop-color="#daa766" offset="0"/>
   <stop id="stop5290-4" stop-color="#daa766" offset=".35393"/>
   <stop id="stop5292-9" stop-color="#b47d47" offset=".78088"/>
   <stop id="stop5294-2" stop-color="#91643c" offset=".97191"/>
   <stop id="stop5296-0" stop-color="#91643c" offset="1"/>
  </radialGradient>
  <radialGradient id="radialGradient5300-6" gradientUnits="userSpaceOnUse" cy="302.98" cx="-420.02" gradientTransform="matrix(1.8301 0 0 -1.8301 1032.3 1184.8)" r="219">
   <stop id="stop5302-8" stop-color="#daa766" offset="0"/>
   <stop id="stop5304-9" stop-color="#daa766" offset=".35393"/>
   <stop id="stop5306-2" stop-color="#b47d47" offset=".78088"/>
   <stop id="stop5308-66" stop-color="#91643c" offset=".97191"/>
   <stop id="stop5310-4" stop-color="#91643c" offset="1"/>
  </radialGradient>
  <radialGradient id="radialGradient5322-95" gradientUnits="userSpaceOnUse" cy="295.01" cx="-342.64" gradientTransform="matrix(1.8301 0 0 -1.8301 1032.3 1184.8)" r="19.769">
   <stop id="stop5324-0" stop-color="#efeab4" offset="0"/>
   <stop id="stop5326-4" stop-color="#efeab4" offset=".35393"/>
   <stop id="stop5328-8" stop-color="#eab91f" offset=".78088"/>
   <stop id="stop5330-7" stop-color="#b27e2b" offset=".97191"/>
   <stop id="stop5332-1" stop-color="#b27e2b" offset="1"/>
  </radialGradient>
  <radialGradient id="radialGradient5336-7" gradientUnits="userSpaceOnUse" cy="293.53" cx="-337.88" gradientTransform="matrix(1.8301 0 0 -1.8301 1032.3 1184.8)" r="18.862">
   <stop id="stop5338-2" stop-color="#efeab4" offset="0"/>
   <stop id="stop5340-7" stop-color="#efeab4" offset=".35393"/>
   <stop id="stop5342-2" stop-color="#eab91f" offset=".78088"/>
   <stop id="stop5344-2" stop-color="#b27e2b" offset=".97191"/>
   <stop id="stop5346-6" stop-color="#b27e2b" offset="1"/>
  </radialGradient>
  <radialGradient id="radialGradient5350-1" gradientUnits="userSpaceOnUse" cy="290.85" cx="-333.12" gradientTransform="matrix(1.8301 0 0 -1.8301 1032.3 1184.8)" r="19.03">
   <stop id="stop5352-0" stop-color="#efeab4" offset="0"/>
   <stop id="stop5354-61" stop-color="#efeab4" offset=".35393"/>
   <stop id="stop5356-5" stop-color="#eab91f" offset=".78088"/>
   <stop id="stop5358-9" stop-color="#b27e2b" offset=".97191"/>
   <stop id="stop5360-4" stop-color="#b27e2b" offset="1"/>
  </radialGradient>
  <radialGradient id="radialGradient5364-9" gradientUnits="userSpaceOnUse" cy="267.79" cx="-395.64" gradientTransform="matrix(1.8301 0 0 -1.8301 1032.3 1184.8)" r="24.065">
   <stop id="stop5366-0" stop-color="#efeab4" offset="0"/>
   <stop id="stop5368-9" stop-color="#efeab4" offset=".35393"/>
   <stop id="stop5370-1" stop-color="#eab91f" offset=".78088"/>
   <stop id="stop5372-7" stop-color="#b27e2b" offset=".97191"/>
   <stop id="stop5374-7" stop-color="#b27e2b" offset="1"/>
  </radialGradient>
  <radialGradient id="radialGradient5378-1" gradientUnits="userSpaceOnUse" cy="270.54" cx="-393.91" gradientTransform="matrix(1.8301 0 0 -1.8301 1032.3 1184.8)" r="14.583">
   <stop id="stop5380-1" stop-color="#efeab4" offset="0"/>
   <stop id="stop5382-5" stop-color="#efeab4" offset=".35393"/>
   <stop id="stop5384-9" stop-color="#eab91f" offset=".78088"/>
   <stop id="stop5386-7" stop-color="#b27e2b" offset=".97191"/>
   <stop id="stop5388-7" stop-color="#b27e2b" offset="1"/>
  </radialGradient>
  <radialGradient id="radialGradient5408-6" gradientUnits="userSpaceOnUse" cy="170.7" cx="-359.24" gradientTransform="matrix(1.8301 0 0 -1.8301 1032.3 1184.8)" r="40.998">
   <stop id="stop5410-7" stop-color="#efeab4" offset="0"/>
   <stop id="stop5412-3" stop-color="#efeab4" offset=".35393"/>
   <stop id="stop5414-6" stop-color="#eab91f" offset=".78088"/>
   <stop id="stop5416-5" stop-color="#b27e2b" offset=".97191"/>
   <stop id="stop5418-63" stop-color="#b27e2b" offset="1"/>
  </radialGradient>
  <radialGradient id="radialGradient5422-9" gradientUnits="userSpaceOnUse" cy="174.01" cx="-359.84" gradientTransform="matrix(1.8301 0 0 -1.8301 1032.3 1184.8)" r="38.309">
   <stop id="stop5424-4" stop-color="#efeab4" offset="0"/>
   <stop id="stop5426-8" stop-color="#efeab4" offset=".35393"/>
   <stop id="stop5428-1" stop-color="#eab91f" offset=".78088"/>
   <stop id="stop5430-2" stop-color="#b27e2b" offset=".97191"/>
   <stop id="stop5432-9" stop-color="#b27e2b" offset="1"/>
  </radialGradient>
  <radialGradient id="radialGradient5436-3" gradientUnits="userSpaceOnUse" cy="145.61" cx="-355.86" gradientTransform="matrix(1.8301 0 0 -1.8301 1032.3 1184.8)" r="28.372">
   <stop id="stop5438-9" stop-color="#efeab4" offset="0"/>
   <stop id="stop5440-0" stop-color="#efeab4" offset=".35393"/>
   <stop id="stop5442-88" stop-color="#eab91f" offset=".78088"/>
   <stop id="stop5444-50" stop-color="#b27e2b" offset=".97191"/>
   <stop id="stop5446-9" stop-color="#b27e2b" offset="1"/>
  </radialGradient>
  <linearGradient id="linearGradient5486-6" y2="663.01" gradientUnits="userSpaceOnUse" x2="-294.87" gradientTransform="matrix(1.8301 0 0 -1.8301 1032.3 1184.8)" y1="663.01" x1="-522.12">
   <stop id="stop5488-3" stop-color="#b47d47" offset="0"/>
   <stop id="stop5490-8" stop-color="#b47d47" offset=".14044"/>
   <stop id="stop5492-5" stop-color="#754e3c" offset="1"/>
  </linearGradient>
  <radialGradient id="radialGradient5506-6" gradientUnits="userSpaceOnUse" cy="753.2" cx="-400.69" gradientTransform="matrix(1.8301 0 0 -1.8301 1032.3 1184.8)" r="139.74">
   <stop id="stop5508-1" stop-color="#efeab4" offset="0"/>
   <stop id="stop5510-1" stop-color="#efeab4" offset=".35393"/>
   <stop id="stop5512-59" stop-color="#eab91f" offset=".78088"/>
   <stop id="stop5514-8" stop-color="#b27e2b" offset=".97191"/>
   <stop id="stop5516-4" stop-color="#b27e2b" offset="1"/>
  </radialGradient>
  <radialGradient id="radialGradient5520-81" gradientUnits="userSpaceOnUse" cy="271.7" cx="-300.91" gradientTransform="matrix(1.8301 0 0 -1.8301 1032.3 1184.8)" r="40.336">
   <stop id="stop5522-0" stop-color="#efeab4" offset="0"/>
   <stop id="stop5524-3" stop-color="#efeab4" offset=".35393"/>
   <stop id="stop5526-0" stop-color="#eab91f" offset=".78088"/>
   <stop id="stop5528-4" stop-color="#b27e2b" offset=".97191"/>
   <stop id="stop5530-4" stop-color="#b27e2b" offset="1"/>
  </radialGradient>
  <radialGradient id="radialGradient5538-44" gradientUnits="userSpaceOnUse" cy="756.69" cx="-490.92" gradientTransform="matrix(1.7465 -.54721 -.54721 -1.7465 1411.2 881.94)" r="22.127">
   <stop id="stop5540-7" stop-color="#efeab4" offset="0"/>
   <stop id="stop5542-6" stop-color="#efeab4" offset=".35393"/>
   <stop id="stop5544-31" stop-color="#eab91f" offset=".78088"/>
   <stop id="stop5546-7" stop-color="#b27e2b" offset=".97191"/>
   <stop id="stop5548-5" stop-color="#b27e2b" offset="1"/>
  </radialGradient>
  <radialGradient id="radialGradient5552-9" gradientUnits="userSpaceOnUse" cy="756.65" cx="-459.22" gradientTransform="matrix(1.7465 -.54721 -.54721 -1.7465 1411.2 881.94)" r="22.349">
   <stop id="stop5554-6" stop-color="#efeab4" offset="0"/>
   <stop id="stop5556-2" stop-color="#efeab4" offset=".35393"/>
   <stop id="stop5558-1" stop-color="#eab91f" offset=".78088"/>
   <stop id="stop5560-7" stop-color="#b27e2b" offset=".97191"/>
   <stop id="stop5562-8" stop-color="#b27e2b" offset="1"/>
  </radialGradient>
  <radialGradient id="radialGradient5566-5" gradientUnits="userSpaceOnUse" cy="756.65" cx="-427.61" gradientTransform="matrix(1.7465 -.54721 -.54721 -1.7465 1411.2 881.94)" r="22.334">
   <stop id="stop5568-74" stop-color="#efeab4" offset="0"/>
   <stop id="stop5570-1" stop-color="#efeab4" offset=".35393"/>
   <stop id="stop5572-8" stop-color="#eab91f" offset=".78088"/>
   <stop id="stop5574-5" stop-color="#b27e2b" offset=".97191"/>
   <stop id="stop5576-9" stop-color="#b27e2b" offset="1"/>
  </radialGradient>
  <radialGradient id="radialGradient5580-7" gradientUnits="userSpaceOnUse" cy="756.65" cx="-395.98" gradientTransform="matrix(1.7465 -.54721 -.54721 -1.7465 1411.2 881.94)" r="22.334">
   <stop id="stop5582-5" stop-color="#efeab4" offset="0"/>
   <stop id="stop5584-3" stop-color="#efeab4" offset=".35393"/>
   <stop id="stop5586-8" stop-color="#eab91f" offset=".78088"/>
   <stop id="stop5588-8" stop-color="#b27e2b" offset=".97191"/>
   <stop id="stop5590-3" stop-color="#b27e2b" offset="1"/>
  </radialGradient>
 </defs>
 <metadata id="metadata3154">
  <rdf:RDF>
   <cc:Work rdf:about="">
    <dc:format>image/svg+xml</dc:format>
    <dc:type rdf:resource="http://purl.org/dc/dcmitype/StillImage"/>
    <dc:title/>
   </cc:Work>
  </rdf:RDF>
 </metadata>
 <g id="layer1" transform="translate(-23.535 -47.332)">
  <g id="g2840" transform="matrix(1.331 0 0 1.331 -172.44 -267.66)">
   <path id="path5796-9" d="m166.4 264.18c0 1.2817-4.2889 2.3212-9.5798 2.3212-5.2908 0-9.5797-1.0395-9.5797-2.3212 0-1.2819 4.2889-2.3211 9.5797-2.3211s9.5798 1.0393 9.5798 2.3211z" fill="url(#radialGradient5794-6)"/>
   <g id="layer1-8" transform="matrix(.020261 0 0 .020261 149.53 243.58)">
    <g id="g6246">
     <path id="path5020" d="m136.68 926.07s-1.4727 4.4145-19.872 8.0926c-18.4 3.6817-67.711 21.343-56.671 52.255 0 0 0 25.025 27.231 21.347 0 0 2.2081 8.0961 24.288 6.6235 22.079-1.4727 31.647-17.665 56.672-20.61 25.023-2.9454 86.846-1.4727 80.958-25.021-5.888-23.552-68.446-58.146-110.4-41.217" fill="url(#radialGradient5008-3)"/>
     <path id="path5022" d="m87.366 1007.8s3.6799-21.347 28.704-26.498c0 0-24.288 6.6235-25.024 30.912" fill="#a07044"/>
     <path id="path5024" d="m60.87 993.04s7.3598-16.189 19.872-20.607c0 0-16.927-1.4691-19.872 20.607z" fill="#a07044"/>
     <path id="path5038" d="m584.88 913.55s1.4727 4.418 19.872 8.0962c18.4 3.6817 67.711 21.343 56.671 52.255 0 0 0 25.025-27.232 21.343 0 0-2.2072 8.0961-24.288 6.627-22.079-1.4726-31.647-17.665-56.67-20.61-25.025-2.9454-86.847-1.4727-80.958-25.025 5.8872-23.549 68.446-58.142 110.4-41.214" fill="url(#radialGradient5026-7)"/>
     <path id="path5040" d="m634.19 995.25s-3.6799-21.343-28.703-26.494c0 0 24.287 6.6235 25.023 30.912" fill="#a07044"/>
     <path id="path5042" d="m660.68 980.53s-7.3598-16.189-19.872-20.607c0 0 16.929-1.4727 19.872 20.607z" fill="#a07044"/>
     <path id="path5054" d="m331.22-170.56s-174.67-21.591-239.44 166.82c0 0-11.776 47.103-17.664 84.393-5.888 37.292-29.436 96.172-56.914 137.39-27.48 41.216-72.622 145.24-68.696 211.96 3.9283 66.728 439.63 104.02 439.63 104.02l217.85-45.13 158.97-111.87s1.9642-60.843-49.065-143.27c-51.03-82.44-82.43-176.64-100.09-239.45-17.67-62.803-86.36-192.33-284.59-164.86z" fill="url(#radialGradient5044-2)"/>
     <path id="path5068" d="m-18.125 596.83s60.843 86.357 76.544 180.56c15.699 94.209 35.324 139.35 137.38 182.53 102.06 43.176 351.32 56.92 447.48-94.209 0 0 35.326-43.176 37.289-105.98 1.9606-62.807 27.479-109.91 47.102-143.27 19.626-33.371 25.513-68.69 23.55-82.431-1.9606-13.744-105.99-68.69-115.8-70.656-9.8083-1.966-376.82-3.9284-388.6-3.9284-11.775 0-337.57-21.59-264.96 137.38z" fill="url(#radialGradient5056-9)"/>
     <path id="path5070" d="m127.16 275.27-24.42-72.811 30.578 35.097-8.6341-37.546 24.4 32.823s-5.7022-24.542-25.713-57.856c-20.012-33.313-26.033-47.451-26.033-47.451l60.991 68.728-48.485-89.379s53.182 51.827 57.903 67.591c4.7228 15.765-25.236-80.126-39.388-100.76-14.153-20.636-18.223-30.548-18.223-30.548s38.376 25.338 50.589 68.407l-19.7-57.046 29.11 35.259-16.76-44.043s30.74 36.56 36.443 61.102c5.7013 24.542 6.518 31.857 6.518 31.857s-2.7961-64.857-12.887-88.91c-10.09-24.053-17.574-38.028-17.574-38.028l38.551 53.46-11.076-46.16 26.842 41.438-2.9534-52.991 14.323 35.43 5.4975-56.896s26.189 35.585 34.498 70.205c8.3079 34.62 20.207 101.42 3.8023 126.95-16.406 25.53-71.314 90.903-75.54 92.856-4.225 1.9517-40.471 8.9603-40.471 8.9603" fill="#be8751"/>
     <path id="path5072" d="m381.12 55.855-10.929-71.354 23.768 66.96-4.4234-66.157 13.519 54.773s5.6691-42.104 11.842-53.16l6.1695-11.057-4.1911 68.598 20.283-70.395-6.7861 85.181 23.706-53.004-15.247 62.428 24.687-44.227-9.2418 49.908 34.429-63.088s-9.0952 11.384-13.785 62.264c-4.6879 50.882 0.21088 94.77 0.21088 94.77l37.83-85.686-13.295 66.654 19.651-36.258-14.432 69.742 17.052-33.008s-1.1099 56.406-0.13579 51.855c0.97225-4.5521 16.555-50.725 16.555-50.725s3.4422 57.379 7.3527 79.159c3.914 21.781 12.219 56.401 7.8334 56.89-4.3894 0.48971-169.25-56.646-174.79-79.726-5.5368-23.08-31.747-98.653-31.59-110.52 0.15465-11.867 7.7771-49.745 7.7771-49.745" fill="#be8751"/>
     <path id="path5074" d="m177.19 219.32-1.646-41.287 14.317 22.1-1.327-51.691 14.649 38.354 2.579-43.24s9.1176 28.606 10.9 18.039c1.7828-10.568 4.368-40.478 4.368-40.478s8.7914 25.679 6.8317 8.1239c-1.95-17.55-11.72-38.677-11.72-38.677l29.12 48.587-13.36-66.639 37.74 59.479-15.39 100.95-60.28 57.09-10.1-50.71" fill="#996433"/>
     <path id="path5076" d="m394.81 138.75s5.5029-43.567 10.539-51.535c5.0346-7.9675 5.0346-7.9675 5.0346-7.9675l5.5511 49.738 14.284-44.546 4.4162 52.827s6.6449-33.326 7.1364-28.938c0.48969 4.3885 0.35387 56.243 0.35387 56.243l14.78-26.83 0.83463 47.303 9.7422-18.86 13.175 11.858 1.9802 57.543" fill="#996433"/>
     <path id="path5078" d="m211.24 190.63c-4.7085 28.886-23.482 49.866-41.937 46.859-18.457-3.0052-29.598-28.858-24.893-57.745 4.7076-28.887 23.48-49.867 41.936-46.859 18.457 3.0079 29.597 28.861 24.893 57.745z" fill="#110f0d"/>
     <path id="path5080" d="m172.7 170.93c-1.4405 8.8245-5.8576 15.452-9.8709 14.797-4.0106-0.65146-6.098-8.3401-4.6584-17.165 1.436-8.8244 5.855-15.451 9.8673-14.796 4.0123 0.65145 6.0971 8.3383 4.662 17.163z" fill="#939393"/>
     <path id="path5082" d="m439.55 158.52c14.028 25.684 38.706 39.237 55.116 30.271 16.412-8.9656 18.333-37.053 4.3001-62.735-14.03-25.69-38.7-39.24-55.11-30.274-16.42 8.964-18.34 37.054-4.31 62.734z" fill="#110f0d"/>
     <path id="path5084" d="m469.37 127.14c4.284 7.8442 10.65 12.628 14.228 10.677 3.5602-1.9436 2.974-9.8896-1.3082-17.736-4.2894-7.8468-10.655-12.63-14.228-10.678-3.5602 1.9454-2.9757 9.8896 1.3083 17.737z" fill="#939393"/>
     <path id="path5096" d="m222.64 732.64c37.124 33.21 50.765 96.532 50.765 96.532l-17.56-11.37s15.948 36.728 27.331 45.825l11.383 9.1006-17.718 0.49686s71.076 79.45 138.85 63c67.777-16.453 126.25-102.96 139.07-147.35l-15.601 6.1874s19.976-33.335 23.706-53.006l3.7282-19.67-8.4482 3.9069s8.2659-45.356 26.133-71.05c17.867-25.691-5.2509-100.13-35.001-101.25-29.745-1.1224-191.16-0.87932-191.16-0.87932s-151.8 46.565-156.03 48.516c-4.225 1.9552-66.953 37.099-66.953 37.099l2.3082 60.467s57.222 8.425 85.194 33.443z" fill="url(#linearGradient5086-5)"/>
     <path id="path5108" d="m301.12 666.12s-13.968 20.814-20.949 37.889l-6.9809 17.068 29.244-29.925-1.1242 29.75 25.339-38.375s-12.833 17.726-13.623 63.726c-0.78816 46.003-7.6065 64.537-7.6065 64.537l41.09-69.752-7.6136 51.204s23.713-39.673 22.739-35.119c-0.97226 4.5503-8.5877 55.758-3.7157 46.325 4.872-9.4294 16.55-64.051 18.182-49.421 1.6335 14.627 8.4786 49.41 10.752 43.233 2.2716-6.1802 8.0962-60.151 10.212-54.464 2.1161 5.6905 23.597 52.169 23.264 35.913-0.33422-16.253-5.3885-48.273-5.3885-48.273s25.548 56.394 23.917 41.764c-1.6335-14.63-22.973-99.635-22.973-99.635l74.654 84.979-39.871-91.821 25.531 16.403-2.3002-47.138s27.65 35.421 7.9675 5.0328c-19.683-30.387-50.1-64.022-50.1-64.022l-117.66 47.201" fill="url(#linearGradient5098-9)"/>
     <path id="path5110" d="m82.531 866.54s3.5709 8.1998 8.4313 15.502c4.8604 7.3062 6.9058 19.327 6.9058 19.327l-6.4054 6.4054 9.6082 9.6082-4.5753 4.5753 4.1178 12.2s107.06 52.312 145.49 52.312l5.4904-5.4904s140.25 21.879 235.29-7.8173l10.255 10.252s11.127-0.14659 21.65-10.67 74.12-39.348 84.186-39.348 10.066-9.6761 10.066-9.6761l-5.2258-5.2294 6.5984-6.5985v-5.0328s19.166-14.019 19.166-27.141" fill="#51667c"/>
     <path id="path5112" d="m158.03 959.94s27.548 3.864 27.548-4.4716c0-8.3392-44.707-33.961-44.707-33.961s62.224 32.027 75.95 37.518c13.726 5.4904-44.189-35.53-44.189-35.53s191.81 89.354 329.69 37.36l55.819-23.792-45.355 27.859h17.316l-13.49 13.49-19.47 5.0078-5.9479-5.9479s-160.96 25.768-243.29 0l-1.8024 13.579z" fill="#355068"/>
     <path id="path5114" d="m605.42 894.48s5.519 19.359-5.3313 20.911c-10.85 1.5477-41.946 16.182-41.946 16.182l34.342-9.9334-20.56 14.595 41.122-12.507v-5.88s3.2653 1.3118 5.9479-5.9479l2.6826-7.2562s7.6047-1.4048 14.605-27.613" fill="#355068"/>
     <path id="path5116" d="m99.764 876.41s12.746 24.049 17.321 28.624c4.5753 4.5753 28.367 16.471 28.367 16.471l-41.178-11.896 26.682 20.471-34.46-8.1176v-9.1506s-12.647-3.8211-5.0328-11.438c7.6145-7.6136-8.9317-21.164-8.9317-34.83" fill="#355068"/>
     <path id="path5118" d="m32.899 998.37s-2.2877-28.824 13.726-44.838 44.139-10.727 44.139-10.727l9.8494-8.643s3.3797-11.817 11.819-11.817 42.365 12.496 42.365 21.844c0 9.3436 11.337 18.612 31.534 25.747 20.197 7.1346 54.779 7.9139 46.329 16.364-8.45 8.45-77.984 7.5028-99.067 21.225s-100.69 19.213-100.69-9.1542z" fill="#f9f9f9"/>
     <path id="path5120" d="m32.899 998.37s32.027 16.471 69.545 8.2355 109.96-28.71 119.03-28.71c9.0756 0 15.707 12.929 15.707 12.929s-53.3 9.3758-87.157 23.102-81.441 20.131-114.38 7.3205z" fill="#d1d1d1"/>
     <path id="path5122" d="m35.644 1015.8s38.157 12.961 80.068 4.1177c41.911-8.8396 98.843-34.361 119.88-34.361l1.5906 7.367s-74.346 16.929-97.68 27.909c-23.334 10.981-68.576 12.014-102.46 0.9759" fill="#828282"/>
     <path id="path5124" d="m90.764 942.8s20.848 5.2187 23.118 15.302c2.2698 10.084 35.23 4.5753 35.23-5.0328 0-9.6082-48.498-18.912-48.498-18.912" fill="#d1d1d1"/>
     <path id="path5126" d="m101.99 951.24s11.896 4.5753 11.896 11.896c0 7.3205 24.707 5.4904 37.518-3.2027 0 0-11.896 11.438-29.74 11.438s-8.4518-11.688-19.674-20.131z" fill="#d1d1d1"/>
     <path id="path5128" d="m96.038 939.5s22.571 3.0526 22.571 9.7618c0 6.7093 13.131 4.6718 9.1506-2.4414-3.9802-7.1168-18.3-10.176-31.722-8.6466" fill="#f9f9f9"/>
     <path id="path5130-9" d="m49.552 950.94s46.138 5.2402 55.158 55.157l5.9604-1.3654s-10.979-48.831-56.729-56.727" fill="#d1d1d1"/>
     <path id="path5132" d="m221.48 977.89s12.526 0.24665 14.116 7.6172" fill="#d1d1d1"/>
     <path id="path5134" d="m698.29 983.82s2.2877-28.824-13.726-44.838-44.137-10.727-44.137-10.727l-9.8512-8.643s-3.3779-11.817-11.817-11.817c-8.4393 0-42.365 12.496-42.365 21.844 0 9.3436-11.338 18.612-31.534 25.747-20.198 7.1346-54.779 7.9139-46.329 16.364 8.45 8.45 77.984 7.5028 99.066 21.225s100.69 19.213 100.69-9.1542z" fill="#f9f9f9"/>
     <path id="path5136" d="m698.29 983.82s-32.027 16.471-69.545 8.2356c-37.518-8.2356-109.96-28.71-119.03-28.71-9.0756 0-15.706 12.929-15.706 12.929s53.299 9.3758 87.156 23.102 81.441 20.131 114.38 7.3205z" fill="#d1d1d1"/>
     <path id="path5138" d="m695.54 1001.2s-38.157 12.961-80.068 4.1178c-41.911-8.8396-98.841-34.361-119.88-34.361l-1.5906 7.367s74.345 16.929 97.679 27.909c23.334 10.981 68.576 12.014 102.46 0.9758" fill="#828282"/>
     <path id="path5140" d="m640.42 928.25s-20.85 5.2187-23.12 15.302c-2.2698 10.084-35.23 4.5753-35.23-5.0328 0-9.6082 48.498-18.912 48.498-18.912" fill="#d1d1d1"/>
     <path id="path5142" d="m629.2 936.69s-11.896 4.5753-11.896 11.896c0 7.3205-24.707 5.4904-37.518-3.2027 0 0 11.896 11.438 29.74 11.438s8.4536-11.688 19.674-20.131z" fill="#d1d1d1"/>
     <path id="path5144" d="m635.15 924.95s-22.569 3.0526-22.569 9.7618c0 6.7093-13.133 4.6718-9.1506-2.4414 3.9784-7.1168 18.299-10.176 31.72-8.6466" fill="#f9f9f9"/>
     <path id="path5146" d="m681.63 936.39s-46.137 5.2402-55.158 55.158l-5.9586-1.3654s10.977-48.831 56.727-56.727" fill="#d1d1d1"/>
     <path id="path5148" d="m509.71 963.34s-12.525 0.24665-14.116 7.6172" fill="#d1d1d1"/>
     <path id="path5150" d="m59.269 659.31s9.3168 171.61-12.645 193.57c-21.962 21.962 412.77 107.14 598.95 27.949l30.615-18.798s5.7478-115.85 19.345-179.63c13.61-63.78-231.63-98.55-231.63-98.55h-214.12" fill="#1c1513"/>
     <path id="path5152" d="m64.926 807.12s78.695 49.413 164.71 31.112c86.016-18.301 208.29-140.58 208.29-140.58l-47.242-29.625-203.14 76.865" fill="#020000"/>
     <path id="path5154" d="m423.69 700.38s-37.287 58.45-28.354 68.497c8.9326 10.051 210.56 43.784 277.55 10.051l-84.223 54.546 53.597-10.766-43.069 48.445 77.085-35.566 9.5617-104.71" fill="#020000"/>
     <path id="path5156" d="m221.86 830.45s66.571 21.733 88.304 0 21.962-59.937 21.962-59.937" fill="#020000"/>
     <path id="path5166" d="m-34.698 373.31s20.571-45.742 50.471-60.929c29.9-15.186 57.635-32.103 57.635-32.103l-13.643 19.296s9.4214-12.9 39.978-22.236c30.555-9.3356 73.128-43.707 81.792-54.549l8.6627-10.843-17.445 2.9346s30.974-32.09 40.288-45.968c9.3141-13.877 14.294-22.331 14.294-22.331l-19.391 12.037s19.817-34.798 28.693-52.573c8.8745-17.775 9.3079-22.761 9.3079-22.761l-13.65 10.411s7.241-41.291 9.9433-52.456c2.7023-11.163-7.1525-2.1634-7.1525-2.1634s11.791-44.759 21.419-73.483c9.6296-28.724 16.104-76.844 45.91-75.233 29.804 1.6112 65.947 113.1 79.501 128.38 13.554 15.275 21.038 29.25 21.038 29.25l-22.01-11.377s21.91 37.049 26.033 47.452c4.1231 10.403 8.0282 18.854 8.0282 18.854l-18.33-13.757s44.145 77.027 61.275 88.94c17.129 11.913 55.07 33.348 55.07 33.348s24.272 14.075 54.725 12.651c30.454-1.4244 69.257 1.1563 82.584 5.5931s43.249 24.795 43.249 24.795l-18.966-1.8328s48.779 21.214 71.332 46.346c22.551 25.132 21.048 47.022 21.048 47.022l-11.603-6.6047s26.047 74.108 20.98 126.02c-5.065 51.912-15.76 115.31-86.943 149.92-71.184 34.608-148.56 31.395-187.57 26.862-39.015-4.5324-107.84-28.442-149.44-3.0669-41.6 25.38-101.62 53.801-191.35 54.927-89.718 1.13-114.87-20.74-156.94-70.36-42.074-49.61-74.761-174.33-38.818-250.42z" fill="url(#linearGradient5158-2)"/>
     <path id="path5178" d="m231.71 336.17c-51.21-20.94-167.6-15.36-167.6-15.36" fill="url(#linearGradient5168-94)"/>
     <path id="path5190" d="m267.14 321.85-35.142-62.727 41.144 36.879-7.9818-31.694 17.888 14.295s-25.712-57.855-24.426-86.139c1.2859-28.286 0.14293-38.526 0.14293-38.526l18.236 57.208 2.5575-83.228 19.228 92.646 1.2788-41.616s14.004 45.834 19.379 67.451c5.376 21.617 2.7756 24.868 5.376 21.617 2.5986-3.2528 0.12865-65.184 0.12865-65.184l12.206 29.74-12.064-68.266 24.406 46.153-6.5252-45.187 19.529 42.253-13.688-69.564s29.781 67.768 26.383 103.7c-3.3957 35.926-4.0409 43.404-4.0409 43.404l16.696-89.25 5.7102 37.871 19.978-33.333-2.906 40.314 22.249-39.511-18.174 62.755 32.817-37.73s-13.31 39.996-19.963 59.993c-6.6556 19.997-5.5065 43.567-5.5065 43.567s68.419-37.26 94.748-40.198c26.333-2.94-11.696 14.636-11.696 14.636l-51.521 16.119 90.21-14.513s-77.693 20.52-73.302 20.03c4.3876-0.48971 72.32-28.808 121.9-22.494 49.58 6.3161 75.264 10.854 75.264 10.854l-144.66 17.629 111.51 3.8452-72.328 15.478 95.905-3.2992s-119.14 34.032-114.75 33.543c4.3877-0.48971 138.98-15.513 138.98-15.513l-118.81 36.961 105.5 16.364-88.429 3.9462 94.3 35.391-122.57-10.019 112.35 51.147-159.16-32.592 136.9 58.775s-242.08-85.542-284.02-76.418c-41.934 9.1238-250.58 143.5-250.58 143.5l118.47-106.55-118.8 50.29 95.71-71.41-107.92 28.34 123.35-49.31-99.48 11.1 74.12-12.72s-77.214-1.7497-70.063-4.0302c7.1525-2.2769 100.78-12.729 87.611-11.26-13.167 1.4709-159.29 19.263-159.29 19.263l121.57-25.41-114.6-4.98 92.16-10.29-89.078-1.91 90.698-10.12-93.958-5.81s122.23-19.568 147.59-17.955c25.358 1.6121-85.998-14.099-85.998-14.099l75.097-3.9382s-99.816-18.481-92.502-19.297c7.3133-0.81677 93.469 1.4155 93.469 1.4155l-109.08-8.56s112.47-27.365 180.27-3.83z" fill="url(#radialGradient5180-3)"/>
     <path id="path5204" d="m307.43 284.77s-47.74 103.08-38.785 130.22c8.954 27.141 55.759 8.5858 65.366 41.578 9.609 32.996 8.1587 59.815 31.891 60.13 23.733 0.31097 29.414-15.131 26.476-41.464-2.94-26.331-0.0214-39.988 22.078-54.303 22.101-14.316 31.682-34.64 9.8798-70.716-21.799-36.076-55.792-75.233-55.792-75.233z" fill="url(#radialGradient5192-3)"/>
     <path id="path5206" d="m293.85 415.14s37.871-5.7084 42.431 8.593c4.5583 14.301-19.992 6.6735-42.431-8.593z" fill="#c66b61"/>
     <path id="path5208" d="m423.88 399.15s-18.596 32.438-32.172 30.251c-13.572-2.1876-3.5047-24.787 32.172-30.251z" fill="#c66b61"/>
     <path id="path5210" d="m-46.111 518.75s150.81-82.002 309.47-76.015l-5.22-11.27s-166.24-3.1688-304.26 87.281z" fill="#f9f4ef"/>
     <path id="path5212" d="m0.64997 619.19s164.54-126.99 262.82-157.7c0 0 10.293-5.1008 1.1894-7.047-9.105-1.9463-192.42 80.727-264.01 164.75z" fill="#f9f4ef"/>
     <path id="path5214" d="m68.079 665.96s200.5-176.41 208.84-181.29c8.3419-4.8827 9.3142-13.876 9.3142-13.876s-166.17 130.12-218.16 195.17z" fill="#f9f4ef"/>
     <path id="path5216" d="m13.089 359.09s129.72 3.2885 236.27 55.58c0 0 5.3117 3.36 4.3322-5.4189-0.97941-8.7753-155.54-57.68-240.6-50.161z" fill="#f9f4ef"/>
     <path id="path5218" d="m777.45 413s-165.18-46.732-318.6-5.9068l2.5915-12.139s161.45-39.747 316.01 18.046z" fill="#f9f4ef"/>
     <path id="path5220" d="m753.98 521.28s-188.49-87.578-291.12-95.871c0 0-11.161-2.7041-2.7112-6.6092 8.4518-3.9069 205.48 36.317 293.84 102.48z" fill="#f9f4ef"/>
     <path id="path5222" d="m698.53 581.77s-234.46-127.86-243.68-130.78c-9.2132-2.9239-12.146-11.481-12.146-11.481s190.77 90.28 255.82 142.26z" fill="#f9f4ef"/>
     <path id="path5224" d="m684.5 270.33s-125.8 31.809-218.2 106.31c0 0-4.4377 4.4466-5.4171-4.3305-0.98118-8.7771 138.99-90.557 223.62-101.98z" fill="#f9f4ef"/>
     <path id="path5236" d="m102.21 404.84s60.903 163.06 288.05 111.83c0 0 143.09-21.175 188.84-106.91l-13.025-10.409s25.657-4.2661 38.921 31.107l-14.659-11.715s-82.768 97.35-209.18 111.46c-126.41 14.112-122.26 26.54-153.89 23.624-31.631-2.9132-39.937-39.737-39.937-39.737s-68.07-56.239-86.115-105.17l-8.6171 10.782s2.9954-33.482 25.455-19.415" fill="url(#linearGradient5226-4)"/>
     <path id="path5248" d="m460.18-131.44s17.127-45.605 50.616-37.493c33.491 8.1096 45.128 39.396 66.83 41.417 21.704 2.0196 36.007 4.1258 45.934 26.716 9.9299 22.59 11.801 26.083 11.801 26.083s-21.304-18.357-34.142-7.2964c-12.836 11.06-19.969 46.662-51.583 55.375-31.611 8.7119-102.42-28.556-89.456-104.8z" fill="url(#radialGradient5238-9)"/>
     <path id="path5260" d="m109.46-84.89s-26.76-40.705-57.638-25.41-35.331 48.377-56.054 55.133c-20.721 6.7566-34.21 11.966-38.912 36.188-4.7031 24.223-5.7567 28.044-5.7567 28.044s16.732-22.604 31.689-14.646c14.959 7.9576 29.768 41.11 62.524 42.639 32.755 1.5272 93.604-50.439 64.147-121.95z" fill="url(#radialGradient5250-2)"/>
     <path id="path5270" d="m481.27-68.628s11.624 4.6262 30.474-12.29c18.848-16.913 29.159-37.319 50.214-27.822 21.054 9.5 36.822 11.442 36.822 11.442s-25.924 6.5967-32.903 23.668c-6.9827 17.072-58.253 48.715-84.608 5.0016z" fill="url(#linearGradient5262-3)"/>
     <path id="path5280" d="m102.74-18.972s-10.317 7.0774-32.432-5.2661c-22.113-12.344-36.67-29.973-55.113-16.065-18.442 13.907-33.395 19.279-33.395 19.279s26.741 0.71757 37.315 15.83c10.576 15.113 67.561 34.672 83.625-13.778z" fill="url(#linearGradient5272-6)"/>
     <path id="path5282" d="m128.36 73.701s2.4012 0.51383 6.1561 1.6818c11.264 3.5057 34.711 12.906 42.051 32.02 9.7869 25.484 23.633 42.933 36.062 42.933l17.68-32.113s-10.989 7.3795-24.003-5.6342c-13.02-13.025-19.68-19.686-19.68-19.686v11.438s-2.5915-17.274-18.301-26.537c-15.71-9.2623-23.502-12.295-23.502-12.295l13.436 11.38s-30.655-14.183-55.361 0c0 0 19.971-4.6781 25.456-3.2z" fill="#7c502c"/>
     <path id="path5284" d="m411.77 114.52s3.5066 0.58979 26.875-26.875c23.368-27.464 57.89-50.698 83.206-25.382 0 0-29.891-18.912-51.244 8.5403h7.9299l-16.471 16.47 12.171-5.4457s-50.895 36.564-38.549 68.589z" fill="#7c502c"/>
     <path id="path5298" d="m28.836 651.05s17.179 137.77 124.55 146.32c107.37 8.5394 179.35-67.107 216.56-87.238s32.333-32.331 32.333-32.331l7.3205-7.3205c7.3205-7.3205-7.3205-20.741-7.3205-20.741-7.299-26.866-58.142-38.579-136.65 4.8809-78.507 43.458-150.6 37.439-150.6 37.439s-63.885-16.521-86.189-41.004z" fill="url(#radialGradient5286-3)"/>
     <path id="path5312" d="m345.06 626.44s45.69-46.254 97.485-15.753c51.796 30.504 192.78 51.839 280.01-16.782 0 0-4.2733 93.649-88.459 125.37-84.186 31.723-217.17-18.301-259.88-37.821-42.703-19.52-93.529-34.678-93.529-34.678s31.546-33.864 64.368-20.335z" fill="url(#radialGradient5300-6)"/>
     <path id="path5314" d="m219.9 675.16s36.864 119.16 85.527 135.63c0 0-8.5197 23.824-32.014 18.387-23.494-5.4368-29.131-11.074-29.131-11.074s-7.3205 12.811-29.282 12.811-137.83 4.2322-177.81-74.749c-39.976-78.981-61.343-174.9-61.343-174.9s73.24 134.84 244.05 93.899z" fill="#1c1513"/>
     <path id="path5316" d="m488.29 628.66s2.8846 59.91-29.707 92.502-50.605 51.687-13.499 51.687h24.296 27.452 23.792s98.827 3.1562 173.86-53.578c75.035-56.734 53.978-155.29 53.978-155.29s-96.682 105.83-260.17 64.68z" fill="#1c1513"/>
     <path id="path5318" d="m488.29 628.66s3.4601 1.3654 8.7467 3.7711c15.862 7.2204 48.171 23.822 52.868 41.087l6.2625 23.02v-39.491l32.556 32.556-22.33-45.001" fill="#020000"/>
     <path id="path5320" d="m219.9 675.16s-58.499 19.795-67.124 47.773c-8.6252 27.977-17.776 37.128-17.776 37.128s6.8353-53.685 26.076-65.97l-36.978 18.466s8.6207-29.078 29.685-29.686c21.064-0.60765 66.117-7.7101 66.117-7.7101z" fill="#020000"/>
     <path id="path5334" d="m377.89 683.1s-5.4636-5.4654 0-5.4654h5.4636s-2.5397-4.2929 0-6.8308l2.5396-2.5414s-3.0848-2.184 0-5.2688 5.2544-3.0848 5.2544-3.0848-2.7452-1.4906 0-4.2358c2.7452-2.7434 5.4904-2.7434 5.4904-2.7434s-3.503-1.5299 0-5.0328l3.503-3.503s-3.7389-0.0787 0-3.8175c3.7389-3.7389 5.6476-3.7389 5.6476-3.7389s-2.974-1.5227 0-4.4967l4.4431-4.4431s-2.8113-0.0679 0-2.8774c2.8113-2.8131 6.0802-2.8131 6.0802-2.8131s-2.7452-2.2197 0-4.9649l2.7452-2.7452s-2.974-2.5164 0-5.4904 6.4054-2.974 6.4054-2.974-2.8649-2.8667 0-2.8667 9.3687 0.52545 9.3687 3.5137c0 2.9918-48.833 79.927-48.833 79.927z" fill="url(#radialGradient5322-95)"/>
     <path id="path5348" d="m387.72 687.33 48.993-79.759s0.9508-3.1169 3.3904 0-48.831 81.228-48.831 81.228z" fill="url(#radialGradient5336-7)"/>
     <path id="path5362" d="m396.61 690.95 45.928-80.263s6.0998 2.4414 6.0998 6.1016-4.2697 3.6602-4.2697 3.6602 2.2108 9.2257 0 11.435c-2.2108 2.2126-5.2777-0.8543-5.2777-0.8543s1.9356 7.0059 0 8.9397c-1.9356 1.9374-5.703 1.9374-5.703 1.9374v7.8245c0 2.4378-4.8791 2.4378-4.8791 2.4378s3.0508 2.4396 0 5.4922c-3.0508 3.049-4.881 1.2189-4.881 1.2189s3.6602 6.1016 1.8301 7.9317-7.3205 1.8301-7.3205 1.8301 3.4672 3.0168 0 6.4841c-3.4672 3.4672-6.0998 3.4672-6.0998 3.4672s2.1357 6.2124 0 8.35c-2.1358 2.1339-6.7111 2.1339-6.7111 2.1339s5.2562 5.258 0 5.258-8.7163-3.385-8.7163-3.385z" fill="url(#radialGradient5350-1)"/>
     <path id="path5376" d="m268.45 653.07s28.887 28.365 40.789 55.824c11.902 27.463 13.217 33.768 13.217 33.768l25.515-18.162s-34.622-59.536-46.01-70.923l-21.277-6.8022" fill="url(#radialGradient5364-9)"/>
     <path id="path5390" d="m338.22 689.69c0 14.655-12.017 26.537-26.842 26.537s-26.842-11.882-26.842-26.537 12.017-26.537 26.842-26.537c14.824 0 26.842 11.882 26.842 26.537z" fill="url(#radialGradient5378-1)"/>
     <path id="path5392" d="m329.68 689.13c0 10.212-8.2785 18.491-18.491 18.491s-18.492-8.2785-18.492-18.491 8.2793-18.494 18.492-18.494c10.212 0 18.491 8.282 18.491 18.494z" fill="#232323"/>
     <path id="path5394" d="m303.45 673.83 3.6602 6.7093" stroke="#d1aa3f" stroke-width="1.8301" fill="none"/>
     <path id="path5396" d="m297.96 698.23 4.5753-2.7452" stroke="#d1aa3f" stroke-width="1.8301" fill="none"/>
     <path id="path5398" d="m320.84 683.89 4.2697-2.4414" stroke="#d1aa3f" stroke-width="1.8301" fill="none"/>
     <path id="path5400" d="m315.65 696.7 3.965 6.4054" stroke="#d1aa3f" stroke-width="1.8301" fill="none"/>
     <path id="path5402" d="m312.48 688.71c0 0.97584-0.79175 1.7658-1.7694 1.7658-0.97672 0-1.7685-0.78995-1.7685-1.7658 0-0.9794 0.79174-1.7694 1.7685-1.7694 0.97762 0 1.7694 0.78995 1.7694 1.7694z" stroke="#d1aa3f" stroke-width="1.8301" fill="none"/>
     <path id="path5404" d="m308.94 688.71-11.286-2.6844h11.591" fill="#d1aa3f"/>
     <path id="path5406" d="m311.73 687.26 3.3162-12.521-2.562 13.969" fill="#d1aa3f"/>
     <path id="path5420" d="m295.77 759.95s23.067 86.216 72.954 102.68c49.887 16.46 87.237-89.783 87.237-89.783h4.2697s-36.238 96.55-82.356 94.055c-45.143-2.4414-72.068-59.047-86.492-104.37" fill="url(#radialGradient5408-6)"/>
     <path id="path5434" d="m300.15 757.3s46.615 111.44 88.097 99.234c41.482-12.2 60.394-83.682 60.394-83.682h4.8791s-33.552 98.323-79.305 87.342-78.444-100.24-78.444-100.24" fill="url(#radialGradient5422-9)"/>
     <path id="path5448" d="m340.07 928.42h35.9v19.82c0 1.8284 0.43251 3.1616 1.3038 3.9909 0.86413 0.82927 2.2725 1.2439 4.2241 1.2439 1.5951 0 2.881-0.3092 3.8568-0.93474 0.96956-0.61838 1.4602-1.4083 1.4602-2.3663v-16.893c0-2.1554-0.49061-3.6799-1.4602-4.5753-0.97582-0.89362-2.8167-1.7998-5.5279-2.7112l-24.15-8.1444c-5.51-1.8695-9.4893-4.2483-11.938-7.1346-2.4476-2.8864-3.6692-6.7254-3.6692-11.506v-11.867c0-8.8396 1.9695-14.602 5.9131-17.284 3.9444-2.6809 11.698-4.1714 23.256-4.4645v-8.2266h23.934v8.2266c9.8691 0.12866 17.138 1.4387 21.801 3.9266 4.6629 2.4896 6.9943 6.3286 6.9943 11.517v21.579h-35.153v-14.519c0-2.016-0.43788-3.4011-1.3029-4.1607-0.87039-0.75957-2.419-1.1385-4.6397-1.1385-1.7408 0-2.9909 0.37889-3.7568 1.1385-0.76494 0.75956-1.1456 2.1447-1.1456 4.1607v9.4723c0 2.0088 0.48524 3.4994 1.4611 4.4574 0.97046 0.96511 2.881 1.9052 5.7325 2.8292l21.836 7.274c6.1007 1.9928 10.454 4.3233 13.06 7.0006 2.6058 2.6755 3.9087 6.2928 3.9087 10.85v18.886c0 9.4187-1.9052 15.302-5.7084 17.652-3.8104 2.3538-11.505 3.7389-23.087 4.1589v8.602h-23.934v-8.602c-11.424-0.25557-19.142-1.7515-23.151-4.5038-4.0141-2.7523-6.0185-8.5197-6.0185-17.308z" fill="url(#radialGradient5436-3)"/>
     <path id="path5450" d="m347.81 877.8v19.216s-1.3208 12.278 8.1471 14.947c9.4679 2.6683 33.488 14.028 33.488 14.028s4.9578 0.91506 4.9578 4.9578v25.089s1.3726 6.1391-6.1391 6.1391-18.95-2.89-18.95-15.29v-12.398h-23.334v20.176s-0.91506 15.556 29.74 13.726c0 0 37.518 3.6602 39.805-9.1506 2.2877-12.811 3.9149-31.941 0.16984-35.687s-43.465-18.131-45.008-19.674c-1.5433-1.5424 0.45753-22.419 0.45753-22.419s2.7452-5.4904 10.523-5.4904c7.778 0 11.438 5.9479 11.438 10.981v10.523h23.792s2.7452-16.929-3.2027-22.877c-5.9479-5.9479-46.649-17.826-65.884 3.2027z" fill="#a38226"/>
     <path id="path5452" d="m362.91 886.04c0 2.2734-1.8435 4.1178-4.1178 4.1178s-4.1178-1.8444-4.1178-4.1178 1.8435-4.1178 4.1178-4.1178 4.1178 1.8444 4.1178 4.1178z" fill="#dddcd9"/>
     <path id="path5454" d="m362.91 898.71c0 2.2734-1.8435 4.1178-4.1178 4.1178s-4.1178-1.8444-4.1178-4.1178 1.8435-4.1178 4.1178-4.1178 4.1178 1.8444 4.1178 4.1178z" fill="#dddcd9"/>
     <path id="path5456" d="m374.29 908.53c0 2.2734-1.8435 4.1178-4.1178 4.1178s-4.1178-1.8444-4.1178-4.1178 1.8435-4.1178 4.1178-4.1178c2.2742 0 4.1178 1.8444 4.1178 4.1178z" fill="#dddcd9"/>
     <path id="path5458" d="m387.16 916.23c0 2.2734-1.8435 4.1178-4.1178 4.1178s-4.1178-1.8444-4.1178-4.1178 1.8435-4.1178 4.1178-4.1178 4.1178 1.8444 4.1178 4.1178z" fill="#dddcd9"/>
     <path id="path5460" d="m399.97 920.35c0 2.2734-1.8435 4.1178-4.1178 4.1178s-4.1178-1.8444-4.1178-4.1178 1.8435-4.1178 4.1178-4.1178 4.1178 1.8444 4.1178 4.1178z" fill="#dddcd9"/>
     <path id="path5462" d="m408.44 928.81c0 2.2734-1.8435 4.1178-4.1178 4.1178s-4.1178-1.8444-4.1178-4.1178 1.8435-4.1178 4.1178-4.1178 4.1178 1.8444 4.1178 4.1178z" fill="#dddcd9"/>
     <path id="path5464" d="m408.44 943.23c0 2.2734-1.8435 4.1178-4.1178 4.1178s-4.1178-1.8444-4.1178-4.1178 1.8435-4.1178 4.1178-4.1178 4.1178 1.8444 4.1178 4.1178z" fill="#dddcd9"/>
     <path id="path5466" d="m408.44 956.95c0 2.2734-1.8435 4.1178-4.1178 4.1178s-4.1178-1.8444-4.1178-4.1178 1.8435-4.1178 4.1178-4.1178 4.1178 1.8444 4.1178 4.1178z" fill="#dddcd9"/>
     <path id="path5468" d="m395.4 965.19c0 2.2734-1.8435 4.1178-4.1178 4.1178s-4.1178-1.8444-4.1178-4.1178 1.8435-4.1178 4.1178-4.1178 4.1178 1.8444 4.1178 4.1178z" fill="#dddcd9"/>
     <path id="path5470" d="m378.92 965.19c0 2.2734-1.8435 4.1178-4.1178 4.1178s-4.1178-1.8444-4.1178-4.1178 1.8435-4.1178 4.1178-4.1178 4.1178 1.8444 4.1178 4.1178z" fill="#dddcd9"/>
     <path id="path5472" d="m362.91 957.41c0 2.2734-1.8435 4.1178-4.1178 4.1178s-4.1178-1.8444-4.1178-4.1178 1.8435-4.1178 4.1178-4.1178 4.1178 1.8444 4.1178 4.1178z" fill="#dddcd9"/>
     <path id="path5474" d="m359.71 942.31c0 2.2734-1.8435 4.1178-4.1178 4.1178s-4.1178-1.8444-4.1178-4.1178 1.8435-4.1178 4.1178-4.1178 4.1178 1.8444 4.1178 4.1178z" fill="#dddcd9"/>
     <path id="path5476" d="m368.4 874.6c0 2.2734-1.8435 4.1178-4.1178 4.1178s-4.1178-1.8444-4.1178-4.1178 1.8435-4.1178 4.1178-4.1178 4.1178 1.8444 4.1178 4.1178z" fill="#dddcd9"/>
     <path id="path5478" d="m385.33 870.94c0 2.2734-1.8435 4.1178-4.1178 4.1178s-4.1178-1.8444-4.1178-4.1178 1.8435-4.1178 4.1178-4.1178 4.1178 1.8444 4.1178 4.1178z" fill="#dddcd9"/>
     <path id="path5480" d="m400.43 873.68c0 2.2734-1.8435 4.1178-4.1178 4.1178s-4.1178-1.8444-4.1178-4.1178 1.8435-4.1178 4.1178-4.1178 4.1178 1.8444 4.1178 4.1178z" fill="#dddcd9"/>
     <path id="path5482" d="m408.21 881.46c0 2.2734-1.8435 4.1178-4.1178 4.1178s-4.1178-1.8444-4.1178-4.1178 1.8435-4.1178 4.1178-4.1178 4.1178 1.8444 4.1178 4.1178z" fill="#dddcd9"/>
     <path id="path5484" d="m408.21 891.53c0 2.2734-1.8435 4.1178-4.1178 4.1178s-4.1178-1.8444-4.1178-4.1178 1.8435-4.1178 4.1178-4.1178 4.1178 1.8444 4.1178 4.1178z" fill="#dddcd9"/>
     <path id="path5494" d="m86.335 19.269-9.596 46.128 68.711-48.89v23.792s22.394-31.778 56.734-40.263c34.34-8.4849 44.291-12.473 106.15-14.004 61.856-1.5308 137.78-33.346 161.04-56.608 23.263-23.262 23.263-52.007 23.263-52.007h-164.18l-160.99 44.071" fill="url(#linearGradient5486-6)"/>
     <path id="path5496" d="m75.907-43.887s-63.139-140-14.641-188.5c48.498-48.498 84.186-106.15 133.6-106.15 49.413 0 244.32-19.216 300.14 36.602 55.819 55.819 58.056 160.09 58.056 160.09s-250.88 21.509-477.48 122.87z" fill="#1c1513"/>
     <path id="path5498" d="m86.369-29.765s-122.62 111.12-122.62 122.62c0 11.499 16.989 11.499 16.989 11.499s147.24-158.93 349.55-144.58c0 0 43.719 3.4476 87.846-21.962 44.127-25.409 134.92-79.655 134.92-79.655s-286.03-42.17-466.69 112.08z" fill="#1c1513"/>
     <path id="path5500" d="m-36.249 92.854s125.18-184.22 383.01-156.87c0 0-223.28-29.282-371.52 162.88" fill="#423b39"/>
     <path id="path5502" d="m78.285-43.887s153.73-118.77 404.46-87.846c0 0-212.11-32.737-409.85 108.08" fill="#423b39"/>
     <path id="path5504" d="m205.88-338.74s137.84 20.946 159.8 80.731c0 0 1.2207-47.583-124.45-80.526" fill="#423b39"/>
     <path id="path5518" d="m73.266-50.052s-10.294 6.1642 5.0186 6.1642 253.18-125.15 469.16-94.602c0 0 11.238 5.7978 5.619-5.6191s-218.29-45.707-479.8 94.057z" fill="url(#radialGradient5506-6)"/>
     <path id="path5532" d="m407.84 695.28s-8.9254 20.407 8.6162 17.014c17.542-3.3922 57.258-84.488 52.285-91.083-4.9721-6.5949-10.806-7.5493-14.064-4.293 0 0 6.1606-6.8451 1.8909 9.626s-46.214 96.92-48.729 68.735z" fill="url(#radialGradient5520-81)"/>
     <path id="path5534" d="m75.939 443.66s20.456-58.119 59.93-47.916v-19.029s-59.93 8.5054-59.93 66.944z" fill="#b7ae98"/>
     <path id="path5536" d="m558.26 391.54s51.108 13.615 51.108 51.108c0 0 8.7288-45.86-48.545-60.307" fill="#b7ae98"/>
     <path id="path5550" d="m131.34-114.34-30.816-98.347 23.73-7.4349c10.308-3.2304 17.247-4.1169 20.815-2.6603 3.5691 1.4557 6.7406 6.6154 9.517 15.477l3.2188 10.27c1.4226 4.5414 1.7631 8.2186 1.0196 11.033-0.74259 2.8131-2.6406 5.0891-5.6932 6.8245 3.9328 0.24395 6.9452 1.319 9.0362 3.2233 2.0902 1.9052 3.9105 5.3251 5.4573 10.261l5.0007 15.959c2.8033 8.946 3.1437 15.037 1.025 18.275-2.1179 3.2376-8.2731 6.4537-18.464 9.6466l-23.846 7.4724m5.8898-75.15-3.4208-10.916c-0.64073-2.0455-1.336-3.2742-2.0812-3.6888-0.74438-0.41464-2.008-0.34405-3.7862 0.21357l-1.5665 0.49058 6.4349 20.537c0.19302-0.0608 0.51203-0.12774 0.95616-0.20106 0.44234-0.0723 0.7417-0.13671 0.89718-0.18497 1.4691-0.46022 2.4432-1.0464 2.923-1.7586 0.47541-0.71131 0.5442-1.6166 0.19838-2.7202l-0.55493-1.7711m14.396 45.945-5.8157-18.56c-0.64161-2.0482-1.3368-3.2787-2.083-3.696-0.74528-0.41464-2.008-0.34493-3.7872 0.21267l-1.5665 0.49061 8.8539 28.256c0.19303-0.0608 0.50936-0.1358 0.94634-0.23054 0.43608-0.0957 0.73277-0.16709 0.88825-0.21627 1.4691-0.4602 2.4467-1.0348 2.9311-1.7309 0.48255-0.69166 0.546-1.6103 0.18856-2.7532z" fill="url(#radialGradient5538-44)"/>
     <path id="path5564" d="m162.08-210.28c-2.8551-9.114-3.2876-15.191-1.2948-18.232 1.9919-3.0401 8.215-6.1999 18.67-9.4759 10.691-3.3502 17.728-4.2581 21.109-2.7318 3.3814 1.5299 6.4519 6.6941 9.2096 15.495l18.401 58.728c2.8265 9.0211 3.2635 15.124 1.3163 18.308-1.9472 3.1857-8.1882 6.4278-18.719 9.7279-10.651 3.3368-17.665 4.2178-21.041 2.6353-3.3779-1.5817-6.4591-6.8228-9.2489-15.728l-18.402-58.728m21.073-5.955 18.03 57.545c0.58174 1.8551 1.2064 3.0776 1.8811 3.6674 0.67378 0.5889 1.5531 0.714 2.6353 0.37442 0.96512-0.30204 1.6174-0.79621 1.9534-1.4879 0.33601-0.69076 0.35656-1.5084 0.0598-2.4556l-0.61124-1.9526-18.031-57.545c-0.59336-1.8927-1.2278-3.1008-1.8998-3.6245-0.67557-0.52276-1.6505-0.588-2.9266-0.18854-0.85074 0.26718-1.4155 0.73633-1.6943 1.4092-0.27882 0.67289-0.26809 1.4798 0.0285 2.4262l0.57461 1.8319z" fill="url(#radialGradient5552-9)"/>
     <path id="path5578" d="m229.62-188.53 20.887-6.5448 6.0578 19.332c0.5451 1.7408 1.1715 2.9123 1.8802 3.5146 0.70864 0.60319 1.6335 0.72473 2.7765 0.36729 0.90523-0.28419 1.5638-0.80427 1.9767-1.5638 0.41107-0.756 0.48076-1.5728 0.20821-2.4432l-0.57637-1.8382-4.6075-14.705c-0.61661-1.9695-1.3422-3.3135-2.1724-4.0266-0.83018-0.714-2.1867-1.2502-4.074-1.6121l-16.374-3.3162c-3.7469-0.76047-6.7691-2.2814-9.0613-4.5556-2.2957-2.2743-4.1473-5.6691-5.561-10.178l-3.6031-11.502c-2.7631-8.8173-3.1831-14.817-1.2573-18.005 1.9248-3.1866 8.1542-6.4322 18.691-9.7333 9.8995-3.1018 16.661-4.0678 20.276-2.9007 3.6164 1.1697 6.2607 4.4243 7.9326 9.7601l1.8766 5.989 4.6075 14.703-20.483 6.4179-4.4207-14.11c-0.60676-1.9365-1.2493-3.1562-1.9275-3.6602-0.67647-0.50577-1.6282-0.56566-2.8497-0.18318-1.025 0.32081-1.6532 0.9097-1.8811 1.764-0.23146 0.8552-0.0598 2.1902 0.50936 4.0061l2.9346 9.3678c0.59337 1.8927 1.3056 3.2045 2.1411 3.9373 0.83732 0.73544 2.2001 1.2823 4.0865 1.6407l14.996 2.8462c4.0892 0.74348 7.2696 2.1447 9.5411 4.208 2.2707 2.0634 4.091 5.2688 5.4537 9.6171l7.0426 22.477c1.0455 3.3368 1.6362 5.8782 1.7711 7.6243 0.13488 1.7479-0.0867 3.3582-0.66485 4.83-0.72027 2.125-2.2894 3.9301-4.7022 5.4189-2.4154 1.4879-7.3133 3.3895-14.689 5.7013-10.77 3.3743-17.87 4.2617-21.295 2.6585-3.427-1.6023-6.493-6.7289-9.2034-15.377z" fill="url(#radialGradient5566-5)"/>
     <path id="path5592" d="m284.86-205.84 20.888-6.5449 6.0569 19.332c0.546 1.7408 1.1724 2.9123 1.8802 3.5137 0.70864 0.6032 1.6353 0.72563 2.7765 0.36729 0.90614-0.28328 1.5638-0.80337 1.9776-1.5629 0.41107-0.75689 0.48076-1.5728 0.20822-2.4432l-0.57638-1.8382-4.6075-14.705c-0.6175-1.9695-1.3422-3.3135-2.1724-4.0275-0.83018-0.71311-2.1867-1.2493-4.0749-1.6112l-16.373-3.3162c-3.7478-0.76048-6.7691-2.2814-9.0622-4.5557-2.2948-2.2743-4.1473-5.6691-5.5601-10.178l-3.604-11.502c-2.7631-8.8173-3.1831-14.817-1.2573-18.005 1.9257-3.1866 8.1551-6.4322 18.692-9.7333 9.8995-3.1026 16.661-4.0678 20.276-2.9007 3.6156 1.1698 6.2607 4.4234 7.9326 9.7601l1.8766 5.989 4.6066 14.703-20.483 6.4179-4.4207-14.11c-0.60765-1.9364-1.2493-3.1572-1.9266-3.6611-0.67825-0.5049-1.629-0.56566-2.8497-0.18318-1.0259 0.3217-1.6541 0.9097-1.882 1.764-0.23056 0.8552-0.0598 2.1912 0.50846 4.007l2.9355 9.3678c0.59337 1.8927 1.3056 3.2045 2.1411 3.9373 0.83732 0.73454 2.2001 1.2814 4.0865 1.6398l14.996 2.8471c4.0883 0.74349 7.2696 2.1447 9.5411 4.208 2.2707 2.0625 4.091 5.2679 5.4537 9.6171l7.0426 22.476c1.0455 3.3368 1.6362 5.8791 1.7711 7.6252 0.13488 1.747-0.0858 3.3582-0.66395 4.8291-0.72027 2.125-2.2904 3.931-4.7031 5.4189-2.4163 1.4888-7.3134 3.3904-14.688 5.7013-10.771 3.3752-17.871 4.2626-21.297 2.6594-3.4261-1.6032-6.493-6.7289-9.2024-15.377z" fill="url(#radialGradient5580-7)"/>
    </g>
   </g>
  </g>
 </g>
</svg>
