<?xml version="1.0" encoding="UTF-8" standalone="no"?>
<svg id="Capa_1" xmlns:rdf="http://www.w3.org/1999/02/22-rdf-syntax-ns#" xmlns="http://www.w3.org/2000/svg" xml:space="preserve" height="100" width="100" version="1.1" y="0px" x="0px" xmlns:cc="http://creativecommons.org/ns#" xmlns:dc="http://purl.org/dc/elements/1.1/" viewBox="0 0 100 100"><metadata id="metadata5377"><rdf:RDF><cc:Work rdf:about=""><dc:format>image/svg+xml</dc:format><dc:type rdf:resource="http://purl.org/dc/dcmitype/StillImage"/><dc:title/></cc:Work></rdf:RDF></metadata><path id="path1301" d="m88.424 50c0 12.508-5.9754 23.619-15.229 30.634-6.4458 4.8901-14.48 7.7899-23.196 7.7899-8.8704 0-17.038-3.0049-23.541-8.0535-9.0557-7.0292-14.884-18.02-14.884-30.371 0-21.221 17.203-38.424 38.424-38.424s38.424 17.203 38.424 38.424z" stroke-width=".15009" fill="#b2d8fa"/><ellipse id="circle1303" rx="29.184" ry="29.184" cy="40.759" cx="50" stroke-width=".15009" fill="#95c9f9"/><polygon id="polygon1305" transform="matrix(.15009 0 0 .15009 11.576 11.576)" points="155.88 88.479 190.83 324.76 344.94 340.78 344.94 88.479" fill="#192742"/><rect id="rect1307" height="7.5876" width="11.802" y="48.819" x="44.119" stroke-width=".15009" fill="#fecd9c"/><path id="path1309" d="m47.231 48.819l-3.1116-0.000148v0.000148h-0.000147v3.2089s0.000147 0 0.000147 0.000151v3.175h3.1116c0-1.075 0.89517-1.9392 1.9689-1.8888 0.20742 0.0098 0.41621 0.01474 0.6262 0.01474 2.1996 0 4.2733-0.54094 6.0953-1.4961v-3.0138z" stroke-width=".15009" fill="#eab689"/><path id="path1311" d="m61.75 25.632-23.847-1.399v14.658c0 7.2565 5.3383 13.139 11.923 13.139 6.5851 0 11.923-5.8827 11.923-13.139v-13.259z" stroke-width=".15009" fill="#fecd9c"/><g id="g1321" fill="#eab689" transform="matrix(.15009 0 0 .15009 11.576 11.576)"><path id="path1313" d="m196.55 181.99v-96.421l-21.144-1.24v97.659c0 48.346 35.566 87.539 79.438 87.539 3.585 0 7.113-0.266 10.571-0.773-38.873-5.697-68.865-42.37-68.865-86.766z"/><path id="path1315" d="m208.9 118.29s49.441 15.743 96.401 9.94-8.293-37.091-8.293-37.091l-79.883-5.326-11.317 5.326"/><path id="path1317" d="m315.6 136.13h-35.12c-2.487 0-4.502 2.016-4.502 4.502 0 2.487 2.016 4.502 4.502 4.502h35.122c2.487 0 4.502-2.016 4.502-4.502 0.002-2.486-2.015-4.502-4.502-4.502z"/><path id="path1319" d="m199.85 136.13c-2.48 0-4.606 1.939-4.651 4.418-0.046 2.526 1.987 4.587 4.501 4.587h24.675c9.797 0 17.74 7.942 17.74 17.74v35.075h4.47c5.743 0 10.398-4.655 10.398-10.398v-37.875c0-7.481-6.066-13.547-13.547-13.547z"/></g><path id="path1323" d="m51.562 45.032c-1.1334 0.32961-2.3379 0.32961-3.4714 0-0.30334-0.08734-0.63986 0.04789-0.76008 0.33668-0.12008 0.28774 0.07415 0.64196 0.44413 0.74912 1.3397 0.38979 2.7634 0.38979 4.1031 0 0.36998-0.1073 0.56436-0.46139 0.44413-0.74912-0.119-0.289-0.455-0.424-0.759-0.337z" stroke-width=".15009" fill="#ff6b86"/><path id="path1325" d="m50.439 46.95h-1.224c-0.31219 0-0.56556 0.25308-0.56556 0.56541 0 0.31219 0.25308 0.56541 0.56556 0.56541h1.2248c0.31219 0 0.56541-0.25308 0.56541-0.56541 0-0.31234-0.25319-0.56541-0.56541-0.56541z" stroke-width=".15009" fill="#eab689"/><path id="path1327" d="m68.912 62.621v7.2101c-2.7685 2.0378-5.8765 3.6426-9.2217 4.7143-2.7659 0.88721-5.6949 1.4125-8.7306 1.5166-0.37508 0.01323-0.75303 0.01965-1.1322 0.01965-0.37914 0-0.75693-0.0064-1.1334-0.01965-3.0357-0.10401-5.9634-0.6292-8.7306-1.5166-3.3452-1.0729-6.4518-2.6763-9.2205-4.7143v-7.2101c0-1.2242 0.68728-2.3433 1.7773-2.8962l8.8978-4.5154 7.276 1.0927 0.5609 0.08421 1.7048 0.28309 0.03288 0.0053v1.1993l7.2431-2.6645 8.8966 4.5154c1.091 0.5528 1.7795 1.6718 1.7795 2.8961z" stroke-width=".15009" fill="#ededed"/><path id="path1329" d="m45.881 55.608-2.1313-0.3988-8.8966 4.5154c-1.0913 0.5528-1.7785 1.6719-1.7785 2.8962v8.7741c-0.8-0.487-1.578-1.008-2.331-1.563v-7.2101c0-1.2242 0.68728-2.3433 1.7773-2.8962l8.8978-4.5154 3.3292-1.0783z" stroke-width=".15009" fill="#c2c2c2"/><path id="path1331" d="m50.959 56.209v19.853c-0.37508 0.01323-0.75302 0.01965-1.1322 0.01965-0.37914 0-0.75693-0.0064-1.1334-0.01965v-19.853z" stroke-width=".15009" fill="#f7f7f7"/><path id="path1333" d="m51.476 56.253h-2.7367v0.22243l-0.04441-0.0189v3.5353l0.99318-1.7879c0.09456-0.16989 0.13928-0.35361 0.13928-0.53434 0 0.18055 0.04471 0.36367 0.13928 0.53434l0.99318 1.7879v-2.322h0.51633v-1.4166z" stroke-width=".15009" fill="#ededed"/><g id="g1339" fill="#f7f7f7" transform="matrix(.15009 0 0 .15009 11.576 11.576)"><path id="path1335" d="m211.59 274.83 38.803 16.631c4 1.715 5.639 6.511 3.527 10.315l-12.566 22.62c-2.438 4.389-8.463 5.091-11.845 1.381l-31.979-35.074c-2.949-3.234-2.431-8.312 1.108-10.886l5.743-4.176c2.09-1.522 4.83-1.831 7.209-0.811z"/><path id="path1337" d="m298.1 274.83-38.803 16.631c-4 1.715-5.639 6.511-3.527 10.315l12.566 22.62c2.438 4.389 8.463 5.091 11.845 1.381l31.979-35.074c2.949-3.234 2.431-8.312-1.108-10.886l-5.743-4.176c-2.09-1.522-4.83-1.831-7.209-0.811z"/></g><g id="g1347" fill="#474f70" transform="matrix(.15009 0 0 .15009 11.576 11.576)"><circle id="circle1341" cy="315.34" cx="254.85" r="4.882"/><circle id="circle1343" cy="354.54" cx="254.85" r="4.882"/><circle id="circle1345" cy="393.75" cx="254.85" r="4.882"/></g><path id="path1349" d="m59.107 36.283c0 0.57396-0.46424 1.0399-1.0382 1.0399h-3.5178c-0.28698 0-0.54574-0.11603-0.73396-0.30425s-0.30425-0.44849-0.30425-0.73562c0-0.17726 0.04399-0.34341 0.12234-0.48931 0.17412-0.3278 0.2211-0.84848 0.61794-0.84848l4.0511-0.05329c0.28698 0 0.50972 0.60698 0.57081 0.34972 0.07219-0.30739 0.06274 0.46109 0.10972 0.55205 0.0785 0.14589 0.12234 0.31204 0.12234 0.48931z" stroke-width=".15009" fill="#fff"/><path id="path1351" d="m57.904 36.744c0 0.20549-0.0378 0.39985-0.10972 0.57877h-2.9704c-0.07219-0.17877-0.10972-0.3733-0.10972-0.57877 0-0.29329 0.08001-0.56781 0.21793-0.80301l1.4633-0.25875 1.2908 0.25875c0.13928 0.23535 0.21778 0.50972 0.21778 0.80301z" stroke-width=".15009" fill="#523905"/><path id="path1353" d="m54.463 35.919h3.6937c0.30153 0 0.57441 0.1225 0.77179 0.31986 0.07578 0.07578 0.14033 0.16301 0.19136 0.25844 0.08149-0.1669 0.12862-0.35361 0.12862-0.55175 0-0.69554-0.56375-1.2594-1.2594-1.2594h-3.3584c-0.69554 0-1.2594 0.56375-1.2594 1.2594 0 0.19827 0.04698 0.38499 0.12862 0.5519 0.18372-0.34401 0.54574-0.57846 0.96316-0.57846z" stroke-width=".15009" fill="#30497b"/><path id="path1355" d="m47.011 36.283c0 0.57396-0.46424 1.0399-1.0382 1.0399h-3.5178c-0.28698 0-0.54574-0.11603-0.73396-0.30425s-0.30425-0.44849-0.30425-0.73562c0-0.17726 0.04399-0.34341 0.12234-0.48931 0.17412-0.3278 0.2211-0.84848 0.61794-0.84848l4.0511-0.05329c0.28698 0 0.51122 0.60698 0.57081 0.34972 0.07219-0.30739 0.06274 0.46109 0.11138 0.55205 0.07684 0.14589 0.12068 0.31204 0.12068 0.48931z" stroke-width=".15009" fill="#fff"/><g id="g1361" fill="#523905" transform="matrix(.15009 0 0 .15009 11.576 11.576)"><path id="path1357" d="m228.07 167.68c0 1.369-0.251 2.664-0.731 3.856h-19.79c-0.47-1.191-0.721-2.487-0.721-3.856 0-1.954 0.522-3.783 1.442-5.35l9.749-1.724 8.6 1.724c0.928 1.568 1.451 3.396 1.451 5.35z" fill="#523905"/></g><path id="path1365" d="m65.836 27.58v31.487l-5.0815-2.5933v-13.883c0-3.2925 1.0532-12.229-6.0149-12.229-2.1708 0-4.0691-0.474-5.7003-1.1625l-0.0012-0.0012c-1.922-0.80961-3.4766-1.9169-4.6813-2.8988-0.0012-0.0012-0.0038-0.0027-0.0053-0.0038-0.0012 0.0027-0.0027 0.01058-0.0053 0.02381v0.0012c-0.07491 0.4042-8.3411 15.701-3.7335 31.104-8.0487-1.668-13.634-8.7597-13.634-16.731 0-0.91498 0.0737-1.8417 0.225-2.7738 2.2131-13.575 8.1135-26.343 22.623-26.343h0.0038c8.8403 0 16.006 7.1654 16.006 16.004z" stroke-width=".15009" fill="#30497b"/><path id="path1369" d="m31.547 37.92c2.089-12.812 7.464-24.903 20.258-26.223-0.647-0.079-1.306-0.121-1.974-0.121h-0.0042c-14.51 0-20.411 12.768-22.624 26.344-1.4745 9.044 4.437 17.645 13.41 19.504-0.17817-0.59528-0.33472-1.1904-0.4755-1.7846-6.1587-3.4108-9.7802-10.42-8.5902-17.719z" stroke-width=".15009" fill="#223559"/><path id="path1371" d="m49.038 29.198c-1.922-0.80961-3.4766-1.9169-4.6813-2.8988l2.1788-4.68c-0.03704 0.10522-1.4047 4.1402 2.5025 7.5787z" stroke-width=".15009" fill="#223559"/><path id="path1373" d="m42.367 35.919h3.6937c0.30153 0 0.57441 0.1225 0.77179 0.31986 0.07578 0.07578 0.14018 0.16301 0.19136 0.25844 0.08149-0.1669 0.12862-0.35361 0.12862-0.55175 0-0.69554-0.56375-1.2594-1.2594-1.2594h-3.358c-0.69554 0-1.2594 0.56375-1.2594 1.2594 0 0.19827 0.04698 0.38499 0.12862 0.5519 0.18372-0.34401 0.54574-0.57846 0.96316-0.57846z" stroke-width=".15009" fill="#30497b"/><path id="path1375" d="m73.196 61.846v18.789c-6.4458 4.8901-14.48 7.7899-23.196 7.7899-8.8704 0-17.038-3.0049-23.541-8.0535v-18.525c0-1.4946 1.2123-2.707 2.707-2.707h41.323c1.4945 0 2.7068 1.2123 2.7068 2.707z" stroke-width=".15009" fill="#192742"/><path id="path1379" d="m73.196 64.041v16.593c-6.4458 4.8901-14.48 7.7899-23.196 7.7899-8.8704 0-17.038-3.0049-23.541-8.0535v-16.329c0-1.4946 1.2123-2.707 2.707-2.707h41.323c1.4945 0 2.7068 1.2123 2.7068 2.707z" stroke-width=".15009" fill="#30497b"/><path id="path1381" d="m85.128 39.542h-17.492c-1.5115 0-2.7365 1.2254-2.7365 2.7367v7.1658c0 1.5115 1.2254 2.7367 2.7365 2.7367h2.5957v4.7691l6.2111-4.7691h8.6849c1.5115 0 2.7367-1.2254 2.7367-2.7367v-7.1658c0.000151-1.5115-1.2251-2.7367-2.7367-2.7367z" stroke-width=".15009" fill="#ededed"/><path id="path1383" d="m73.963 48.246c0 0.48241-0.41531 0.91122-0.89772 0.91122-0.52263 0-0.91122-0.42882-0.91122-0.91122 0-0.49576 0.3886-0.91122 0.91122-0.91122 0.4824 0 0.89772 0.41546 0.89772 0.91122z" stroke-width=".15009" fill="#192742"/><path id="path1385" d="m77.286 48.246c0 0.48241-0.41531 0.91122-0.89786 0.91122-0.52248 0-0.91107-0.42882-0.91107-0.91122 0-0.49576 0.3886-0.91122 0.91107-0.91122 0.4824 0 0.89786 0.41546 0.89786 0.91122z" stroke-width=".15009" fill="#192742"/><path id="path1387" d="m80.609 48.246c0 0.48241-0.41531 0.91122-0.89772 0.91122-0.52263 0-0.91122-0.42882-0.91122-0.91122 0-0.49576 0.38859-0.91122 0.91122-0.91122 0.48241 0 0.89772 0.41546 0.89772 0.91122z" stroke-width=".15009" fill="#192742"/><ellipse id="circle1389" rx="3.4504" ry="3.4504" cy="76.077" cx="49.828" stroke-width=".15009" fill="#192742"/></svg>
