<?xml version="1.0" encoding="UTF-8" standalone="no"?>
<svg id="svg2749" xmlns:rdf="http://www.w3.org/1999/02/22-rdf-syntax-ns#" xmlns="http://www.w3.org/2000/svg" viewBox="0 0 10.583333 10.583333" width="40" version="1.1" xmlns:cc="http://creativecommons.org/ns#" height="40" xmlns:dc="http://purl.org/dc/elements/1.1/">
 <metadata id="metadata2746">
  <rdf:RDF>
   <cc:Work rdf:about="">
    <dc:format>image/svg+xml</dc:format>
    <dc:type rdf:resource="http://purl.org/dc/dcmitype/StillImage"/>
    <dc:title/>
   </cc:Work>
  </rdf:RDF>
 </metadata>
 <g id="layer1" transform="translate(0 -286.42)">
  <path id="path1936" style="color-rendering:auto;text-decoration-color:#000000;color:#000000;font-variant-numeric:normal;shape-rendering:auto;font-variant-ligatures:normal;text-decoration-line:none;font-variant-position:normal;mix-blend-mode:normal;solid-color:#000000;font-feature-settings:normal;shape-padding:0;font-variant-alternates:normal;text-indent:0;dominant-baseline:auto;font-variant-caps:normal;image-rendering:auto;white-space:normal;text-decoration-style:solid;text-orientation:mixed;isolation:auto;text-transform:none" d="m3.2737 288.34c-0.078024-0.00001-0.15275 0.0315-0.20722 0.0873v0.001c-0.11101 0.11465-0.10823 0.29753 0.0062 0.40876l1.8107 1.8113-1.804 1.804c-0.2988 0.2722 0.13656 0.70756 0.40876 0.40876l1.804-1.804 1.8045 1.8045c0.27274 0.28928 0.69838-0.13691 0.40876-0.40928l-1.8045-1.8045 1.8113-1.8107c0.11654-0.11357 0.11654-0.30087 0-0.41444-0.11423-0.11143-0.2971-0.10935-0.40876 0.005l-1.8107 1.8107-1.8113-1.8107c-0.054599-0.056-0.12954-0.0875-0.20774-0.0873zm-0.48524 5.9056c-0.12477 0-0.23476 0.0294-0.3297 0.0884-0.094256 0.059-0.16741 0.14423-0.21962 0.25477-0.051535 0.10985-0.076998 0.23891-0.076998 0.38809v0.062c0 0.15055 0.024396 0.28083 0.073897 0.39067 0.050179 0.10916 0.12262 0.19282 0.21756 0.25115 0.095612 0.0583 0.21022 0.0878 0.34313 0.0878 0.1207 0 0.22714-0.0217 0.31936-0.0651 0.092222-0.0441 0.16431-0.10601 0.21652-0.18604 0.05221-0.0807 0.079806-0.1743 0.083199-0.28008l-0.37724 0.00053c-0.0006879 0.0759-0.02168 0.13076-0.063045 0.16536-0.041363 0.0346-0.10082 0.0522-0.1788 0.0522-0.063063 0-0.11253-0.0123-0.14779-0.0367-0.035261-0.0251-0.060723-0.0675-0.076998-0.12713-0.015596-0.0597-0.023771-0.14368-0.023771-0.25218v-0.0641c0-0.10444 0.00889-0.1872 0.025838-0.24753 0.017631-0.061 0.043449-0.10443 0.078032-0.13023 0.034583-0.0265 0.080143-0.0393 0.13643-0.0393 0.090187 0 0.15462 0.0185 0.19327 0.0558 0.038603 0.0366 0.058184 0.0947 0.058911 0.17467h0.37827c-0.00881-0.10647-0.038543-0.20027-0.0894-0.28164-0.050179-0.082-0.12085-0.1461-0.21239-0.19224-0.091544-0.0461-0.20118-0.0692-0.32866-0.0692zm2.4572 0.001c-0.12816 0-0.24155 0.0297-0.34055 0.0894-0.099002 0.0597-0.17642 0.14511-0.23203 0.25631-0.054926 0.11053-0.082165 0.24012-0.082165 0.38861v0.0543c0 0.14851 0.027239 0.27843 0.082165 0.38964 0.055604 0.11053 0.13303 0.19562 0.23203 0.25528 0.09968 0.059 0.21378 0.0884 0.34261 0.0884 0.1268 0 0.24-0.0294 0.339-0.0884 0.099002-0.0597 0.17642-0.14475 0.23203-0.25528 0.055603-0.11121 0.083199-0.24113 0.083199-0.38964v-0.0543c0-0.14849-0.027951-0.27808-0.084233-0.3886-0.055605-0.11123-0.13338-0.19665-0.23306-0.25632-0.099002-0.0597-0.21219-0.0894-0.339-0.0894zm1.4097 0c-0.11053 0-0.2095 0.0172-0.29766 0.0512-0.088153 0.0339-0.15756 0.0821-0.20774 0.14521-0.049501 0.0631-0.073897 0.13728-0.073897 0.22272 0 0.0868 0.022619 0.161 0.068729 0.22273 0.046789 0.0617 0.10676 0.11244 0.17932 0.15244 0.072557 0.0393 0.15906 0.0761 0.25942 0.11008 0.070522 0.0237 0.12338 0.0454 0.15865 0.0651 0.035939 0.0197 0.060141 0.0396 0.072347 0.0599 0.012205 0.0197 0.018087 0.0437 0.018087 0.0729 0 0.0339-0.014412 0.0631-0.042892 0.0868-0.027802 0.0231-0.07123 0.0346-0.13022 0.0346-0.05696 0-0.10307-0.007-0.13901-0.0196-0.03594-0.0136-0.06334-0.0358-0.081649-0.0677-0.017632-0.0319-0.026355-0.0753-0.026355-0.13022h-0.38137c0 0.11663 0.029727 0.21312 0.0894 0.29042s0.13709 0.13445 0.23203 0.17105c0.095612 0.0359 0.19778 0.0537 0.30696 0.0537 0.11189 0 0.20924-0.016 0.29197-0.0486 0.082728-0.0326 0.1468-0.0801 0.19224-0.14315 0.045433-0.0631 0.068213-0.13942 0.068213-0.22892 0-0.12207-0.042006-0.22262-0.12609-0.30128-0.083406-0.0787-0.20658-0.14453-0.37-0.1974-0.088831-0.0291-0.15504-0.0567-0.19844-0.0832-0.042719-0.0265-0.064079-0.0583-0.064079-0.0956 0-0.0223 0.0073-0.0426 0.02222-0.061 0.01492-0.019 0.036988-0.0345 0.066146-0.046s0.064216-0.017 0.1049-0.017c0.061028 0 0.10714 0.0146 0.13901 0.0444 0.032549 0.0291 0.049093 0.0692 0.049093 0.11937h0.37827c0-0.0963-0.024201-0.1794-0.072347-0.24856-0.047467-0.0699-0.1128-0.12308-0.19689-0.15968-0.084084-0.0366-0.18054-0.0548-0.28835-0.0548zm-3.0815 0.0207v1.4805h0.98961v-0.30592h-0.6103v-1.1746zm3.8122 0v1.4805h1.0315v-0.30592h-0.6522v-0.30541h0.55035v-0.29456h-0.5504v-0.26768h0.65577v-0.30696h-0.65577zm-2.1404 0.28991c0.086119 0 0.15233 0.036 0.19844 0.10852 0.046789 0.0719 0.07028 0.17618 0.07028 0.31315v0.0563c0 0.13495-0.023135 0.23925-0.069247 0.31316-0.04611 0.0739-0.11196 0.11059-0.1974 0.11059-0.089508 0-0.15662-0.036-0.20205-0.10852-0.044755-0.0732-0.067179-0.17825-0.067179-0.31523v-0.0563c0-0.2814 0.088827-0.42167 0.26717-0.42167z" fill="#1e8cf0"/>
 </g>
</svg>
