<?xml version="1.0" encoding="UTF-8" standalone="no"?>
<svg id="svg12173" xmlns:rdf="http://www.w3.org/1999/02/22-rdf-syntax-ns#" xmlns="http://www.w3.org/2000/svg" viewBox="0 0 21.383377 17.200437" width="21.383mm" version="1.1" xmlns:cc="http://creativecommons.org/ns#" height="17.2mm" xmlns:dc="http://purl.org/dc/elements/1.1/">
 <metadata id="metadata12170">
  <rdf:RDF>
   <cc:Work rdf:about="">
    <dc:format>image/svg+xml</dc:format>
    <dc:type rdf:resource="http://purl.org/dc/dcmitype/StillImage"/>
    <dc:title/>
   </cc:Work>
  </rdf:RDF>
 </metadata>
 <g id="layer1" stroke-width=".24781" transform="translate(-73.635 -49.486)">
  <path id="path8286-6" d="m203.66-191.57c-0.0497-0.002-0.0939 0.0323-0.11133 0.082-0.0175 0.0501-0.003 0.10077 0.0391 0.13281l0.96875 0.75a0.098415 0.098415 0 0 1 0.0332 0.11133l-0.38282 1.0879c-0.0102 0.0291-0.008 0.0641 0.006 0.0937 0.004 0.007 0.0259 0.0516 0.0606 0.10937a0.098415 0.098415 0 0 1 -0.084 0.14844h-12.895c-0.70583 0-1.2793 0.57168-1.2793 1.2773v9.1797c0 0.70566 0.57364 1.2793 1.2793 1.2793h14.686c0.70567 0 1.2793-0.57364 1.2793-1.2793v-8.6406a0.098415 0.098415 0 0 1 0.11133 -0.0977c0.2892 0.0431 0.57631 0.0555 0.85742 0.041 0.055-0.0906 0.11903-0.15902 0.19727-0.18164 0.096-0.0278 0.18816 0.005 0.25585 0.0469 0.13539 0.0842 0.21875 0.2207 0.21875 0.2207a0.098415 0.098415 0 0 1 0 0.10938l-0.86914 1.3184c-0.0184 0.0276-0.0235 0.0695-0.0117 0.10547 0.0115 0.0342 0.038 0.0596 0.0742 0.0723l0.82422 0.28906c0.0359 0.0126 0.0723 0.0102 0.10352-0.01 0.0317-0.0205 0.0533-0.057 0.0566-0.0918l0.14453-1.5723a0.098415 0.098415 0 0 1 0.0898 -0.0879c0.21234-0.0176 0.40521-0.15838 0.48047-0.37305 0.0804-0.22935 0.004-0.47362-0.17578-0.61719a0.098415 0.098415 0 0 1 -0.0332 -0.10937l0.17773-0.50586a0.098415 0.098415 0 0 1 0.0957 -0.0645l1.2246 0.0176a0.098415 0.098415 0 0 1 0.002 0c0.0511 0.002 0.094-0.0308 0.11133-0.0801 0.0174-0.0496 0.002-0.10343-0.0391-0.13476l-3.2773-2.5371c-0.0195-0.0152-0.0439-0.0252-0.0703-0.0254a0.098415 0.098415 0 0 1 -0.002 0l-4.1445-0.0645a0.098415 0.098415 0 0 1 -0.002 0z" transform="translate(-116.27 241.14)" fill="#fff"/>
  <path id="path8286-7" d="m87.381 49.486c-0.094-0.003-0.17847 0.0572-0.20954 0.14583-0.031 0.0887-0.003 0.18712 0.0725 0.2447l0.96808 0.74973-0.38172 1.0884c-0.0193 0.055-0.0156 0.11482 0.009 0.16697 0.004 0.008 0.0302 0.0563 0.0678 0.11893h-12.895c-0.75906 0-1.377 0.61764-1.377 1.3767v9.1787c0 0.75906 0.61793 1.377 1.377 1.377h6.8836v1.8356h-3.2124c-0.25306 0-0.4589 0.20543-0.4589 0.45863 0 0.25323 0.20568 0.45918 0.4589 0.45918h7.3428c0.25309 0 0.45918-0.20594 0.45918-0.45918 0-0.25322-0.206-0.45863-0.45918-0.45863h-3.2123v-1.8356h6.8839c0.75907 0 1.377-0.61793 1.377-1.377v-8.6396c0.31053 0.0463 0.61803 0.0602 0.92082 0.0411 0.12008-0.007 0.21214-0.11157 0.20461-0.23179-0.007-0.12006-0.11185-0.21157-0.23207-0.20404-0.54298 0.0342-1.1058-0.0499-1.6738-0.2491-0.13409-0.047-0.25752-0.0986-0.37597-0.15186-0.58991-0.26546-0.99203-0.59357-1.2358-0.84175-0.21657-0.22081-0.3464-0.41262-0.40674-0.51246l0.301-0.85794 1.9449 1.5063c0.0177 0.017 0.0392 0.0269 0.0609 0.0346 0.0217 0.007 0.0446 0.0145 0.0695 0.0113l2.4598 0.0376-0.12906 0.36773c-0.26972 0.002-0.5226 0.16979-0.61681 0.43859-0.0883 0.25193-0.0129 0.52193 0.1697 0.69426l-0.86864 1.3193c-0.0372 0.0557-0.0448 0.1268-0.0241 0.19005 0.0214 0.0636 0.0711 0.11397 0.13457 0.13622l0.82471 0.2889c0.0635 0.0222 0.13338 0.0139 0.19005-0.0223 0.0565-0.0364 0.0934-0.0969 0.0997-0.16369l0.14555-1.5728c0.25024-0.0207 0.47744-0.1845 0.56575-0.43639 0.0942-0.26882 0.004-0.55846-0.2079-0.7275l0.17713-0.50559 1.224 0.0186c0.094 0.003 0.17846-0.0572 0.20954-0.14583 0.0311-0.0887 0.003-0.18743-0.0725-0.24496h-0.000555l-3.2769-2.5378c-0.0374-0.0292-0.0833-0.0449-0.13046-0.0453zm0.64922 0.44655 3.4161 0.0528 2.7012 2.0916-0.67146-0.0104-0.000555 0.00027-2.2813-1.2534c-0.10594-0.0579-0.2385-0.0191-0.29632 0.0865-0.0579 0.1057-0.0193 0.2385 0.0862 0.29633l1.5583 0.85575-1.8106-0.0274zm-13.019 2.9858h13.729c0.34605 0.27574 0.80493 0.55516 1.4078 0.76648 0.005 0.002 0.005 0.002 0.007 0.004v8.8686c0 0.25325-0.20566 0.45919-0.4589 0.45919h-14.686c-0.25304 0-0.45917-0.20594-0.45917-0.45919v-9.1784c0-0.25324 0.20595-0.45918 0.45917-0.45918zm17.959 0.38475c0.0283-0.003 0.0575 0.004 0.0859 0.0118 0.11365 0.0399 0.17389 0.16501 0.13401 0.27875-0.0398 0.11369-0.165 0.17335-0.27874 0.13348-0.1137-0.0399-0.17333-0.16449-0.13347-0.27821 0.0299-0.0852 0.10727-0.14043 0.19222-0.14583zm-0.42897 1.4805-0.0594 0.64483-0.29632-0.10381-0.000555-0.000291zm-12.479 1.4514c-0.0684 0-0.12385 0.0555-0.12385 0.12385v3.7174c0 0.0684 0.0554 0.12386 0.12385 0.12386h4.7082c0.0684 0 0.12385-0.0555 0.12385-0.12386v-3.7174c0-0.0684-0.0555-0.12385-0.12385-0.12385zm0.12387 0.24799h0.4957v0.49543h-0.4957zm0.74342 0h2.9737v3.4691h-2.9737zm3.2214 0h0.49571v0.49543h-0.49571zm-2.3431 0.49624c-0.0226-0.003-0.0455 0.003-0.0665 0.0123-0.0419 0.0208-0.0684 0.0641-0.0684 0.11096v2.2303c0 0.0469 0.0265 0.0896 0.0684 0.11068 0.0175 0.009 0.0367 0.0132 0.0554 0.0132 0.0263 0 0.0526-0.009 0.0744-0.025l1.4869-1.115c0.0311-0.0232 0.0494-0.0602 0.0494-0.0991 0-0.039-0.0182-0.0759-0.0494-0.0992l-1.4869-1.115c-0.0188-0.014-0.0409-0.0221-0.0634-0.0241zm-1.6217 0.24718h0.4957v0.49543h-0.4957zm3.9648 0h0.49571v0.49543h-0.49571zm-2.2303 0.12386 1.1568 0.86728-1.1568 0.86728zm-1.7345 0.61956h0.4957v0.49544h-0.4957zm3.9648 0h0.49571v0.49544h-0.49571zm-3.9648 0.74342h0.4957v0.49544h-0.4957zm3.9648 0h0.49571v0.49544h-0.49571zm-3.9648 0.74341h0.4957v0.49545h-0.4957zm3.9648 0h0.49571v0.49545h-0.49571z" fill="#1e8cf0"/>
 </g>
</svg>
