<?xml version="1.0" encoding="UTF-8" standalone="no"?>
<svg id="Layer_1" xmlns:rdf="http://www.w3.org/1999/02/22-rdf-syntax-ns#" xmlns="http://www.w3.org/2000/svg" xml:space="preserve" height="100" width="100" version="1.1" y="0px" x="0px" xmlns:cc="http://creativecommons.org/ns#" xmlns:dc="http://purl.org/dc/elements/1.1/" viewBox="0 0 100 100"><metadata id="metadata11053"><rdf:RDF><cc:Work rdf:about=""><dc:format>image/svg+xml</dc:format><dc:type rdf:resource="http://purl.org/dc/dcmitype/StillImage"/><dc:title/></cc:Work></rdf:RDF></metadata><ellipse id="circle1610" rx="38.424" ry="38.424" cy="50" cx="50" stroke-width=".15009" fill="#b2d8fa"/><path id="path1612-7" d="m45.459 33.191h19.258c0.48143 0 0.87535 0.39391 0.87535 0.87535v35.889c0 0.48144-0.39392 0.87535-0.87535 0.87535h-27.137c-0.48146 0-0.87535-0.39391-0.87535-0.87535v-27.573z" stroke-width=".10942" fill="#86c1f7"/><g id="g3813" transform="matrix(3.4016 0 0 3.4016 -362.78 -153.09)"><g id="g3803" stroke-width=".039713" transform="matrix(.81 0 0 .81 22.947 11.271)"><path id="path1612" d="m118.71 52.489h6.9894c0.17473 0 0.3177 0.14297 0.3177 0.3177v13.026c0 0.17474-0.14297 0.3177-0.3177 0.3177h-9.8487c-0.17474 0-0.3177-0.14296-0.3177-0.3177v-10.008z" fill="#f5f5f5"/><path id="path1614" d="m118.39 55.825c0.17473 0 0.3177-0.14296 0.3177-0.3177v-3.018l-3.177 3.3359z" fill="#e6e6e6"/></g><g id="g3799" transform="matrix(1.1 0 0 1.1 -12.506 -7.578)"><ellipse id="circle1616" rx="2.0651" ry="2.0651" cy="65.197" cx="125.06" stroke-width=".039713" fill="#1f8cf0"/><g id="g1622" fill="#f5f5f5" transform="matrix(.039713 0 0 .039713 111.24 50.106)"><path id="path1618" d="m348 412c-2.208 0-4-1.788-4-4v-56c0-2.212 1.792-4 4-4s4 1.788 4 4v56c0 2.212-1.792 4-4 4z"/><path id="path1620" d="m368 376c-1.024 0-2.048-0.392-2.828-1.172l-17.17-17.17-17.17 17.17c-1.564 1.564-4.092 1.564-5.656 0s-1.564-4.092 0-5.656l20-20c1.564-1.564 4.092-1.564 5.656 0l20 20c1.564 1.564 1.564 4.092 0 5.656-0.78 0.78-1.804 1.172-2.828 1.172z"/></g></g></g></svg>
