<?xml version="1.0" encoding="UTF-8" standalone="no"?>
<svg id="svg3009" xmlns:rdf="http://www.w3.org/1999/02/22-rdf-syntax-ns#" xmlns="http://www.w3.org/2000/svg" viewBox="0 0 21.446468 31.849888" height="31.85mm" width="21.446mm" version="1.1" xmlns:cc="http://creativecommons.org/ns#" xmlns:dc="http://purl.org/dc/elements/1.1/">
 <metadata id="metadata3006">
  <rdf:RDF>
   <cc:Work rdf:about="">
    <dc:format>image/svg+xml</dc:format>
    <dc:type rdf:resource="http://purl.org/dc/dcmitype/StillImage"/>
    <dc:title/>
   </cc:Work>
  </rdf:RDF>
 </metadata>
 <g id="g3798" transform="matrix(2.8531 0 0 2.8531 .0000028531 .0000028531)">
  <path id="path116-6-5-0-8" d="m1.4968-0.000001-0.77808 0.22418 0.22418 0.77802 0.7715-0.22414zm-0.211 1.8462-0.53412 0.1517 0.15166 0.5341 0.53406-0.1517zm1.2726 4.1739-1.4572 0.4154 1.3385 4.7275 3.8243-1.081-0.9956-3.5212-1.1803 0.3362 0.6792 2.4068-1.1803 0.3362z" fill-opacity=".99923" fill="#4d4d4d"/>
  <path id="path120-1-9-1-4" d="m2.9606 0.38244-0.9297 0.26374 0.2703 0.92972 0.9297-0.2637zm3.521 0.48793-2.6638 0.75833 0.1582 0.5472-0.9297 0.2704-0.1582-0.5539-1.1012 0.3165 0.3758 1.3122 3.7123-1.0485 0.3363 1.1803-2.8155 0.7979 0.3494 1.233 3.7717-1.0748zm-5.9079 0.16483-0.57366 0.1649 0.16484 0.567 0.57366-0.1648z" fill="#58a201"/>
 </g>
</svg>
