<?xml version="1.0" encoding="UTF-8" standalone="no"?>
<svg id="Layer_1" xmlns:rdf="http://www.w3.org/1999/02/22-rdf-syntax-ns#" xmlns="http://www.w3.org/2000/svg" xml:space="preserve" height="100" width="100" version="1.1" y="0px" x="0px" xmlns:cc="http://creativecommons.org/ns#" xmlns:xlink="http://www.w3.org/1999/xlink" viewBox="0 0 100 100" xmlns:dc="http://purl.org/dc/elements/1.1/"><metadata id="metadata6388"><rdf:RDF><cc:Work rdf:about=""><dc:format>image/svg+xml</dc:format><dc:type rdf:resource="http://purl.org/dc/dcmitype/StillImage"/><dc:title/></cc:Work></rdf:RDF></metadata><path id="path1789" d="m50 88.424c21.163 0 38.424-17.261 38.424-38.424s-17.261-38.424-38.424-38.424c-21.164 0-38.424 17.261-38.424 38.424s17.261 38.424 38.424 38.424z" stroke-width=".15009" fill="#b2d8fa"/><path id="path1791" d="m51.312 11.601-4.504 26.567h6.1617l4.3889-25.886c-1.967-0.38-3.986-0.612-6.047-0.681z" stroke-width=".15009" fill="#1d8bf0"/><g id="g3931" transform="matrix(3.4016 0 0 3.4016 -133.34 -150.17)"><path id="path1793" d="m48.088 56.406h3.7798c-0.04229-2.8375 4.0266-2.9818 4.0597 0h3.7796c0.43624 0 0.7931 0.35678 0.7931 0.79322v7.0927c0 0.43644-0.35686 0.79334-0.7931 0.79334h-11.62c-0.43624 0-0.79322-0.35686-0.79322-0.79334v-7.0927c0-0.43644 0.35698-0.79322 0.79322-0.79322zm4.4798 0h2.6596c-0.03522-1.9165-2.6266-2.038-2.6597 0z" stroke-width=".039713" fill="#fff"/><path id="path3912" d="m48.57 57.234c-0.24857 0-0.4375 0.18832-0.4375 0.4043v6.2148c0 0.21592 0.18895 0.4043 0.4375 0.4043h10.654c0.24857 0 0.43555-0.18733 0.43555-0.4043v-6.2148c0-0.21685-0.18716-0.4043-0.43555-0.4043z" xlink:href="#path1795" stroke-width=".039713" fill="#adc0d3"/><path id="path1795" d="m48.57 57.234c-0.24857 0-0.4375 0.18832-0.4375 0.4043v6.2148c0 0.21592 0.18895 0.4043 0.4375 0.4043h10.654c0.24857 0 0.43555-0.18733 0.43555-0.4043v-6.2148c0-0.21685-0.18716-0.4043-0.43555-0.4043z" stroke-width=".039713" fill="#adc0d3"/><path id="path1797" d="m50.622 60.288h0.84894l0.06894 0.7155 0.12208 0.09801 0.25762 0.16397-0.87312 2.0622-0.873-2.0622 0.25762-0.16397 0.1222-0.09801 0.06866-0.71562z" stroke-width=".039713" fill="#f0b97d"/><path id="path1799" d="m50.342 61.154-0.70363 0.22457 1.4082 1.9487 1.1981-2.0141-0.4972-0.15762-0.43771 0.30904h-0.52488l-0.44303-0.31063h0.000119z" stroke-width=".039713" fill="#ecf0f1"/><path id="path1801" d="m50.89 61.437 0.0602 0.14833-0.13375 1.6912 0.23073 0.17636 0.23061-0.17636-0.13363-1.6912 0.06008-0.14833-0.15718-0.0062-0.15718 0.0062z" stroke-width=".039713" fill="#ff5b61"/><path id="path1803" d="m50.354 61.151-1.2447 0.3974s-0.16115 0.08364-0.2098 0.33855c-0.04654 0.24384-0.07073 0.49331-0.10738 0.82979 0.59362 0.5447 1.3851 0.87729 2.2544 0.87729 0.86935 0 1.6607-0.33259 2.2546-0.87737-0.03677-0.33644-0.06092-0.58592-0.10762-0.82968-0.04865-0.25488-0.20968-0.33855-0.20968-0.33855l-1.2363-0.39188-0.70093 2.0558-0.69239-2.0613h-0.000198z" stroke-width=".039713" fill="#666"/><path id="path1805" d="m50.354 61.151-0.26854 0.08574-0.05167 0.68123s0.01438 0.05596 0.05687 0.05095l0.24229 0.09114s0.01585 0.01585 0.0018 0.03594l-0.20738 0.14209 0.71645 1.3503c0.06708 0.0037 0.1347 0.0057 0.20269 0.0057s0.13562-0.002 0.20269-0.0057l0.71645-1.3503-0.20738-0.14209c-0.01418-0.02009 0.0018-0.03594 0.0018-0.03594l0.24229-0.09114c0.04269 0.0051 0.05687-0.05095 0.05687-0.05095l-0.05147-0.67904-0.26032-0.08248-0.70093 2.0558-0.69239-2.0613z" stroke-width=".039713" fill="#807d7d"/><path id="path1807" d="m50.058 58.833c0 0.06644-0.02418 0.13157-0.02252 0.19542-0.22751-0.04218-0.11759 0.63353 0.01116 0.72654 0.01021 0.0074 0.0353-0.0092 0.05667-0.02272 0.0446 0.24864 0.42564 0.91291 0.66792 1.1923 0.06719 0.0776 0.47874 0.07637 0.54529 0.0029 0.24824-0.27322 0.62873-0.9452 0.67364-1.1952 0.02137 0.01366 0.04646 0.0301 0.05667 0.02272 0.12887-0.09293 0.23863-0.76864 0.01116-0.72654 0.0019-0.06386-0.0224-0.12895-0.0224-0.19542-0.01259-0.52468-0.48811-0.78667-0.98872-0.78885-0.50062 0.0022-0.97614 0.26417-0.98872 0.78885z" stroke-width=".039713" fill="#fed198"/><path id="path1809" d="m50.363 58.16c-0.07188-0.0083-0.33092 0.07105-0.3621 0.3453-0.03106 0.27418-0.01616 0.52687-0.01616 0.52687s0.15186 0.03824 0.17084 0.19384c0.01918 0.15563 0.0056 0.15563 0.0056 0.15563l0.05488-0.01231 0.03916-0.26687c0.2272-0.14229-0.0017-0.35312 0.22553-0.40249 0.61364 0.43739 1.155 0.3625 1.3992 0.15667 0 0-0.05699 0.2152-0.01303 0.29197 0.04396 0.07668 0.01759 0.19749 0.01759 0.19749l0.05707-0.0027s-0.0104-0.31687 0.11636-0.31552c0.48136-0.79477-1.0426-1.7821-1.695-0.868v0.000119z" stroke-width=".039713" fill="#666"/><g id="g1817" fill="#fff" transform="matrix(.039713 0 0 .039713 43.731 48.517)"><path id="path1811" d="m171.66 311.84c0.449 0.031-5.233 6.439-5.233 6.439l4.834 16.559 12.965-9.674c-7.132-3.499-11.389-8.034-12.569-13.325h0.003z"/><path id="path1813" d="m196.79 311.84c-0.446 0.031 5.233 6.439 5.233 6.439l-4.834 16.559-12.968-9.674c7.131-3.498 11.388-8.033 12.569-13.324z"/><path id="path1815" d="m256 254.13h132.76v7.389h-132.76zm40.412 94.719h79.028v7.224h-79.028zm-40.41-42.93h75.629v7.389h-75.629zm0-17.262h132.76v7.392h-132.76zm0-17.259h132.76v7.386h-132.76z"/></g></g><path id="path1819" d="m48.576 11.605 4.5043 26.563h-6.161l-4.386-25.864c1.9649-0.38694 3.9834-0.62364 6.0428-0.69839z" stroke-width=".15009" fill="#3a99f1"/></svg>
