<?xml version="1.0" encoding="UTF-8" standalone="no"?>
<!-- Generator: Adobe Illustrator 19.0.0, SVG Export Plug-In . SVG Version: 6.00 Build 0)  -->

<svg
   xmlns:dc="http://purl.org/dc/elements/1.1/"
   xmlns:cc="http://creativecommons.org/ns#"
   xmlns:rdf="http://www.w3.org/1999/02/22-rdf-syntax-ns#"
   xmlns:svg="http://www.w3.org/2000/svg"
   xmlns="http://www.w3.org/2000/svg"
   xmlns:sodipodi="http://sodipodi.sourceforge.net/DTD/sodipodi-0.dtd"
   xmlns:inkscape="http://www.inkscape.org/namespaces/inkscape"
   id="Capa_1"
   xml:space="preserve"
   viewBox="0 0 100 100"
   height="100"
   width="100"
   version="1.1"
   y="0px"
   x="0px"
   sodipodi:docname="image-search.svg"
   inkscape:version="0.92.2 (5c3e80d, 2017-08-06)"><defs
     id="defs72" /><sodipodi:namedview
     pagecolor="#ffffff"
     bordercolor="#666666"
     borderopacity="1"
     objecttolerance="10"
     gridtolerance="10"
     guidetolerance="10"
     inkscape:pageopacity="0"
     inkscape:pageshadow="2"
     inkscape:window-width="1920"
     inkscape:window-height="1007"
     id="namedview70"
     showgrid="false"
     inkscape:zoom="2.8284271"
     inkscape:cx="87.665897"
     inkscape:cy="88.736553"
     inkscape:window-x="0"
     inkscape:window-y="0"
     inkscape:window-maximized="1"
     inkscape:current-layer="Capa_1"
     inkscape:measure-start="0,0"
     inkscape:measure-end="0,0" /><metadata
     id="metadata13332"><rdf:RDF><cc:Work
         rdf:about=""><dc:format>image/svg+xml</dc:format><dc:type
           rdf:resource="http://purl.org/dc/dcmitype/StillImage" /><dc:title /></cc:Work></rdf:RDF></metadata><circle
     r="38.424"
     style="fill:#b2d8fa;stroke-width:0.15008999"
     id="circle1995-6"
     cy="50"
     cx="50" /><circle
     id="circle1995"
     cy="50"
     cx="50"
     stroke-width=".15009"
     fill="#b2d8fa"
     ry="38.424"
     rx="38.424" /><path
     inkscape:connector-curvature="0"
     style="fill:#409df2;fill-opacity:1;fill-rule:nonzero;stroke:none;stroke-width:0.31067249"
     d="m 63.296041,55.629383 -0.347963,0.795321 -0.84502,1.540936 -0.944449,1.441521 -1.093576,1.342104 -0.596486,0.621345 9.046785,5.641813 0.323092,0.173977 0.646206,0.273392 0.671066,0.09942 0.671033,-0.02485 0.646206,-0.124269 0.621346,-0.273392 0.546777,-0.397661 0.497079,-0.497076 0.198836,-0.298246 0.173965,-0.3231 0.248556,-0.646198 0.09944,-0.671053 -0.04972,-0.671053 -0.149116,-0.646198 -0.273405,-0.621345 -0.397661,-0.546784 -0.521928,-0.472223 -0.298232,-0.198829 z"
     id="path7" /><path
     inkscape:connector-curvature="0"
     style="fill:#ffffff;fill-opacity:0.70588237;fill-rule:nonzero;stroke:none;stroke-width:0.31067249"
     d="m 62.00364,48.372073 v 0.820176 l -0.173987,1.590642 -0.323092,1.56579 -0.44737,1.491229 -0.621335,1.44152 -0.720764,1.342105 -0.86988,1.267544 -0.969309,1.192982 -1.068716,1.068713 -1.192983,0.994152 -1.267541,0.845029 -1.366948,0.745614 -1.416668,0.596492 -1.491226,0.472222 -1.565806,0.3231 -1.615493,0.149122 -0.820171,0.02486 -0.820193,-0.02486 -1.590622,-0.149122 -1.565795,-0.3231 -1.491226,-0.472222 -1.441517,-0.596492 -1.342099,-0.745614 -1.267552,-0.845029 -1.192983,-0.994152 -1.068705,-1.068713 -0.994158,-1.192982 -0.845031,-1.267544 -0.745613,-1.342105 -0.596486,-1.44152 -0.47223,-1.491229 -0.323092,-1.56579 -0.149127,-1.590642 -0.02486,-0.820176 0.02486,-0.820174 0.149127,-1.615499 0.323092,-1.565787 0.47223,-1.491228 0.596486,-1.416668 0.745613,-1.366958 0.845031,-1.267545 0.994158,-1.168126 1.068705,-1.093568 1.192983,-0.969298 1.267552,-0.869882 1.342099,-0.720761 1.441517,-0.621345 1.491226,-0.447369 1.565795,-0.3231 1.590622,-0.173976 h 0.820193 0.820171 l 1.615493,0.173976 1.565806,0.3231 1.491226,0.447369 1.416668,0.621345 1.366948,0.720761 1.267541,0.869882 1.192983,0.969298 1.068716,1.093568 0.969309,1.168126 0.86988,1.267545 0.720764,1.366958 0.621335,1.416668 0.44737,1.491228 0.323092,1.565787 0.173987,1.615499 z"
     id="path9" /><path
     inkscape:connector-curvature="0"
     style="fill:#409df2;fill-opacity:1;fill-rule:nonzero;stroke:#80c0f7;stroke-width:3.85233855px;stroke-linecap:round;stroke-linejoin:round;stroke-miterlimit:5;stroke-dasharray:none;stroke-opacity:1"
     d="m 57.008023,48.372073 -0.04972,1.118422 -0.422499,2.137426 -0.845042,1.963451 -1.168134,1.739765 -1.491215,1.466375 -1.739782,1.192981 -1.963445,0.820176 -2.137432,0.447369 -1.118414,0.02486 -1.118414,-0.02486 -2.137421,-0.447369 -1.963456,-0.820176 -1.739771,-1.192981 -1.466366,-1.466375 -1.193005,-1.739765 -0.820171,-1.963451 -0.44737,-2.137426 -0.02486,-1.118422 0.02486,-1.118421 0.44737,-2.137426 0.820171,-1.963451 1.193005,-1.739766 1.466366,-1.491227 1.739771,-1.16813 1.963456,-0.845028 2.137421,-0.422513 1.118414,-0.04971 1.118414,0.04971 2.137432,0.422513 1.963445,0.845028 1.739782,1.16813 1.491215,1.491227 1.168134,1.739766 0.845042,1.963451 0.422499,2.137426 z"
     id="path11" /><path
     inkscape:connector-curvature="0"
     style="fill:#b2d8fa;fill-opacity:1;fill-rule:nonzero;stroke:none;stroke-width:0.31067249"
     d="m 46.246316,40.692249 h -0.07458 -0.07458 l -0.795311,0.09942 -1.516097,0.422514 -1.391797,0.671053 -1.242692,0.919591 -1.043856,1.143274 -0.820182,1.292399 -0.571626,1.44152 -0.298265,1.540936 -0.02486,0.820176 0.02486,0.372806 0.248545,0.671052 0.49709,0.497077 0.671033,0.298245 0.372801,0.02486 0.372812,-0.02486 0.671055,-0.298245 0.497079,-0.497077 0.273372,-0.671052 V 49.04313 l 0.02486,-0.472223 0.173998,-0.869883 0.323081,-0.820175 0.447381,-0.745615 0.596497,-0.621345 0.695904,-0.521929 0.770462,-0.372808 0.869891,-0.248536 0.472219,-0.04971 0.42251,-0.04971 0.646206,-0.347955 0.42251,-0.521928 0.198836,-0.6462 -0.02486,-0.671051 -0.248534,-0.621346 -0.472219,-0.472222 -0.671066,-0.273393 z"
     id="path13" /></svg>