<?xml version="1.0" encoding="UTF-8" standalone="no"?>
<!-- Generator: Adobe Illustrator 19.0.0, SVG Export Plug-In . SVG Version: 6.00 Build 0)  -->
<svg id="Capa_1" xmlns:rdf="http://www.w3.org/1999/02/22-rdf-syntax-ns#" xmlns="http://www.w3.org/2000/svg" xml:space="preserve" viewBox="0 0 100 100" height="100" width="100" version="1.1" y="0px" x="0px" xmlns:cc="http://creativecommons.org/ns#" xmlns:dc="http://purl.org/dc/elements/1.1/"><metadata id="metadata13332"><rdf:RDF><cc:Work rdf:about=""><dc:format>image/svg+xml</dc:format><dc:type rdf:resource="http://purl.org/dc/dcmitype/StillImage"/><dc:title/></cc:Work></rdf:RDF></metadata><ellipse id="circle1995" rx="38.424" ry="38.424" cy="50" cx="50" stroke-width=".15009" fill="#b2d8fa"/><path id="polygon1999" d="m30.151 33.846v8.6374h1.4173v-6.725a0.49505 0.49505 0 0 1 0.495 -0.495h6.727v-1.417zm31.2 0v1.4173h6.727a0.49505 0.49505 0 0 1 0.495 0.495v6.725h1.4173v-8.637zm-31.343 23.671v8.6374h8.6393v-1.417h-6.726a0.49505 0.49505 0 0 1 -0.495 -0.495v-6.725zm38.424 0v6.725a0.49505 0.49505 0 0 1 -0.495 0.495h-6.727v1.4173h8.6374v-8.637z" fill-opacity=".70681" stroke-width=".12036" fill="#3b566d"/><rect id="rect2009" height="23.405" width="30.774" y="38.297" x="34.613" stroke-width=".12036" fill="#fff"/><rect id="rect2013" height="17.421" width="23.955" y="41.289" x="38.023" stroke-width=".12036" fill="#409df2"/><polygon id="polygon2017" transform="matrix(.12036 0 0 .12036 19.188 19.188)" points="344.53 328.37 201.36 328.37 277.8 223.5" fill="#4062a5"/><polygon id="polygon2021" transform="matrix(.12036 0 0 .12036 19.188 19.188)" points="274.8 328.37 156.49 328.37 219.65 241.71" fill="#30497b"/><ellipse id="circle2025" rx="2.6552" ry="2.6552" cy="45.142" cx="57.633" stroke-width=".12036" fill="#ffdc00"/></svg>
