<?xml version="1.0" encoding="UTF-8" standalone="no"?>
<svg id="svg7196" xmlns:rdf="http://www.w3.org/1999/02/22-rdf-syntax-ns#" xmlns="http://www.w3.org/2000/svg" version="1" enable-background="new 0 0 48 48" xmlns:cc="http://creativecommons.org/ns#" xmlns:dc="http://purl.org/dc/elements/1.1/" viewBox="0 0 48 48">
 <metadata id="metadata7202">
  <rdf:RDF>
   <cc:Work rdf:about="">
    <dc:format>image/svg+xml</dc:format>
    <dc:type rdf:resource="http://purl.org/dc/dcmitype/StillImage"/>
    <dc:title/>
   </cc:Work>
  </rdf:RDF>
 </metadata>
 <path id="path7188" d="m37.4 24.6l-11.6-2.2-3.9-11.2-3.8 1.3 3.9 11.1-7.8 9 3 2.6 7.8-9 11.6 2.2 0.8-3.8z" fill="#1565c0"/>
 <path id="path7190" d="m24 19c-2.8 0-5 2.2-5 5s2.2 5 5 5 5-2.2 5-5-2.2-5-5-5zm0 7c-1.1 0-2-0.9-2-2s0.9-2 2-2 2 0.9 2 2-0.9 2-2 2z" fill="#00bcd4"/>
 <path id="path7192" d="m40.7 27c0.2-1 0.3-2 0.3-3s-0.1-2-0.3-3l3.3-2.4c0.4-0.3 0.6-0.9 0.3-1.4l-4.3-7.4c-0.3-0.5-0.8-0.7-1.3-0.4l-3.7 1.6c-1.5-1.3-3.3-2.3-5.2-3l-0.4-4.1c-0.1-0.5-0.5-0.9-1-0.9h-8.6c-0.5 0-1 0.4-1 0.9l-0.6 4.1c-1.9 0.7-3.7 1.7-5.2 3l-3.7-1.7c-0.5-0.2-1.1 0-1.3 0.5l-4.3 7.4c-0.3 0.5-0.1 1.1 0.3 1.4l3.3 2.4c-0.2 1-0.3 2-0.3 3s0.1 2 0.3 3l-3.3 2.4c-0.4 0.3-0.6 0.9-0.3 1.4l4.3 7.4c0.3 0.5 0.8 0.7 1.3 0.4l3.7-1.6c1.5 1.3 3.3 2.3 5.2 3l0.4 4.1c0.1 0.5 0.5 0.9 1 0.9h8.6c0.5 0 1-0.4 1-0.9l0.4-4.1c1.9-0.7 3.7-1.7 5.2-3l3.7 1.7c0.5 0.2 1.1 0 1.3-0.4l4.3-7.4c0.3-0.5 0.1-1.1-0.3-1.4zm-16.7 8c-6.1 0-11-4.9-11-11s4.9-11 11-11 11 4.9 11 11-4.9 11-11 11z" fill="#64b6f6"/>
</svg>
