<?xml version="1.0" encoding="UTF-8" standalone="no"?>
<svg id="Layer_1" xmlns:rdf="http://www.w3.org/1999/02/22-rdf-syntax-ns#" xmlns="http://www.w3.org/2000/svg" xml:space="preserve" height="100" width="100" version="1.1" y="0px" x="0px" xmlns:cc="http://creativecommons.org/ns#" xmlns:dc="http://purl.org/dc/elements/1.1/" viewBox="0 0 100 100"><metadata id="metadata7273"><rdf:RDF><cc:Work rdf:about=""><dc:format>image/svg+xml</dc:format><dc:type rdf:resource="http://purl.org/dc/dcmitype/StillImage"/><dc:title/></cc:Work></rdf:RDF></metadata><ellipse id="circle2284" rx="38.424" ry="38.424" cy="50" cx="50" stroke-width=".15009" fill="#b2d8fa"/><g id="g4064" transform="matrix(3.5717 0 0 3.5717 -255.57 -261.72)"><path id="path2288" d="m88.361 92.925h-5.6138c-0.32135 0-0.58191-0.26055-0.58191-0.58191v-10.132c0-0.32135 0.26055-0.58191 0.58191-0.58191h5.6138c0.32135 0 0.58191 0.26055 0.58191 0.58191v10.132c0 0.32143-0.26048 0.58191-0.58191 0.58191z" stroke-width=".039713" fill="#192742"/><path id="path2290" d="m88.361 81.629h-2.8639v11.296h2.8639c0.32135 0 0.58191-0.26055 0.58191-0.58191v-10.132c0-0.32143-0.26048-0.58191-0.58191-0.58191z" stroke-width=".039713" fill="#213357"/><rect id="rect2292" height="9.0368" width="6.1615" y="82.211" x="82.473" stroke-width=".039713" fill="#3b566d"/><rect id="rect2294" height="9.0368" width="3.1378" y="82.211" x="85.497" stroke-width=".039713" fill="#324a5e"/><ellipse id="circle2296" rx=".44498" ry=".44498" cy="92.069" cx="85.554" stroke-width=".039713" fill="#3c5566"/><path id="path2298" d="m85.554 91.624c-0.01938 0-0.03832 0.0016-0.05703 0.0041v0.88186c0.0187 0.0024 0.03765 0.0041 0.05703 0.0041 0.24578 0 0.44498-0.19924 0.44498-0.44498s-0.1992-0.44498-0.44498-0.44498z" stroke-width=".039713" fill="#324a5e"/><g id="g2306" fill="#cfdbe6" transform="matrix(.039713 0 0 .039713 75.387 77.111)"><rect id="rect2300" height="6.896" width="95.677" y="176.7" x="227.56"/><rect id="rect2302" height="6.896" width="95.677" y="230.57" x="227.56"/><rect id="rect2304" height="6.896" width="95.677" y="284.44" x="227.56"/></g><g id="g2314" fill="#b8c9d9" transform="matrix(.039713 0 0 .039713 75.387 77.111)"><rect id="rect2308" height="6.896" width="68.668" y="176.7" x="254.57"/><rect id="rect2310" height="6.896" width="68.668" y="230.57" x="254.57"/><rect id="rect2312" height="6.896" width="68.668" y="284.44" x="254.57"/></g><g id="g2322" fill="#e6f3ff" transform="matrix(.039713 0 0 .039713 75.387 77.111)"><rect id="rect2316" height="28.444" width="28.444" y="155.15" x="190.06"/><rect id="rect2318" height="28.444" width="28.444" y="209.02" x="190.06"/><rect id="rect2320" height="28.444" width="28.444" y="262.9" x="190.06"/></g><g id="g2328" fill="#fd8469" transform="matrix(.039713 0 0 .039713 75.387 77.111)"><polygon id="polygon2324" points="233.62 148.29 202 179.9 188.62 165.4 194.95 159.56 202.25 167.46 227.52 142.19"/><polygon id="polygon2326" points="233.62 202.16 202 233.77 188.62 219.27 194.95 213.43 202.25 221.34 227.52 196.06"/></g></g></svg>
