<?xml version="1.0" encoding="UTF-8" standalone="no"?>
<svg id="svg4987" xmlns:rdf="http://www.w3.org/1999/02/22-rdf-syntax-ns#" xmlns="http://www.w3.org/2000/svg" viewBox="0 0 17.745924 18.809534" width="17.746mm" version="1.1" xmlns:cc="http://creativecommons.org/ns#" height="18.81mm" xmlns:dc="http://purl.org/dc/elements/1.1/">
 <metadata id="metadata4984">
  <rdf:RDF>
   <cc:Work rdf:about="">
    <dc:format>image/svg+xml</dc:format>
    <dc:type rdf:resource="http://purl.org/dc/dcmitype/StillImage"/>
    <dc:title/>
   </cc:Work>
  </rdf:RDF>
 </metadata>
 <g id="layer1" transform="translate(-62.943 -59.298)">
  <g id="g4885" fill="#1e8cf0" transform="matrix(.067254 0 0 .067254 62.411 59.298)">
   <path id="path4871" d="m143.25 55.486c-41.06 0-74.465 33.405-74.465 74.465 0 16.824 5.511 32.711 15.938 45.939 1.998 2.536 4.15 5.033 6.23 7.448 6.212 7.208 12.078 14.017 14.166 21.675 0.045 0.165 0.438 1.773 0.38 7.247l-0.01 0.791c-0.063 4.444-0.147 10.528 4.352 15.091 3.081 3.125 7.399 4.645 13.204 4.645h40.272c6.268 0 10.774-1.534 13.776-4.689 4.061-4.267 3.789-9.779 3.608-13.427-0.032-0.645-0.066-1.296-0.074-1.944-0.065-5.48 0.345-7.025 0.362-7.09 2.121-7.657 8.993-15.732 15.057-22.855 2.023-2.377 3.934-4.622 5.714-6.879 10.431-13.23 15.944-29.12 15.944-45.951 0.001-41.06-33.399-74.466-74.454-74.466zm46.732 111.13c-1.607 2.036-3.429 4.178-5.358 6.445-7.07 8.307-15.084 17.722-18.089 28.572-0.429 1.546-0.988 4.395-0.905 11.273 0.01 0.835 0.049 1.675 0.091 2.507 0.032 0.657 0.075 1.523 0.071 2.209-0.528 0.086-1.325 0.166-2.475 0.166h-40.272c-1.276 0-2.022-0.135-2.405-0.237-0.198-0.977-0.17-3.007-0.152-4.287l0.012-0.844c0.072-6.919-0.483-9.789-0.907-11.348-2.98-10.936-10.575-19.749-17.275-27.524-2.066-2.398-4.019-4.664-5.813-6.942-8.32-10.557-12.718-23.232-12.718-36.654 0-32.789 26.676-59.465 59.465-59.465 32.783 0 59.455 26.676 59.455 59.465-0.002 13.429-4.401 26.108-12.725 36.664z"/>
   <path id="path4873" d="m161.77 239.56h-37.041c-7.995 0-14.5 6.505-14.5 14.5v11.117c0 7.995 6.505 14.5 14.5 14.5h37.041c7.995 0 14.5-6.505 14.5-14.5v-11.117c0-7.995-6.505-14.5-14.5-14.5zm-0.5 25.118h-36.041v-10.117h36.041z"/>
   <path id="path4875" d="m143.24 45.779c4.143 0 7.5-3.357 7.5-7.5v-30.779c0-4.143-3.357-7.5-7.5-7.5s-7.5 3.357-7.5 7.5v30.779c0 4.143 3.358 7.5 7.5 7.5z"/>
   <path id="path4877" d="m241.92 34.598c-2.858-2.995-7.606-3.106-10.604-0.248l-22.77 21.73c-2.997 2.859-3.107 7.607-0.248 10.604 1.474 1.544 3.448 2.322 5.427 2.322 1.86 0 3.725-0.688 5.177-2.074l22.77-21.731c2.997-2.859 3.107-7.607 0.248-10.603z"/>
   <path id="path4879" d="m264.27 109.6h-0.012l-29.311 0.047c-4.143 0.007-7.495 3.37-7.488 7.512 0.007 4.139 3.363 7.488 7.5 7.488h0.012l29.311-0.047c4.143-0.007 7.495-3.37 7.488-7.512-0.006-4.139-3.363-7.488-7.5-7.488z"/>
   <path id="path4881" d="m74.386 64.684c2.859-2.996 2.749-7.743-0.248-10.604l-22.77-21.73c-2.994-2.858-7.742-2.749-10.604 0.248-2.859 2.996-2.749 7.743 0.248 10.604l22.77 21.731c1.452 1.386 3.315 2.074 5.177 2.074 1.978-0.001 3.953-0.779 5.427-2.323z"/>
   <path id="path4883" d="m44.729 109.65-29.31-0.047h-0.012c-4.137 0-7.493 3.351-7.5 7.488-0.007 4.142 3.346 7.505 7.488 7.512l29.31 0.047h0.012c4.137 0 7.493-3.351 7.5-7.488 0.008-4.142-3.345-7.506-7.488-7.512z"/>
  </g>
 </g>
</svg>
