<?xml version="1.0" encoding="UTF-8" standalone="no"?>
<svg id="svg4062" xmlns:rdf="http://www.w3.org/1999/02/22-rdf-syntax-ns#" xmlns="http://www.w3.org/2000/svg" viewBox="0 0 13.48009 2.9959844" height="2.996mm" width="13.48mm" version="1.1" xmlns:cc="http://creativecommons.org/ns#" xmlns:dc="http://purl.org/dc/elements/1.1/">
 <metadata id="metadata4059">
  <rdf:RDF>
   <cc:Work rdf:about="">
    <dc:format>image/svg+xml</dc:format>
    <dc:type rdf:resource="http://purl.org/dc/dcmitype/StillImage"/>
    <dc:title/>
   </cc:Work>
  </rdf:RDF>
 </metadata>
 <g id="layer1" transform="translate(-59.774 -73.075)">
  <path id="path2008" d="m231.35 276.2c-0.65047 0.0371-1.2946 0.16878-1.8984 0.39453-2.9344 1.0478-4.3265 4.6997-3.0801 7.5 1.1025 2.8969 4.6728 4.0543 7.4688 3.0781 0.79696-0.29761 3.632-1.541 1.9551-2.3184-1.0471 0.59604-2.5657 1.9336-4.1856 1.627-2.677 0.0237-4.9296-2.6-4.4512-5.248 0.25226-3.1468 4.0998-4.9406 6.8047-3.5332 1.0378 0.34891 1.6119 2.0516 2.543 0.72266-1.1901-1.5946-3.2048-2.3338-5.1562-2.2227zm23.811 0.22461c-0.16069 0.005-0.32714 0.0173-0.48633 0.0195l3.9551 9.2285c0.33383 0.44968 0.32366 1.4212 0.87891 1.5352l4.3848-10.092c0.67653-0.85743-0.22645-0.68095-0.87109-0.67188l-3.6074 8.3164c-1.0962-2.5481-2.1929-5.0964-3.2891-7.6445-0.049-0.64407-0.48278-0.70504-0.96484-0.69141zm14.322 0.006c-0.16561 0.005-0.33561 0.0145-0.49805 0.0137 1.1324 1.8427 2.2641 3.6866 3.3965 5.5293 0.12896 1.4353 0.0173 2.9392 0.0547 4.4004-0.26481 0.89904 0.33918 0.92896 1.0684 0.83398v-5.041c0.9229-1.7592 2.0803-3.4517 3.0938-5.1856 0.79432-0.79879-0.40308-0.48053-0.92969-0.53711l-2.6992 4.4258c-0.79146-1.2681-1.5816-2.5366-2.373-3.8047-0.15256-0.60616-0.61648-0.64924-1.1133-0.63477zm-23.689 0.0137-4.7715 10.104c-0.70513 0.85308 0.23523 0.66294 0.88086 0.66015l1.6641-3.5449h4.6445l1.3789 2.8867c0.099 0.84349 0.84014 0.66728 1.4766 0.6582-1.6736-3.5879-3.3478-7.1758-5.0215-10.764zm0.12696 2.291c0.6067 1.2971 1.2136 2.5955 1.8203 3.8926h-3.6719c0.61717-1.2971 1.2344-2.5955 1.8516-3.8926z" fill-opacity=".94118" transform="scale(.26458)" stroke-width=".31381" fill="#1f8cef"/>
 </g>
</svg>
