<?xml version="1.0" encoding="UTF-8" standalone="no"?>
<svg id="svg4062" xmlns:rdf="http://www.w3.org/1999/02/22-rdf-syntax-ns#" xmlns="http://www.w3.org/2000/svg" viewBox="0 0 13.480088 13.220382" width="13.48mm" version="1.1" xmlns:cc="http://creativecommons.org/ns#" height="13.22mm" xmlns:dc="http://purl.org/dc/elements/1.1/">
 <metadata id="metadata4059">
  <rdf:RDF>
   <cc:Work rdf:about="">
    <dc:format>image/svg+xml</dc:format>
    <dc:type rdf:resource="http://purl.org/dc/dcmitype/StillImage"/>
    <dc:title/>
   </cc:Work>
  </rdf:RDF>
 </metadata>
 <g id="layer1" transform="translate(-59.774 -62.851)">
  <path id="path2008" d="m253.09 237.55c-7.657 0-13.901 6.0876-14.152 13.65h0.78321c0.2824-7.1549 6.1827-12.865 13.4-12.865 4.1109 0 7.814 1.8823 10.262 4.8008l0.5332-0.56445c-2.6046-3.0754-6.4956-5.0215-10.826-5.0215zm0.12695 1.8516c-6.7783 0-12.334 5.5223-12.334 12.332 0 6.7783 5.5243 12.334 12.334 12.334 3.4519 0 6.5882-1.4434 8.8477-3.7656l0.7539 0.7832c-2.4477 2.5105-5.8379 4.0488-9.5723 4.0488-7.1549 0-12.991-5.617-13.367-12.678h-0.78516c0.37656 7.5001 6.5895 13.463 14.152 13.463 3.954 0 7.5635-1.6316 10.137-4.2676 0.18833-0.18822 0.3449-0.37807 0.5332-0.56641l-0.5332-0.56445-0.91016-0.81641-0.5332-0.56445-0.78516-0.81445-0.5332-0.56641c-0.15689 0.18822-0.34508 0.40741-0.50196 0.5957-1.6946 1.7573-4.0165 2.9195-6.6211 3.0137v0.78516c2.8243-0.0941 5.336-1.3183 7.1875-3.2012l0.75195 0.7832c-2.1025 2.1653-5.0529 3.5469-8.2852 3.5469-6.3704 0-11.547-5.1785-11.547-11.549 0-6.3704 5.1765-11.547 11.547-11.547 3.3264 0 6.3389 1.4123 8.4414 3.7031l-0.75195 0.78516c-1.8201-2.0084-4.4254-3.2651-7.3125-3.3906v0.78516c2.6988 0.0941 5.0828 1.3184 6.7773 3.1699l-0.7832 0.81445c-1.569-1.7573-3.8294-2.8555-6.3398-2.8555-4.7072 0-8.5352 3.828-8.5352 8.5352s3.828 8.5371 8.5352 8.5371c2.4477 0 4.6458-1.036 6.2148-2.6992 0.18833-0.18822 0.34309-0.37589 0.5-0.5957l-0.53125-0.56641c-0.15689 0.21959-0.3156 0.40936-0.50391 0.59766-1.4121 1.5377-3.4184 2.4785-5.6465 2.4785-4.2678 0-7.752-3.4842-7.752-7.752s3.4841-7.75 7.752-7.75c2.3222 0 4.3906 1.0363 5.8027 2.6367 0.18834 0.18822 0.34701 0.40728 0.50391 0.62695l0.5332-0.56445 0.78516-0.81641 0.56445-0.56445 0.78516-0.81641 0.5332-0.56445c-0.15692-0.21959-0.34492-0.40741-0.5332-0.5957-2.2594-2.4163-5.4599-3.9238-8.9746-3.9238zm-0.87891 1.9473c-5.3975 0.40793-9.666 4.8931-9.666 10.385 0 5.4916 4.2685 10.01 9.666 10.387v-0.78321c-4.9582-0.40796-8.8828-4.5512-8.8828-9.6035 0-5.0524 3.9246-9.225 8.8828-9.6016zm-20.988 34.855c-0.65047 0.0371-1.2946 0.16878-1.8984 0.39453-2.9344 1.0478-4.3265 4.6997-3.0801 7.5 1.1025 2.8969 4.6728 4.0543 7.4688 3.0781 0.79696-0.29761 3.632-1.541 1.9551-2.3184-1.0471 0.59604-2.5657 1.9336-4.1856 1.627-2.677 0.0237-4.9296-2.6-4.4512-5.248 0.25226-3.1468 4.0998-4.9406 6.8047-3.5332 1.0378 0.34891 1.6119 2.0516 2.543 0.72266-1.1901-1.5946-3.2048-2.3338-5.1562-2.2227zm23.811 0.22461c-0.16069 0.005-0.32714 0.0173-0.48633 0.0195l3.9551 9.2285c0.33383 0.44968 0.32366 1.4212 0.87891 1.5352l4.3848-10.092c0.67653-0.85743-0.22645-0.68095-0.87109-0.67188l-3.6074 8.3164c-1.0962-2.5481-2.1929-5.0964-3.2891-7.6445-0.049-0.64407-0.48278-0.70504-0.96484-0.69141zm14.322 0.006c-0.16561 0.005-0.33561 0.0145-0.49805 0.0137 1.1324 1.8427 2.2641 3.6866 3.3965 5.5293 0.12896 1.4353 0.0173 2.9392 0.0547 4.4004-0.26481 0.89904 0.33918 0.92896 1.0684 0.83398v-5.041c0.9229-1.7592 2.0803-3.4517 3.0938-5.1856 0.79432-0.79879-0.40308-0.48053-0.92969-0.53711l-2.6992 4.4258c-0.79146-1.2681-1.5816-2.5366-2.373-3.8047-0.15256-0.60616-0.61648-0.64924-1.1133-0.63477zm-23.689 0.0137-4.7715 10.104c-0.70513 0.85308 0.23523 0.66294 0.88086 0.66015l1.6641-3.5449h4.6445l1.3789 2.8867c0.099 0.84349 0.84014 0.66728 1.4766 0.6582-1.6736-3.5879-3.3478-7.1758-5.0215-10.764zm0.12696 2.291c0.6067 1.2971 1.2136 2.5955 1.8203 3.8926h-3.6719c0.61717-1.2971 1.2344-2.5955 1.8516-3.8926z" fill-opacity=".94118" transform="scale(.26458)" stroke-width=".31381" fill="#1f8cef"/>
 </g>
</svg>
