<?xml version="1.0" encoding="UTF-8" standalone="no"?>
<svg id="Capa_1" xmlns:rdf="http://www.w3.org/1999/02/22-rdf-syntax-ns#" xmlns="http://www.w3.org/2000/svg" xml:space="preserve" height="100" width="100" version="1.1" y="0px" x="0px" xmlns:cc="http://creativecommons.org/ns#" xmlns:dc="http://purl.org/dc/elements/1.1/" viewBox="0 0 100 100"><metadata id="metadata12557"><rdf:RDF><cc:Work rdf:about=""><dc:format>image/svg+xml</dc:format><dc:type rdf:resource="http://purl.org/dc/dcmitype/StillImage"/><dc:title/></cc:Work></rdf:RDF></metadata><ellipse id="circle2638" rx="36.887" ry="36.887" cy="50" cx="50" stroke-width=".15009" fill="#b2d8fa"/><path id="path2640" d="m64.96 28.867c-0.98358 0-1.781 0.79685-1.781 1.7801v26.575c0 0.98327 0.79744 1.7801 1.781 1.7801 0.9837 0 1.781-0.797 1.781-1.7801v-26.575c0-0.98327-0.79733-1.7801-1.781-1.7801z" stroke-width=".15009" fill="#e1e6e9"/><path id="path2642" d="m63.181 30.423v27.023s-9.6136-6.7055-18.992-8.0533v-10.91c9.3785-1.3477 18.992-8.0599 18.992-8.0599z" stroke-width=".15009" fill="#fff"/><path id="path2644" d="m44.187 54.175h-1.73v6.6319h1.7297c0.72151 0 1.3063-0.58462 1.3063-1.3058v-4.0203c0.000151-0.72121-0.58477-1.3058-1.3063-1.3058z" fill-opacity=".52157" stroke-width=".15009" fill="#30497b"/><path id="path2646" d="m46.942 69.739c-0.06274 0.80406-0.79487 1.3942-1.6016 1.3942h-7.3774c-0.60669 0-1.1236-0.43977-1.2209-1.0382l-3.186-19.615h8.198l3.3543 17.629h0.32202c0.41575 0 0.79835 0.16766 1.0733 0.44263 0.30161 0.30138 0.47399 0.72376 0.43797 1.1874z" stroke-width=".15009" fill="#ebf0f3"/><path id="path2648" d="m31.658 48.772h-2.1183c-0.37153 0-0.67257-0.30108-0.67257-0.67257v-8.3294c0-0.37134 0.30123-0.67258 0.67257-0.67258h2.1183z" fill-opacity=".96859" stroke-width=".15009" fill="#0c62b2"/><path id="path2650" d="m32.187 50.803h10.642c0.75137 0 1.3603-0.60908 1.3603-1.3605v-11.016c0-0.75137-0.60907-1.3603-1.3603-1.3603h-10.642c-0.75137 0-1.3604 0.60909-1.3604 1.3603v11.016c0 0.75137 0.60922 1.3605 1.3604 1.3605z" stroke-width=".15009" fill="#1d8bf0"/><path id="path2652" d="m66.741 39.544v8.7805c2.4257 0 4.3923-1.9655 4.3923-4.3903s-1.9667-4.3903-4.3923-4.3903z" fill-opacity=".52157" stroke-width=".15009" fill="#30497b"/></svg>
