<?xml version="1.0" encoding="UTF-8" standalone="no"?>
<!-- Created with Inkscape (http://www.inkscape.org/) -->
<svg id="svg4689" xmlns:rdf="http://www.w3.org/1999/02/22-rdf-syntax-ns#" xmlns="http://www.w3.org/2000/svg" height="17.917mm" width="14.392mm" version="1.1" xmlns:cc="http://creativecommons.org/ns#" xmlns:dc="http://purl.org/dc/elements/1.1/" viewBox="0 0 14.391664 17.916859">
 <metadata id="metadata4686">
  <rdf:RDF>
   <cc:Work rdf:about="">
    <dc:format>image/svg+xml</dc:format>
    <dc:type rdf:resource="http://purl.org/dc/dcmitype/StillImage"/>
    <dc:title/>
   </cc:Work>
  </rdf:RDF>
 </metadata>
 <g id="layer1" transform="translate(-96.37 -96.03)">
  <g id="g4637" fill="#1e8cf0" transform="matrix(.035741 0 0 .035741 94.416 95.838)">
   <g id="g4571">
    <g id="g4569" fill="#1e8cf0">
     <path id="path4567" fill="#1e8cf0" d="m214.73 5.3535c-20.647 0-38.912 8.4599-50.41 22.982-2.5404 3.2085-3.145 7.5139-1.584 11.295a5.3536 5.3536 0 0 1 0.002 0.002c0.28225 0.68439 9.2838 22.278 24.467 43.775 7.5294 10.66 15.221 19.449 22.992 26.383a5.3536 5.3536 0 0 1 -1.3106 8.8496c-7.8267 3.6325-15.787 8.1223-23.855 13.498a5.3536 5.3536 0 0 1 -0.002 0c-22.236 14.812-44.493 35.996-64.152 61.189-41.532 53.224-66.207 116.86-66.207 169.1 0 43.078 15.024 76.733 44.982 101.49 33.944 28.033 86.505 42.73 156.65 42.73 69.878 0 122.26-14.81 156.14-43.072 29.892-24.937 44.896-58.822 44.896-102.16-0.00097-52.033-24.602-115.42-66.012-168.43-19.599-25.091-41.791-46.192-63.961-60.945-8.0044-5.3262-15.9-9.7798-23.662-13.387a5.3536 5.3536 0 0 1 -1.3066 -8.8516c7.7757-6.9344 15.471-15.728 23.004-26.395 15.183-21.497 24.198-43.118 24.467-43.771a5.3536 5.3536 0 0 1 0 -0.002c2.2538-5.4626-0.0105-11.626-5.2656-14.328-5.2554-2.7026-11.584-0.96233-14.717 4.0508a5.3536 5.3536 0 0 1 0 0.002c-7.95 12.682-19.75 16.37-27.82 16.819-13.9 0.771-27.61-6.063-36.94-17.848-11.5-14.524-29.76-22.984-50.41-22.984zm0 22.549c13.131 0 25.355 5.1176 32.729 14.432 12.793 16.159 31.299 25.706 50.242 26.414a5.3536 5.3536 0 0 1 4.0098 8.6562c-12.319 15.681-27.569 29.795-45.412 29.795-15.762 0-29.507-11.156-40.982-24.418-11.48-13.261-20.82-29.186-26.81-41.113a5.3536 5.3536 0 0 1 1.8652 -6.8906c6.8862-4.4776 15.388-6.875 24.359-6.875zm41.566 101.85c36.617 0 80.475 30.033 117.25 77.119 38.245 48.965 61.234 106.29 61.234 154.55 0 35.489-12.444 64.529-36.793 84.842-30.581 25.509-78.357 37.838-141.69 37.838-63.644 0-111.61-12.236-142.28-37.568a5.3536 5.3536 0 0 1 -0.002 0c-24.349-20.12-36.803-48.91-36.803-84.1 0-48.465 23.061-106.05 61.436-155.23 36.899-47.29 80.907-77.451 117.64-77.451z"/>
    </g>
   </g>
   <g id="g4577">
    <g id="g4575" fill="#1e8cf0">
     <path id="path4573" fill="#1e8cf0" d="m256.5 191.68c-8.1879 0-14.787 6.5975-14.787 14.785v7.8652a1.8415 1.8415 0 0 1 -1.3379 1.7715c-24.781 7.037-43.004 29.85-43.004 56.875 0 14.875 7.008 25.94 17.104 35.051s23.265 16.099 35.115 22.363v-0.002c8.7225 4.6105 17.645 9.3155 24.51 14.34 6.8644 5.0243 11.955 10.47 11.955 16.93 0 16.28-13.275 29.555-29.555 29.555s-29.557-13.275-29.557-29.555c0-8.1879-6.5975-14.787-14.785-14.787-8.1876 0-14.787 6.5995-14.787 14.787 0 27.026 18.223 49.836 43.004 56.873a1.8415 1.8415 0 0 1 1.3379 1.7715v7.8672c0 8.1876 6.5992 14.785 14.787 14.785 8.1879 0 14.785-6.5972 14.785-14.785v-7.8672a1.8415 1.8415 0 0 1 1.3379 -1.7715c24.781-7.037 43.004-29.848 43.004-56.873 0-14.875-7.008-25.94-17.104-35.051s-23.265-16.099-35.115-22.363c-8.722-4.6105-17.645-9.3136-24.51-14.338-6.8645-5.0243-11.955-10.47-11.955-16.93 0-16.28 13.276-29.555 29.557-29.555 16.28 0 29.555 13.275 29.555 29.555 0 8.1879 6.5972 14.785 14.785 14.785 8.1879 0 14.787-6.5975 14.787-14.785 0-27.026-18.223-49.838-43.004-56.875a1.8415 1.8415 0 0 1 -1.3379 -1.7715v-7.8652c0-8.1879-6.5972-14.785-14.785-14.785z"/>
    </g>
   </g>
  </g>
 </g>
</svg>
