<?xml version="1.0" encoding="UTF-8" standalone="no"?>
<svg id="svg5937" xmlns:rdf="http://www.w3.org/1999/02/22-rdf-syntax-ns#" xmlns="http://www.w3.org/2000/svg" viewBox="0 0 44.581913 45.298058" width="44.582mm" version="1.1" xmlns:cc="http://creativecommons.org/ns#" height="45.298mm" xmlns:dc="http://purl.org/dc/elements/1.1/">
 <metadata id="metadata5934">
  <rdf:RDF>
   <cc:Work rdf:about="">
    <dc:format>image/svg+xml</dc:format>
    <dc:type rdf:resource="http://purl.org/dc/dcmitype/StillImage"/>
    <dc:title/>
   </cc:Work>
  </rdf:RDF>
 </metadata>
 <g id="layer1" transform="translate(-51.792 -50.589)">
  <path id="path5130-6" style="color-rendering:auto;text-decoration-color:#000000;color:#000000;font-variant-numeric:normal;shape-rendering:auto;font-variant-ligatures:normal;text-decoration-line:none;font-variant-position:normal;mix-blend-mode:normal;solid-color:#000000;font-feature-settings:normal;shape-padding:0;font-variant-alternates:normal;text-indent:0;dominant-baseline:auto;font-variant-caps:normal;image-rendering:auto;white-space:normal;text-decoration-style:solid;text-orientation:mixed;isolation:auto;text-transform:none" d="m53.009 50.589a0.1121 0.1121 0 0 0 -0.11034 0.11355v0.99231h-0.98851a0.1121 0.1121 0 1 0 0 0.22388h0.98851v0.98867a0.1121 0.1121 0 1 0 0.22402 0v-0.98867h0.99218a0.1121 0.1121 0 0 0 0.11369 -0.11353 0.1121 0.1121 0 0 0 -0.11369 -0.11035h-0.99218v-0.99231a0.1121 0.1121 0 0 0 -0.11368 -0.11355zm4.2146 0a0.1121 0.1121 0 0 0 -0.11035 0.11355v0.99231h-0.98852a0.1121 0.1121 0 1 0 0 0.22388h0.98852v0.98867a0.1121 0.1121 0 1 0 0.22403 0v-0.98867h0.99216a0.1121 0.1121 0 0 0 0.11371 -0.11353 0.1121 0.1121 0 0 0 -0.11371 -0.11035h-0.99216v-0.99231a0.1121 0.1121 0 0 0 -0.11368 -0.11355zm4.2144 0a0.1121 0.1121 0 0 0 -0.11033 0.11355v0.99231h-0.98852a0.1121 0.1121 0 1 0 0 0.22388h0.98852v0.98867a0.1121 0.1121 0 1 0 0.22402 0v-0.98867h0.99218a0.1121 0.1121 0 0 0 0.11369 -0.11353 0.1121 0.1121 0 0 0 -0.11369 -0.11035h-0.99218v-0.99231a0.1121 0.1121 0 0 0 -0.11369 -0.11355zm4.2146 0a0.1121 0.1121 0 0 0 -0.11033 0.11355v0.99231h-0.98851a0.1121 0.1121 0 1 0 0 0.22388h0.98851v0.98867a0.1121 0.1121 0 1 0 0.22404 0v-0.98867h0.99216a0.1121 0.1121 0 0 0 0.11369 -0.11353 0.1121 0.1121 0 0 0 -0.11369 -0.11035h-0.99216v-0.99231a0.1121 0.1121 0 0 0 -0.11371 -0.11355zm4.2146 0a0.1121 0.1121 0 0 0 -0.11034 0.11355v0.99231h-0.9885a0.1121 0.1121 0 1 0 0 0.22388h0.9885v0.98867a0.1121 0.1121 0 1 0 0.22403 0v-0.98867h0.99217a0.1121 0.1121 0 0 0 0.1137 -0.11353 0.1121 0.1121 0 0 0 -0.1137 -0.11035h-0.99217v-0.99231a0.1121 0.1121 0 0 0 -0.11369 -0.11355zm4.2146 0a0.1121 0.1121 0 0 0 -0.11033 0.11355v0.99231h-0.98853a0.1121 0.1121 0 1 0 0 0.22388h0.98853v0.98867a0.1121 0.1121 0 1 0 0.22403 0v-0.98867h0.99215a0.1121 0.1121 0 0 0 0.11371 -0.11353 0.1121 0.1121 0 0 0 -0.11371 -0.11035h-0.99215v-0.99231a0.1121 0.1121 0 0 0 -0.1137 -0.11355zm4.2144 0a0.1121 0.1121 0 0 0 -0.11035 0.11355v0.99231h-0.9885a0.1121 0.1121 0 1 0 0 0.22388h0.9885v0.98867a0.1121 0.1121 0 1 0 0.22404 0v-0.98867h0.99217a0.1121 0.1121 0 0 0 0.11371 -0.11353 0.1121 0.1121 0 0 0 -0.11371 -0.11035h-0.99217v-0.99231a0.1121 0.1121 0 0 0 -0.11369 -0.11355zm4.2146 0a0.1121 0.1121 0 0 0 -0.11031 0.11355v0.99231h-0.98853a0.1121 0.1121 0 1 0 0 0.22388h0.98853v0.98867a0.1121 0.1121 0 1 0 0.22401 0v-0.98867h0.99217a0.1121 0.1121 0 0 0 0.1137 -0.11353 0.1121 0.1121 0 0 0 -0.1137 -0.11035h-0.99217v-0.99231a0.1121 0.1121 0 0 0 -0.1137 -0.11355zm4.2146 0a0.1121 0.1121 0 0 0 -0.11033 0.11355v0.99231h-0.98852a0.1121 0.1121 0 1 0 0 0.22388h0.98852v0.98867a0.1121 0.1121 0 1 0 0.22402 0v-0.98867h0.99217a0.1121 0.1121 0 0 0 0.1137 -0.11353 0.1121 0.1121 0 0 0 -0.1137 -0.11035h-0.99217v-0.99231a0.1121 0.1121 0 0 0 -0.11369 -0.11355zm4.2146 0a0.1121 0.1121 0 0 0 -0.11034 0.11355v0.99231h-0.98851a0.1121 0.1121 0 1 0 0 0.22388h0.98851v0.98867a0.1121 0.1121 0 1 0 0.22404 0v-0.98867h0.99216a0.1121 0.1121 0 0 0 0.11371 -0.11353 0.1121 0.1121 0 0 0 -0.11371 -0.11035h-0.99216v-0.99231a0.1121 0.1121 0 0 0 -0.1137 -0.11355zm4.2144 0a0.1121 0.1121 0 0 0 -0.11035 0.11355v0.99231h-0.9885a0.1121 0.1121 0 1 0 0 0.22388h0.9885v0.98867a0.1121 0.1121 0 1 0 0.22404 0v-0.98867h0.99217a0.1121 0.1121 0 0 0 0.11369 -0.11353 0.1121 0.1121 0 0 0 -0.11369 -0.11035h-0.99217v-0.99231a0.1121 0.1121 0 0 0 -0.11369 -0.11355zm-42.145 4.2864a0.1121 0.1121 0 0 0 -0.11034 0.11355v0.99231h-0.98851a0.1121 0.1121 0 1 0 0 0.22388h0.98851v0.98866a0.1121 0.1121 0 1 0 0.22402 0v-0.98866h0.99218a0.1121 0.1121 0 0 0 0.11369 -0.11356 0.1121 0.1121 0 0 0 -0.11369 -0.11032h-0.99218v-0.99231a0.1121 0.1121 0 0 0 -0.11368 -0.11355zm4.2146 0a0.1121 0.1121 0 0 0 -0.11035 0.11355v0.99231h-0.98852a0.1121 0.1121 0 1 0 0 0.22388h0.98852v0.98866a0.1121 0.1121 0 1 0 0.22403 0v-0.98866h0.99216a0.1121 0.1121 0 0 0 0.11371 -0.11356 0.1121 0.1121 0 0 0 -0.11371 -0.11032h-0.99216v-0.99231a0.1121 0.1121 0 0 0 -0.11368 -0.11355zm4.2144 0a0.1121 0.1121 0 0 0 -0.11033 0.11355v0.99231h-0.98852a0.1121 0.1121 0 1 0 0 0.22388h0.98852v0.98866a0.1121 0.1121 0 1 0 0.22402 0v-0.98866h0.99218a0.1121 0.1121 0 0 0 0.11369 -0.11356 0.1121 0.1121 0 0 0 -0.11369 -0.11032h-0.99218v-0.99231a0.1121 0.1121 0 0 0 -0.11369 -0.11355zm4.2146 0a0.1121 0.1121 0 0 0 -0.11033 0.11355v0.99231h-0.98851a0.1121 0.1121 0 1 0 0 0.22388h0.98851v0.98866a0.1121 0.1121 0 1 0 0.22404 0v-0.98866h0.99216a0.1121 0.1121 0 0 0 0.11369 -0.11356 0.1121 0.1121 0 0 0 -0.11369 -0.11032h-0.99216v-0.99231a0.1121 0.1121 0 0 0 -0.11371 -0.11355zm4.2146 0a0.1121 0.1121 0 0 0 -0.11034 0.11355v0.99231h-0.9885a0.1121 0.1121 0 1 0 0 0.22388h0.9885v0.98866a0.1121 0.1121 0 1 0 0.22403 0v-0.98866h0.99217a0.1121 0.1121 0 0 0 0.1137 -0.11356 0.1121 0.1121 0 0 0 -0.1137 -0.11032h-0.99217v-0.99231a0.1121 0.1121 0 0 0 -0.11369 -0.11355zm4.2146 0a0.1121 0.1121 0 0 0 -0.11033 0.11355v0.99231h-0.98853a0.1121 0.1121 0 1 0 0 0.22388h0.98853v0.98866a0.1121 0.1121 0 1 0 0.22403 0v-0.98866h0.99215a0.1121 0.1121 0 0 0 0.11371 -0.11356 0.1121 0.1121 0 0 0 -0.11371 -0.11032h-0.99215v-0.99231a0.1121 0.1121 0 0 0 -0.1137 -0.11355zm4.2144 0a0.1121 0.1121 0 0 0 -0.11035 0.11355v0.99231h-0.9885a0.1121 0.1121 0 1 0 0 0.22388h0.9885v0.98866a0.1121 0.1121 0 1 0 0.22404 0v-0.98866h0.99217a0.1121 0.1121 0 0 0 0.11371 -0.11356 0.1121 0.1121 0 0 0 -0.11371 -0.11032h-0.99217v-0.99231a0.1121 0.1121 0 0 0 -0.11369 -0.11355zm4.2146 0a0.1121 0.1121 0 0 0 -0.11031 0.11355v0.99231h-0.98853a0.1121 0.1121 0 1 0 0 0.22388h0.98853v0.98866a0.1121 0.1121 0 1 0 0.22401 0v-0.98866h0.99217a0.1121 0.1121 0 0 0 0.1137 -0.11356 0.1121 0.1121 0 0 0 -0.1137 -0.11032h-0.99217v-0.99231a0.1121 0.1121 0 0 0 -0.1137 -0.11355zm4.2146 0a0.1121 0.1121 0 0 0 -0.11033 0.11355v0.99231h-0.98852a0.1121 0.1121 0 1 0 0 0.22388h0.98852v0.98866a0.1121 0.1121 0 1 0 0.22402 0v-0.98866h0.99217a0.1121 0.1121 0 0 0 0.1137 -0.11356 0.1121 0.1121 0 0 0 -0.1137 -0.11032h-0.99217v-0.99231a0.1121 0.1121 0 0 0 -0.11369 -0.11355zm4.2146 0a0.1121 0.1121 0 0 0 -0.11034 0.11355v0.99231h-0.98851a0.1121 0.1121 0 1 0 0 0.22388h0.98851v0.98866a0.1121 0.1121 0 1 0 0.22404 0v-0.98866h0.99216a0.1121 0.1121 0 0 0 0.11371 -0.11356 0.1121 0.1121 0 0 0 -0.11371 -0.11032h-0.99216v-0.99231a0.1121 0.1121 0 0 0 -0.1137 -0.11355zm4.2144 0a0.1121 0.1121 0 0 0 -0.11035 0.11355v0.99231h-0.9885a0.1121 0.1121 0 1 0 0 0.22388h0.9885v0.98866a0.1121 0.1121 0 1 0 0.22404 0v-0.98866h0.99217a0.1121 0.1121 0 0 0 0.11369 -0.11356 0.1121 0.1121 0 0 0 -0.11369 -0.11032h-0.99217v-0.99231a0.1121 0.1121 0 0 0 -0.11369 -0.11355zm-42.145 4.2862a0.1121 0.1121 0 0 0 -0.11034 0.11356v0.9923h-0.98851a0.1121 0.1121 0 1 0 0 0.22389h0.98851v0.98865a0.1121 0.1121 0 1 0 0.22402 0v-0.98865h0.99218a0.1121 0.1121 0 0 0 0.11369 -0.11356 0.1121 0.1121 0 0 0 -0.11369 -0.11033h-0.99218v-0.9923a0.1121 0.1121 0 0 0 -0.11368 -0.11356zm4.2146 0a0.1121 0.1121 0 0 0 -0.11035 0.11356v0.9923h-0.98852a0.1121 0.1121 0 1 0 0 0.22389h0.98852v0.98865a0.1121 0.1121 0 1 0 0.22403 0v-0.98865h0.99216a0.1121 0.1121 0 0 0 0.11371 -0.11356 0.1121 0.1121 0 0 0 -0.11371 -0.11033h-0.99216v-0.9923a0.1121 0.1121 0 0 0 -0.11368 -0.11356zm4.2144 0a0.1121 0.1121 0 0 0 -0.11033 0.11356v0.9923h-0.98852a0.1121 0.1121 0 1 0 0 0.22389h0.98852v0.98865a0.1121 0.1121 0 1 0 0.22402 0v-0.98865h0.99218a0.1121 0.1121 0 0 0 0.11369 -0.11356 0.1121 0.1121 0 0 0 -0.11369 -0.11033h-0.99218v-0.9923a0.1121 0.1121 0 0 0 -0.11369 -0.11356zm4.2146 0a0.1121 0.1121 0 0 0 -0.11033 0.11356v0.9923h-0.98851a0.1121 0.1121 0 1 0 0 0.22389h0.98851v0.98865a0.1121 0.1121 0 1 0 0.22404 0v-0.98865h0.99216a0.1121 0.1121 0 0 0 0.11369 -0.11356 0.1121 0.1121 0 0 0 -0.11369 -0.11033h-0.99216v-0.9923a0.1121 0.1121 0 0 0 -0.11371 -0.11356zm4.2146 0a0.1121 0.1121 0 0 0 -0.11034 0.11356v0.9923h-0.9885a0.1121 0.1121 0 1 0 0 0.22389h0.9885v0.98865a0.1121 0.1121 0 1 0 0.22403 0v-0.98865h0.99217a0.1121 0.1121 0 0 0 0.1137 -0.11356 0.1121 0.1121 0 0 0 -0.1137 -0.11033h-0.99217v-0.9923a0.1121 0.1121 0 0 0 -0.11369 -0.11356zm4.2146 0a0.1121 0.1121 0 0 0 -0.11033 0.11356v0.9923h-0.98853a0.1121 0.1121 0 1 0 0 0.22389h0.98853v0.98865a0.1121 0.1121 0 1 0 0.22403 0v-0.98865h0.99215a0.1121 0.1121 0 0 0 0.11371 -0.11356 0.1121 0.1121 0 0 0 -0.11371 -0.11033h-0.99215v-0.9923a0.1121 0.1121 0 0 0 -0.1137 -0.11356zm4.2144 0a0.1121 0.1121 0 0 0 -0.11035 0.11356v0.9923h-0.9885a0.1121 0.1121 0 1 0 0 0.22389h0.9885v0.98865a0.1121 0.1121 0 1 0 0.22404 0v-0.98865h0.99217a0.1121 0.1121 0 0 0 0.11371 -0.11356 0.1121 0.1121 0 0 0 -0.11371 -0.11033h-0.99217v-0.9923a0.1121 0.1121 0 0 0 -0.11369 -0.11356zm4.2146 0a0.1121 0.1121 0 0 0 -0.11031 0.11356v0.9923h-0.98853a0.1121 0.1121 0 1 0 0 0.22389h0.98853v0.98865a0.1121 0.1121 0 1 0 0.22401 0v-0.98865h0.99217a0.1121 0.1121 0 0 0 0.1137 -0.11356 0.1121 0.1121 0 0 0 -0.1137 -0.11033h-0.99217v-0.9923a0.1121 0.1121 0 0 0 -0.1137 -0.11356zm4.2146 0a0.1121 0.1121 0 0 0 -0.11033 0.11356v0.9923h-0.98852a0.1121 0.1121 0 1 0 0 0.22389h0.98852v0.98865a0.1121 0.1121 0 1 0 0.22402 0v-0.98865h0.99217a0.1121 0.1121 0 0 0 0.1137 -0.11356 0.1121 0.1121 0 0 0 -0.1137 -0.11033h-0.99217v-0.9923a0.1121 0.1121 0 0 0 -0.11369 -0.11356zm4.2146 0a0.1121 0.1121 0 0 0 -0.11034 0.11356v0.9923h-0.98851a0.1121 0.1121 0 1 0 0 0.22389h0.98851v0.98865a0.1121 0.1121 0 1 0 0.22404 0v-0.98865h0.99216a0.1121 0.1121 0 0 0 0.11371 -0.11356 0.1121 0.1121 0 0 0 -0.11371 -0.11033h-0.99216v-0.9923a0.1121 0.1121 0 0 0 -0.1137 -0.11356zm4.2144 0a0.1121 0.1121 0 0 0 -0.11035 0.11356v0.9923h-0.9885a0.1121 0.1121 0 1 0 0 0.22389h0.9885v0.98865a0.1121 0.1121 0 1 0 0.22404 0v-0.98865h0.99217a0.1121 0.1121 0 0 0 0.11369 -0.11356 0.1121 0.1121 0 0 0 -0.11369 -0.11033h-0.99217v-0.9923a0.1121 0.1121 0 0 0 -0.11369 -0.11356zm-42.145 4.2862a0.1121 0.1121 0 0 0 -0.11034 0.11353v0.99232h-0.98851a0.1121 0.1121 0 1 0 0 0.2239h0.98851v0.98865a0.1121 0.1121 0 1 0 0.22402 0v-0.98865h0.99218a0.1121 0.1121 0 0 0 0.11369 -0.11356 0.1121 0.1121 0 0 0 -0.11369 -0.11034h-0.99218v-0.99232a0.1121 0.1121 0 0 0 -0.11368 -0.11353zm4.2146 0a0.1121 0.1121 0 0 0 -0.11035 0.11353v0.99232h-0.98852a0.1121 0.1121 0 1 0 0 0.2239h0.98852v0.98865a0.1121 0.1121 0 1 0 0.22403 0v-0.98865h0.99216a0.1121 0.1121 0 0 0 0.11371 -0.11356 0.1121 0.1121 0 0 0 -0.11371 -0.11034h-0.99216v-0.99232a0.1121 0.1121 0 0 0 -0.11368 -0.11353zm4.2144 0a0.1121 0.1121 0 0 0 -0.11033 0.11353v0.99232h-0.98852a0.1121 0.1121 0 1 0 0 0.2239h0.98852v0.98865a0.1121 0.1121 0 1 0 0.22402 0v-0.98865h0.99218a0.1121 0.1121 0 0 0 0.11369 -0.11356 0.1121 0.1121 0 0 0 -0.11369 -0.11034h-0.99218v-0.99232a0.1121 0.1121 0 0 0 -0.11369 -0.11353zm4.2146 0a0.1121 0.1121 0 0 0 -0.11033 0.11353v0.99232h-0.98851a0.1121 0.1121 0 1 0 0 0.2239h0.98851v0.98865a0.1121 0.1121 0 1 0 0.22404 0v-0.98865h0.99216a0.1121 0.1121 0 0 0 0.11369 -0.11356 0.1121 0.1121 0 0 0 -0.11369 -0.11034h-0.99216v-0.99232a0.1121 0.1121 0 0 0 -0.11371 -0.11353zm4.2146 0a0.1121 0.1121 0 0 0 -0.11034 0.11353v0.99232h-0.9885a0.1121 0.1121 0 1 0 0 0.2239h0.9885v0.98865a0.1121 0.1121 0 1 0 0.22403 0v-0.98865h0.99217a0.1121 0.1121 0 0 0 0.1137 -0.11356 0.1121 0.1121 0 0 0 -0.1137 -0.11034h-0.99217v-0.99232a0.1121 0.1121 0 0 0 -0.11369 -0.11353zm4.2146 0a0.1121 0.1121 0 0 0 -0.11033 0.11353v0.99232h-0.98853a0.1121 0.1121 0 1 0 0 0.2239h0.98853v0.98865a0.1121 0.1121 0 1 0 0.22403 0v-0.98865h0.99215a0.1121 0.1121 0 0 0 0.11371 -0.11356 0.1121 0.1121 0 0 0 -0.11371 -0.11034h-0.99215v-0.99232a0.1121 0.1121 0 0 0 -0.1137 -0.11353zm4.2144 0a0.1121 0.1121 0 0 0 -0.11035 0.11353v0.99232h-0.9885a0.1121 0.1121 0 1 0 0 0.2239h0.9885v0.98865a0.1121 0.1121 0 1 0 0.22404 0v-0.98865h0.99217a0.1121 0.1121 0 0 0 0.11371 -0.11356 0.1121 0.1121 0 0 0 -0.11371 -0.11034h-0.99217v-0.99232a0.1121 0.1121 0 0 0 -0.11369 -0.11353zm4.2146 0a0.1121 0.1121 0 0 0 -0.11031 0.11353v0.99232h-0.98853a0.1121 0.1121 0 1 0 0 0.2239h0.98853v0.98865a0.1121 0.1121 0 1 0 0.22401 0v-0.98865h0.99217a0.1121 0.1121 0 0 0 0.1137 -0.11356 0.1121 0.1121 0 0 0 -0.1137 -0.11034h-0.99217v-0.99232a0.1121 0.1121 0 0 0 -0.1137 -0.11353zm4.2146 0a0.1121 0.1121 0 0 0 -0.11033 0.11353v0.99232h-0.98852a0.1121 0.1121 0 1 0 0 0.2239h0.98852v0.98865a0.1121 0.1121 0 1 0 0.22402 0v-0.98865h0.99217a0.1121 0.1121 0 0 0 0.1137 -0.11356 0.1121 0.1121 0 0 0 -0.1137 -0.11034h-0.99217v-0.99232a0.1121 0.1121 0 0 0 -0.11369 -0.11353zm4.2146 0a0.1121 0.1121 0 0 0 -0.11034 0.11353v0.99232h-0.98851a0.1121 0.1121 0 1 0 0 0.2239h0.98851v0.98865a0.1121 0.1121 0 1 0 0.22404 0v-0.98865h0.99216a0.1121 0.1121 0 0 0 0.11371 -0.11356 0.1121 0.1121 0 0 0 -0.11371 -0.11034h-0.99216v-0.99232a0.1121 0.1121 0 0 0 -0.1137 -0.11353zm4.2144 0a0.1121 0.1121 0 0 0 -0.11035 0.11353v0.99232h-0.9885a0.1121 0.1121 0 1 0 0 0.2239h0.9885v0.98865a0.1121 0.1121 0 1 0 0.22404 0v-0.98865h0.99217a0.1121 0.1121 0 0 0 0.11369 -0.11356 0.1121 0.1121 0 0 0 -0.11369 -0.11034h-0.99217v-0.99232a0.1121 0.1121 0 0 0 -0.11369 -0.11353zm-42.145 4.2862a0.1121 0.1121 0 0 0 -0.11034 0.11354v0.99231h-0.98851a0.1121 0.1121 0 1 0 0 0.2239h0.98851v0.98866a0.1121 0.1121 0 1 0 0.22402 0v-0.98866h0.99218a0.1121 0.1121 0 0 0 0.11369 -0.11341 0.1121 0.1121 0 0 0 -0.11369 -0.11049h-0.99218v-0.99231a0.1121 0.1121 0 0 0 -0.11368 -0.11354zm4.2146 0a0.1121 0.1121 0 0 0 -0.11035 0.11354v0.99231h-0.98852a0.1121 0.1121 0 1 0 0 0.2239h0.98852v0.98866a0.1121 0.1121 0 1 0 0.22403 0v-0.98866h0.99216a0.1121 0.1121 0 0 0 0.11371 -0.11355 0.1121 0.1121 0 0 0 -0.11371 -0.11035h-0.99216v-0.99231a0.1121 0.1121 0 0 0 -0.11368 -0.11354zm4.2144 0a0.1121 0.1121 0 0 0 -0.11033 0.11354v0.99231h-0.98852a0.1121 0.1121 0 1 0 0 0.2239h0.98852v0.98866a0.1121 0.1121 0 1 0 0.22402 0v-0.98866h0.99218a0.1121 0.1121 0 0 0 0.11369 -0.11355 0.1121 0.1121 0 0 0 -0.11369 -0.11035h-0.99218v-0.99231a0.1121 0.1121 0 0 0 -0.11369 -0.11354zm4.2146 0a0.1121 0.1121 0 0 0 -0.11033 0.11354v0.99231h-0.98851a0.1121 0.1121 0 1 0 0 0.2239h0.98851v0.98866a0.1121 0.1121 0 1 0 0.22404 0v-0.98866h0.99216a0.1121 0.1121 0 0 0 0.11369 -0.11355 0.1121 0.1121 0 0 0 -0.11369 -0.11035h-0.99216v-0.99231a0.1121 0.1121 0 0 0 -0.11371 -0.11354zm4.2146 0a0.1121 0.1121 0 0 0 -0.11034 0.11354v0.99231h-0.9885a0.1121 0.1121 0 1 0 0 0.2239h0.9885v0.98866a0.1121 0.1121 0 1 0 0.22403 0v-0.98866h0.99217a0.1121 0.1121 0 0 0 0.1137 -0.11355 0.1121 0.1121 0 0 0 -0.1137 -0.11035h-0.99217v-0.99231a0.1121 0.1121 0 0 0 -0.11369 -0.11354zm4.2146 0a0.1121 0.1121 0 0 0 -0.11033 0.11354v0.99231h-0.98853a0.1121 0.1121 0 1 0 0 0.2239h0.98853v0.98866a0.1121 0.1121 0 1 0 0.22403 0v-0.98866h0.99215a0.1121 0.1121 0 0 0 0.11371 -0.11341 0.1121 0.1121 0 0 0 -0.11371 -0.11049h-0.99215v-0.99231a0.1121 0.1121 0 0 0 -0.1137 -0.11354zm4.2144 0a0.1121 0.1121 0 0 0 -0.11035 0.11354v0.99231h-0.9885a0.1121 0.1121 0 1 0 0 0.2239h0.9885v0.98866a0.1121 0.1121 0 1 0 0.22404 0v-0.98866h0.99217a0.1121 0.1121 0 0 0 0.11371 -0.11355 0.1121 0.1121 0 0 0 -0.11371 -0.11035h-0.99217v-0.99231a0.1121 0.1121 0 0 0 -0.11369 -0.11354zm4.2146 0a0.1121 0.1121 0 0 0 -0.11031 0.11354v0.99231h-0.98853a0.1121 0.1121 0 1 0 0 0.2239h0.98853v0.98866a0.1121 0.1121 0 1 0 0.22401 0v-0.98866h0.99217a0.1121 0.1121 0 0 0 0.1137 -0.11355 0.1121 0.1121 0 0 0 -0.1137 -0.11035h-0.99217v-0.99231a0.1121 0.1121 0 0 0 -0.1137 -0.11354zm4.2146 0a0.1121 0.1121 0 0 0 -0.11033 0.11354v0.99231h-0.98852a0.1121 0.1121 0 1 0 0 0.2239h0.98852v0.98866a0.1121 0.1121 0 1 0 0.22402 0v-0.98866h0.99217a0.1121 0.1121 0 0 0 0.1137 -0.11355 0.1121 0.1121 0 0 0 -0.1137 -0.11035h-0.99217v-0.99231a0.1121 0.1121 0 0 0 -0.11369 -0.11354zm4.2146 0a0.1121 0.1121 0 0 0 -0.11034 0.11354v0.99231h-0.98851a0.1121 0.1121 0 1 0 0 0.2239h0.98851v0.98866a0.1121 0.1121 0 1 0 0.22404 0v-0.98866h0.99216a0.1121 0.1121 0 0 0 0.11371 -0.11355 0.1121 0.1121 0 0 0 -0.11371 -0.11035h-0.99216v-0.99231a0.1121 0.1121 0 0 0 -0.1137 -0.11354zm4.2144 0a0.1121 0.1121 0 0 0 -0.11035 0.11354v0.99231h-0.9885a0.1121 0.1121 0 1 0 0 0.2239h0.9885v0.98866a0.1121 0.1121 0 1 0 0.22404 0v-0.98866h0.99217a0.1121 0.1121 0 0 0 0.11369 -0.11355 0.1121 0.1121 0 0 0 -0.11369 -0.11035h-0.99217v-0.99231a0.1121 0.1121 0 0 0 -0.11369 -0.11354zm-42.145 4.2864a0.1121 0.1121 0 0 0 -0.11034 0.11353v0.99231h-0.98851a0.1121 0.1121 0 1 0 0 0.22389h0.98851v0.98867a0.1121 0.1121 0 1 0 0.22402 0v-0.98867h0.99218a0.1121 0.1121 0 0 0 0.11369 -0.11355 0.1121 0.1121 0 0 0 -0.11369 -0.11034h-0.99218v-0.99231a0.1121 0.1121 0 0 0 -0.11368 -0.11353zm4.2146 0a0.1121 0.1121 0 0 0 -0.11035 0.11353v0.99231h-0.98852a0.1121 0.1121 0 1 0 0 0.22389h0.98852v0.98867a0.1121 0.1121 0 1 0 0.22403 0v-0.98867h0.99216a0.1121 0.1121 0 0 0 0.11371 -0.11355 0.1121 0.1121 0 0 0 -0.11371 -0.11034h-0.99216v-0.99231a0.1121 0.1121 0 0 0 -0.11368 -0.11353zm4.2144 0a0.1121 0.1121 0 0 0 -0.11033 0.11353v0.99231h-0.98852a0.1121 0.1121 0 1 0 0 0.22389h0.98852v0.98867a0.1121 0.1121 0 1 0 0.22402 0v-0.98867h0.99218a0.1121 0.1121 0 0 0 0.11369 -0.11355 0.1121 0.1121 0 0 0 -0.11369 -0.11034h-0.99218v-0.99231a0.1121 0.1121 0 0 0 -0.11369 -0.11353zm4.2146 0a0.1121 0.1121 0 0 0 -0.11033 0.11353v0.99231h-0.98851a0.1121 0.1121 0 1 0 0 0.22389h0.98851v0.98867a0.1121 0.1121 0 1 0 0.22404 0v-0.98867h0.99216a0.1121 0.1121 0 0 0 0.11369 -0.11355 0.1121 0.1121 0 0 0 -0.11369 -0.11034h-0.99216v-0.99231a0.1121 0.1121 0 0 0 -0.11371 -0.11353zm4.2146 0a0.1121 0.1121 0 0 0 -0.11034 0.11353v0.99231h-0.9885a0.1121 0.1121 0 1 0 0 0.22389h0.9885v0.98867a0.1121 0.1121 0 1 0 0.22403 0v-0.98867h0.99217a0.1121 0.1121 0 0 0 0.1137 -0.11355 0.1121 0.1121 0 0 0 -0.1137 -0.11034h-0.99217v-0.99231a0.1121 0.1121 0 0 0 -0.11369 -0.11353zm4.2146 0a0.1121 0.1121 0 0 0 -0.11033 0.11353v0.99231h-0.98853a0.1121 0.1121 0 1 0 0 0.22389h0.98853v0.98867a0.1121 0.1121 0 1 0 0.22403 0v-0.98867h0.99215a0.1121 0.1121 0 0 0 0.11371 -0.11355 0.1121 0.1121 0 0 0 -0.11371 -0.11034h-0.99215v-0.99231a0.1121 0.1121 0 0 0 -0.1137 -0.11353zm4.2144 0a0.1121 0.1121 0 0 0 -0.11035 0.11353v0.99231h-0.9885a0.1121 0.1121 0 1 0 0 0.22389h0.9885v0.98867a0.1121 0.1121 0 1 0 0.22404 0v-0.98867h0.99217a0.1121 0.1121 0 0 0 0.11371 -0.11355 0.1121 0.1121 0 0 0 -0.11371 -0.11034h-0.99217v-0.99231a0.1121 0.1121 0 0 0 -0.11369 -0.11353zm4.2146 0a0.1121 0.1121 0 0 0 -0.11031 0.11353v0.99231h-0.98853a0.1121 0.1121 0 1 0 0 0.22389h0.98853v0.98867a0.1121 0.1121 0 1 0 0.22401 0v-0.98867h0.99217a0.1121 0.1121 0 0 0 0.1137 -0.11355 0.1121 0.1121 0 0 0 -0.1137 -0.11034h-0.99217v-0.99231a0.1121 0.1121 0 0 0 -0.1137 -0.11353zm4.2146 0a0.1121 0.1121 0 0 0 -0.11033 0.11353v0.99231h-0.98852a0.1121 0.1121 0 1 0 0 0.22389h0.98852v0.98867a0.1121 0.1121 0 1 0 0.22402 0v-0.98867h0.99217a0.1121 0.1121 0 0 0 0.1137 -0.11355 0.1121 0.1121 0 0 0 -0.1137 -0.11034h-0.99217v-0.99231a0.1121 0.1121 0 0 0 -0.11369 -0.11353zm4.2146 0a0.1121 0.1121 0 0 0 -0.11034 0.11353v0.99231h-0.98851a0.1121 0.1121 0 1 0 0 0.22389h0.98851v0.98867a0.1121 0.1121 0 1 0 0.22404 0v-0.98867h0.99216a0.1121 0.1121 0 0 0 0.11371 -0.11355 0.1121 0.1121 0 0 0 -0.11371 -0.11034h-0.99216v-0.99231a0.1121 0.1121 0 0 0 -0.1137 -0.11353zm4.2144 0a0.1121 0.1121 0 0 0 -0.11035 0.11353v0.99231h-0.9885a0.1121 0.1121 0 1 0 0 0.22389h0.9885v0.98867a0.1121 0.1121 0 1 0 0.22404 0v-0.98867h0.99217a0.1121 0.1121 0 0 0 0.11369 -0.11355 0.1121 0.1121 0 0 0 -0.11369 -0.11034h-0.99217v-0.99231a0.1121 0.1121 0 0 0 -0.11369 -0.11353zm-42.145 4.2862a0.1121 0.1121 0 0 0 -0.11034 0.11356v0.99232h-0.98851a0.1121 0.1121 0 1 0 0 0.22388h0.98851v0.98866a0.1121 0.1121 0 1 0 0.22402 0v-0.98866h0.99218a0.1121 0.1121 0 0 0 0.11369 -0.11356 0.1121 0.1121 0 0 0 -0.11369 -0.11032h-0.99218v-0.99232a0.1121 0.1121 0 0 0 -0.11368 -0.11356zm4.2146 0a0.1121 0.1121 0 0 0 -0.11035 0.11356v0.99232h-0.98852a0.1121 0.1121 0 1 0 0 0.22388h0.98852v0.98866a0.1121 0.1121 0 1 0 0.22403 0v-0.98866h0.99216a0.1121 0.1121 0 0 0 0.11371 -0.11356 0.1121 0.1121 0 0 0 -0.11371 -0.11032h-0.99216v-0.99232a0.1121 0.1121 0 0 0 -0.11368 -0.11356zm4.2144 0a0.1121 0.1121 0 0 0 -0.11033 0.11356v0.99232h-0.98852a0.1121 0.1121 0 1 0 0 0.22388h0.98852v0.98866a0.1121 0.1121 0 1 0 0.22402 0v-0.98866h0.99218a0.1121 0.1121 0 0 0 0.11369 -0.11356 0.1121 0.1121 0 0 0 -0.11369 -0.11032h-0.99218v-0.99232a0.1121 0.1121 0 0 0 -0.11369 -0.11356zm4.2146 0a0.1121 0.1121 0 0 0 -0.11033 0.11356v0.99232h-0.98851a0.1121 0.1121 0 1 0 0 0.22388h0.98851v0.98866a0.1121 0.1121 0 1 0 0.22404 0v-0.98866h0.99216a0.1121 0.1121 0 0 0 0.11369 -0.11356 0.1121 0.1121 0 0 0 -0.11369 -0.11032h-0.99216v-0.99232a0.1121 0.1121 0 0 0 -0.11371 -0.11356zm4.2146 0a0.1121 0.1121 0 0 0 -0.11034 0.11356v0.99232h-0.9885a0.1121 0.1121 0 1 0 0 0.22388h0.9885v0.98866a0.1121 0.1121 0 1 0 0.22403 0v-0.98866h0.99217a0.1121 0.1121 0 0 0 0.1137 -0.11356 0.1121 0.1121 0 0 0 -0.1137 -0.11032h-0.99217v-0.99232a0.1121 0.1121 0 0 0 -0.11369 -0.11356zm4.2146 0a0.1121 0.1121 0 0 0 -0.11033 0.11356v0.99232h-0.98853a0.1121 0.1121 0 1 0 0 0.22388h0.98853v0.98866a0.1121 0.1121 0 1 0 0.22403 0v-0.98866h0.99215a0.1121 0.1121 0 0 0 0.11371 -0.11356 0.1121 0.1121 0 0 0 -0.11371 -0.11032h-0.99215v-0.99232a0.1121 0.1121 0 0 0 -0.1137 -0.11356zm4.2144 0a0.1121 0.1121 0 0 0 -0.11035 0.11356v0.99232h-0.9885a0.1121 0.1121 0 1 0 0 0.22388h0.9885v0.98866a0.1121 0.1121 0 1 0 0.22404 0v-0.98866h0.99217a0.1121 0.1121 0 0 0 0.11371 -0.11356 0.1121 0.1121 0 0 0 -0.11371 -0.11032h-0.99217v-0.99232a0.1121 0.1121 0 0 0 -0.11369 -0.11356zm4.2146 0a0.1121 0.1121 0 0 0 -0.11031 0.11356v0.99232h-0.98853a0.1121 0.1121 0 1 0 0 0.22388h0.98853v0.98866a0.1121 0.1121 0 1 0 0.22401 0v-0.98866h0.99217a0.1121 0.1121 0 0 0 0.1137 -0.11356 0.1121 0.1121 0 0 0 -0.1137 -0.11032h-0.99217v-0.99232a0.1121 0.1121 0 0 0 -0.1137 -0.11356zm4.2146 0a0.1121 0.1121 0 0 0 -0.11033 0.11356v0.99232h-0.98852a0.1121 0.1121 0 1 0 0 0.22388h0.98852v0.98866a0.1121 0.1121 0 1 0 0.22402 0v-0.98866h0.99217a0.1121 0.1121 0 0 0 0.1137 -0.11356 0.1121 0.1121 0 0 0 -0.1137 -0.11032h-0.99217v-0.99232a0.1121 0.1121 0 0 0 -0.11369 -0.11356zm4.2146 0a0.1121 0.1121 0 0 0 -0.11034 0.11356v0.99232h-0.98851a0.1121 0.1121 0 1 0 0 0.22388h0.98851v0.98866a0.1121 0.1121 0 1 0 0.22404 0v-0.98866h0.99216a0.1121 0.1121 0 0 0 0.11371 -0.11356 0.1121 0.1121 0 0 0 -0.11371 -0.11032h-0.99216v-0.99232a0.1121 0.1121 0 0 0 -0.1137 -0.11356zm4.2144 0a0.1121 0.1121 0 0 0 -0.11035 0.11356v0.99232h-0.9885a0.1121 0.1121 0 1 0 0 0.22388h0.9885v0.98866a0.1121 0.1121 0 1 0 0.22404 0v-0.98866h0.99217a0.1121 0.1121 0 0 0 0.11369 -0.11356 0.1121 0.1121 0 0 0 -0.11369 -0.11032h-0.99217v-0.99232a0.1121 0.1121 0 0 0 -0.11369 -0.11356zm-42.145 4.2863a0.1121 0.1121 0 0 0 -0.11034 0.11355v0.99231h-0.98851a0.1121 0.1121 0 1 0 0 0.22389h0.98851v0.98865a0.1121 0.1121 0 1 0 0.22402 0v-0.98865h0.99218a0.1121 0.1121 0 0 0 0.11369 -0.11356 0.1121 0.1121 0 0 0 -0.11369 -0.11033h-0.99218v-0.99231a0.1121 0.1121 0 0 0 -0.11368 -0.11355zm4.2146 0a0.1121 0.1121 0 0 0 -0.11035 0.11355v0.99231h-0.98852a0.1121 0.1121 0 1 0 0 0.22389h0.98852v0.98865a0.1121 0.1121 0 1 0 0.22403 0v-0.98865h0.99216a0.1121 0.1121 0 0 0 0.11371 -0.11356 0.1121 0.1121 0 0 0 -0.11371 -0.11033h-0.99216v-0.99231a0.1121 0.1121 0 0 0 -0.11368 -0.11355zm4.2144 0a0.1121 0.1121 0 0 0 -0.11033 0.11355v0.99231h-0.98852a0.1121 0.1121 0 1 0 0 0.22389h0.98852v0.98865a0.1121 0.1121 0 1 0 0.22402 0v-0.98865h0.99218a0.1121 0.1121 0 0 0 0.11369 -0.11356 0.1121 0.1121 0 0 0 -0.11369 -0.11033h-0.99218v-0.99231a0.1121 0.1121 0 0 0 -0.11369 -0.11355zm4.2146 0a0.1121 0.1121 0 0 0 -0.11033 0.11355v0.99231h-0.98851a0.1121 0.1121 0 1 0 0 0.22389h0.98851v0.98865a0.1121 0.1121 0 1 0 0.22404 0v-0.98865h0.99216a0.1121 0.1121 0 0 0 0.11369 -0.11356 0.1121 0.1121 0 0 0 -0.11369 -0.11033h-0.99216v-0.99231a0.1121 0.1121 0 0 0 -0.11371 -0.11355zm4.2146 0a0.1121 0.1121 0 0 0 -0.11034 0.11355v0.99231h-0.9885a0.1121 0.1121 0 1 0 0 0.22389h0.9885v0.98865a0.1121 0.1121 0 1 0 0.22403 0v-0.98865h0.99217a0.1121 0.1121 0 0 0 0.1137 -0.11356 0.1121 0.1121 0 0 0 -0.1137 -0.11033h-0.99217v-0.99231a0.1121 0.1121 0 0 0 -0.11369 -0.11355zm4.2146 0a0.1121 0.1121 0 0 0 -0.11033 0.11355v0.99231h-0.98853a0.1121 0.1121 0 1 0 0 0.22389h0.98853v0.98865a0.1121 0.1121 0 1 0 0.22403 0v-0.98865h0.99215a0.1121 0.1121 0 0 0 0.11371 -0.11356 0.1121 0.1121 0 0 0 -0.11371 -0.11033h-0.99215v-0.99231a0.1121 0.1121 0 0 0 -0.1137 -0.11355zm4.2144 0a0.1121 0.1121 0 0 0 -0.11035 0.11355v0.99231h-0.9885a0.1121 0.1121 0 1 0 0 0.22389h0.9885v0.98865a0.1121 0.1121 0 1 0 0.22404 0v-0.98865h0.99217a0.1121 0.1121 0 0 0 0.11371 -0.11356 0.1121 0.1121 0 0 0 -0.11371 -0.11033h-0.99217v-0.99231a0.1121 0.1121 0 0 0 -0.11369 -0.11355zm4.2146 0a0.1121 0.1121 0 0 0 -0.11031 0.11355v0.99231h-0.98853a0.1121 0.1121 0 1 0 0 0.22389h0.98853v0.98865a0.1121 0.1121 0 1 0 0.22401 0v-0.98865h0.99217a0.1121 0.1121 0 0 0 0.1137 -0.11356 0.1121 0.1121 0 0 0 -0.1137 -0.11033h-0.99217v-0.99231a0.1121 0.1121 0 0 0 -0.1137 -0.11355zm4.2146 0a0.1121 0.1121 0 0 0 -0.11033 0.11355v0.99231h-0.98852a0.1121 0.1121 0 1 0 0 0.22389h0.98852v0.98865a0.1121 0.1121 0 1 0 0.22402 0v-0.98865h0.99217a0.1121 0.1121 0 0 0 0.1137 -0.11356 0.1121 0.1121 0 0 0 -0.1137 -0.11033h-0.99217v-0.99231a0.1121 0.1121 0 0 0 -0.11369 -0.11355zm4.2146 0a0.1121 0.1121 0 0 0 -0.11034 0.11355v0.99231h-0.98851a0.1121 0.1121 0 1 0 0 0.22389h0.98851v0.98865a0.1121 0.1121 0 1 0 0.22404 0v-0.98865h0.99216a0.1121 0.1121 0 0 0 0.11371 -0.11356 0.1121 0.1121 0 0 0 -0.11371 -0.11033h-0.99216v-0.99231a0.1121 0.1121 0 0 0 -0.1137 -0.11355zm4.2144 0a0.1121 0.1121 0 0 0 -0.11035 0.11355v0.99231h-0.9885a0.1121 0.1121 0 1 0 0 0.22389h0.9885v0.98865a0.1121 0.1121 0 1 0 0.22404 0v-0.98865h0.99217a0.1121 0.1121 0 0 0 0.11369 -0.11356 0.1121 0.1121 0 0 0 -0.11369 -0.11033h-0.99217v-0.99231a0.1121 0.1121 0 0 0 -0.11369 -0.11355zm-37.931 4.2862a0.1121 0.1121 0 0 0 -0.11035 0.11355v0.99231h-0.98852a0.1121 0.1121 0 1 0 0 0.22387h0.98852v0.98867a0.1121 0.1121 0 1 0 0.22403 0v-0.98867h0.99216a0.1121 0.1121 0 0 0 0.11371 -0.11353 0.1121 0.1121 0 0 0 -0.11371 -0.11034h-0.99216v-0.99231a0.1121 0.1121 0 0 0 -0.11368 -0.11355zm4.2144 0a0.1121 0.1121 0 0 0 -0.11033 0.11355v0.99231h-0.98852a0.1121 0.1121 0 1 0 0 0.22387h0.98852v0.98867a0.1121 0.1121 0 1 0 0.22402 0v-0.98867h0.99218a0.1121 0.1121 0 0 0 0.11369 -0.11353 0.1121 0.1121 0 0 0 -0.11369 -0.11034h-0.99218v-0.99231a0.1121 0.1121 0 0 0 -0.11369 -0.11355zm4.2146 0a0.1121 0.1121 0 0 0 -0.11033 0.11355v0.99231h-0.98851a0.1121 0.1121 0 1 0 0 0.22387h0.98851v0.98867a0.1121 0.1121 0 1 0 0.22404 0v-0.98867h0.99216a0.1121 0.1121 0 0 0 0.11369 -0.11353 0.1121 0.1121 0 0 0 -0.11369 -0.11034h-0.99216v-0.99231a0.1121 0.1121 0 0 0 -0.11371 -0.11355zm4.2146 0a0.1121 0.1121 0 0 0 -0.11034 0.11355v0.99231h-0.9885a0.1121 0.1121 0 1 0 0 0.22387h0.9885v0.98867a0.1121 0.1121 0 1 0 0.22403 0v-0.98867h0.99217a0.1121 0.1121 0 0 0 0.1137 -0.11353 0.1121 0.1121 0 0 0 -0.1137 -0.11034h-0.99217v-0.99231a0.1121 0.1121 0 0 0 -0.11369 -0.11355zm8.429 0a0.1121 0.1121 0 0 0 -0.11035 0.11355v0.99231h-0.9885a0.1121 0.1121 0 1 0 0 0.22387h0.9885v0.98867a0.1121 0.1121 0 1 0 0.22404 0v-0.98867h0.99217a0.1121 0.1121 0 0 0 0.11371 -0.11353 0.1121 0.1121 0 0 0 -0.11371 -0.11034h-0.99217v-0.99231a0.1121 0.1121 0 0 0 -0.11369 -0.11355zm4.2146 0a0.1121 0.1121 0 0 0 -0.11031 0.11355v0.99231h-0.98853a0.1121 0.1121 0 1 0 0 0.22387h0.98853v0.98867a0.1121 0.1121 0 1 0 0.22401 0v-0.98867h0.99217a0.1121 0.1121 0 0 0 0.1137 -0.11353 0.1121 0.1121 0 0 0 -0.1137 -0.11034h-0.99217v-0.99231a0.1121 0.1121 0 0 0 -0.1137 -0.11355zm4.2146 0a0.1121 0.1121 0 0 0 -0.11033 0.11355v0.99231h-0.98852a0.1121 0.1121 0 1 0 0 0.22387h0.98852v0.98867a0.1121 0.1121 0 1 0 0.22402 0v-0.98867h0.99217a0.1121 0.1121 0 0 0 0.1137 -0.11353 0.1121 0.1121 0 0 0 -0.1137 -0.11034h-0.99217v-0.99231a0.1121 0.1121 0 0 0 -0.11369 -0.11355zm4.2146 0a0.1121 0.1121 0 0 0 -0.11034 0.11355v0.99231h-0.98851a0.1121 0.1121 0 1 0 0 0.22387h0.98851v0.98867a0.1121 0.1121 0 1 0 0.22404 0v-0.98867h0.99216a0.1121 0.1121 0 0 0 0.11371 -0.11353 0.1121 0.1121 0 0 0 -0.11371 -0.11034h-0.99216v-0.99231a0.1121 0.1121 0 0 0 -0.1137 -0.11355zm4.2144 0a0.1121 0.1121 0 0 0 -0.11035 0.11355v0.99231h-0.9885a0.1121 0.1121 0 1 0 0 0.22387h0.9885v0.98867a0.1121 0.1121 0 1 0 0.22404 0v-0.98867h0.99217a0.1121 0.1121 0 0 0 0.11369 -0.11353 0.1121 0.1121 0 0 0 -0.11369 -0.11034h-0.99217v-0.99231a0.1121 0.1121 0 0 0 -0.11369 -0.11355zm-42.145 0.000129a0.1121 0.1121 0 0 0 -0.11034 0.11356v0.99231h-0.98851a0.1121 0.1121 0 1 0 0 0.22389h0.98851v0.98866a0.1121 0.1121 0 1 0 0.22402 0v-0.98866h0.99218a0.1121 0.1121 0 0 0 0.11369 -0.11355 0.1121 0.1121 0 0 0 -0.11369 -0.11034h-0.99218v-0.99231a0.1121 0.1121 0 0 0 -0.11368 -0.11356zm21.073 0a0.1121 0.1121 0 0 0 -0.11033 0.11356v0.99231h-0.98853a0.1121 0.1121 0 1 0 0 0.22389h0.98853v0.98866a0.1121 0.1121 0 1 0 0.22403 0v-0.98866h0.99215a0.1121 0.1121 0 0 0 0.11371 -0.11355 0.1121 0.1121 0 0 0 -0.11371 -0.11034h-0.99215v-0.99231a0.1121 0.1121 0 0 0 -0.1137 -0.11356zm-21.073 4.2863a0.1121 0.1121 0 0 0 -0.11034 0.11354v0.9923h-0.98851a0.1121 0.1121 0 1 0 0 0.22389h0.98851v0.98866a0.1121 0.1121 0 1 0 0.22402 0v-0.98866h0.99218a0.1121 0.1121 0 0 0 0.11369 -0.11355 0.1121 0.1121 0 0 0 -0.11369 -0.11034h-0.99218v-0.9923a0.1121 0.1121 0 0 0 -0.11368 -0.11354zm4.2146 0a0.1121 0.1121 0 0 0 -0.11035 0.11354v0.9923h-0.98852a0.1121 0.1121 0 1 0 0 0.22389h0.98852v0.98866a0.1121 0.1121 0 1 0 0.22403 0v-0.98866h0.99216a0.1121 0.1121 0 0 0 0.11371 -0.11355 0.1121 0.1121 0 0 0 -0.11371 -0.11034h-0.99216v-0.9923a0.1121 0.1121 0 0 0 -0.11368 -0.11354zm4.2144 0a0.1121 0.1121 0 0 0 -0.11033 0.11354v0.9923h-0.98852a0.1121 0.1121 0 1 0 0 0.22389h0.98852v0.98866a0.1121 0.1121 0 1 0 0.22402 0v-0.98866h0.99218a0.1121 0.1121 0 0 0 0.11369 -0.11355 0.1121 0.1121 0 0 0 -0.11369 -0.11034h-0.99218v-0.9923a0.1121 0.1121 0 0 0 -0.11369 -0.11354zm4.2146 0a0.1121 0.1121 0 0 0 -0.11033 0.11354v0.9923h-0.98851a0.1121 0.1121 0 1 0 0 0.22389h0.98851v0.98866a0.1121 0.1121 0 1 0 0.22404 0v-0.98866h0.99216a0.1121 0.1121 0 0 0 0.11369 -0.11355 0.1121 0.1121 0 0 0 -0.11369 -0.11034h-0.99216v-0.9923a0.1121 0.1121 0 0 0 -0.11371 -0.11354zm4.2146 0a0.1121 0.1121 0 0 0 -0.11034 0.11354v0.9923h-0.9885a0.1121 0.1121 0 1 0 0 0.22389h0.9885v0.98866a0.1121 0.1121 0 1 0 0.22403 0v-0.98866h0.99217a0.1121 0.1121 0 0 0 0.1137 -0.11355 0.1121 0.1121 0 0 0 -0.1137 -0.11034h-0.99217v-0.9923a0.1121 0.1121 0 0 0 -0.11369 -0.11354zm4.2146 0a0.1121 0.1121 0 0 0 -0.11033 0.11354v0.9923h-0.98853a0.1121 0.1121 0 1 0 0 0.22389h0.98853v0.98866a0.1121 0.1121 0 1 0 0.22403 0v-0.98866h0.99215a0.1121 0.1121 0 0 0 0.11371 -0.11355 0.1121 0.1121 0 0 0 -0.11371 -0.11034h-0.99215v-0.9923a0.1121 0.1121 0 0 0 -0.1137 -0.11354zm4.2144 0a0.1121 0.1121 0 0 0 -0.11035 0.11354v0.9923h-0.9885a0.1121 0.1121 0 1 0 0 0.22389h0.9885v0.98866a0.1121 0.1121 0 1 0 0.22404 0v-0.98866h0.99217a0.1121 0.1121 0 0 0 0.11371 -0.11355 0.1121 0.1121 0 0 0 -0.11371 -0.11034h-0.99217v-0.9923a0.1121 0.1121 0 0 0 -0.11369 -0.11354zm4.2146 0a0.1121 0.1121 0 0 0 -0.11031 0.11354v0.9923h-0.98853a0.1121 0.1121 0 1 0 0 0.22389h0.98853v0.98866a0.1121 0.1121 0 1 0 0.22401 0v-0.98866h0.99217a0.1121 0.1121 0 0 0 0.1137 -0.11355 0.1121 0.1121 0 0 0 -0.1137 -0.11034h-0.99217v-0.9923a0.1121 0.1121 0 0 0 -0.1137 -0.11354zm4.2146 0a0.1121 0.1121 0 0 0 -0.11033 0.11354v0.9923h-0.98852a0.1121 0.1121 0 1 0 0 0.22389h0.98852v0.98866a0.1121 0.1121 0 1 0 0.22402 0v-0.98866h0.99217a0.1121 0.1121 0 0 0 0.1137 -0.11355 0.1121 0.1121 0 0 0 -0.1137 -0.11034h-0.99217v-0.9923a0.1121 0.1121 0 0 0 -0.11369 -0.11354zm4.2146 0a0.1121 0.1121 0 0 0 -0.11034 0.11354v0.9923h-0.98851a0.1121 0.1121 0 1 0 0 0.22389h0.98851v0.98866a0.1121 0.1121 0 1 0 0.22404 0v-0.98866h0.99216a0.1121 0.1121 0 0 0 0.11371 -0.11355 0.1121 0.1121 0 0 0 -0.11371 -0.11034h-0.99216v-0.9923a0.1121 0.1121 0 0 0 -0.1137 -0.11354zm4.2144 0a0.1121 0.1121 0 0 0 -0.11035 0.11354v0.9923h-0.9885a0.1121 0.1121 0 1 0 0 0.22389h0.9885v0.98866a0.1121 0.1121 0 1 0 0.22404 0v-0.98866h0.99217a0.1121 0.1121 0 0 0 0.11369 -0.11355 0.1121 0.1121 0 0 0 -0.11369 -0.11034h-0.99217v-0.9923a0.1121 0.1121 0 0 0 -0.11369 -0.11354zm-42.145 4.2862a0.1121 0.1121 0 0 0 -0.11034 0.11354v0.99232h-0.98851a0.1121 0.1121 0 1 0 0 0.22389h0.98851v0.98867a0.1121 0.1121 0 1 0 0.22402 0v-0.98867h0.99218a0.1121 0.1121 0 0 0 0.11369 -0.11356 0.1121 0.1121 0 0 0 -0.11369 -0.11033h-0.99218v-0.99232a0.1121 0.1121 0 0 0 -0.11368 -0.11354zm4.2146 0a0.1121 0.1121 0 0 0 -0.11035 0.11354v0.99232h-0.98852a0.1121 0.1121 0 1 0 0 0.22389h0.98852v0.98867a0.1121 0.1121 0 1 0 0.22403 0v-0.98867h0.99216a0.1121 0.1121 0 0 0 0.11371 -0.11356 0.1121 0.1121 0 0 0 -0.11371 -0.11033h-0.99216v-0.99232a0.1121 0.1121 0 0 0 -0.11368 -0.11354zm4.2144 0a0.1121 0.1121 0 0 0 -0.11033 0.11354v0.99232h-0.98852a0.1121 0.1121 0 1 0 0 0.22389h0.98852v0.98867a0.1121 0.1121 0 1 0 0.22402 0v-0.98867h0.99218a0.1121 0.1121 0 0 0 0.11369 -0.11356 0.1121 0.1121 0 0 0 -0.11369 -0.11033h-0.99218v-0.99232a0.1121 0.1121 0 0 0 -0.11369 -0.11354zm4.2146 0a0.1121 0.1121 0 0 0 -0.11033 0.11354v0.99232h-0.98851a0.1121 0.1121 0 1 0 0 0.22389h0.98851v0.98867a0.1121 0.1121 0 1 0 0.22404 0v-0.98867h0.99216a0.1121 0.1121 0 0 0 0.11369 -0.11356 0.1121 0.1121 0 0 0 -0.11369 -0.11033h-0.99216v-0.99232a0.1121 0.1121 0 0 0 -0.11371 -0.11354zm4.2146 0a0.1121 0.1121 0 0 0 -0.11034 0.11354v0.99232h-0.9885a0.1121 0.1121 0 1 0 0 0.22389h0.9885v0.98867a0.1121 0.1121 0 1 0 0.22403 0v-0.98867h0.99217a0.1121 0.1121 0 0 0 0.1137 -0.11356 0.1121 0.1121 0 0 0 -0.1137 -0.11033h-0.99217v-0.99232a0.1121 0.1121 0 0 0 -0.11369 -0.11354zm4.2146 0a0.1121 0.1121 0 0 0 -0.11033 0.11354v0.99232h-0.98853a0.1121 0.1121 0 1 0 0 0.22389h0.98853v0.98867a0.1121 0.1121 0 1 0 0.22403 0v-0.98867h0.99215a0.1121 0.1121 0 0 0 0.11371 -0.11356 0.1121 0.1121 0 0 0 -0.11371 -0.11033h-0.99215v-0.99232a0.1121 0.1121 0 0 0 -0.1137 -0.11354zm4.2144 0a0.1121 0.1121 0 0 0 -0.11035 0.11354v0.99232h-0.9885a0.1121 0.1121 0 1 0 0 0.22389h0.9885v0.98867a0.1121 0.1121 0 1 0 0.22404 0v-0.98867h0.99217a0.1121 0.1121 0 0 0 0.11371 -0.11356 0.1121 0.1121 0 0 0 -0.11371 -0.11033h-0.99217v-0.99232a0.1121 0.1121 0 0 0 -0.11369 -0.11354zm4.2146 0a0.1121 0.1121 0 0 0 -0.11031 0.11354v0.99232h-0.98853a0.1121 0.1121 0 1 0 0 0.22389h0.98853v0.98867a0.1121 0.1121 0 1 0 0.22401 0v-0.98867h0.99217a0.1121 0.1121 0 0 0 0.1137 -0.11356 0.1121 0.1121 0 0 0 -0.1137 -0.11033h-0.99217v-0.99232a0.1121 0.1121 0 0 0 -0.1137 -0.11354zm4.2146 0a0.1121 0.1121 0 0 0 -0.11033 0.11354v0.99232h-0.98852a0.1121 0.1121 0 1 0 0 0.22389h0.98852v0.98867a0.1121 0.1121 0 1 0 0.22402 0v-0.98867h0.99217a0.1121 0.1121 0 0 0 0.1137 -0.11356 0.1121 0.1121 0 0 0 -0.1137 -0.11033h-0.99217v-0.99232a0.1121 0.1121 0 0 0 -0.11369 -0.11354zm4.2146 0a0.1121 0.1121 0 0 0 -0.11034 0.11354v0.99232h-0.98851a0.1121 0.1121 0 1 0 0 0.22389h0.98851v0.98867a0.1121 0.1121 0 1 0 0.22404 0v-0.98867h0.99216a0.1121 0.1121 0 0 0 0.11371 -0.11356 0.1121 0.1121 0 0 0 -0.11371 -0.11033h-0.99216v-0.99232a0.1121 0.1121 0 0 0 -0.1137 -0.11354zm4.2144 0a0.1121 0.1121 0 0 0 -0.11035 0.11354v0.99232h-0.9885a0.1121 0.1121 0 1 0 0 0.22389h0.9885v0.98867a0.1121 0.1121 0 1 0 0.22404 0v-0.98867h0.99217a0.1121 0.1121 0 0 0 0.11369 -0.11356 0.1121 0.1121 0 0 0 -0.11369 -0.11033h-0.99217v-0.99232a0.1121 0.1121 0 0 0 -0.11369 -0.11354z" fill="#cae4fa"/>
 </g>
</svg>
