<?xml version="1.0" encoding="UTF-8" standalone="no"?>
<svg id="svg1731" xmlns:rdf="http://www.w3.org/1999/02/22-rdf-syntax-ns#" xmlns="http://www.w3.org/2000/svg" version="1" enable-background="new 0 0 48 48" xmlns:cc="http://creativecommons.org/ns#" xmlns:dc="http://purl.org/dc/elements/1.1/" viewBox="0 0 48 48">
 <metadata id="metadata1737">
  <rdf:RDF>
   <cc:Work rdf:about="">
    <dc:format>image/svg+xml</dc:format>
    <dc:type rdf:resource="http://purl.org/dc/dcmitype/StillImage"/>
   </cc:Work>
  </rdf:RDF>
 </metadata>
 <path id="path1301" d="m46.689 24c0 7.3856-3.5284 13.947-8.9923 18.089-3.8062 2.8875-8.5505 4.5999-13.697 4.5999-5.2379 0-10.061-1.7744-13.901-4.7555-5.3468-4.151-8.7881-10.641-8.7881-17.934 0-12.531 10.158-22.689 22.689-22.689 12.531-0.0001 22.689 10.158 22.689 22.689z" stroke-width=".088629" fill="#b2d8fa"/>
 <g id="g2300" transform="matrix(.729 0 0 .729 6.504 6.504)">
  <polygon id="polygon1707" points="29 25 29 31 24 37 19 31 19 25" fill="#ff9800"/>
  <g id="g1713" fill="#ffa726">
   <circle id="circle1709" cx="33" cy="19" r="2"/>
   <circle id="circle1711" cx="15" cy="19" r="2"/>
  </g>
  <path id="path1715" fill="#ffb74d" d="m33 13c0-7.6-18-5-18 0v7c0 5 4 9 9 9s9-4 9-9v-7z"/>
  <path id="path1717" fill="#424242" d="m24 4c-6.1 0-10 4.9-10 11v2.3l2 1.7v-5l12-4 4 4v5l2-1.7v-2.3c0-4-1-8-6-9l-1-2z"/>
  <g id="g1723" fill="#784719">
   <circle id="circle1719" cx="28" cy="19" r="1"/>
   <circle id="circle1721" cx="20" cy="19" r="1"/>
  </g>
  <polygon id="polygon1725" points="29 31 24 43 19 31 24 32" fill="#fff"/>
  <polygon id="polygon1727" points="25.7 39.5 25 35 26 34 24 32 22 34 23 35 22.3 39.5 24 43.5" fill="#d32f2f"/>
  <path id="path1729" fill="#546e7a" d="m29 31l-5 12-5-12s-11 2-11 13h32c0-11-11-13-11-13z"/>
 </g>
</svg>
