<?xml version="1.0" encoding="UTF-8" standalone="no"?>
<svg id="svg1036" xmlns:rdf="http://www.w3.org/1999/02/22-rdf-syntax-ns#" xmlns="http://www.w3.org/2000/svg" version="1" enable-background="new 0 0 48 48" xmlns:cc="http://creativecommons.org/ns#" xmlns:dc="http://purl.org/dc/elements/1.1/" viewBox="0 0 48 48">
 <metadata id="metadata1042">
  <rdf:RDF>
   <cc:Work rdf:about="">
    <dc:format>image/svg+xml</dc:format>
    <dc:type rdf:resource="http://purl.org/dc/dcmitype/StillImage"/>
   </cc:Work>
  </rdf:RDF>
 </metadata>
 <path id="path1301" d="m46.689 24c0 7.3856-3.5284 13.947-8.9923 18.089-3.8062 2.8875-8.5505 4.5999-13.697 4.5999-5.2379 0-10.061-1.7744-13.901-4.7555-5.3468-4.151-8.7881-10.641-8.7881-17.934 0-12.531 10.158-22.689 22.689-22.689 12.531-0.0001 22.689 10.158 22.689 22.689z" stroke-width=".088629" fill="#b2d8fa"/>
 <g id="g104" transform="matrix(.058150 0 0 .058150 9.1137 9.1137)">
  <g id="g4">
   <rect id="rect2" height="256" width="416" y="107.98" x="48" fill="#fff"/>
  </g>
  <g id="g8">
   <rect id="rect6" height="64" width="416" y="107.98" x="48" fill="#ff4f19"/>
  </g>
  <g id="g12">
   <path id="path10" fill="#5c546a" d="m459.13 75.984h-406.28c-20.319 0-36.85 16.493-36.85 36.766v291.23c0 4.422 3.578 8 8 8h464c4.422 0 8-3.578 8-8v-291.23c0-20.273-16.54-36.766-36.87-36.766zm-411.13 280v-240c0-4.418 3.582-8 8-8h400c4.418 0 8 3.582 8 8v240c0 4.418-3.582 8-8 8h-400c-4.418 0-8-3.582-8-8z"/>
  </g>
  <g id="g16">
   <path id="path14" fill="#b9bbc1" d="m504 395.98h-496c-4.422 0-8 3.578-8 8 0 17.664 14.367 32.031 32.031 32.031h447.94c17.664 0 32.031-14.367 32.031-32.031 0.001-4.422-3.577-8-7.999-8z"/>
  </g>
  <g id="g22">
   <g id="g20">
    <path id="path18" fill="#ffd200" d="m144 147.98h-56c-4.422 0-8-3.578-8-8s3.578-8 8-8h56c4.422 0 8 3.578 8 8s-3.578 8-8 8z"/>
   </g>
  </g>
  <g id="g28">
   <g id="g26">
    <path id="path24" fill="#fff" d="m288 147.98h-8c-4.422 0-8-3.578-8-8s3.578-8 8-8h8c4.422 0 8 3.578 8 8s-3.578 8-8 8z"/>
   </g>
  </g>
  <g id="g34">
   <g id="g32">
    <path id="path30" fill="#fff" d="m328 147.98h-8c-4.422 0-8-3.578-8-8s3.578-8 8-8h8c4.422 0 8 3.578 8 8s-3.578 8-8 8z"/>
   </g>
  </g>
  <g id="g40">
   <g id="g38">
    <path id="path36" fill="#fff" d="m368 147.98h-8c-4.422 0-8-3.578-8-8s3.578-8 8-8h8c4.422 0 8 3.578 8 8s-3.578 8-8 8z"/>
   </g>
  </g>
  <g id="g46">
   <g id="g44">
    <path id="path42" fill="#fff" d="m408 147.98h-8c-4.422 0-8-3.578-8-8s3.578-8 8-8h8c4.422 0 8 3.578 8 8s-3.578 8-8 8z"/>
   </g>
  </g>
  <g id="g50">
   <path id="path48" fill="#53dcff" d="m224 339.98h-136c-4.418 0-8-3.582-8-8v-128c0-4.418 3.582-8 8-8h136c4.418 0 8 3.582 8 8v128c0 4.418-3.582 8-8 8z"/>
  </g>
  <g id="g56">
   <g id="g54">
    <path id="path52" fill="#ff4f19" d="m416 211.98h-152c-4.422 0-8-3.578-8-8s3.578-8 8-8h152c4.422 0 8 3.578 8 8s-3.578 8-8 8z"/>
   </g>
  </g>
  <g id="g62">
   <g id="g60">
    <path id="path58" fill="#b9bbc1" d="m328 275.98h-64c-4.422 0-8-3.578-8-8s3.578-8 8-8h64c4.422 0 8 3.578 8 8s-3.578 8-8 8z"/>
   </g>
  </g>
  <g id="g68">
   <g id="g66">
    <path id="path64" fill="#b9bbc1" d="m328 307.98h-64c-4.422 0-8-3.578-8-8s3.578-8 8-8h64c4.422 0 8 3.578 8 8s-3.578 8-8 8z"/>
   </g>
  </g>
  <g id="g74">
   <g id="g72">
    <path id="path70" fill="#b9bbc1" d="m328 339.98h-64c-4.422 0-8-3.578-8-8s3.578-8 8-8h64c4.422 0 8 3.578 8 8s-3.578 8-8 8z"/>
   </g>
  </g>
  <g id="g80">
   <g id="g78">
    <path id="path76" fill="#b9bbc1" d="m424 275.98h-64c-4.422 0-8-3.578-8-8s3.578-8 8-8h64c4.422 0 8 3.578 8 8s-3.578 8-8 8z"/>
   </g>
  </g>
  <g id="g86">
   <g id="g84">
    <path id="path82" fill="#b9bbc1" d="m424 307.98h-64c-4.422 0-8-3.578-8-8s3.578-8 8-8h64c4.422 0 8 3.578 8 8s-3.578 8-8 8z"/>
   </g>
  </g>
  <g id="g92">
   <g id="g90">
    <path id="path88" fill="#b9bbc1" d="m424 339.98h-64c-4.422 0-8-3.578-8-8s3.578-8 8-8h64c4.422 0 8 3.578 8 8s-3.578 8-8 8z"/>
   </g>
  </g>
  <g id="g98">
   <g id="g96">
    <path id="path94" fill="#e9001e" d="m368 243.98h-104c-4.422 0-8-3.578-8-8s3.578-8 8-8h104c4.422 0 8 3.578 8 8s-3.578 8-8 8z"/>
   </g>
  </g>
  <g id="g102">
   <path id="path100" fill="#8b8996" d="m224 411.98h64c8.836 0 16-7.164 16-16h-96c0 8.837 7.163 16 16 16z"/>
  </g>
 </g>
</svg>
