<?xml version="1.0" standalone="no"?>
<!DOCTYPE svg PUBLIC "-//W3C//DTD SVG 20010904//EN"
 "http://www.w3.org/TR/2001/REC-SVG-20010904/DTD/svg10.dtd">
<svg version="1.0" xmlns="http://www.w3.org/2000/svg"
 width="1500.000000pt" height="1500.000000pt" viewBox="0 0 1500.000000 1500.000000"
 preserveAspectRatio="xMidYMid meet">
<metadata>
Created by potrace 1.11, written by Peter Selinger 2001-2013
</metadata>
<g transform="translate(0.000000,1500.000000) scale(0.100000,-0.100000)"
fill="#000000" stroke="none">
<path d="M7787 14923 c-1 0 -67 -4 -147 -7 -80 -4 -157 -8 -170 -11 -14 -2
-61 -6 -105 -9 -44 -3 -89 -8 -100 -10 -65 -13 -219 -19 -520 -21 -187 -2
-353 -6 -370 -8 -16 -3 -55 -9 -85 -12 -30 -3 -66 -8 -80 -10 -14 -2 -61 -9
-105 -15 -44 -7 -87 -13 -95 -15 -443 -90 -685 -167 -1032 -329 -165 -77 -298
-153 -478 -271 -141 -93 -348 -251 -409 -311 -13 -13 -26 -24 -30 -24 -3 0
-23 26 -43 58 -132 204 -343 378 -521 428 -242 67 -523 -43 -793 -310 -56 -56
-137 -141 -179 -190 -238 -276 -306 -328 -490 -371 -341 -79 -458 -134 -573
-269 -54 -64 -119 -199 -162 -336 -18 -58 -54 -172 -81 -254 -27 -82 -48 -151
-46 -152 1 -2 23 15 47 38 111 99 256 174 351 181 30 2 78 -3 108 -11 75 -21
164 -112 328 -332 202 -273 323 -390 494 -479 73 -39 189 -77 257 -85 18 -2
35 -5 37 -7 2 -2 -3 -31 -11 -64 -30 -128 -66 -281 -70 -305 -3 -14 -7 -31
-10 -39 -2 -8 -7 -30 -10 -50 -3 -20 -12 -61 -19 -91 -8 -30 -16 -66 -18 -80
-3 -14 -19 -97 -37 -185 -17 -88 -33 -169 -36 -180 -2 -11 -21 -121 -43 -245
-22 -124 -47 -254 -55 -290 -8 -36 -20 -87 -26 -115 -18 -78 -86 -304 -134
-443 -136 -397 -327 -832 -513 -1171 -35 -62 -63 -115 -63 -117 0 -2 -16 -28
-35 -58 -19 -30 -35 -58 -35 -61 0 -3 -8 -18 -18 -33 -11 -15 -30 -45 -44 -67
-14 -22 -50 -78 -80 -125 -87 -136 -168 -269 -168 -279 0 -4 -9 -20 -20 -34
-22 -28 -255 -485 -309 -607 -187 -418 -313 -742 -420 -1080 -29 -91 -87 -273
-130 -405 -100 -307 -114 -354 -137 -470 -2 -11 -8 -40 -14 -65 -13 -60 -47
-270 -55 -345 -4 -33 -8 -71 -10 -85 -20 -157 -27 -695 -11 -895 4 -55 9 -125
11 -155 3 -30 5 -55 5 -55 2 0 6 -31 14 -100 3 -33 8 -71 11 -85 2 -14 7 -43
10 -65 16 -117 57 -334 75 -405 5 -19 11 -46 14 -60 7 -39 16 -78 43 -175 14
-49 26 -94 27 -100 10 -47 89 -277 133 -390 125 -317 232 -501 515 -893 211
-290 372 -464 600 -647 103 -83 302 -197 468 -268 99 -42 325 -120 380 -131
14 -2 60 -14 104 -25 43 -12 92 -23 110 -26 17 -3 105 -18 196 -34 174 -31
213 -37 295 -46 28 -3 70 -8 95 -11 25 -3 61 -7 80 -9 19 -2 71 -7 115 -11 44
-3 92 -7 108 -9 67 -8 348 -18 517 -18 258 0 552 15 725 38 17 2 55 7 85 10
30 3 66 7 80 10 14 2 45 7 70 10 196 27 545 103 775 170 163 47 486 156 550
185 11 5 83 34 160 66 77 31 183 77 235 101 138 65 252 104 346 119 21 3 42 8
45 10 14 8 173 18 289 18 181 0 323 -16 552 -59 20 -4 100 -23 278 -65 70 -17
220 -60 430 -125 118 -37 283 -87 365 -112 83 -24 157 -47 165 -50 8 -3 20 -7
25 -8 6 -2 30 -8 55 -15 25 -7 53 -14 62 -15 10 -2 21 -6 26 -8 4 -3 25 -8 47
-11 22 -4 48 -9 57 -12 9 -3 25 -6 35 -8 173 -35 292 -57 319 -61 19 -2 49 -6
66 -9 18 -3 49 -8 68 -11 19 -2 44 -7 56 -9 11 -2 45 -7 75 -10 30 -4 70 -8
89 -11 19 -2 64 -6 100 -10 36 -3 74 -7 85 -9 139 -27 967 -28 1145 -1 14 2
52 7 85 10 60 6 78 8 166 20 53 7 72 10 189 31 231 41 444 95 675 170 222 73
376 143 632 289 90 51 300 221 413 334 296 298 498 643 660 1131 48 144 98
313 115 390 2 8 11 47 20 85 9 39 19 81 21 95 3 14 7 33 10 42 3 9 7 27 9 40
3 13 9 46 15 73 12 62 17 95 26 154 3 25 8 57 10 71 12 76 19 233 19 453 0
158 4 247 10 247 6 0 5 4 -1 8 -7 4 -14 54 -18 117 -7 115 -12 173 -22 265
-15 135 -23 203 -29 240 -2 14 -7 48 -10 75 -7 66 -63 398 -76 455 -11 45 -14
61 -23 113 -6 32 -10 34 98 -45 44 -32 81 -56 83 -54 6 6 4 176 -2 206 -3 14
-8 41 -11 60 -9 53 -49 188 -74 250 -12 30 -23 70 -26 90 -2 19 -6 46 -9 60
-3 14 -7 43 -11 65 -35 248 -169 707 -297 1021 -134 325 -271 602 -436 879
-36 61 -70 118 -76 127 -5 10 -51 86 -101 170 -161 268 -299 521 -443 813
-103 207 -221 454 -221 461 0 1 -18 42 -41 91 -22 48 -64 142 -91 208 -28 66
-58 138 -68 160 -28 62 -178 439 -216 540 -18 50 -45 122 -59 160 -87 229
-266 758 -340 1000 -20 66 -40 131 -45 145 -11 29 -146 497 -152 521 -2 10 18
33 52 59 97 76 209 201 355 395 198 264 262 324 368 338 112 15 287 -65 418
-189 19 -19 38 -31 42 -28 4 4 3 12 -2 18 -5 6 -15 34 -24 61 -59 199 -144
452 -172 512 -66 144 -171 251 -305 311 -59 27 -213 76 -270 86 -149 26 -238
60 -315 119 -65 50 -89 74 -241 245 -174 195 -230 252 -320 324 -212 171 -455
254 -629 216 -135 -30 -284 -119 -402 -241 l-72 -74 -73 49 c-214 144 -542
316 -738 387 -19 7 -44 17 -55 22 -25 11 -193 70 -214 75 -9 2 -79 21 -156 43
-126 35 -331 81 -425 95 -19 3 -44 7 -55 10 -11 2 -49 7 -85 12 -36 4 -67 8
-70 9 -4 1 -113 12 -195 20 -123 13 -629 27 -638 18z"/>
</g>
</svg>
