<?xml version="1.0" encoding="UTF-8" standalone="no"?>
<svg id="svg3615" xmlns:rdf="http://www.w3.org/1999/02/22-rdf-syntax-ns#" xmlns="http://www.w3.org/2000/svg" viewBox="0 0 6.7003698 12.805421" width="6.7004mm" version="1.1" xmlns:cc="http://creativecommons.org/ns#" height="12.805mm" xmlns:dc="http://purl.org/dc/elements/1.1/">
 <metadata id="metadata3612">
  <rdf:RDF>
   <cc:Work rdf:about="">
    <dc:format>image/svg+xml</dc:format>
    <dc:type rdf:resource="http://purl.org/dc/dcmitype/StillImage"/>
    <dc:title/>
   </cc:Work>
  </rdf:RDF>
 </metadata>
 <g id="layer1" transform="translate(-23.864 -18.228)">
  <path id="line3557" style="color-rendering:auto;text-decoration-color:#000000;color:#000000;font-variant-numeric:normal;shape-rendering:auto;font-variant-ligatures:normal;text-decoration-line:none;font-variant-position:normal;mix-blend-mode:normal;solid-color:#000000;font-feature-settings:normal;shape-padding:0;font-variant-alternates:normal;text-indent:0;dominant-baseline:auto;font-variant-caps:normal;image-rendering:auto;white-space:normal;text-decoration-style:solid;text-orientation:mixed;isolation:auto;text-transform:none" d="m27.207 18.228c-0.14524 0.0025-0.28114 0.07213-0.36793 0.18862l-2.7683 2.7683c-0.46344 0.44188 0.22149 1.1263 0.66301 0.66249l2.0123-2.0123v6.3676c-0.01078 0.63563 0.94819 0.63563 0.93741 0v-6.3676l2.0123 2.0123c0.44152 0.46379 1.1265-0.22061 0.66301-0.66249l-2.7719-2.7719c-0.09007-0.11846-0.23103-0.18712-0.37983-0.185zm-0.0372 10.228c-0.21704 0-0.40904 0.0504-0.57671 0.15142-0.16766 0.10105-0.29858 0.24575-0.39274 0.43408-0.093 0.18717-0.13953 0.40685-0.13953 0.65836v0.0909c0 0.25152 0.0465 0.4716 0.13953 0.65993 0.0942 0.18716 0.22508 0.33147 0.39274 0.43251 0.16881 0.0999 0.36214 0.14986 0.58033 0.14986 0.21474 0 0.40594-0.0499 0.5736-0.14986 0.16766-0.10104 0.29858-0.24535 0.39274-0.43251 0.0942-0.18833 0.14108-0.40841 0.14108-0.65993v-0.0909c0-0.25151-0.0473-0.47119-0.14263-0.65836-0.0942-0.18833-0.226-0.33303-0.3948-0.43408-0.16767-0.10107-0.35887-0.15142-0.57361-0.15142zm-3.3052 0.0346v0.51989h0.72864v1.988h0.64389v-1.988h0.74776v-0.51985h-0.74776zm4.7041 0v2.5078h0.64234v-0.81288h0.36897c0.19866 0 0.37172-0.0345 0.51986-0.10334 0.14929-0.0689 0.2643-0.16537 0.34468-0.28941 0.0804-0.12401 0.12041-0.26659 0.12041-0.42735 0-0.16767-0.04-0.31753-0.12041-0.44958-0.0804-0.13322-0.19539-0.23696-0.34468-0.31163-0.14929-0.0758-0.32234-0.11366-0.51986-0.11366zm-1.3989 0.49091c0.14584 0 0.2578 0.0611 0.33589 0.18396 0.0792 0.12174 0.11886 0.29877 0.11886 0.53073v0.0946c0 0.22852-0.0387 0.40553-0.11679 0.53073-0.0781 0.12514-0.18964 0.18759-0.33434 0.18759-0.15158 0-0.26568-0.0611-0.34262-0.18397-0.0758-0.12404-0.11369-0.30236-0.11369-0.53435v-0.0946c0-0.47657 0.15067-0.71469 0.45269-0.71469zm2.0412 0.0289h0.36897c0.11024 0 0.19333 0.0341 0.24959 0.10181 0.0563 0.0677 0.0842 0.15349 0.0842 0.25683 0 0.0895-0.0275 0.16098-0.0827 0.21498-0.0551 0.0529-0.18677 0.17192-0.25114 0.0796h-0.37z" fill="#1e8cf0"/>
 </g>
</svg>
