<?xml version="1.0" encoding="UTF-8" standalone="no"?>
<svg id="svg3726" xmlns:rdf="http://www.w3.org/1999/02/22-rdf-syntax-ns#" xmlns="http://www.w3.org/2000/svg" viewBox="0 0 14.116389 14.116389" width="14.116mm" version="1.1" xmlns:cc="http://creativecommons.org/ns#" height="14.116mm" xmlns:dc="http://purl.org/dc/elements/1.1/">
 <metadata id="metadata3723">
  <rdf:RDF>
   <cc:Work rdf:about="">
    <dc:format>image/svg+xml</dc:format>
    <dc:type rdf:resource="http://purl.org/dc/dcmitype/StillImage"/>
    <dc:title/>
   </cc:Work>
  </rdf:RDF>
 </metadata>
 <g id="layer1" transform="translate(-54.174 -30.65)">
  <g id="g13006" fill="#1e8cf0" transform="matrix(.83038 0 0 .83038 54.174 30.65)">
   <path id="path12994" fill="#1e8cf0" d="m8.5 0c-4.687 0-8.5 3.813-8.5 8.5s3.813 8.5 8.5 8.5 8.5-3.813 8.5-8.5-3.813-8.5-8.5-8.5zm0 16c-4.136 0-7.5-3.364-7.5-7.5s3.364-7.5 7.5-7.5 7.5 3.364 7.5 7.5-3.364 7.5-7.5 7.5zm4.5-7c0 2.481-2.019 4.5-4.5 4.5s-4.5-2.019-4.5-4.5c0-0.276 0.224-0.5 0.5-0.5s0.5 0.224 0.5 0.5c0 1.93 1.57 3.5 3.5 3.5s3.5-1.57 3.5-3.5c0-0.276 0.224-0.5 0.5-0.5s0.5 0.224 0.5 0.5zm-8.5-3.5c0-0.552 0.448-1 1-1s1 0.448 1 1-0.448 1-1 1-1-0.448-1-1zm6 0c0-0.552 0.448-1 1-1s1 0.448 1 1-0.448 1-1 1-1-0.448-1-1z"/>
  </g>
 </g>
</svg>
