<?xml version="1.0" encoding="UTF-8" standalone="no"?>
<svg id="svg8118" xmlns:rdf="http://www.w3.org/1999/02/22-rdf-syntax-ns#" xmlns="http://www.w3.org/2000/svg" version="1" enable-background="new 0 0 48 48" xmlns:cc="http://creativecommons.org/ns#" xmlns:dc="http://purl.org/dc/elements/1.1/" viewBox="0 0 48 48">
 <metadata id="metadata8124">
  <rdf:RDF>
   <cc:Work rdf:about="">
    <dc:format>image/svg+xml</dc:format>
    <dc:type rdf:resource="http://purl.org/dc/dcmitype/StillImage"/>
    <dc:title/>
   </cc:Work>
  </rdf:RDF>
 </metadata>
 <path id="path8102" d="m25 22h13l6 6v-17c0-2.2-1.8-4-4-4h-15c-2.2 0-4 1.8-4 4v7c0 2.2 1.8 4 4 4z" fill="#3b8dea"/>
 <path id="path8104" d="m23 19h-13l-6 6v-17c0-2.2 1.8-4 4-4h15c2.2 0 4 1.8 4 4v7c0 2.2-1.8 4-4 4z" fill="#59b0f6"/>
 <g id="g8110" fill="#cfd8dc">
  <circle id="circle8106" cy="31" cx="12" r="5"/>
  <circle id="circle8108" cy="31" cx="36" r="5"/>
 </g>
 <g id="g8116" fill="#00bcd4">
  <path id="path8112" d="m20 42s-2.2-4-8-4-8 4-8 4v2h16v-2z"/>
  <path id="path8114" d="m44 42s-2.2-4-8-4-8 4-8 4v2h16v-2z"/>
 </g>
</svg>
