<?xml version="1.0" encoding="UTF-8" standalone="no"?>
<svg id="Layer_1" xmlns:rdf="http://www.w3.org/1999/02/22-rdf-syntax-ns#" xmlns="http://www.w3.org/2000/svg" xml:space="preserve" height="100" width="100" version="1.1" y="0px" x="0px" xmlns:cc="http://creativecommons.org/ns#" viewBox="0 0 100 100" xmlns:dc="http://purl.org/dc/elements/1.1/"><metadata id="metadata998"><rdf:RDF><cc:Work rdf:about=""><dc:format>image/svg+xml</dc:format><dc:type rdf:resource="http://purl.org/dc/dcmitype/StillImage"/><dc:title/></cc:Work></rdf:RDF></metadata><ellipse id="circle3206" rx="38.424" ry="38.424" cy="50" cx="50" stroke-width=".15009" fill="#b2d8fa"/><path id="path959" d="m58.564 45.36c1.8349-0.64368 3.7464-0.44226 5.3278 0.38864 0.54169 0.28462 1.1555-0.23749 0.97383-0.82186l-1.362-4.379c-0.45483-1.4634-2.0099-2.2811-3.4733-1.826l-5.4868 1.7056c1.0021-1.6753 1.2716-3.7786 0.52589-5.7789-1.1712-3.1419-4.5776-4.9483-7.8351-4.1531-3.7818 0.92331-5.9485 4.8221-4.8106 8.483 0.58748 1.8902 1.9375 3.3324 3.6062 4.0955l-5.4868 1.7056c-1.4634 0.45483-2.281 2.0099-1.8259 3.4733l1.547 4.9768c-1.5828-0.88656-3.5203-1.1324-5.3864-0.50981-3.2662 1.0901-5.1956 4.5703-4.3785 7.9156 0.92358 3.7814 4.8221 5.9477 8.4827 4.8098 1.8241-0.56709 3.2302-1.8443 4.0122-3.4328l1.7806 5.7277c0.45483 1.4634 2.0099 2.281 3.4733 1.8259l19.487-6.0575c1.4634-0.45483 2.281-2.0099 1.826-3.4733l-1.5952-5.1316c-0.18331-0.58991-0.98436-0.66016-1.2726-0.11415-0.79686 1.5093-2.1679 2.7154-3.9265 3.262-3.6611 1.1381-7.56-1.0291-8.4831-4.8115-0.80673-3.3062 1.0681-6.7534 4.2795-7.8799z" stroke-width=".13509" fill="#0e7de1"/></svg>
