<?xml version="1.0" encoding="UTF-8" standalone="no"?>
<svg id="Layer_1" xmlns:rdf="http://www.w3.org/1999/02/22-rdf-syntax-ns#" xmlns="http://www.w3.org/2000/svg" xml:space="preserve" height="100" width="100" version="1.1" y="0px" x="0px" xmlns:cc="http://creativecommons.org/ns#" xmlns:dc="http://purl.org/dc/elements/1.1/" viewBox="0 0 100 100"><metadata id="metadata4340"><rdf:RDF><cc:Work rdf:about=""><dc:format>image/svg+xml</dc:format><dc:type rdf:resource="http://purl.org/dc/dcmitype/StillImage"/><dc:title/></cc:Work></rdf:RDF></metadata><ellipse id="circle2928" rx="36.887" ry="36.887" cy="50" cx="50" stroke-width=".15009" fill="#b2d8fa"/><g id="g3857" transform="matrix(4.1669 0 0 4.1669 -288.06 -81.533)"><path id="path2932" d="m86.546 27.479h-10.834c-0.09646 0-0.1747 0.07819-0.1747 0.17466v7.8191c0 0.09646 0.07819 0.1747 0.1747 0.1747h5.0663c0.04702 0.14972 0.1853 0.25904 0.35054 0.25904s0.30352-0.10937 0.35054-0.25904h5.0663c0.09646 0 0.1747-0.07823 0.1747-0.1747v-7.8191c-0.00008-0.09646-0.07827-0.17466-0.17478-0.17466z" fill-opacity=".52157" stroke-width=".039713" fill="#30497b"/><path id="path2934" d="m81.458 27.225c-0.18208 0-0.32973 0.14761-0.32973 0.32973v7.6038h0.0035c0.01743-0.16568 0.15599-0.29526 0.32624-0.29526h4.8326v-7.6382z" stroke-width=".039713" fill="#fff"/><path id="path2936" d="m86.291 35.367h-5.1623v-0.38462c0-0.18192 0.14749-0.32938 0.32938-0.32938h4.8329z" stroke-width=".039713" fill="#ebf0f3"/><path id="path2938" d="m80.799 27.225c0.18208 0 0.32973 0.14761 0.32973 0.32973v7.6038h-0.0035c-0.01743-0.16568-0.15599-0.29526-0.32624-0.29526h-4.8325v-7.6382z" stroke-width=".039713" fill="#e1e6e9"/><path id="path2940" d="m75.966 35.367h5.1623v-0.38462c0-0.18192-0.14749-0.32938-0.32938-0.32938h-4.8329z" stroke-width=".039713" fill="#d5d6db"/><g id="g2958" fill="#ebf0f3" transform="matrix(.039713 0 0 .039713 71.369 21.806)"><rect id="rect2942" height="5.12" width="96.338" y="155.51" x="261.94"/><rect id="rect2944" height="5.12" width="96.338" y="176.48" x="261.94"/><rect id="rect2946" height="5.12" width="96.338" y="197.44" x="261.94"/><rect id="rect2948" height="5.12" width="96.338" y="218.4" x="261.94"/><rect id="rect2950" height="5.12" width="96.338" y="239.37" x="261.94"/><rect id="rect2952" height="5.12" width="96.338" y="260.33" x="261.94"/><rect id="rect2954" height="5.12" width="96.338" y="281.29" x="261.94"/><rect id="rect2956" height="5.12" width="96.338" y="302.23" x="261.94"/></g><g id="g2976" fill="#d5d6db" transform="matrix(.039713 0 0 .039713 71.369 21.806)"><rect id="rect2960" height="5.12" width="96.338" y="155.51" x="132.59"/><rect id="rect2962" height="5.12" width="96.338" y="176.48" x="132.59"/><rect id="rect2964" height="5.12" width="96.338" y="197.44" x="132.59"/><rect id="rect2966" height="5.12" width="96.338" y="218.4" x="132.59"/><rect id="rect2968" height="5.12" width="96.338" y="239.37" x="132.59"/><rect id="rect2970" height="5.12" width="96.338" y="260.33" x="132.59"/><rect id="rect2972" height="5.12" width="96.338" y="281.29" x="132.59"/><rect id="rect2974" height="5.12" width="96.338" y="302.23" x="132.59"/></g><polygon id="polygon2978" transform="matrix(.039713 0 0 .039713 71.369 21.806)" points="226.12 218.4 209.85 208.21 193.59 218.4 193.59 136.46 226.12 136.46" fill="#55a7f4"/></g></svg>
