<?xml version="1.0" encoding="UTF-8" standalone="no"?>
<svg id="Capa_1" xmlns:rdf="http://www.w3.org/1999/02/22-rdf-syntax-ns#" xmlns="http://www.w3.org/2000/svg" xml:space="preserve" viewBox="0 0 100 100" height="100" width="100" version="1.1" y="0px" x="0px" xmlns:cc="http://creativecommons.org/ns#" xmlns:xlink="http://www.w3.org/1999/xlink" xmlns:dc="http://purl.org/dc/elements/1.1/"><metadata id="metadata8859"><rdf:RDF><cc:Work rdf:about=""><dc:format>image/svg+xml</dc:format><dc:type rdf:resource="http://purl.org/dc/dcmitype/StillImage"/><dc:title/></cc:Work></rdf:RDF></metadata><ellipse id="circle3206" rx="38.424" ry="38.424" cy="50" cx="50" stroke-width=".15009" fill="#b2d8fa"/><g id="g15166" stroke-width=".22877" transform="matrix(.81 0 0 .81 9.5759 9.4263)"><path id="path6109" d="m50.402 15.452c-6.0578 0-11.738 1.5945-16.673 4.3649-0.0023 0.0023-0.0076-0.0023-0.01134 0-3.1936 1.7935-6.0509 4.1018-8.5033 6.7875-5.5522 6.0761-8.9746 14.136-8.9746 23.009 0 18.857 15.309 34.16 34.162 34.16 0.59478 0 1.169-0.05718 1.757-0.08693 0.9425-0.04804 1.8713-0.12355 2.791-0.24707 8.5422-1.1438 16.087-5.4218 21.42-11.672 5.0923-5.9663 8.183-13.701 8.183-22.154 0-4.3169-0.82586-8.4255-2.2877-12.228-0.71607-1.8645-1.6014-3.6511-2.6194-5.3417-4.411-7.326-11.473-12.856-19.874-15.255-2.983-0.851-6.115-1.336-9.37-1.336z" fill-opacity=".51765" fill="#fdfdfd"/><path id="path6111" d="m45.566 16.529c-0.12359 0-0.31786 0.02041-0.40033 0.1327-0.08239 0.10753-0.15798 0.24707-0.24718 0.334-0.05027 0.05261-0.10507 0.2013-0.24491 0.2013-0.07786 0-0.34318-0.04346-0.40033 0-0.10507 0.07778-0.25625 0.15556-0.28838 0.28826-0.04346 0.17386-0.18973 0.14411-0.31332 0.26767-0.06879 0.06864-0.23093 0.19672-0.33411 0.2219-0.13266 0.03439-0.25172 0.06864-0.40033 0.06864-0.11225 0-0.26986-0.02759-0.37758 0-0.17839 0.04347-0.27213 0.20591-0.42319 0.2448-0.13946 0.03439-0.20145 0.08923-0.26759 0.17843-0.08693 0.1121-0.28384 0.17616-0.42323 0.17616-0.21279 0-0.22413 0.0412-0.37977 0.15787-0.10961 0.08236-0.30425 0.1098-0.44379 0.1098-0.18973 0-0.45755 0.0068-0.62453 0.08923-0.11225 0.05718-0.26306 0.07778-0.31106 0.2013-0.07786 0.19446-0.144 0.21732-0.33411 0.31113-0.11225 0.05492-0.35452 0.1327-0.4461 0.2242-0.06879 0.06864-0.10772 0.3157-0.20145 0.334 0.0076 0.0023 0.14627 0.12582 0.17839 0.1327 0.1372 0.03439 0.31559 0.02305 0.46896 0.02305 0.18293 0 0.34545 0.02305 0.53303 0.02305 0.16252 0 0.26079-0.1121 0.40263-0.1121 0.18746 0 0.37757 0 0.55589 0.04347 0.14854 0.03889 0.28838 0.08923 0.4461 0.08923 0.16479 0 0.25852-0.0091 0.40037-0.04347 0.18066-0.04577 0.28838-0.03666 0.37757-0.15556 0.08013-0.10753 0.14627-0.17159 0.24491-0.2448 0.08013-0.05949 0.37977-0.37976 0.4461-0.37976 0.16706 0 0.28838-0.05034 0.4461-0.08923 0.10734-0.02759 0.11225-0.28823 0.22186-0.26767 0.06387 0.01361 0.19654 0.17386 0.26759 0.15557 0.06198-0.01361 0.1372-0.03213 0.20145-0.02041 0.06161 0.0091 0.11452 0.05719 0.13266 0.1327 0.0378 0.14869 0.08013 0.14411 0.15572 0.2448 0.0378 0.05034 0.22186 0.26993 0.20145 0.35686-0.02646 0.10522-0.05253 0.28365-0.02268 0.40035 0.03024 0.11894 0.03402 0.24937 0.0892 0.35686 0.03779 0.07321 0.1372 0.24019 0.15572 0.31113 0.03402 0.13954 0.11225 0.13727 0.17839 0.26767 0.07786 0.15783 0.03893 0.2242-0.02268 0.37976-0.05253 0.13039-0.12813 0.28365-0.0892 0.44381 0.0076 0.03439 0.01512 0.07778 0.02268 0.1121 0.02646 0.10065 0.03893 0.15326 0.06614 0.17843 0.02646 0.02532 0.06614 0.02305 0.17839 0.02305 0.13266 0 0.31332 0 0.37977 0.06633 0.0892 0.08923 0.17839 0.13954 0.17839 0.26767 0 0.0915-0.05254 0.3363-0.13493 0.37746-0.05934 0.02986-0.24491 0.19215-0.24491 0.29053 0 0.12355 0.02268 0.26309 0.02268 0.37746 0 0.02532-0.0076 0.06633 0 0.08923 0.03779 0.14869 0.06879 0.33857 0.13266 0.46898 0.05253 0.10295 0.16706 0.19215 0.22413 0.334 0.048 0.12355 0.05254 0.30882 0.10998 0.42322 0.06387 0.12582 0.12586 0.22878 0.17839 0.334 0.06161 0.12355 0.10054 0.36601 0.20145 0.46669 0.11679 0.11894 0.16479 0.19903 0.26759 0.334 0.08693 0.11667 0.19691 0.26536 0.28838 0.35686 0.08239 0.08236 0.16479 0.18758 0.26759 0.29053 0.21279 0.21275 0.34091 0.3363 0.60166 0.46668 0.13266 0.06633 0.28838 0.1327 0.42323 0.2013 0.15345 0.07548 0.2812 0.17843 0.40033 0.26767 0.13493 0.10065 0.27666 0.24707 0.4667 0.19903 0.16706-0.0412 0.42323-0.0091 0.58106-0.08923 0.05027-0.02532 0.10734-0.0412 0.15572-0.08924 0.04573-0.04573 0.08693-0.11437 0.04346-0.19903-0.03402-0.0709-0.10961-0.183-0.10961-0.29053 0-0.183-0.04573-0.34545-0.04573-0.53303 0-0.13497-0.0076-0.23562 0.02268-0.35686 0.02268-0.09608 0.03024-0.23335 0-0.35686-0.03893-0.15099-0.0076-0.29511-0.04573-0.4461-0.03024-0.12355-0.0189-0.28369-0.0189-0.42322 0-0.13039-0.0076-0.23792 0.0189-0.35686 0.03779-0.13954 0.02268-0.28369 0.02268-0.42322 0-0.11667-0.0189-0.24937 0.02268-0.334 0.04346-0.08462 0.09827-0.29284 0.22186-0.334 0.10507-0.03439 0.46896-0.1121 0.46896-0.2448 0-0.14642-0.01512-0.25621-0.04573-0.37746-0.03402-0.14185-0.12813-0.27908-0.04347-0.4461 0.09373-0.18988 0.2812-0.24249 0.40036-0.40034 0.06614-0.0915 0.1852-0.18531 0.28838-0.29053 0.08013-0.07778 0.25172-0.14642 0.29065-0.2219 0.048-0.09838 0.11225-0.24249 0.11225-0.35686 0-0.08005 0.03402-0.36144-0.04573-0.40034-0.11452-0.05718-0.24491-0.03889-0.24491-0.17843 0-0.09381 0.10054-0.31113 0.06652-0.37976-0.05253-0.10753-0.11452-0.2013-0.28838-0.2448-0.13946-0.03439-0.32958-0.05949-0.46896-0.08923-0.08466-0.01587-0.27666-0.04116-0.31106-0.1098-0.03893-0.08005-0.07786-0.2951-0.15572-0.334-0.12586-0.06406-0.26986-0.06864-0.42323-0.06864-0.03893 0-0.51931-0.11437-0.35679-0.15556 0.16252-0.0412 0.15798-0.06864 0.22186-0.19903 0.03893-0.07551 0.11225-0.20134 0.04573-0.29053-0.09373-0.12355-0.21959-0.17616-0.31106-0.26767-0.12359-0.12125-0.40494-0.17843-0.5788-0.17843-0.02646 0-0.04346 0.0068-0.06879 0-0.09827-0.02305-0.18973-0.12355-0.26532-0.19903-0.11452-0.11437-0.32013-0.16471-0.46896-0.2013-0.11225-0.02759-0.18066-0.12355-0.31106-0.15557-0.13039-0.03213-0.26759-0.03439-0.40033-0.06633-0.17613-0.04347-0.36359-0.07778-0.53533-0.1121-0.06425-0.01361-0.517-0.04573-0.48956-0.15557 0.01512-0.06633 0.1028-0.2242 0.19918-0.2242 0.13493 0 0.29291 0.02759 0.42323 0 0.17159-0.03213 0.34772-0.06633 0.53529-0.06633 0.17159 0 0.34545 0.01134 0.51247 0.04577 0.20825 0.04116 0.43922 0.01361 0.64513 0.06633 0.16252 0.0412 0.41178 0.06633 0.57876 0.06633 0.23811 0 0.51473-0.02305 0.75723-0.02305 0.37304 0 0.70462-0.08923 1.0706-0.08923 0.21052 0 0.28384-0.12813 0.44383-0.15556 0.08239-0.01361 0.1508-0.03666 0.17839-0.06633 0.02646-0.02986 0.0038-0.05949-0.11225-0.08923-0.13946-0.03439-0.29972 0.01361-0.44379-0.02306-0.10998-0.02532-0.2812-0.06633-0.40037-0.06633-0.17386 0-0.32013-0.02305-0.49183-0.02305-0.12132 0-0.23093 0.03666-0.35452 0.06864-0.16479 0.03889-0.32013 0-0.49187 0h-0.53303c-0.24 0-0.49187-0.04577-0.71376-0.04577-0.144 0-0.28611-0.02305-0.40033-0.02305-0.22639 0-0.49187 0-0.66799-0.08693-0.16479-0.08466-0.28384-0.1327-0.4667-0.17843-0.08466-0.02306-0.2812-0.2448-0.35679-0.2448zm14.209 0.26536c-0.27893 0.05949-0.56734 0.0915-0.82356 0.15787-0.32466 0.08005-0.52619 0.22878-0.82586 0.15556-0.20825-0.05261-0.4049-0.06864-0.62222-0.1121 0.07106 0.0709 0.03779 0.16244-0.02268 0.2448-0.05934 0.08236-0.15572 0.14411-0.20145 0.17843-0.0038 0.0045-0.51247 0.06176-0.53303 0.06633-0.12132 0.02986-0.07332 0.1121 0 0.2013 0.07332 0.08923 0.1852 0.16928 0.22186 0.17843 0.27666 0.06864 0.62226 0.23335 0.86933 0.3546 0.10507 0.05492 0.15572 0.09608 0.17839 0.15783 0.02268 0.06176 0.0189 0.14642 0.04346 0.2448 0.048 0.19215 0.07559 0.24937 0.24491 0.334 0.14854 0.07321 0.48042 0.08923 0.64743 0.08923 0.26759 0 0.66573 0.1327 0.86702 0.19903 0.16932 0.05718 0.42323 0.24476 0.53533 0.35686 0.11679 0.11667 0.22866 0.18758 0.35679 0.35686 0.14627 0.19672 0.29518 0.30425 0.48956 0.40035 0.16706 0.08462 0.43007 0.08236 0.53303 0.13497 0.19238 0.09381 0.4255 0.2448 0.5582 0.37746 0.15572 0.15783 0.2812 0.30425 0.40033 0.42322 0.15572 0.15557 0.192 0.32716 0.37977 0.46898 0.18973 0.14184 0.34318 0.25395 0.48956 0.40034 0.16932 0.16928 0.31786 0.25164 0.4667 0.40034 0.11679 0.11667 0.2332 0.28596 0.42323 0.334 0.26079 0.06633 0.4255-0.10065 0.6474-0.15557 0.10772-0.02759 0.49871 0.37976 0.55589 0.42322 0.13039 0.09838 0.25852 0.29284 0.31106 0.40035 0.06198 0.12355 0.26759 0.29053 0.35679 0.37976 0.17159 0.17159 0.21279 0.20591 0.42319 0.31113 0.08693 0.04347 0.1852 0.05034 0.26759 0.02306 0.08239-0.02759 0.13946-0.08923 0.15572-0.15556 0.04573-0.18758 0.11679-0.28596 0.06614-0.49185-0.03024-0.11898-0.01134-0.25621 0.04573-0.3546 0.0548-0.09838 0.14627-0.15099 0.31106-0.06864 0.11679 0.05949 0.192 0.25164 0.24491 0.35686 0.07332 0.14869 0.17839 0.34545 0.17839 0.5582v0.51244c0 0.08005 0.93566 0.60166 0.95622 0.62225 0.12132 0.12125 0.28384 0.19672 0.42323 0.29053 0.15572 0.10295 0.25625 0.20591 0.46896 0.31113 0.11906 0.05949 0.1852 0.17159 0.22186 0.29053 0.03893 0.11667 0.048 0.23562 0.02268 0.334-0.02646 0.1098 0.06614 0.36144 0.02268 0.53303-0.03402 0.13497-0.05934 0.24249-0.04573 0.3134 0.01512 0.0709 0.07106 0.10065 0.22413 0.17843 0.21959 0.1098 0.30198 0.28365 0.53303 0.42322 0.12132 0.0709 0.21732 0.92194 0.29064 1.0683 0.08466 0.16928 0.17839 0.39806 0.13266 0.57878-0.048 0.19903-0.13266 0.34545-0.13266 0.5582 0 0.15099-0.11906 0.36374-0.15572 0.51015-0.0378 0.14185-0.1028 0.29284-0.13493 0.40263-0.03024 0.1098-0.02646 0.18074 0.13493 0.24476 0.20598 0.08236 0.54444 0.17843 0.75719 0.17843h0.66803c0.10507 0 0.21279 0.21275 0.31106 0.44381 0.09827 0.23335 0.18066 0.4827 0.20145 0.58107 0.0412 0.20591 0.09373 0.29511 0.22186 0.42322 0.16706 0.16702 0.41178 0.31113 0.4667 0.53303 0.06425 0.25621 0.15345 0.32028 0.04573 0.53532-0.05254 0.10522-0.41862 0.18758-0.53529 0.2448-0.16706 0.08462-0.4484 0.11437-0.6909 0.17843-0.12132 0.03213-0.23093 0.07778-0.31106 0.1327s-0.13266 0.12813-0.13266 0.2242c0 0.21732 0.08693 0.30883 0.17839 0.48956 0.09827 0.19672 0.18746 0.34772 0.31106 0.51244 0.0189 0.02532 0.04346 0.06633 0.06614 0.08924 0.13493 0.13497 0.12132 0.34772 0.24491 0.51244 0.17159 0.22647 0.25398 0.41865 0.37973 0.668 0.11906 0.24023 0.38891 0.42322 0.53306 0.71147 0.08239 0.16241 0.22413 0.46898 0.22413 0.69088 0 0.17616 0.09146 0.34772 0.13266 0.51244 0.03024 0.12813 0.16025 0.24937 0.29064 0.334 0.12813 0.08462 0.26079 0.14869 0.37758 0.17843 0.20825 0.05261 0.45067 0.02305 0.66799 0.02305 0.23093 0 0.37304-0.06633 0.5788-0.06633 0.11906 0 0.28838-0.31113 0.35679-0.40263 0.14854-0.19672 0.23584-0.31797 0.29065-0.53303 0.02646-0.11667 0.05934-0.23335 0.06652-0.35686 0.0076-0.12355-0.01512-0.24023-0.11225-0.334-0.08013-0.08236-0.09373-0.16241-0.0892-0.24476 0.0076-0.08466 0.03024-0.16702 0.0892-0.2448 0.03024-0.04346 0.04573-0.5765 0.04573-0.60166 0-0.02306-0.28346-0.37746-0.33411-0.4461-0.12586-0.16698-0.15798-0.37975-0.24718-0.5559-0.09373-0.19215-0.10961-0.35917-0.10961-0.60166v-0.558c0-0.25395-0.11679-0.33857-0.24491-0.46669-0.13493-0.13497-0.13039-0.25164-0.17839-0.4461-0.03402-0.1327-0.0189-0.21048 0.02268-0.26767 0.03893-0.05492 0.11679-0.09381 0.19918-0.15557 0.1372-0.10295 0.17839-0.32028 0.17839-0.48956 0-0.12355-0.03893-0.24707-0.04346-0.334-0.0076-0.08693 0.01134-0.15326 0.10961-0.17843 0.09146-0.02306 0.192 0.05261 0.26759 0.1327 0.07559 0.08236 0.12586 0.183 0.15572 0.2242 0.11679 0.15326 0.13946 0.2425 0.29065 0.35686 0.20145 0.15099 0.49414 0.2242 0.66799 0.31113 0.18293 0.0915 0.34998 0.18531 0.48956 0.28826 0.17159 0.13039 0.31559 0.24937 0.42323 0.35686 0.1028 0.10295 0.13266 0.30198 0.22186 0.42322 0.096 0.12813 0.20145 0.15783 0.31332 0.26767 0.11906 0.11894 0.1852 0.35002 0.24491 0.46898 0.06387 0.12809 0.10961 0.17843 0.15572 0.17616 0.04573 0 0.1028-0.06176 0.19918-0.1098 0.06161-0.03213-0.09373-0.49414-0.10998-0.5582-0.04346-0.17386-0.29065-0.42093-0.35679-0.55591-0.07106-0.14411-0.048-0.20591 0-0.2013 0.048 0.0045 0.12813 0.06176 0.17839 0.1121 0.14627 0.14642 0.28838 0.19672 0.40037 0.42322 0.05027 0.09838 0.23546 0.23562 0.33411 0.334 0.14627 0.14642 0.12586 0.27681 0.17839 0.48956 0.0189 0.07548 0.06614 0.09381 0.11225 0.08923 0.04573-0.0045 0.10054-0.04116 0.15572-0.08923 0.10734-0.09381 0.21732-0.23562 0.24491-0.28823 0.06652-0.13497 0.08693-0.28365 0.13266-0.42322 0.06161-0.18531 0.03024-0.34314-0.0189-0.49185-0.0548-0.14642-0.144-0.27908-0.20145-0.42322-0.05027-0.12582-0.13039-0.23792-0.20145-0.3546-0.21279-0.35686-0.39118-0.69546-0.57876-1.0706-0.0076-0.01814-0.01512-0.02532-0.0189-0.04347-4.411-7.329-11.464-12.858-19.867-15.258zm-21.738 2.942c-0.11225 0-0.29065 0.21048-0.35452 0.24476-0.144 0.0709-0.29518 0.23562-0.42319 0.334-0.1372 0.10065-0.25172 0.19215-0.37977 0.28826-0.14627 0.1121-0.24491 0.13497-0.4667 0.13497-0.21279 0-0.21732 0.09608-0.37977 0.17843-0.18973 0.09381-0.36586 0.39577-0.4461 0.55591-0.07332 0.15099-0.18293 0.33857-0.26532 0.42322-0.1028 0.10295-0.28384 0.16471-0.40263 0.2219-0.13946 0.0709-0.0892 0.34772-0.0892 0.49185 0 0.09607-0.37531 0.1098-0.40036 0.1098-0.05027 0-0.34545-0.43466-0.37758-0.46669-0.15798-0.15783-0.07559-0.18531-0.31332-0.2448-0.12586-0.03213-0.23093-0.02305-0.28838-0.04577-0.05707-0.02305-0.0892-0.08693-0.0892-0.2448 0-0.17159 0.20598-0.24937 0.29065-0.334 0.10054-0.10065 0.30198-0.17386 0.40033-0.2219 0.14173-0.07321 0.20372-0.2036 0.31106-0.3134 0.13493-0.1327 0.15572-0.28826 0.15572-0.48956 0-0.06176-0.31559-0.19215-0.37758-0.2219-0.14173-0.0709-0.23093-0.22647-0.40263-0.31113-0.0023 0-0.0189-0.0023-0.0189 0-3.1936 1.7935-6.0555 4.0835-8.5079 6.7692-0.02646 0.13954-0.0412 0.30425-0.0892 0.40263-0.09373 0.18531-0.22413 0.2242-0.35679 0.3546-0.09827 0.10065-0.15118 0.28369-0.22186 0.37976-0.1028 0.13727-0.26079 0.19446-0.37973 0.31113-0.11452 0.11437-0.10998 0.37746-0.10998 0.53532 0 0.15099 0.06652 0.20591 0.13266 0.2013 0.06614-0.0068 0.12586-0.07321 0.17839-0.17843 0.06387-0.13039 0.39118-0.33173 0.51243-0.42322 0.16706-0.12582 0.40263-0.20591 0.4896-0.37976 0.07786-0.15557 0.15307-0.25395 0.20145-0.4461 0.06425-0.25395 0.20372-0.36374 0.33411-0.62225 0.04573 0.14411 0.12132 0.32254 0.26759 0.46668 0.06614 0.06633 0.096 0.16471 0.08693 0.24476-0.0076 0.08236-0.05707 0.16014-0.08693 0.2242-0.05027 0.10065-0.25398 0.25164-0.35679 0.35686-0.12813 0.12582-0.19691 0.12355-0.26759 0.26536-0.07786 0.15326-0.20372 0.19215-0.24491 0.35686-0.03893 0.15326-0.11679 0.26993-0.15572 0.42322-0.0548 0.21963-0.0189 0.35229-0.17839 0.51244-0.10961 0.10753-0.16932 0.32258-0.20145 0.4461-0.0548 0.21963-0.15345 0.27681-0.28838 0.37746-0.14854 0.1121-0.20372 0.34314-0.24491 0.51244-0.05707 0.2242-0.32277 0.4644-0.42323 0.668-0.0892 0.17616-0.15798 0.2013-0.24718 0.37976-0.05934 0.12355-0.06879 0.32716-0.10998 0.48956-0.04573 0.18074-0.14627 0.35229-0.26759 0.51244-0.0189 0.02759-0.06652 0.04346-0.0892 0.06633-0.11906 0.11898-0.20145 0.39348-0.20145 0.55819 0 0.15099-0.20372 0.41865-0.24491 0.57878-0.05254 0.21732-0.096 0.39348-0.17839 0.55591-0.09827 0.2013-0.19465 0.28139-0.28838 0.46898-0.1028 0.20591-0.16479 0.32712-0.24491 0.48956-0.06652 0.13039-0.06652 0.32028-0.06652 0.48956 0 0.15099-0.05254 0.38662-0.0892 0.53532-0.0412 0.16241 0 0.38891 0 0.55591 0 0.21963-0.07786 0.34545-0.20145 0.46898-0.144 0.14185-0.23546 0.22647-0.28838 0.44381-0.03779 0.13954-0.12813 0.32028-0.20145 0.46898-0.09827 0.19446-0.10961 0.30883-0.24491 0.48956-0.1028 0.13727-0.17613 0.34772-0.22413 0.53532-0.048 0.19903-0.06425 0.3546-0.15572 0.53303-0.0892 0.183-0.10961 0.30883-0.15572 0.49185-0.04347 0.17616-0.11906 0.30425-0.17839 0.42322-0.08466 0.17159-0.0892 0.3546-0.13266 0.53303-0.048 0.19446-0.06614 0.43008-0.06614 0.62453 0 0.17159-0.0892 0.37976-0.0892 0.57878 0 0.20591-0.02268 0.37519-0.06614 0.5559-0.04573 0.17616-0.02268 0.36374-0.02268 0.5582 0 0.27681-0.06614 0.54218-0.06614 0.82357 0 0.21732 0.08466 0.25395 0.13266 0.4461 0.0412 0.16928 0.02646 0.36832 0.06614 0.53531 0.0189 0.08005 0.04573 0.14642 0.04573 0.2448 0.06614 0.26767 0.24491 0.34772 0.24491 0.62225 0 0.21732 0.02268 0.3134 0.06614 0.48957 0.04347 0.17386 0 0.40263 0 0.58107 0 0.17843-0.06879 0.4095-0.11225 0.57879-0.0038 0.02305 0 0.04346 0 0.06633 0 0.21275-0.06614 0.43923-0.06614 0.668 0 0.06633 0.13266 0.37519 0.17839 0.46898 0.08693 0.17159 0.13266 0.41864 0.17839 0.59937 0.06614 0.26993 0.14173 0.50329 0.24491 0.75722 0.08013 0.2036 0.09146 0.36147 0.17839 0.58107 0.05707 0.14184-0.0076 0.40949 0.02268 0.53303 0.0412 0.17386 0.04347 0.37746 0.04347 0.5582 0 0.20134 0.04346 0.36374 0.04346 0.55591 0 0.19215 0.02646 0.36374 0.06879 0.53532 0.05027 0.2036 0.0189 0.35686 0.0892 0.48956 0.11225 0.22647 0.21732 0.27451 0.26532 0.46668 0.05027 0.19446 0.11679 0.37062 0.15798 0.53532 0.048 0.19215 0.24264 0.3546 0.28838 0.53532 0.06161 0.24937 0.28838 0.46898 0.40033 0.73435 0.07106 0.16471 0.07332 0.36605 0.13493 0.48956 0.05934 0.11898 0.33184 0.2219 0.42323 0.29053 0.08466 0.06406 0.08466 0.13497 0.10998 0.20134 0.02646 0.06406 0.07332 0.12355 0.20145 0.15557 0.15307 0.03666 0.25398 0.18988 0.35679 0.26536 0.13493 0.10296-0.07106-0.32485-0.11225-0.48957-0.04573-0.18531-0.23093-0.37746-0.31106-0.51244-0.07559-0.12355-0.01134-0.42093-0.06652-0.53303-0.09373-0.18531-0.17613-0.34088-0.22413-0.53532-0.05027-0.20591-0.14854-0.39577-0.19918-0.60166-0.05254-0.20818-0.13266-0.35229-0.22413-0.53532-0.10734-0.21732-0.24491-0.29741-0.24491-0.5559 0-0.16702-0.12586-0.45525-0.19918-0.60166-0.07786-0.15326-0.04573-0.4644-0.04573-0.64513 0-0.17843-0.06614-0.32485-0.06614-0.51244 0-0.2219-0.05934-0.44152-0.11225-0.64741-0.04573-0.18758-0.10998-0.3546-0.10998-0.5559 0-0.14869 0.03893-0.19903 0.06652-0.17843 0.02646 0.02041 0.04347 0.11898 0.04347 0.2448 0 0.13954 0.18746 0.28365 0.22413 0.42322 0.048 0.19672 0.08239 0.40034 0.13266 0.60166 0.03893 0.15783-0.04346 0.38433 0 0.5582 0.05027 0.19672 0.15572 0.31113 0.15572 0.53303 0 0.18758 0.06614 0.32258 0.06614 0.48956 0 0.12355 0.14854 0.37062 0.17839 0.49185 0.048 0.18988 0.08693 0.38891 0.13493 0.57878 0.03893 0.16014 0.13039 0.36832 0.17839 0.55591 0.03779 0.15326 0.13266 0.34088 0.24491 0.48956 0.096 0.13039 0.11452 0.36605 0.17839 0.49185 0.09827 0.19903 0.14627 0.3157 0.24491 0.51244 0.07786 0.15783 0.1372 0.27908 0.17613 0.44381 0.048 0.18758 0.20825 0.43923 0.29064 0.60166 0.07786 0.15557 0.16479 0.32485 0.20145 0.46898 0.05254 0.21048 0.1028 0.45296 0.19918 0.64513 0.07786 0.15556 0.15572 0.30882 0.22413 0.4461 0.096 0.19446 0.22413 0.3363 0.35452 0.46668 0.16252 0.16241 0.38434 0.24023 0.58106 0.334 0.19464 0.09608 0.34998 0.2013 0.40036 0.40263 0.04346 0.17159 0.18293 0.36605 0.24491 0.48956 0.0892 0.18074 0.26079 0.35002 0.40033 0.48957 0.37077 0.37062 0.68175 0.76408 1.1576 1.002 0.16252 0.08005 0.26986 0.12813 0.46896 0.17843 0.20145 0.05034 0.36359 0.0709 0.53303 0.15556 0.17159 0.08693 0.33184 0.1121 0.53533 0.1121 0.08013 0 0.28384 0.18758 0.42319 0.2219 0.12359 0.03213 0.32277-0.04116 0.48956 0 0.22866 0.05718 0.30198-0.14642 0.53533-0.08924 0.21506 0.05492 0.54448 0.54904 0.73436 0.69088 0.16706 0.12582 0.34318 0.25852 0.53529 0.42322 0.17386 0.15099 0.29745 0.23562 0.51243 0.29053 0.16932 0.04116 0.26532 0.06633 0.40036 0.1327 0.144 0.07321 0.38661 0.02305 0.55589 0.02305 0.16479 0 0.32731 0.23792 0.42323 0.334 0.22866 0.22878 0.49644 0.35686 0.64513 0.5559 0.13266 0.17616 0.20598 0.40721 0.35679 0.55819 0.13493 0.13497 0.32731 0.30198 0.48956 0.46669 0.1372 0.13727 0.29291 0.23104 0.33411 0.40034 0.04573 0.183 0.26532 0.26767 0.40263 0.334 0.14854 0.07548 0.34998 0.12125 0.48956 0.15783 0.12359 0.02986 0.32466 0.30425 0.42323 0.37746 0.07559 0.05718 0.45755-0.04346 0.5788-0.04346 0.15798 0 0.34998 0.22647 0.4461 0.3546 0.10772 0.14642 0.17613 0.26767 0.37758 0.26767 0.20825 0 0.38204-0.0915 0.51243-0.2219 0.10545-0.10522 0.13266-0.38662 0.13266-0.53532 0-0.13727 0.35452 0.17616 0.42323 0.2448 0.10961 0.1098 0.25172 0.27451 0.33411 0.35686 0.15798 0.15787 0.37077 0.36147 0.4461 0.51244 0.07559 0.15099 0.03024 0.35229 0.11225 0.51244 0.0892 0.17843 0.16025 0.28139 0.26759 0.42322 0.11225 0.15099 0.10998 0.27224 0.10998 0.51244 0 0.19215 0.04573 0.34545 0.04573 0.53532 0 0.16471-0.14173 0.22878-0.17839 0.37746-0.04573 0.17843-0.11225 0.30425-0.11225 0.53532 0 0.16014-0.28838 0.32028-0.28838 0.55591 0 0.17843 0.17839 0.44838 0.22186 0.62454 0.05027 0.20134 0.10772 0.45754 0.20145 0.64512 0.10772 0.21506 0.27439 0.18758 0.33411 0.42322 0.05027 0.2036 0.06387 0.41178 0.10998 0.60166 0.04573 0.18074 0.15798 0.25164 0.20145 0.42322 0.03779 0.14869 0.15118 0.28596 0.24491 0.37975 0.11452 0.11437 0.31106 0.22647 0.4667 0.26536 0.28611 0.0709 0.39118 0.18758 0.5353 0.37976 0.12813 0.16928 0.192 0.35002 0.37977 0.48956 0.1852 0.13954 0.26759 0.15783 0.40033 0.29053 0.03024 0.02986 0.05254 0.04346 0.0892 0.06633 0.17613 0.11898 0.22639 0.26993 0.4461 0.37746 0.17613 0.08923 0.32958 0.23792 0.48956 0.334 0.20372 0.12355 0.30879 0.21048 0.51243 0.3134 0.17386 0.08693 0.30652 0.25395 0.4667 0.334 0.17386 0.08693 0.30198 0.15783 0.51243 0.19903 0.16932 0.03439 0.38891 0.09838 0.53533 0.13497 0.21959 0.05492 0.43238 0.09381 0.59936 0.17843 0.16025 0.07778 0.33184 0.26536 0.42323 0.35686 0.13266 0.13039 0.35225 0.23104 0.51243 0.31113 0.12132 0.05949 0.28838 0.16471 0.40263 0.2219 0.22413 0.1121 0.31332 0.27451 0.51016 0.42322 0.15345 0.11437 0.25852 0.25852 0.37977 0.37975 0.14854 0.14642 0.23811 0.34772 0.35679 0.46669 0.14173 0.14184 0.20145 0.2951 0.24491 0.46898 0.05253 0.21506 0.20372 0.33857 0.28838 0.51244 0.08693 0.16928 0.33184 0.26993 0.4461 0.42322 0.11225 0.14642 0.32731 0.21506 0.4461 0.334 0.15345 0.15326 0.29065 0.20134 0.42323 0.37746 0.12813 0.17159 0.26532 0.2219 0.35452 0.31113 0.12813 0.12813 0.31106 0.18988 0.42323 0.24707 0.03402 0.01587 0.05707 0.02986 0.0892 0.04346 0.94254-0.04804 1.8645-0.12125 2.7841-0.2448 0.0076-0.01814 0.03893-0.02305 0.04573-0.04577 0.05707-0.23335 0.34545-0.41636 0.46666-0.59937 0.12813-0.18988 0.32731-0.21275 0.48956-0.24707 0.19427-0.03666 0.27893-0.16702 0.42323-0.31113 0.14854-0.14642 0.28838-0.28823 0.42323-0.46668 0.13493-0.17843 0.18066-0.30198 0.29065-0.4461 0.12813-0.17159 0.15572-0.334 0.24491-0.51244 0.1028-0.20591 0.21052-0.36144 0.37758-0.4461 0.19691-0.09608 0.25172-0.2448 0.42323-0.28826 0.23093-0.05718 0.33184-0.15099 0.53533-0.20134 0.16706-0.04116 0.43922-0.43923 0.53529-0.53531 0.13946-0.13954 0.23546-0.23335 0.37758-0.42322 0.05253-0.06864 0.096-0.16014 0.15572-0.2219 0.048-0.05949 0.08693-0.09608 0.13493-0.15557 0.07786-0.09838 0.08239-0.41865 0.10961-0.53532 0.0412-0.16241 0.12586-0.38204 0.20145-0.53303 0.07786-0.15783 0.05253-0.37289 0.13266-0.53532 0.09146-0.18074 0.14854-0.33857 0.22413-0.48956 0.08466-0.16928 0.02646-0.36832 0.10961-0.53532 0.08693-0.17159 0.13946-0.34088 0.20145-0.46669 0.09146-0.18074 0.05707-0.24249 0.29065-0.35686 0.12359-0.06176 0.24945-0.27451 0.35452-0.37975 0.09827-0.09838 0.15307-0.39348 0.20145-0.48957 0.08466-0.16698 0.29291-0.3157 0.40037-0.42322 0.08693-0.08466 0.16706-0.27681 0.24491-0.35686 0.096-0.09381 0.10961-0.37062 0.13493-0.46668 0.03893-0.15326 0.02646-0.334 0.06652-0.48957 0.04346-0.17386-0.12586-0.30425-0.20145-0.37975-0.14173-0.14185-0.23811-0.32942-0.42323-0.46669-0.15798-0.11898-0.26759-0.18074-0.35452-0.26767-0.11452-0.11437-0.31786-0.17159-0.46896-0.2448-0.12813-0.06406-0.24491-0.08923-0.4461-0.08923h-0.57876c-0.20145 0-0.30879 0.04346-0.48956 0.04346-0.192 0-0.32013 0.04577-0.51247 0.04577h-0.53303c-0.16025 0-0.2812-0.08923-0.46896-0.08923-0.192 0-0.20825-0.13039-0.31106-0.26767-0.09146-0.12355-0.33638-0.15557-0.48956-0.15557-0.21052 0-0.40263-0.02305-0.6474-0.02305-0.27931 0-0.32504 0.07321-0.53306 0.17843-0.14627 0.07321-0.28838 0.17616-0.37973 0.26767-0.10545 0.10522-0.34091 0.17159-0.4667 0.2219-0.16706 0.06633-0.37758 0.03889-0.53533 0-0.10507-0.02759-0.13946-0.09608-0.15572-0.17843-0.01512-0.08009 0-0.183 0-0.28823 0-0.20818 0.12132-0.29968 0.24491-0.42322 0.08013-0.08236 0.06614-0.36601 0.06614-0.49185 0-0.24707 0.02646-0.27908-0.06614-0.46668-0.08013-0.16014-0.24491-0.2219-0.33411-0.31113-0.10507-0.10753-0.18746-0.29968-0.28838-0.40263-0.09827-0.09838-0.20145-0.28826-0.26759-0.42322-0.06652-0.1327-0.25625-0.20591-0.37977-0.26536-0.15345-0.07778-0.38661-0.10295-0.51243-0.13497-0.15345-0.03889-0.37531 0-0.53303 0h-0.51247c-0.18973 0-0.33638 0.04577-0.51243 0.04577-0.13266 0-0.26079 0.08923-0.4461 0.08923-0.144 0-0.27893-0.2036-0.37758-0.3363-0.13039-0.17159-0.29065-0.19903-0.40263-0.31113-0.11906-0.11898-0.26306-0.15099-0.35452-0.2448-0.11225-0.1098-0.41408-0.16471-0.5582-0.20134-0.21052-0.05261-0.38661-0.10296-0.53303-0.17616-0.20372-0.10295-0.21279-0.2013-0.31332-0.40263-0.08466-0.17159-0.15572-0.26536-0.15572-0.44381 0-0.14185-0.08693-0.37519-0.13266-0.46898-0.03402-0.06864-0.0892-0.14184-0.11225-0.17843-0.06879-0.13727-0.0076-0.21275 0.02268-0.26767 0.03024-0.05261 0.04346-0.07778-0.0892-0.1098-0.01512-0.0045-0.32466 0.28826-0.35679 0.31113-0.13946 0.10522-0.24718 0.08466-0.4461 0.1327-0.29291 0.07551-0.32239 0.06176-0.57876-0.06633-0.10507-0.05261-0.12359-0.11437-0.15572-0.15557-0.03024-0.03889-0.06161-0.06176-0.22186-0.02305-0.16252 0.04116-0.28384 0.15326-0.42323 0.2242-0.15798 0.07778-0.24038 0.09607-0.37977 0.19903-0.144 0.1098-0.40033 0.18988-0.53303 0.29053-0.12359 0.0915-0.44836-0.08009-0.51243-0.1121-0.16706-0.08236-0.17159-0.37519-0.20145-0.48956-0.03893-0.15556-0.08239-0.17386-0.13266-0.1327s-0.11225 0.15556-0.15572 0.2448c-0.05934 0.11437-0.14173 0.14642-0.22413 0.15556-0.08013 0.0068-0.14854-0.0068-0.22186-0.04577-0.0189-0.0091 0.02268-0.46668 0.02268-0.53303 0-0.08693-0.2812-0.32485-0.31332-0.35686-0.08239-0.08466-0.1372-0.06406-0.17613 0-0.0412 0.06406-0.07559 0.16928-0.11225 0.2448-0.08693 0.17386-0.09146 0.38662-0.13493 0.60166-0.03402 0.183-0.04346 0.37289-0.04346 0.5559 0 0.12813-0.10961 0.2219-0.20145 0.3134-0.08239 0.08236-0.096-0.03439-0.0892-0.20134 0.0076-0.16698 0.04573-0.37289 0.02268-0.48956-0.0378-0.18758-0.10961-0.35002-0.15572-0.53532-0.03893-0.15326-0.03024-0.30656-0.0892-0.42322-0.0548-0.1121-0.15345-0.01814-0.24491 0.1121-0.09146 0.13039-0.1852 0.30656-0.22186 0.35686-0.144 0.18988-0.4484 0.36605-0.5582 0.51244-0.05027 0.06633-0.34091 0.18074-0.42323 0.2219-0.18746 0.09381-0.42319 0.37289-0.57876 0.48956-0.14891 0.1121-0.13266 0.4278-0.13266 0.60166 0 0.21732 0.07332 0.18758-0.04573 0.42322-0.0548 0.1121-0.144 0.10522-0.22186 0.06633s-0.12586-0.10295-0.15572-0.1327c-0.12359-0.12355-0.21959-0.17843-0.40033-0.2242-0.19918-0.04804-0.35225 0.05034-0.51243 0.08924-0.21959 0.05492-0.41866 0.14869-0.62457 0.2013-0.16706 0.0412-0.40947-0.0068-0.55589-0.04346-0.12586-0.03213-0.24491-0.2013-0.35679-0.3134-0.14173-0.14184-0.192-0.18758-0.33411-0.37746-0.10734-0.14642-0.144-0.24707-0.29065-0.35686-0.17839-0.13497-0.21732-0.05949-0.31106-0.2448-0.08013-0.16014-0.13266-0.26767-0.22186-0.35686-0.09146-0.08924-0.06841-0.3134-0.06841-0.48956 0-0.17386-0.04347-0.39348-0.04347-0.57878 0-0.18074-0.03779-0.36605-0.06652-0.49185-0.03893-0.15556-0.02268-0.37746-0.02268-0.53303 0-0.1327-0.22186-0.26309-0.33411-0.29053-0.1852-0.04573-0.31559-0.08924-0.60166-0.08924h-1.201c-0.13493 0-0.16932-0.02759-0.24718-0.06633-0.03024 0-0.19918-0.46898-0.19918-0.53532 0-0.19215-0.04573-0.34545-0.04573-0.53303 0-0.18531-0.03402-0.35917-0.06614-0.48957-0.03779-0.14642-0.02646-0.32028-0.06652-0.49185-0.03893-0.15326 0-0.37519 0-0.53303 0-0.19446 0.04346-0.28596 0.04346-0.49185 0-0.13727 0.02268-0.32712 0.02268-0.48956 0-0.20591-0.11679-0.35917-0.28838-0.4461-0.15118-0.07321-0.33411-0.04346-0.51243-0.04346-0.1852 0-0.30198 0.04804-0.46896 0.08924-0.18973 0.04804-0.2812 0.26079-0.35679 0.334-0.12586 0.12582-0.1372 0.32716-0.17613 0.48956-0.0412 0.15783-0.02268 0.37976-0.02268 0.53532 0 0.08693-0.19691 0.3363-0.22413 0.4461-0.048 0.19672-0.31786 0.3157-0.44379 0.37746-0.1852 0.09381-0.50559-0.01814-0.6474-0.08924-0.11452-0.05718-0.31786-0.38662-0.37758-0.46669-0.096-0.12813-0.20145-0.2242-0.29064-0.3134-0.11906-0.11898-0.22413-0.18074-0.35452-0.3546-0.1028-0.13497-0.17613-0.28369-0.22413-0.37976-0.08466-0.16928-0.10734-0.28138-0.19918-0.46668-0.08466-0.16928-0.19465-0.34545-0.29065-0.53532-0.10545-0.21048-0.10998-0.30882-0.24491-0.4461-0.13946-0.13954-0.17839-0.3363-0.17839-0.53303 0-0.19903-0.06614-0.40721-0.06614-0.60166 0-0.18074-0.06652-0.34772-0.06652-0.53532v-0.53532c0-0.16471 0.10998-0.30198 0.10998-0.48956 0-0.20591-0.04346-0.29741-0.04346-0.48957 0-0.23335 0.0189-0.34772 0.11225-0.57878 0.05934-0.14869 0.23093-0.26309 0.28838-0.37976 0.07106-0.13954 0.144-0.24249 0.24491-0.37746 0.1028-0.13727 0.25852-0.21506 0.42319-0.26767 0.16479-0.05261 0.33638-0.09608 0.48956-0.13497 0.24264-0.05949 0.4461-0.03213 0.66803 0.02305 0.24265 0.06176 0.48038 0.08923 0.73663 0.08923 0.12359 0 0.18293 0.06176 0.24491 0.1121 0.06161 0.05034 0.12359 0.09608 0.24491 0.06633 0.12359-0.02986 0.0892-0.43008 0.0892-0.53532 0-0.12582-0.05027-0.19215-0.04573-0.24476 0.0038-0.05261 0.06161-0.09608 0.17839-0.15557 0.20598-0.10295 0.23546-0.1327 0.48956-0.1327 0.22639 0 0.43695 0.04347 0.6474 0.04347 0.12359 0 0.30652 0.14184 0.42323 0.20134 0.11225 0.05718 0.18293 0.05718 0.26759 0.06633 0.08239 0.0091 0.15798 0.0412 0.24491 0.15556 0.11679 0.15783 0.28611 0.26536 0.40037 0.37975 0.12359 0.12355 0.35906 0.18988 0.4667 0.2448 0.08013 0.03889 0.06614 0.44381 0.0892 0.53303 0.04346 0.17386 0.14627 0.3134 0.22413 0.46898 0.10734 0.21732 0.15798 0.45296 0.24491 0.668 0.05934 0.15326 0.11906 0.30425 0.17839 0.42322 0.09373 0.18758 0.14627 0.27451 0.31106 0.35686 0.13493 0.06633 0.27439 0.07321 0.42319 0.1098 0.17613 0.04577 0.31786-0.1121 0.40037-0.2219 0.06387-0.08466 0.04573-0.21275 0.02268-0.334-0.02646-0.12125-0.07106-0.2425-0.11225-0.31113-0.13039-0.21963-0.09146-0.43237-0.17839-0.69088-0.06614-0.2036-0.20825-0.39577-0.31106-0.53532-0.1028-0.13727-0.12359-0.37746-0.20145-0.53303-0.08239-0.16698-0.13493-0.29741-0.17839-0.46897-0.0412-0.16702-0.05254-0.34545-0.0892-0.48957-0.0548-0.2242 0.07559-0.40949 0.22413-0.5582 0.10961-0.1098 0.12359-0.18531 0.15572-0.31113 0.17839-0.17843 0.27213-0.39119 0.37758-0.60166 0.09146-0.17843 0.13493-0.32485 0.13493-0.53303 0-0.1098 0.10054-0.2242 0.22186-0.334 0.12132-0.1121 0.26532-0.21963 0.33411-0.3134 0.13039-0.17159 0.30652-0.34545 0.40263-0.53303 0.07786-0.16014 0.23546-0.27908 0.28838-0.49185 0.03779-0.14411 0.02646-0.32028 0.06614-0.48956 0.048-0.18758 0.0892-0.35229 0.13493-0.53303 0.04573-0.183 0.04346-0.34088 0-0.51244-0.04346-0.16928-0.11452-0.33857-0.17839-0.46898-0.0892-0.17616-0.21052-0.27681-0.31106-0.37746-0.08013-0.08005-0.06879-0.40721-0.06879-0.53532 0-0.11437 0.34091-0.1121 0.4461-0.1121 0.16252 0 0.35452-0.10522 0.4667-0.1327 0.10507-0.02759 0.24945-0.27681 0.31332-0.40035 0.07786-0.15783 0.13039-0.30425 0.17839-0.49185 0.05027-0.20134-0.04573-0.35686-0.04573-0.53303 0-0.15326 0.16932-0.31797 0.29065-0.37976 0.17386-0.08693 0.27666-0.15556 0.48956-0.15556 0.20598 0 0.37977 0.04346 0.5788 0.04346 0.23811 0 0.29065-0.06864 0.37758-0.2448 0.06614-0.13039 0.04573-0.37746 0.04573-0.53303 0-0.18074-0.01134-0.35686-0.04573-0.49185-0.02646-0.10753 0.02268-0.21732 0.04573-0.31113-0.03024-0.11898 0.21506-0.4827 0.24491-0.51244 0.11679-0.11667 0.24491-0.23335 0.40033-0.31113 0.13493-0.06633 0.29065-0.17843 0.42323-0.31113 0.144-0.14642 0.26759-0.3134 0.35679-0.40263 0.13039-0.13039 0.14854-0.25852 0.26759-0.37746 0.0548-0.05718 0.03024 0.40721 0 0.46668-0.04346 0.08693-0.0189 0.14869 0.02268 0.2242 0.04346 0.07321 0.11452 0.15099 0.13266 0.2219 0.03024 0.11667-0.0189 0.19446-0.02268 0.2448-0.0023 0.05261 0.02268 0.08923 0.17839 0.08923 0.21959 0 0.27666-0.06176 0.35679-0.2219 0.08693-0.17386 0.24038-0.19215 0.40033-0.3134 0.12132-0.08924 0.18973-0.23335 0.31106-0.3546 0.144-0.14411 0.24491-0.17616 0.37973-0.35686 0.11679-0.15557 0.27213-0.15787 0.4461-0.2448 0.24264-0.12355 0.13039-0.29053 0.40036-0.35686 0.16479-0.0412 0.26986-0.18531 0.33411-0.31113 0.06614-0.13497-0.11225-0.32716-0.11225-0.46898 0-0.22647-0.06161-0.31113-0.17839-0.46668-0.06161-0.08466-0.12359-0.10065-0.17839-0.08924-0.05254 0.0091-0.0892 0.04577-0.13266 0.08924-0.10507 0.10522-0.15572 0.37746-0.22186 0.51244-0.09373 0.18531-0.048 0.30656-0.20145 0.42322-0.11225 0.08466-0.40947-0.23104-0.48956-0.29053-0.13946-0.10522-0.34998-0.1327-0.53529-0.1327-0.11452 0-0.17159 0.04347-0.22186 0.06633-0.05027 0.02306-0.10054 0.02041-0.17839-0.13497-0.06161-0.12125-0.0412-0.38204-0.06614-0.48957-0.02646-0.09607-0.08466-0.13727-0.11225-0.17843-0.02646-0.03889-0.0076-0.10065 0.0892-0.19903 0.12813-0.13039 0.20145-0.07321 0.20145-0.3134 0-0.17843 0.15572-0.31113 0.28838-0.37746 0.17386-0.08693 0.08013-0.2219 0.33411-0.2219 0.17839 0 0.36132-0.05949 0.46896-0.1121 0.10054-0.05034 0.16025-0.11894 0.15572-0.17843-0.0038-0.05949-0.05934-0.08924-0.17839-0.08924-0.22186 0-0.35225 0.1327-0.5788 0.1327-0.14173 0-0.36586 0.15326-0.48956 0.17843-0.17839 0.03666-0.34998 0.02041-0.53529 0.06864-0.192 0.04577-0.33865 0.19446-0.53533 0.2448-0.17159 0.0412-0.38661 0.32485-0.42323 0.46669-0.0548 0.2219-0.23546 0.41636-0.40033 0.57878-0.16252 0.16471-0.24264 0.16928-0.40036 0.08924-0.0189-0.0091 0.24038-0.45525 0.29065-0.5559 0.11452-0.23104 0.1508-0.37519 0.35452-0.57879 0.15572-0.15556 0.31786-0.24937 0.4461-0.37975 0.15118-0.15099 0.22413-0.30656 0.42323-0.35686 0.20372-0.05034 0.43007-0.02041 0.64513-0.02041 0.20372 0 0.33865-0.08924 0.51243-0.08924 0.16252 0 0.34545-0.22647 0.48956-0.334 0.16479-0.12582 0.43468-0.11898 0.62457-0.15783 0.21732-0.0412 0.30652-0.09838 0.37757-0.2448 0.08013-0.15783 0.29065-0.1327 0.40263-0.24476 0.07786-0.07778 0.08693-0.16244 0.10961-0.2219 0.02268-0.05949 0.0412-0.10522 0.15572-0.13497 0.17613-0.04347 0.3685-0.02986 0.51243-0.06633 0.15572-0.03889 0.35452 0 0.51247 0 0.12586 0 0.20825-0.01814 0.24491-0.06633 0.0378-0.04804 0.04573-0.13039 0.04573-0.2219 0-0.17386-0.10054-0.32485-0.22186-0.4461-0.14173-0.13954-0.21732-0.27681-0.31332-0.46898-0.08239-0.16471-0.15798-0.35917-0.22186-0.48957-0.07559-0.15099-0.13493-0.334-0.20145-0.46668-0.0892-0.18074-0.27439-0.27451-0.42319-0.3134-0.1508-0.03666-0.33638-0.2013-0.42323-0.28823-0.11-0.106-0.213-0.213-0.316-0.291-0.148-0.11-0.217-0.124-0.29-0.268-0.066-0.135-0.16-0.254-0.245-0.421-0.064-0.13-0.158-0.208-0.222-0.336-0.06879-0.13497-0.0189-0.35002-0.06614-0.44381-0.06387-0.12813-0.11225-0.3363-0.17839-0.46898-0.07559-0.14869-0.12359-0.17843-0.20145-0.334-0.09827-0.19903 0.02268-0.31113-0.10998-0.4461-0.12813-0.12582-0.13493-0.23335-0.29064-0.31113-0.096-0.04804-0.13266-0.0915-0.17839-0.1121-0.04573-0.01814-0.09373-0.0068-0.19918 0.04577-0.0189 0.0091-0.16025 0.34088-0.17839 0.37746-0.08239 0.16244-0.19427 0.19446-0.35679 0.35686-0.14854 0.15099-0.23546 0.24937-0.31106 0.40263-0.06879 0.1327-0.33638 0.04346-0.42319 0.02041-0.08239-0.02041-0.096-0.10065-0.0892-0.19903 0.0076-0.09838 0.0189-0.21048 0-0.29053-0.03893-0.15326 0-0.37519 0-0.53532 0-0.07548 0.08239-0.07778 0.17839-0.08923 0.09373-0.0091 0.21279-0.03439 0.26532-0.08923 0.06879-0.06633 0.10772-0.10296 0.11225-0.15557 0.0038-0.05034-0.02646-0.11437-0.11225-0.19903-0.09827-0.10065-0.34998-0.05949-0.46666-0.08923-0.24718-0.06176-0.34545-0.03666-0.53533-0.17843-0.16706-0.12582-0.26306-0.23104-0.31106-0.42322-0.03024-0.12582-0.29745-0.10295-0.42319-0.13497-0.17839-0.04346-0.36132-0.04346-0.55593-0.04346-0.16706 0-0.29518 0.13497-0.46896 0.17843-0.096 0.02532-0.17839-0.01587-0.24491-0.02305-0.06387-0.0045-0.11906 0.0091-0.15572 0.15556-0.048 0.19672-0.12813 0.32258-0.20145 0.46898-0.05934 0.11898-0.06614 0.3157-0.06614 0.48957 0 0.21732-0.05707 0.25395 0 0.48956 0.0412 0.16014-0.01512 0.37062-0.04346 0.48956-0.04573 0.183 0.04573 0.3546 0 0.53532-0.05934 0.23104-0.12359 0.3134-0.02268 0.51244 0.09373 0.18531 0.18973 0.22647 0.24491 0.4461 0.04346 0.17616-0.06614 0.35686-0.06614 0.53303 0 0.15326-0.22413 0.3363-0.29065 0.42322-0.08013 0.1098-0.17839 0.29511-0.17839 0.4461 0 0.12125-0.28838 0.21275-0.35452 0.2448-0.17839 0.08923-0.27213 0.23562-0.37973 0.37976-0.08239 0.1098-0.0892 0.37519-0.0892 0.51244 0 0.17386-0.04346 0.34772-0.04346 0.53303v0.53532c0 0.18074 0.04346 0.26993 0 0.4461-0.04346 0.16928-0.24718 0.27908-0.35679 0.334-0.10545 0.05261-0.20372-0.0068-0.26759-0.08923-0.06425-0.08466-0.10998-0.2036-0.10998-0.26767v-0.579c0-0.15099-0.04573-0.32942-0.04573-0.48957v-0.55819c0-0.21732-0.06879-0.31797-0.11225-0.48957-0.02646-0.10753-0.27213-0.27451-0.35452-0.35686-0.12132-0.12125-0.28611-0.21963-0.42323-0.28823-0.11452-0.05718-0.27666-0.21048-0.35679-0.29053-0.16932-0.16928-0.27439-0.23562-0.35679-0.40034-0.08466-0.16928-0.30652-0.2013-0.48956-0.2013-0.19465 0-0.38434-0.04346-0.53533-0.15556-0.10772-0.08009-0.13266-0.35229-0.13266-0.46669 0-0.2242-0.02646-0.40263-0.06614-0.60166-0.03401-0.16471-0.01512-0.39119 0.0189-0.53532 0.05027-0.2013 0.26986-0.35686 0.33411-0.48956 0.09373-0.18531 0.38661-0.31797 0.53533-0.46898 0.144-0.14411 0.22186-0.3546 0.40033-0.48956 0.22866-0.16928 0.46439-0.29741 0.71376-0.42322 0.13039-0.06633 0.14854-0.25164 0.19918-0.35686 0.09373-0.18531 0.1508-0.35002 0.26759-0.46668 0.144-0.14411 0.26986-0.26993 0.40263-0.40034 0.11225-0.11437 0.43234-0.08923 0.48956-0.08923 0.07786 0 0.22186 0.42093 0.24491 0.46668 0.048 0.09838 0.08466 0.15099 0.15572 0.17843 0.07106 0.02759 0.17839 0.01814 0.26759 0 0.17839-0.03666 0.38204-0.1327 0.62222-0.20134 0.13493-0.03666 0.29518-0.29053 0.42323-0.3546 0.12586-0.06406 0.13493-0.35917 0.13493-0.51244 0-0.2036-0.02268-0.31113-0.02268-0.48957 0-0.10295-0.29518-0.21506-0.35679-0.24707-0.08466-0.0412-0.09373-0.14185-0.06652-0.2448 0.02646-0.10296 0.09373-0.20591 0.13266-0.2448 0.11225-0.1098 0.30198-0.18531 0.4461-0.2219 0.192-0.04804 0.3685-0.03889 0.51243-0.1121 0.15798-0.07778 0.19918-0.17616 0.31106-0.28823 0.17613-0.17843 0.19464-0.28826 0.24491-0.49185 0.03893-0.14869 0.0189-0.37976 0.04573-0.48956 0.04573-0.17843 0.21732-0.34772 0.28838-0.4461 0.0548-0.0709 0.07786-0.1327 0.13493-0.17616 0.05707-0.04577 0.13266-0.06864 0.26759-0.06864 0.12813 0 0.21052 0.0068 0.26759 0.04573 0.0548 0.03889 0.08693 0.10753 0.13266 0.19903 0.06614 0.1327 0.02268 0.37746 0.02268 0.53532 0 0.18988-0.14854 0.25852-0.24491 0.35686-0.0892 0.08923 0.30879 0.27681 0.35452 0.31113 0.07106 0.05261 0.03024 0.16928-0.04346 0.29053-0.07559 0.12125-0.18746 0.24023-0.20145 0.26767-0.05707 0.11437-0.20598 0.23104-0.28838 0.40034-0.11225 0.2242-0.13493 0.25621-0.4461 0.334-0.20145 0.05034-0.36624 0.20591-0.48956 0.26767-0.0892 0.04346-0.09146 0.10522-0.06652 0.17843 0.02268 0.0709 0.06198 0.15099 0.0892 0.17843 0.15307 0.15326 0.21959 0.14869 0.42323 0.19903 0.23811 0.05949 0.32466-0.01134 0.46666 0.17843 0.096 0.12813 0.1372 0.18531 0.20145 0.31113 0.0892 0.183 0.19465 0.29284 0.24491 0.49185 0.0189 0.08693 0.35225 0.11894 0.4667 0.17843 0.14854 0.07321 0.38203 0.08924 0.51243 0.15556 0.16479 0.08236 0.24038 0.13039 0.42323 0.17843 0.14854 0.03666 0.19691 0.1098 0.37758 0.15556 0.10998 0.02759 0.17613 0.03439 0.22413 0 0.04573-0.03666 0.06425-0.10522 0.0892-0.2013 0.0189-0.08009-0.06879-0.17843-0.15572-0.2448-0.0892-0.06633-0.17613-0.09838-0.20145-0.1121-0.18746-0.0915-0.25852-0.12582-0.37973-0.2448-0.096-0.09608-0.13946-0.18074-0.13266-0.2448 0.0076-0.06406 0.06425-0.10753 0.13266-0.17843 0.06879-0.06864 0.144-0.04577 0.22413 0 0.08013 0.04804 0.17159 0.12582 0.19918 0.15557 0.07786 0.07778 0.16932 0.05718 0.24718 0 0.07559-0.05492 0.12359-0.16014 0.13266-0.19903 0.03402-0.14185 0.06614-0.23562 0.06614-0.4461 0-0.21963-0.14627-0.25852-0.0892-0.48957 0.02646-0.09838-0.05707-0.17159-0.15572-0.2242-0.096-0.05034-0.21052-0.0915-0.26759-0.1327-0.17839-0.13497-0.26532-0.13039-0.35679-0.31113-0.06387-0.13039-0.0189-0.2013 0.04573-0.2242 0.06652-0.02305 0.15118-0.01134 0.20145 0 0.20145 0.05034 0.23811 0.15099 0.37757 0.29053 0.15798 0.15787 0.15798 0.2448 0.33411 0.334 0.17159 0.08466 0.16932 0.2219 0.35679 0.2219 0.11906 0 0.13266-0.35917 0.13266-0.46669 0-0.18988-0.0892-0.33173-0.0892-0.53532 0-0.08005 0.18973-0.21963 0.22413-0.28823 0.05253-0.10522 0.04573-0.19903 0-0.26767-0.048-0.0709-0.13039-0.13039-0.17839-0.17843-0.12813-0.12813-0.23546-0.183-0.31106-0.334-0.0892-0.17386-0.27213-0.24937-0.42323-0.40035-0.02268-0.04577-0.10054 0-0.17839 0.02041-0.08013 0.02041-0.15798 0.01587-0.20145-0.15556-0.0412-0.16471 0.05253-0.38662 0.0892-0.53532 0.0412-0.16702 0.1372-0.21506 0.17839-0.37746 0.03024-0.12813 0.10054-0.16471 0.13266-0.2013 0.03024-0.03666 0.03893-0.07778-0.0189-0.19903-0.04346-0.08693-0.27213-0.18074-0.35679-0.2242-0.14173-0.0709-0.23093-0.18531-0.31332-0.26767-0.07786-0.07778-0.04346-0.41407-0.04346-0.53303 0-0.08923-0.04346-0.16014-0.11225-0.2013-0.06879-0.03889-0.14891-0.05261-0.22186-0.08923-0.12813-0.06406-0.27439-0.06633-0.46666-0.06633-0.15572 0-0.39349-0.03213-0.53533-0.06633-0.16479-0.04116-0.37977 0.03889-0.48956 0.06633-0.15572 0.03889-0.37531 0-0.53529 0-0.18293 0-0.24718-0.06633-0.42323-0.1121-0.11225-0.02759-0.37304 0.19903-0.4667 0.2448-0.096 0.04804-0.1372 0.01361-0.15572-0.06633-0.0189-0.07778-0.02268-0.18988-0.02268-0.26767v-0.53303c0-0.07548-0.0548-0.11667-0.13493-0.13497-0.07786-0.01814-0.17613-0.02041-0.24491-0.02041zm19.31 2.1596c-0.096 0.02041-0.17613 0.09838-0.20145 0.2013-0.03024 0.11894-0.04346 0.28823-0.06614 0.37746-0.0076 0.02986-0.44152-0.05492-0.6909 0.04577-0.10507 0.04116-0.25625 0.10753-0.35679 0.1327-0.13493 0.03439-0.09373 0.13039-0.06614 0.2448 0.03779 0.14185 0.43465 0.16928 0.55589 0.2013 0.08693 0.02041 0.20145 0.17616 0.29065 0.26767 0.0892 0.08923 0.24038 0.15099 0.33411 0.2219 0.07332 0.05492 0.14854 0.21732 0.24491 0.31113 0.09827 0.10065 0.26986 0.14642 0.40033 0.17843 0.16025 0.0412 0.25852-0.04346 0.42323-0.04346 0.13493 0 0.25398 0.06633 0.40263 0.06633 0.15307 0 0.26079-0.06633 0.40033-0.06633 0.11225 0 0.16025-0.183 0.22186-0.26767 0.08239-0.1098 0.0892-0.28139 0.0892-0.42322 0-0.1327-0.04346-0.26079-0.06614-0.35686-0.02646-0.1121-0.25172-0.16928-0.31106-0.28823-0.07559-0.15099-0.08013-0.18758-0.24491-0.3134-0.11452-0.08462-0.31786-0.18074-0.40263-0.2219-0.13266-0.06633-0.22866-0.12125-0.33411-0.2013-0.06879-0.05261-0.17386-0.06633-0.28838-0.06633h-0.24491c-0.03402-0.0091-0.05934-0.0068-0.0892 0zm7.8376 2.8733c-0.14173 0.01814-0.17613 0.23562-0.17613 0.42322 0 0.18988-0.25625 0.36374-0.33411 0.42322-0.11187 0.08235 0.44383 0.30198 0.48956 0.31113 0.18746 0.04804 0.34318 0.20818 0.53306 0.2448 0.1372 0.02759 0.36586 0.17843 0.5353 0.24707 0.09827 0.03889 0.12813 0.18074 0.15572 0.334 0.02646 0.15099 0.04573 0.30656 0.04573 0.40035 0 0.19446-0.0023 0.39577 0.04346 0.57878 0.048 0.18988 0.10054 0.26309 0.04573 0.48956-0.02646 0.1098-0.0412 0.19215-0.04573 0.26767-0.0038 0.07548 0.0076 0.14185 0.0892 0.2219 0.14627 0.14642 0.5582 0.06864 0.73436 0.2448 0.17613 0.17616 0.31106 0.29511 0.51243 0.53532 0.1028 0.12355-0.0076 0.34772 0.13493 0.48956 0.09827 0.09838 0.42323 0.11667 0.53303 0.08924 0.07786-0.01814 0.11679-0.45982 0.13493-0.53303 0.02268-0.09381 0.16025-0.14185 0.31106-0.15787 0.15118-0.01361 0.32504 0.0091 0.40036 0.04577 0.13493 0.06633 0.14854 0.27681 0.11225 0.42322-0.02646 0.1098-0.0038 0.183 0.04346 0.2448 0.05027 0.06176 0.12132 0.11667 0.20145 0.15556 0.14627 0.07321 0.34318 0.04804 0.4461 0.02306 0.16252-0.0412 0.23546-0.27224 0.31106-0.42322 0.05027-0.10295 0.07332-0.17843 0.0892-0.24476 0.01512-0.06633 0.02646-0.12582 0.13266-0.17843 0.15118-0.07548 0.21959-0.19215 0.17839-0.35686-0.04573-0.18074-0.096-0.34772-0.17839-0.51244-0.11-0.22-0.341-0.3-0.533-0.444-0.149-0.112-0.133-0.151-0.178-0.336-0.031-0.124-0.245-0.22-0.38-0.289-0.124-0.061-0.206-0.281-0.355-0.357-0.219-0.109-0.428-0.141-0.624-0.288-0.202-0.151-0.378-0.206-0.579-0.357-0.197-0.148-0.369-0.325-0.535-0.489-0.165-0.165-0.325-0.238-0.446-0.357-0.147-0.149-0.378-0.233-0.533-0.314-0.202-0.1-0.316-0.219-0.49-0.288-0.21279-0.08462-0.36359-0.10753-0.5582-0.15557-0.06614-0.01814-0.14173-0.07778-0.19918-0.1121-0.02646-0.0068-0.048-0.0023-0.06879 0zm-19.464 10.581c-0.05934 0.05949-0.16932 0.0068-0.24491 0.04346-0.08013 0.0412-0.11679 0.19446-0.13493 0.26767-0.03024 0.11898-0.0189 0.23104-0.04346 0.35686-0.02646 0.14185 0.01512 0.36832 0.04346 0.48957 0.02646 0.09608-0.12813 0.21506-0.17613 0.31113-0.05027 0.10065-0.11452 0.18074-0.17839 0.26767-0.07786 0.10295-0.06652 0.32485-0.0892 0.4461-0.03024 0.14411-0.03779 0.25395-0.06614 0.37976-0.02646 0.09381-0.02268 0.18758-0.02268 0.28823 0 0.07778 0.18293 0.12582 0.24491 0.15556 0.06614 0.03439 0.10054-0.04577 0.13266-0.1327 0.03024-0.08924 0.05934-0.19215 0.11225-0.24476 0.10734-0.10753 0.16252-0.15556 0.31106-0.15556 0.09827 0 0.20145-0.02306 0.31332-0.02306 0.06161 0 0.18746 0.03889 0.24491 0.06633 0.10734 0.05492 0.17159 0.10522 0.24491 0.17843 0.08466 0.08693 0.05934 0.18758 0.19918 0.2219 0.11452 0.02986 0.1852 0.08923 0.31332 0.08923h0.66822c0.13493 0 0.13266-0.08466 0.13266-0.2219 0-0.11898 0.0189-0.2036 0.04573-0.31113 0.02646-0.1121-0.02646-0.18531-0.04573-0.26767-0.02268-0.09838-0.18293-0.20591-0.24491-0.26767-0.1372-0.13954-0.29064-0.11437-0.33411-0.29053-0.0189-0.08005 0.02268-0.2013 0.02268-0.28826 0-0.08466 0.0189-0.17159 0.0189-0.26767 0-0.11437-0.07106-0.16471-0.10961-0.24476-0.05027-0.09838-0.14173-0.08924-0.24491-0.08924-0.09827 0-0.23811-0.02532-0.33411-0.04577-0.10961-0.02041-0.17159-0.01361-0.24491-0.08923-0.08239-0.08009-0.15798-0.06864-0.15798-0.19903 0-0.06864-0.04573-0.14411-0.06614-0.2242-0.02268-0.0915-0.0412-0.12582-0.10961-0.17616-0.04346-0.03213-0.15572-0.02305-0.20145-0.02305zm33.116 0.84644c-0.11452 0.01587-0.11679 0.43008-0.24491 0.55591-0.11679 0.11894-0.23811 0.14869-0.33411 0.24476-0.16479 0.16702-0.36359 0.32028-0.53533 0.49185-0.144 0.14411-0.16932 0.43466-0.24491 0.62225-0.05254 0.13497 0 0.43008 0 0.57878 0 0.18988-0.21732 0.48728-0.28838 0.668-0.04573 0.11437-0.08466 0.16702-0.15572 0.20134-0.07332 0.03439-0.16706 0.03666-0.29064 0.06633-0.19918 0.05034-0.36132 0.0915-0.5353 0.17843-0.12586 0.06406-0.22413 0.33857-0.28838 0.46898-0.06879 0.1327-0.03024 0.38662-0.06614 0.53303-0.05934 0.23792-0.04573 0.50787 0 0.73663 0.0378 0.18531 0.06614 0.3546 0.10961 0.53303 0.048 0.19446-0.03402 0.36605-0.06614 0.48956-0.04573 0.18758-0.11225 0.35686-0.15572 0.53532-0.04573 0.183 0.17839 0.36374 0.17839 0.5582 0 0.2036 0.05254 0.39119 0 0.59937-0.03402 0.13727 0.03024 0.3363 0.10961 0.53532 0.08239 0.19903 0.192 0.40721 0.22413 0.53532 0.0189 0.08693-0.46212 0.67486-0.51243 0.80069-0.06425 0.16241-0.15798 0.37519-0.26759 0.5582-0.10961 0.183 0.02268 0.3889 0.02268 0.57878 0 0.19672 0.04346 0.41407 0.04346 0.62454 0 0.25621 0.04573 0.52159 0.04573 0.77781 0 0.23104-0.23546 0.56048-0.29065 0.7801-0.05254 0.21048 0.0038 0.47584 0.0892 0.64513 0.06387 0.12813-0.05254 0.45296-0.0892 0.60166-0.06161 0.25164 0.06614 0.53303 0.06614 0.7801v0.1121c0 0.34314 0.2812 0.80298 0.35679 1.1804 0.0412 0.20591-0.07332 0.32028-0.11225 0.46669-0.0548 0.22647 0.06614 0.39806 0.11225 0.57878 0.07332 0.2951 0.01512 0.55133-0.11225 0.80298-0.06198 0.12582-0.06387 0.2242-0.04346 0.334 0.0189 0.1098 0.06614 0.2242 0.11225 0.334 0.08466 0.21275 0.0076 0.50329 0.06652 0.73435 0.048 0.19672-0.02268 0.5559-0.02268 0.7801 0 0.16241-0.06425 0.23792-0.11225 0.334-0.04573 0.09607-0.07105 0.20587-0.0189 0.40034 0.01134 0.04804 0.0076 0.1098 0.0189 0.15787 0.0412 0.16241 0.3843 0.51015 0.53529 0.62225 0.10545 0.08005 0.1372 0.16471 0.15572 0.2448 0.0189 0.08236 0.02268 0.16471 0.02268 0.29053 0 0.26767 0.03024 0.43008 0.20145 0.60166 0.1028 0.10522 0.30652 0.08923 0.42323 0.2448 0.09373 0.12582 0.0892 0.4827 0.0892 0.64512 0 0.19903 0.0038 0.3134 0.06652 0.42322 0.06161 0.1121 0.17386 0.21963 0.31106 0.35686 0.05934 0.05949 0.11906 0.09607 0.17839 0.15556 0.13946 0.13954 0.16479 0.38891 0.31106 0.53532 0.1372 0.13497 0.34772 0.30656 0.53533 0.40034 0.11225 0.05718 0.22866 0.01814 0.33411-0.04346 0.10507-0.06176 0.192-0.14411 0.26759-0.20134 0.21959-0.16471 0.38204-0.32028 0.48956-0.53532 0.14627-0.29053 0.40263-0.60852 0.4667-0.93566 0.02646-0.12355 0.06161-0.20591 0.13493-0.26536 0.07332-0.06176 0.18746-0.10753 0.28838-0.15783 0.18066-0.08923 0.34998-0.28596 0.4461-0.44381 0.10545-0.17616 0.29518-0.29511 0.48956-0.2448 0.15118 0.03666 0.25625 0.14869 0.33411 0.26536 0.07786 0.11898 0.14854 0.23792 0.17839 0.35686 0.048 0.18988-0.144 0.42322-0.22186 0.57878-0.13039 0.26079-0.07106 0.45754-0.24491 0.69088-0.15798 0.21048-0.23546 0.51701-0.33411 0.71376-0.13266 0.26536-0.10054 0.67029-0.15798 0.95625-0.02646 0.12813-0.11452 0.37976-0.17613 0.53532-0.07332 0.18074-0.15798 0.52388-0.15798 0.71376 0 0.24937-0.26079 0.45525-0.37758 0.68859-0.13946 0.27908-0.24265 0.56277-0.35679 0.84644-0.08693 0.21732-0.192 0.44609-0.31106 0.64741-0.10772 0.17843-0.19691 0.36374-0.24491 0.55591-0.04573 0.17843-0.16252 0.32485-0.24491 0.48956-0.08013 0.15783-0.09373 0.32028-0.17839 0.49185-0.16025 0.31797-0.51473 0.86932-0.78009 1.1347-0.22866 0.22877-0.52619 0.54218-0.64513 0.7801-0.07786 0.15556-0.12813 0.27681-0.20145 0.42322-0.10772 0.21275-0.24945 0.45525-0.37758 0.71147-0.09146 0.18074-0.24718 0.26993-0.33411 0.4461-0.09146 0.183-0.13266 0.25852-0.15798 0.35686 5.0924-5.9686 8.1968-13.708 8.1968-22.163 0-4.3146-0.83271-8.4255-2.2946-12.228-0.14854 0.01134-0.41178 0.06633-0.57876 0.06633-0.10734 0-0.18746 0.08236-0.24491 0.17843-0.05707 0.09607-0.09146 0.21275-0.11225 0.29053-0.05253 0.21048-0.0412 0.45067 0.02268 0.668 0.06425 0.21732 0.17159 0.41407 0.29065 0.53303 0.0892 0.0915 0.144 0.17843 0.13266 0.24476-0.01134 0.06864-0.07786 0.1121-0.22186 0.1121-0.15572 0-0.24718-0.02532-0.31332-0.06633-0.06387-0.0412-0.09827-0.09838-0.17613-0.17843-0.1508-0.15099-0.28838-0.27681-0.49187-0.37975-0.17839-0.08693-0.32958-0.16471-0.48956-0.2448-0.11452-0.05718-0.21052-0.37746-0.26759-0.48956-0.08693-0.17386-0.15572-0.35002-0.15572-0.5559 0-0.14184-0.14173-0.3546-0.19918-0.46898-0.06879-0.13727-0.16479-0.28365-0.24491-0.44381-0.09146-0.18074-0.17386-0.30198-0.33411-0.42322-0.0189-0.01587-0.03024-0.02532-0.04573-0.02305zm-42.225 18.553c-0.02646 0.01134-0.0548 0.03439-0.0892 0.06864-0.09827 0.09838-0.07559 0.07778-0.24491-0.02305 0.0378 0 0.4667 0.51473 0.5582 0.668 0.04346 0.0709 0.16479 0.09381 0.28838 0.08924 0.12359-0.0045 0.24264-0.02986 0.31106-0.04577 0.15798-0.02986 0.19918-0.12582 0.17839-0.2219-0.0189-0.09608-0.1028-0.20818-0.17839-0.2448-0.192-0.09608-0.32466-0.17159-0.53303-0.2219-0.17386-0.04346-0.21506-0.10065-0.29065-0.06864zm0.40263 1.4939c-0.13266 0.02306-0.33184 0.10753-0.40263 0.17843-0.0548 0.05492-0.0076 0.16014 0.04573 0.26536 0.05253 0.10753 0.13039 0.19672 0.15572 0.24707 0.06879 0.13497 0.47354 0.17616 0.62222 0.17616 0.12813 0 0.1852-0.05718 0.20145-0.1327 0.01512-0.07548-0.0023-0.16702-0.02268-0.2448-0.03402-0.13954-0.20598-0.27451-0.28838-0.35686-0.08466-0.08466-0.0076-0.01814-0.20145-0.1327-0.02646-0.0068-0.06614-0.0091-0.10998 0zm-1.805 1.201c-0.25398 0-0.49414 0.0091-0.73432 0.20134-0.29291 0.23562-0.64743 0.66114-0.84646 0.73435 0.04346 0.1098 0.07786 0.20587 0.15572 0.2448 0.07559 0.04116 0.192 0.03889 0.31106-0.02041 0.19465-0.09838 0.32504-0.13954 0.48956-0.2242 0.17386-0.08466 0.30425-0.15557 0.49187-0.15557 0.23811 0 0.39575 0.08236 0.59936 0.13497 0.15572 0.03889 0.27213 0.0915 0.4461 0.17843 0.18066 0.08923 0.34545 0.16702 0.48956 0.31113 0.14173 0.13954 0.40037 0.21044 0.53533 0.31113 0.13946 0.10522 0.39575 0.21732 0.53529 0.35686 0.0892 0.08924 0.2812 0.28596 0.42323 0.35686 0.14854 0.07321 0.27666 0.05949 0.40033 0.02041 0.12359-0.03666 0.25172-0.08693 0.42323-0.08693 0.12586 0 0.33638 0.01134 0.53303 0.02041 0.19691 0.01134 0.37077 0.0091 0.4461-0.06633 0.048-0.04804 0.11225-0.1121 0.13266-0.17843 0.02268-0.06633 0-0.12352-0.13266-0.15557-0.18746-0.04804-0.35452-0.10522-0.55589-0.15556-0.2812-0.0709-0.192-0.19676-0.42323-0.31113-0.26306-0.1327-0.34091-0.16928-0.6474-0.24707-0.19918-0.04804-0.50332-0.08005-0.66803-0.24476-0.14627-0.14642-0.22639-0.41407-0.37758-0.48957-0.26532-0.1327-0.46896-0.3157-0.7801-0.37746-0.30879-0.06176-0.68859-0.15787-1.002-0.15787-0.09146 0-0.16025 0.0023-0.24491 0zm5.9457 2.0269c-0.05027-0.0045-0.10507 0.01134-0.15572 0.02305-0.20598 0.05261-0.74808 0.0045-0.78009 0.06633-0.03402 0.05949-0.08013 0.11667-0.10998 0.17843-0.07332 0.14411-0.05934 0.18988-0.02268 0.2242 0.03779 0.03213 0.10734 0.03889 0.17839 0.1098 0.02646 0.02759 0.0892 0.11437 0.11225 0.20134 0.0189 0.08693 0 0.17843-0.0892 0.2219-0.0189 0.01134-0.45524 0.22878-0.4461 0.2448 0.05934 0.11894 0.11906 0.15783 0.37757 0.15783 0.21732 0 0.36586 0.02759 0.5582 0.06633 0.12813 0.02532 0.41178 0.09607 0.53303 0.06633 0.29064-0.07321 0.50786-0.14869 0.6909-0.334 0.15572-0.15557 0.15798-0.08462 0.4461-0.15557 0.09827-0.02532 0.21732-0.02041 0.28838-0.04573 0.07106-0.02305 0.11225-0.07321 0.11225-0.19903 0-0.13497-0.15345-0.3134-0.33411-0.3134-0.15798 0-0.36586 0.0068-0.51243-0.06633-0.20145-0.10065-0.20372-0.27224-0.4461-0.334-0.11225-0.02759-0.24718-0.09608-0.40037-0.1121zm2.5393 0.7801c-0.07106-0.01587-0.10734 0.08466-0.11225 0.2013-0.0023 0.11667 0.03402 0.2425 0.04573 0.28826 0.02646 0.10522 0.38891 0.15783 0.51243 0.15783 0.12359 0 0.22186 0.0023 0.26759-0.02305 0.04346-0.02532 0.03024-0.0709-0.02268-0.17843-0.07559-0.15099-0.11906-0.32712-0.26759-0.40034-0.12132-0.06176-0.29065-0.04577-0.42323-0.04577zm2.004 0.15556c-0.0378 0.02759-0.05707 0.12582-0.04346 0.2242 0.01134 0.09608 0.06161 0.183 0.22186 0.2219 0.15798 0.03889 0.38891 0.02532 0.48956 0 0.08239-0.02041 0.05027-0.08693-0.0189-0.17843-0.07332-0.08923-0.16932-0.18531-0.24718-0.2219-0.0892-0.04573-0.26532-0.04573-0.37757-0.04573-0.0076-0.0045-0.01134-0.0068-0.02268 0zm-7.2817 0.2242c-0.03024 0.0023-0.08239 0.02306-0.11225 0.02306-0.03024-0.02532-0.34318-0.0068-0.48956 0.06633-0.1028 0.05034-0.16932 0.10065-0.20145 0.15557-0.03024 0.05492-0.03024 0.1327 0.02268 0.2448 0.05707 0.11667 0.06614 0.19215 0.0892 0.2448 0.02268 0.05261 0.06879 0.07778 0.20145 0.1121 0.21279 0.05261 0.4049 0.11898 0.59936 0.02306 0.15118-0.07778 0.22413-0.29511 0.22413-0.46898 0-0.21506-0.05934-0.33173-0.24491-0.37746-0.03024-0.0091-0.05934-0.02532-0.0892-0.02305zm8.2173 0.80069c-0.11452 0.02532-0.09373 0.19672 0.02268 0.3134 0.13946 0.13727 0.28384 0.0915 0.37758 0.04346 0.1028-0.05034 0.06387-0.13727-0.0189-0.2013-0.08693-0.06406-0.21732-0.1098-0.22413-0.1098-0.06614-0.03439-0.11679-0.05261-0.15572-0.04573zm0.6909 0.98141c-0.05934 0.04573-0.24491 0.19672-0.24491 0.28823 0 0.08693 0.0892 0.08693 0.19918 0.06633 0.10961-0.01814 0.22866-0.05718 0.24491-0.06633 0.10507-0.05034-0.08239-0.21275-0.17613-0.28823-0.0038 0-0.0189-0.0045-0.02268 0zm0.13266 0.80069c0.0038 0.0068 0.0189 0.03889 0.02268 0.04577 0.01512-0.01361 0.02646-0.04346 0.02268-0.04577-0.0023 0-0.02646-0.0091-0.04573 0zm0.02268 0.04577c-0.07786 0.06633-0.32466 0.23335-0.35679 0.3546-0.02646 0.10522 0.43465-0.01587 0.4461-0.02041 0.1028-0.05261-0.0189-0.22647-0.0892-0.334zm0.93566 0.24476c-0.01134 0.10522-0.12132 0.39348-0.02268 0.46669 0.14627 0.1098 0.21279 0.07778 0.24491 0.02305 0.03402-0.05719 0.03024-0.14185 0-0.2013-0.0548-0.1098-0.11906-0.18531-0.22186-0.28826z" fill-opacity=".52157" fill="#3b566d"/></g><g id="g908" stroke-width=".16510" transform="matrix(1.21 0 0 1.21 -3.2333 -9.9918)"><path id="path3236" fill="#474f70" d="m38.571 28.745c0-3.3268-2.6968-6.0237-6.0236-6.0237h-0.0015c-0.64441 0-1.2649 0.10103-1.8468 0.28861h-0.000167c-2.4231 0.77978-4.1763 3.0526-4.1763 5.7351v12.128l0.43275-0.22783v1.3266h10.68v-1.8191l0.93581 0.44215z"/><path id="path3238" d="m32.545 37.97c-0.72116 0-1.4387 0.05862-2.1463 0.17403-1.3317 0.22026-2.6267 0.64183-3.8393 1.2568l-0.03742 0.01704-0.48983 0.24924c-0.20538 0.1046-0.3721 0.26196-0.48771 0.45116-0.11683 0.18804-0.18044 0.40926-0.18044 0.64024 0 0.31268 0.02495 0.61787 0.07109 0.91738 1.0553 0.8194 2.2596 1.4512 3.56 1.8691l3.5514 6.6988 3.5514-6.6988c1.3008-0.41792 2.5047-1.0497 3.56-1.8691 0.04615-0.29934 0.07068-0.60466 0.07068-0.91738h0.0022c0-0.46065-0.25943-0.88337-0.67031-1.0914l-0.48771-0.24924-0.03742-0.01705c-0.92774-0.47138-1.9033-0.82953-2.909-1.0699-0.25901-0.06182-0.52102-0.11541-0.78418-0.16114-0.75604-0.13308-1.5225-0.19981-2.2945-0.19981z" fill="#074073"/><path id="path3240" fill="#eab689" d="m34.84 36.085v2.255c0 1.2266-0.99443 2.221-2.221 2.221s-2.221-0.99442-2.221-2.221v-2.255z"/><path id="path3242" fill="#fecd9c" d="m34.395 29.791c-1.777-0.11574-3.0713-0.84682-3.91-1.5305-0.000166 0.00099-0.000665 0.004-0.0017 0.0087v0.000162c-0.02494 0.14231-0.38872 1.8589-2.4248 2.2505v2.4812c0 2.7312 2.0091 4.9452 4.4875 4.9452s4.4875-2.214 4.4875-4.9452v-1.586c-0.349-0.837-1.09-1.523-2.639-1.624z"/><path id="path3244" fill="#eab689" d="m30.329 33.002v-4.2499c-0.24571 0.57852-0.85095 1.4957-2.2711 1.7688v2.4812c0 2.7312 2.0091 4.9452 4.4875 4.9452 0.39247 0 0.77288-0.05596 1.1356-0.16015-1.9283-0.55425-3.352-2.4863-3.352-4.7851z"/></g><g id="g901" transform="matrix(1.21 0 0 1.21 -14.624 -14.089)"><path id="path3252" stroke-width=".16510" fill="#474f70" d="m71.655 54.886-0.61015 0.07733-0.85079 0.10955c-0.26067 0.03326-0.51906 0.077-0.77558 0.13104-0.86696 0.18027-1.7088 0.47387-2.5008 0.87657l-1.8197 0.92383c-0.20704 0.10439-0.37542 0.26313-0.49196 0.45332-0.11766 0.1902-0.18251 0.41238-0.18251 0.64453 0 0.39164 0.03742 0.77233 0.10976 1.143 1.0955 0.89195 2.3679 1.5712 3.7512 1.9959l3.2613 6.1467 3.2592-6.1424c1.4943-0.45806 2.8586-1.2167 4.0111-2.215 0.04656-0.30262 0.07068-0.61245 0.07068-0.92812 0-0.46328-0.26026-0.88881-0.67247-1.0979l-1.8219-0.92383c-0.79217-0.40253-1.6328-0.69609-2.5008-0.87657-0.25652-0.05401-0.5149-0.09824-0.77558-0.13104l-0.85079-0.10747-0.0042-0.0022-0.16339-0.02162z"/><path id="path3254" stroke-width=".16510" fill="#eab689" d="m73.891 52.872v2.4019c0 1.2348-1.0012 2.236-2.236 2.236s-2.236-1.0012-2.236-2.236v-2.4019z"/><path id="path3256" stroke-width=".16510" fill="#fecd9c" d="m76.634 44.998-9.9573-0.53015v5.5541c0 2.7496 2.2291 4.9787 4.9788 4.9787 2.7496 0 4.9787-2.2291 4.9787-4.9787z"/><path id="path3258" stroke-width=".16510" fill="#eab689" d="m69.599 50.022v-5.3986l-2.9228-0.15553v5.5541c0 2.7496 2.229 4.9787 4.9787 4.9787 0.5085 0 0.99921-0.07679 1.4613-0.21843-2.0364-0.62442-3.5172-2.5193-3.5172-4.7603z"/><path id="path3260" stroke-width=".16510" fill="#474f70" d="m77.24 44.812v2.5081c0 0.20388-0.08232 0.38848-0.21577 0.52206-0.1372 0.13753-0.32886 0.22076-0.53889 0.21594-0.40369-0.0091-0.72153-0.34935-0.72153-0.75304v-0.37925c0-0.30034-0.12181-0.57192-0.31846-0.76889-0.19665-0.19682-0.46855-0.3185-0.76893-0.3185-0.46859 0-0.92442 0.15736-1.2896 0.45107-0.4735 0.38091-1.0755 0.60923-1.7309 0.60923-0.6553 0-1.2573-0.22816-1.7308-0.60923-0.06278-0.05051-0.12805-0.09658-0.19582-0.13886-0.000665-0.000657-0.0017-0.0012-0.0026-0.0017-0.12888-0.08024-0.26566-0.14547-0.40785-0.19515-0.21868-0.07596-0.44959-0.11541-0.68403-0.11541-0.60017 0-1.0869 0.48738-1.0869 1.0879v0.39392c0 0.20376-0.08232 0.38848-0.21619 0.52206-0.13346 0.13358-0.31805 0.21594-0.5221 0.21594-0.40785 0-0.738-0.33035-0.738-0.73834v-2.5081c0-2.196 1.78-3.9764 3.976-3.9764h3.2162c2.196 0.000162 3.9762 1.7806 3.9762 3.9765z"/><path id="path3262" stroke-width=".16510" fill="#323b5b" d="m67.854 44.812c0-2.196 1.78-3.9764 3.9762-3.9764h-1.7826c-2.1961 0-3.976 1.7802-3.976 3.9764v2.5081c0 0.40797 0.33052 0.73835 0.738 0.73835 0.20372 0 0.38831-0.0824 0.52205-0.21594 0.13387-0.13358 0.21619-0.31834 0.21619-0.5219v-0.39392c0-0.29373 0.11683-0.56003 0.30641-0.75585v-1.359h-0.000167z"/><g id="g3268" fill="#474f70" transform="matrix(.16510 0 0 .16510 5.7038 4.7077)"><path id="path3264" d="m438.43 266.94h-4.18v-27.923c0-16.48-13.407-29.887-29.887-29.887h-9.81c-16.48 0-29.888 13.407-29.888 29.887v27.923h-4.18v-27.923c0-18.785 15.283-34.067 34.068-34.067h9.81c18.785 0 34.067 15.282 34.067 34.067z"/><path id="path3266" d="m426.84 292.03h-13.845v-4.18h13.845c2.667 0 4.835-2.169 4.835-4.835v-6.31h4.18v6.31c-0.001 4.972-4.045 9.015-9.015 9.015z"/></g><g id="g3276" fill-opacity=".99216" fill="#58a9f4" transform="matrix(.16510 0 0 .16510 5.7038 4.7077)"><path id="path3270" d="m433.97 252.33c-2.406 0-4.357 1.951-4.357 4.357v20.513c0 2.406 1.951 4.357 4.357 4.357 4.891 0 8.858-3.965 8.858-8.858v-11.513c0-4.89-3.966-8.856-8.858-8.856z"/><path id="path3272" d="m364.94 252.33c2.406 0 4.357 1.951 4.357 4.357v20.513c0 2.406-1.951 4.357-4.357 4.357-4.891 0-8.858-3.965-8.858-8.858v-11.513c0.002-4.89 3.967-8.856 8.858-8.856z"/><circle id="circle3274" cy="290.47" cx="410.91" r="4.702"/></g></g></svg>
